G04 #@! TF.GenerationSoftware,KiCad,Pcbnew,7.0.9*
G04 #@! TF.CreationDate,2023-11-15T19:01:28+02:00*
G04 #@! TF.ProjectId,Power,506f7765-722e-46b6-9963-61645f706362,rev?*
G04 #@! TF.SameCoordinates,Original*
G04 #@! TF.FileFunction,Soldermask,Bot*
G04 #@! TF.FilePolarity,Negative*
%FSLAX46Y46*%
G04 Gerber Fmt 4.6, Leading zero omitted, Abs format (unit mm)*
G04 Created by KiCad (PCBNEW 7.0.9) date 2023-11-15 19:01:28*
%MOMM*%
%LPD*%
G01*
G04 APERTURE LIST*
G04 Aperture macros list*
%AMRoundRect*
0 Rectangle with rounded corners*
0 $1 Rounding radius*
0 $2 $3 $4 $5 $6 $7 $8 $9 X,Y pos of 4 corners*
0 Add a 4 corners polygon primitive as box body*
4,1,4,$2,$3,$4,$5,$6,$7,$8,$9,$2,$3,0*
0 Add four circle primitives for the rounded corners*
1,1,$1+$1,$2,$3*
1,1,$1+$1,$4,$5*
1,1,$1+$1,$6,$7*
1,1,$1+$1,$8,$9*
0 Add four rect primitives between the rounded corners*
20,1,$1+$1,$2,$3,$4,$5,0*
20,1,$1+$1,$4,$5,$6,$7,0*
20,1,$1+$1,$6,$7,$8,$9,0*
20,1,$1+$1,$8,$9,$2,$3,0*%
G04 Aperture macros list end*
%ADD10RoundRect,0.300000X-0.600000X0.300000X-0.600000X-0.300000X0.600000X-0.300000X0.600000X0.300000X0*%
%ADD11O,1.800000X1.200000*%
%ADD12C,3.500000*%
%ADD13O,1.050000X1.900000*%
%ADD14R,1.700000X1.700000*%
%ADD15O,1.700000X1.700000*%
G04 APERTURE END LIST*
D10*
X122760000Y-92320000D03*
D11*
X122760000Y-94320000D03*
D12*
X121980000Y-68820000D03*
D13*
X138425000Y-116980000D03*
X145575000Y-116980000D03*
D12*
X121980000Y-117820000D03*
X179980000Y-117820000D03*
X179980000Y-68820000D03*
D14*
X126855000Y-70095000D03*
D15*
X126855000Y-67555000D03*
X129395000Y-70095000D03*
X129395000Y-67555000D03*
X131935000Y-70095000D03*
X131935000Y-67555000D03*
X134475000Y-70095000D03*
X134475000Y-67555000D03*
X137015000Y-70095000D03*
X137015000Y-67555000D03*
X139555000Y-70095000D03*
X139555000Y-67555000D03*
X142095000Y-70095000D03*
X142095000Y-67555000D03*
X144635000Y-70095000D03*
X144635000Y-67555000D03*
X147175000Y-70095000D03*
X147175000Y-67555000D03*
X149715000Y-70095000D03*
X149715000Y-67555000D03*
X152255000Y-70095000D03*
X152255000Y-67555000D03*
X154795000Y-70095000D03*
X154795000Y-67555000D03*
X157335000Y-70095000D03*
X157335000Y-67555000D03*
X159875000Y-70095000D03*
X159875000Y-67555000D03*
X162415000Y-70095000D03*
X162415000Y-67555000D03*
X164955000Y-70095000D03*
X164955000Y-67555000D03*
X167495000Y-70095000D03*
X167495000Y-67555000D03*
X170035000Y-70095000D03*
X170035000Y-67555000D03*
X172575000Y-70095000D03*
X172575000Y-67555000D03*
X175115000Y-70095000D03*
X175115000Y-67555000D03*
M02*
