G04 #@! TF.GenerationSoftware,KiCad,Pcbnew,7.0.9*
G04 #@! TF.CreationDate,2023-11-15T19:01:28+02:00*
G04 #@! TF.ProjectId,Power,506f7765-722e-46b6-9963-61645f706362,rev?*
G04 #@! TF.SameCoordinates,Original*
G04 #@! TF.FileFunction,Soldermask,Top*
G04 #@! TF.FilePolarity,Negative*
%FSLAX46Y46*%
G04 Gerber Fmt 4.6, Leading zero omitted, Abs format (unit mm)*
G04 Created by KiCad (PCBNEW 7.0.9) date 2023-11-15 19:01:28*
%MOMM*%
%LPD*%
G01*
G04 APERTURE LIST*
G04 Aperture macros list*
%AMRoundRect*
0 Rectangle with rounded corners*
0 $1 Rounding radius*
0 $2 $3 $4 $5 $6 $7 $8 $9 X,Y pos of 4 corners*
0 Add a 4 corners polygon primitive as box body*
4,1,4,$2,$3,$4,$5,$6,$7,$8,$9,$2,$3,0*
0 Add four circle primitives for the rounded corners*
1,1,$1+$1,$2,$3*
1,1,$1+$1,$4,$5*
1,1,$1+$1,$6,$7*
1,1,$1+$1,$8,$9*
0 Add four rect primitives between the rounded corners*
20,1,$1+$1,$2,$3,$4,$5,0*
20,1,$1+$1,$4,$5,$6,$7,0*
20,1,$1+$1,$6,$7,$8,$9,0*
20,1,$1+$1,$8,$9,$2,$3,0*%
G04 Aperture macros list end*
%ADD10RoundRect,0.150000X0.587500X0.150000X-0.587500X0.150000X-0.587500X-0.150000X0.587500X-0.150000X0*%
%ADD11RoundRect,0.200000X-0.275000X0.200000X-0.275000X-0.200000X0.275000X-0.200000X0.275000X0.200000X0*%
%ADD12RoundRect,0.300000X-0.600000X0.300000X-0.600000X-0.300000X0.600000X-0.300000X0.600000X0.300000X0*%
%ADD13O,1.800000X1.200000*%
%ADD14C,3.500000*%
%ADD15RoundRect,0.225000X-0.375000X0.225000X-0.375000X-0.225000X0.375000X-0.225000X0.375000X0.225000X0*%
%ADD16R,2.000000X1.500000*%
%ADD17R,2.000000X3.800000*%
%ADD18R,0.400000X1.400000*%
%ADD19O,1.050000X1.900000*%
%ADD20R,1.150000X1.450000*%
%ADD21R,1.750000X1.900000*%
%ADD22RoundRect,0.150000X-0.150000X0.587500X-0.150000X-0.587500X0.150000X-0.587500X0.150000X0.587500X0*%
%ADD23RoundRect,0.250000X0.450000X0.425000X-0.450000X0.425000X-0.450000X-0.425000X0.450000X-0.425000X0*%
%ADD24RoundRect,0.250000X0.425000X-0.450000X0.425000X0.450000X-0.425000X0.450000X-0.425000X-0.450000X0*%
%ADD25RoundRect,0.200000X0.200000X0.275000X-0.200000X0.275000X-0.200000X-0.275000X0.200000X-0.275000X0*%
%ADD26R,1.700000X1.700000*%
%ADD27O,1.700000X1.700000*%
G04 APERTURE END LIST*
D10*
X128785000Y-93950000D03*
X128785000Y-92050000D03*
X126910000Y-93000000D03*
D11*
X141830000Y-110555000D03*
X141830000Y-112205000D03*
D12*
X122760000Y-92320000D03*
D13*
X122760000Y-94320000D03*
D11*
X148635000Y-102310000D03*
X148635000Y-103960000D03*
D14*
X121980000Y-68820000D03*
D15*
X146595000Y-102297500D03*
X146595000Y-105597500D03*
D11*
X143460000Y-110545000D03*
X143460000Y-112195000D03*
D16*
X137700000Y-87540000D03*
X137700000Y-89840000D03*
D17*
X144000000Y-89840000D03*
D16*
X137700000Y-92140000D03*
D18*
X140700000Y-114330000D03*
X141350000Y-114330000D03*
X142000000Y-114330000D03*
X142650000Y-114330000D03*
X143300000Y-114330000D03*
D19*
X138425000Y-116980000D03*
D20*
X139680000Y-114750000D03*
D21*
X140875000Y-116980000D03*
X143125000Y-116980000D03*
D20*
X144320000Y-114750000D03*
D19*
X145575000Y-116980000D03*
D14*
X121980000Y-117820000D03*
X179980000Y-117820000D03*
D22*
X144495000Y-102595000D03*
X142595000Y-102595000D03*
X143545000Y-104470000D03*
D23*
X139350000Y-99840000D03*
X136650000Y-99840000D03*
D24*
X135000000Y-92080000D03*
X135000000Y-89380000D03*
D25*
X151870000Y-102305000D03*
X150220000Y-102305000D03*
D14*
X179980000Y-68820000D03*
D26*
X126855000Y-70095000D03*
D27*
X126855000Y-67555000D03*
X129395000Y-70095000D03*
X129395000Y-67555000D03*
X131935000Y-70095000D03*
X131935000Y-67555000D03*
X134475000Y-70095000D03*
X134475000Y-67555000D03*
X137015000Y-70095000D03*
X137015000Y-67555000D03*
X139555000Y-70095000D03*
X139555000Y-67555000D03*
X142095000Y-70095000D03*
X142095000Y-67555000D03*
X144635000Y-70095000D03*
X144635000Y-67555000D03*
X147175000Y-70095000D03*
X147175000Y-67555000D03*
X149715000Y-70095000D03*
X149715000Y-67555000D03*
X152255000Y-70095000D03*
X152255000Y-67555000D03*
X154795000Y-70095000D03*
X154795000Y-67555000D03*
X157335000Y-70095000D03*
X157335000Y-67555000D03*
X159875000Y-70095000D03*
X159875000Y-67555000D03*
X162415000Y-70095000D03*
X162415000Y-67555000D03*
X164955000Y-70095000D03*
X164955000Y-67555000D03*
X167495000Y-70095000D03*
X167495000Y-67555000D03*
X170035000Y-70095000D03*
X170035000Y-67555000D03*
X172575000Y-70095000D03*
X172575000Y-67555000D03*
X175115000Y-70095000D03*
X175115000Y-67555000D03*
M02*
