M48
; DRILL file {KiCad 7.0.9} date Wed Nov 15 19:01:30 2023
; FORMAT={-:-/ absolute / metric / decimal}
; #@! TF.CreationDate,2023-11-15T19:01:30+02:00
; #@! TF.GenerationSoftware,Kicad,Pcbnew,7.0.9
; #@! TF.FileFunction,Plated,1,2,PTH
FMAT,2
METRIC
; #@! TA.AperFunction,Plated,PTH,ViaDrill
T1C0.400
; #@! TA.AperFunction,Plated,PTH,ComponentDrill
T2C0.450
; #@! TA.AperFunction,Plated,PTH,ComponentDrill
T3C0.800
; #@! TA.AperFunction,Plated,PTH,ComponentDrill
T4C1.000
%
G90
G05
T1
X122.77Y-97.42
X125.035Y-70.77
X125.035Y-76.27
X125.035Y-81.77
X125.035Y-87.27
X125.035Y-98.27
X125.035Y-103.77
X125.035Y-109.27
X125.035Y-114.77
X128.8Y-95.4
X130.535Y-76.27
X130.535Y-81.77
X130.535Y-87.27
X130.535Y-98.27
X130.535Y-103.77
X130.535Y-109.27
X130.535Y-114.77
X134.89Y-99.84
X135.0Y-87.8
X136.035Y-76.27
X136.035Y-81.77
X136.035Y-103.77
X136.035Y-109.27
X136.24Y-119.24
X136.26Y-116.97
X136.27Y-114.76
X136.62Y-98.1
X136.65Y-101.53
X137.7Y-85.38
X140.0Y-82.84
X140.0Y-94.84
X140.0Y-96.84
X141.535Y-76.27
X141.535Y-103.77
X141.83Y-108.98
X142.0Y-80.84
X142.0Y-84.84
X143.46Y-108.95
X143.545Y-106.025
X144.0Y-82.84
X144.0Y-98.84
X144.795Y-106.035
X146.0Y-80.84
X146.0Y-84.84
X146.0Y-88.84
X146.0Y-92.84
X146.0Y-96.84
X147.035Y-76.27
X147.035Y-103.77
X147.035Y-109.27
X147.51Y-119.16
X147.52Y-116.96
X147.53Y-114.75
X148.0Y-82.84
X148.0Y-86.84
X148.0Y-90.84
X148.0Y-94.84
X148.0Y-98.84
X148.62Y-106.38
X150.0Y-80.84
X150.0Y-84.84
X150.0Y-88.84
X150.0Y-92.84
X150.0Y-96.84
X152.0Y-82.84
X152.0Y-86.84
X152.0Y-90.84
X152.0Y-94.84
X152.0Y-98.84
X152.535Y-76.27
X152.535Y-103.77
X152.535Y-109.27
X152.535Y-114.77
X154.0Y-80.84
X154.0Y-84.84
X154.0Y-88.84
X154.0Y-92.84
X154.0Y-96.84
X156.0Y-82.84
X156.0Y-86.84
X156.0Y-90.84
X156.0Y-94.84
X156.0Y-98.84
X158.0Y-80.84
X158.0Y-84.84
X158.0Y-88.84
X158.0Y-92.84
X158.0Y-96.84
X158.035Y-76.27
X158.035Y-103.77
X158.035Y-109.27
X158.035Y-114.77
X161.54Y-102.32
X163.535Y-76.27
X163.535Y-81.77
X163.535Y-87.27
X163.535Y-92.77
X163.535Y-98.27
X169.035Y-76.27
X169.035Y-81.77
X169.035Y-87.27
X169.035Y-92.77
X169.035Y-98.27
X169.035Y-103.77
X169.035Y-109.27
X169.035Y-114.77
X174.535Y-76.27
X174.535Y-81.77
X174.535Y-87.27
X174.535Y-92.77
X174.535Y-98.27
X174.535Y-103.77
X174.535Y-109.27
X174.535Y-114.77
X180.035Y-76.27
X180.035Y-81.77
X180.035Y-87.27
X180.035Y-92.77
X180.035Y-98.27
X180.035Y-103.77
X180.035Y-109.27
X180.035Y-114.77
T3
X122.76Y-92.32
X122.76Y-94.32
T4
X126.855Y-67.555
X126.855Y-70.095
X129.395Y-67.555
X129.395Y-70.095
X131.935Y-67.555
X131.935Y-70.095
X134.475Y-67.555
X134.475Y-70.095
X137.015Y-67.555
X137.015Y-70.095
X139.555Y-67.555
X139.555Y-70.095
X142.095Y-67.555
X142.095Y-70.095
X144.635Y-67.555
X144.635Y-70.095
X147.175Y-67.555
X147.175Y-70.095
X149.715Y-67.555
X149.715Y-70.095
X152.255Y-67.555
X152.255Y-70.095
X154.795Y-67.555
X154.795Y-70.095
X157.335Y-67.555
X157.335Y-70.095
X159.875Y-67.555
X159.875Y-70.095
X162.415Y-67.555
X162.415Y-70.095
X164.955Y-67.555
X164.955Y-70.095
X167.495Y-67.555
X167.495Y-70.095
X170.035Y-67.555
X170.035Y-70.095
X172.575Y-67.555
X172.575Y-70.095
X175.115Y-67.555
X175.115Y-70.095
T2
X138.425Y-117.38G85X138.425Y-116.58
G05
X145.575Y-116.58G85X145.575Y-117.38
G05
T0
M30
