G04 #@! TF.GenerationSoftware,KiCad,Pcbnew,7.0.9*
G04 #@! TF.CreationDate,2023-11-15T19:01:28+02:00*
G04 #@! TF.ProjectId,Power,506f7765-722e-46b6-9963-61645f706362,rev?*
G04 #@! TF.SameCoordinates,Original*
G04 #@! TF.FileFunction,Copper,L2,Bot*
G04 #@! TF.FilePolarity,Positive*
%FSLAX46Y46*%
G04 Gerber Fmt 4.6, Leading zero omitted, Abs format (unit mm)*
G04 Created by KiCad (PCBNEW 7.0.9) date 2023-11-15 19:01:28*
%MOMM*%
%LPD*%
G01*
G04 APERTURE LIST*
G04 Aperture macros list*
%AMRoundRect*
0 Rectangle with rounded corners*
0 $1 Rounding radius*
0 $2 $3 $4 $5 $6 $7 $8 $9 X,Y pos of 4 corners*
0 Add a 4 corners polygon primitive as box body*
4,1,4,$2,$3,$4,$5,$6,$7,$8,$9,$2,$3,0*
0 Add four circle primitives for the rounded corners*
1,1,$1+$1,$2,$3*
1,1,$1+$1,$4,$5*
1,1,$1+$1,$6,$7*
1,1,$1+$1,$8,$9*
0 Add four rect primitives between the rounded corners*
20,1,$1+$1,$2,$3,$4,$5,0*
20,1,$1+$1,$4,$5,$6,$7,0*
20,1,$1+$1,$6,$7,$8,$9,0*
20,1,$1+$1,$8,$9,$2,$3,0*%
G04 Aperture macros list end*
G04 #@! TA.AperFunction,ComponentPad*
%ADD10RoundRect,0.300000X-0.600000X0.300000X-0.600000X-0.300000X0.600000X-0.300000X0.600000X0.300000X0*%
G04 #@! TD*
G04 #@! TA.AperFunction,ComponentPad*
%ADD11O,1.800000X1.200000*%
G04 #@! TD*
G04 #@! TA.AperFunction,WasherPad*
%ADD12C,3.500000*%
G04 #@! TD*
G04 #@! TA.AperFunction,ComponentPad*
%ADD13O,1.050000X1.900000*%
G04 #@! TD*
G04 #@! TA.AperFunction,ComponentPad*
%ADD14R,1.700000X1.700000*%
G04 #@! TD*
G04 #@! TA.AperFunction,ComponentPad*
%ADD15O,1.700000X1.700000*%
G04 #@! TD*
G04 #@! TA.AperFunction,ViaPad*
%ADD16C,0.800000*%
G04 #@! TD*
G04 #@! TA.AperFunction,Conductor*
%ADD17C,0.500000*%
G04 #@! TD*
G04 APERTURE END LIST*
D10*
X122760000Y-92320000D03*
D11*
X122760000Y-94320000D03*
D12*
X121980000Y-68820000D03*
D13*
X138425000Y-116980000D03*
X145575000Y-116980000D03*
D12*
X121980000Y-117820000D03*
X179980000Y-117820000D03*
X179980000Y-68820000D03*
D14*
X126855000Y-70095000D03*
D15*
X126855000Y-67555000D03*
X129395000Y-70095000D03*
X129395000Y-67555000D03*
X131935000Y-70095000D03*
X131935000Y-67555000D03*
X134475000Y-70095000D03*
X134475000Y-67555000D03*
X137015000Y-70095000D03*
X137015000Y-67555000D03*
X139555000Y-70095000D03*
X139555000Y-67555000D03*
X142095000Y-70095000D03*
X142095000Y-67555000D03*
X144635000Y-70095000D03*
X144635000Y-67555000D03*
X147175000Y-70095000D03*
X147175000Y-67555000D03*
X149715000Y-70095000D03*
X149715000Y-67555000D03*
X152255000Y-70095000D03*
X152255000Y-67555000D03*
X154795000Y-70095000D03*
X154795000Y-67555000D03*
X157335000Y-70095000D03*
X157335000Y-67555000D03*
X159875000Y-70095000D03*
X159875000Y-67555000D03*
X162415000Y-70095000D03*
X162415000Y-67555000D03*
X164955000Y-70095000D03*
X164955000Y-67555000D03*
X167495000Y-70095000D03*
X167495000Y-67555000D03*
X170035000Y-70095000D03*
X170035000Y-67555000D03*
X172575000Y-70095000D03*
X172575000Y-67555000D03*
X175115000Y-70095000D03*
X175115000Y-67555000D03*
D16*
X180035000Y-98270000D03*
X147035000Y-76270000D03*
X125035000Y-70770000D03*
X136270000Y-114760000D03*
X141535000Y-76270000D03*
X130535000Y-114770000D03*
X174535000Y-92770000D03*
X136035000Y-109270000D03*
X169035000Y-81770000D03*
X134890000Y-99840000D03*
X180035000Y-103770000D03*
X163535000Y-92770000D03*
X128800000Y-95400000D03*
X130535000Y-81770000D03*
X130535000Y-98270000D03*
X163535000Y-76270000D03*
X174535000Y-98270000D03*
X147520000Y-116960000D03*
X125035000Y-98270000D03*
X135000000Y-87800000D03*
X158035000Y-76270000D03*
X136260000Y-116970000D03*
X174535000Y-81770000D03*
X158035000Y-103770000D03*
X180035000Y-81770000D03*
X152535000Y-114770000D03*
X144795000Y-106035000D03*
X130535000Y-109270000D03*
X141830000Y-108980000D03*
X180035000Y-92770000D03*
X147035000Y-103770000D03*
X158035000Y-109270000D03*
X125035000Y-109270000D03*
X130535000Y-76270000D03*
X143545000Y-106025000D03*
X180035000Y-87270000D03*
X136035000Y-76270000D03*
X147510000Y-119160000D03*
X180035000Y-109270000D03*
X169035000Y-114770000D03*
X136240000Y-119240000D03*
X143460000Y-108950000D03*
X180035000Y-114770000D03*
X174535000Y-103770000D03*
X137700000Y-85380000D03*
X163535000Y-87270000D03*
X148620000Y-106380000D03*
X163535000Y-81770000D03*
X169035000Y-98270000D03*
X125035000Y-81770000D03*
X122770000Y-97420000D03*
X136035000Y-103770000D03*
X147530000Y-114750000D03*
X169035000Y-103770000D03*
X169035000Y-109270000D03*
X136650000Y-101530000D03*
X174535000Y-109270000D03*
X136620000Y-98100000D03*
X169035000Y-87270000D03*
X169035000Y-92770000D03*
X174535000Y-87270000D03*
X136035000Y-81770000D03*
X130535000Y-103770000D03*
X152535000Y-109270000D03*
X152535000Y-76270000D03*
X147035000Y-109270000D03*
X125035000Y-76270000D03*
X125035000Y-87270000D03*
X163535000Y-98270000D03*
X174535000Y-76270000D03*
X125035000Y-114770000D03*
X180035000Y-76270000D03*
X141535000Y-103770000D03*
X130535000Y-87270000D03*
X152535000Y-103770000D03*
X174535000Y-114770000D03*
X169035000Y-76270000D03*
X125035000Y-103770000D03*
X158035000Y-114770000D03*
X148000000Y-90840000D03*
X140000000Y-94840000D03*
X154000000Y-92840000D03*
X154000000Y-84840000D03*
X158000000Y-88840000D03*
X142000000Y-80840000D03*
X158000000Y-96840000D03*
X146000000Y-88840000D03*
X156000000Y-86840000D03*
X154000000Y-96840000D03*
X154000000Y-88840000D03*
X150000000Y-92840000D03*
X152000000Y-94840000D03*
X150000000Y-84840000D03*
X146000000Y-84840000D03*
X146000000Y-80840000D03*
X146000000Y-96840000D03*
X142000000Y-84840000D03*
X152000000Y-86840000D03*
X140000000Y-82840000D03*
X140000000Y-96840000D03*
X150000000Y-96840000D03*
X152000000Y-82840000D03*
X148000000Y-94840000D03*
X152000000Y-98840000D03*
X150000000Y-80840000D03*
X156000000Y-94840000D03*
X144000000Y-82840000D03*
X150000000Y-88840000D03*
X154000000Y-80840000D03*
X152000000Y-90840000D03*
X144000000Y-98840000D03*
X156000000Y-98840000D03*
X148000000Y-98840000D03*
X146000000Y-92840000D03*
X158000000Y-80840000D03*
X148000000Y-86840000D03*
X156000000Y-90840000D03*
X158000000Y-84840000D03*
X158000000Y-92840000D03*
X148000000Y-82840000D03*
X156000000Y-82840000D03*
X161540000Y-102320000D03*
D17*
X161540000Y-102320000D02*
X161540000Y-74750000D01*
X162415000Y-73875000D02*
X162415000Y-70240000D01*
X161540000Y-74750000D02*
X162415000Y-73875000D01*
G04 #@! TA.AperFunction,Conductor*
G36*
X126603660Y-66280043D02*
G01*
X126670619Y-66299992D01*
X126716165Y-66352977D01*
X126725835Y-66422174D01*
X126696559Y-66485614D01*
X126639164Y-66522702D01*
X126451046Y-66579767D01*
X126343726Y-66637132D01*
X126268550Y-66677315D01*
X126268548Y-66677316D01*
X126268547Y-66677317D01*
X126108589Y-66808589D01*
X125977317Y-66968547D01*
X125879769Y-67151043D01*
X125819699Y-67349067D01*
X125799417Y-67555000D01*
X125819699Y-67760932D01*
X125820886Y-67764844D01*
X125879768Y-67958954D01*
X125977315Y-68141450D01*
X126011969Y-68183677D01*
X126108589Y-68301410D01*
X126131851Y-68320500D01*
X126268550Y-68432685D01*
X126451046Y-68530232D01*
X126649066Y-68590300D01*
X126649065Y-68590300D01*
X126667529Y-68592118D01*
X126855000Y-68610583D01*
X127060934Y-68590300D01*
X127258954Y-68530232D01*
X127441450Y-68432685D01*
X127601410Y-68301410D01*
X127732685Y-68141450D01*
X127830232Y-67958954D01*
X127890300Y-67760934D01*
X127910583Y-67555000D01*
X127890300Y-67349066D01*
X127830232Y-67151046D01*
X127732685Y-66968550D01*
X127680702Y-66905209D01*
X127601410Y-66808589D01*
X127483677Y-66711969D01*
X127441450Y-66677315D01*
X127258954Y-66579768D01*
X127077483Y-66524720D01*
X127019046Y-66486423D01*
X126990590Y-66422611D01*
X127001150Y-66353544D01*
X127047374Y-66301151D01*
X127113970Y-66282061D01*
X129110985Y-66289955D01*
X129177946Y-66309904D01*
X129223492Y-66362889D01*
X129233162Y-66432086D01*
X129203886Y-66495527D01*
X129146490Y-66532615D01*
X129067125Y-66556690D01*
X128991050Y-66579767D01*
X128991043Y-66579769D01*
X128908124Y-66624091D01*
X128808550Y-66677315D01*
X128808548Y-66677316D01*
X128808547Y-66677317D01*
X128648589Y-66808589D01*
X128517317Y-66968547D01*
X128419769Y-67151043D01*
X128359699Y-67349067D01*
X128339417Y-67555000D01*
X128359699Y-67760932D01*
X128360886Y-67764844D01*
X128419768Y-67958954D01*
X128517315Y-68141450D01*
X128551969Y-68183677D01*
X128648589Y-68301410D01*
X128671851Y-68320500D01*
X128808550Y-68432685D01*
X128991046Y-68530232D01*
X129189066Y-68590300D01*
X129189065Y-68590300D01*
X129207529Y-68592118D01*
X129395000Y-68610583D01*
X129600934Y-68590300D01*
X129798954Y-68530232D01*
X129981450Y-68432685D01*
X130141410Y-68301410D01*
X130272685Y-68141450D01*
X130370232Y-67958954D01*
X130430300Y-67760934D01*
X130450583Y-67555000D01*
X130430300Y-67349066D01*
X130370232Y-67151046D01*
X130272685Y-66968550D01*
X130220702Y-66905209D01*
X130141410Y-66808589D01*
X130023677Y-66711969D01*
X129981450Y-66677315D01*
X129798954Y-66579768D01*
X129651019Y-66534893D01*
X129592582Y-66496596D01*
X129564126Y-66432784D01*
X129574686Y-66363717D01*
X129620910Y-66311324D01*
X129687506Y-66292234D01*
X131344021Y-66298782D01*
X131410982Y-66318731D01*
X131456528Y-66371716D01*
X131466198Y-66440913D01*
X131436922Y-66504354D01*
X131408808Y-66528208D01*
X131239002Y-66633346D01*
X131239000Y-66633348D01*
X131081500Y-66776928D01*
X130953059Y-66947010D01*
X130858066Y-67137783D01*
X130858058Y-67137803D01*
X130799738Y-67342781D01*
X130793972Y-67404999D01*
X130793973Y-67405000D01*
X131457935Y-67405000D01*
X131435000Y-67483111D01*
X131435000Y-67626889D01*
X131457935Y-67705000D01*
X130793973Y-67705000D01*
X130799738Y-67767218D01*
X130858058Y-67972196D01*
X130858066Y-67972216D01*
X130953059Y-68162989D01*
X131081500Y-68333071D01*
X131239000Y-68476651D01*
X131239002Y-68476653D01*
X131420201Y-68588846D01*
X131420207Y-68588849D01*
X131618936Y-68665836D01*
X131785000Y-68696879D01*
X131785000Y-68036170D01*
X131792685Y-68039680D01*
X131899237Y-68055000D01*
X131970763Y-68055000D01*
X132077315Y-68039680D01*
X132085000Y-68036170D01*
X132085000Y-68696879D01*
X132251063Y-68665836D01*
X132449792Y-68588849D01*
X132449798Y-68588846D01*
X132630997Y-68476653D01*
X132630999Y-68476651D01*
X132788499Y-68333071D01*
X132916940Y-68162989D01*
X133011933Y-67972216D01*
X133011941Y-67972196D01*
X133070261Y-67767218D01*
X133076027Y-67705000D01*
X132412065Y-67705000D01*
X132435000Y-67626889D01*
X132435000Y-67483111D01*
X132412065Y-67405000D01*
X133076027Y-67405000D01*
X133076027Y-67404999D01*
X133070261Y-67342781D01*
X133011941Y-67137803D01*
X133011933Y-67137783D01*
X132916940Y-66947010D01*
X132788499Y-66776928D01*
X132630999Y-66633348D01*
X132630997Y-66633346D01*
X132468791Y-66532914D01*
X132422155Y-66480887D01*
X132411051Y-66411905D01*
X132439004Y-66347871D01*
X132497139Y-66309114D01*
X132534557Y-66303488D01*
X134125640Y-66309777D01*
X134192600Y-66329726D01*
X134238146Y-66382711D01*
X134247816Y-66451908D01*
X134218540Y-66515349D01*
X134161145Y-66552436D01*
X134071046Y-66579767D01*
X133963726Y-66637132D01*
X133888550Y-66677315D01*
X133888548Y-66677316D01*
X133888547Y-66677317D01*
X133728589Y-66808589D01*
X133597317Y-66968547D01*
X133499769Y-67151043D01*
X133439699Y-67349067D01*
X133419417Y-67555000D01*
X133439699Y-67760932D01*
X133440886Y-67764844D01*
X133499768Y-67958954D01*
X133597315Y-68141450D01*
X133631969Y-68183677D01*
X133728589Y-68301410D01*
X133751851Y-68320500D01*
X133888550Y-68432685D01*
X134071046Y-68530232D01*
X134269066Y-68590300D01*
X134269065Y-68590300D01*
X134287529Y-68592118D01*
X134475000Y-68610583D01*
X134680934Y-68590300D01*
X134878954Y-68530232D01*
X135061450Y-68432685D01*
X135221410Y-68301410D01*
X135352685Y-68141450D01*
X135450232Y-67958954D01*
X135510300Y-67760934D01*
X135530583Y-67555000D01*
X135510300Y-67349066D01*
X135450232Y-67151046D01*
X135352685Y-66968550D01*
X135300702Y-66905209D01*
X135221410Y-66808589D01*
X135103677Y-66711969D01*
X135061450Y-66677315D01*
X134937856Y-66611252D01*
X134878953Y-66579767D01*
X134798092Y-66555238D01*
X134739654Y-66516941D01*
X134711197Y-66453128D01*
X134721758Y-66384061D01*
X134767983Y-66331668D01*
X134834575Y-66312579D01*
X136632968Y-66319688D01*
X136699927Y-66339637D01*
X136745473Y-66392622D01*
X136755143Y-66461819D01*
X136725867Y-66525260D01*
X136668473Y-66562347D01*
X136611045Y-66579768D01*
X136528124Y-66624091D01*
X136428550Y-66677315D01*
X136428548Y-66677316D01*
X136428547Y-66677317D01*
X136268589Y-66808589D01*
X136137317Y-66968547D01*
X136039769Y-67151043D01*
X135979699Y-67349067D01*
X135959417Y-67555000D01*
X135979699Y-67760932D01*
X135980886Y-67764844D01*
X136039768Y-67958954D01*
X136137315Y-68141450D01*
X136171969Y-68183677D01*
X136268589Y-68301410D01*
X136291851Y-68320500D01*
X136428550Y-68432685D01*
X136611046Y-68530232D01*
X136809066Y-68590300D01*
X136809065Y-68590300D01*
X136827529Y-68592118D01*
X137015000Y-68610583D01*
X137220934Y-68590300D01*
X137418954Y-68530232D01*
X137601450Y-68432685D01*
X137761410Y-68301410D01*
X137892685Y-68141450D01*
X137990232Y-67958954D01*
X138050300Y-67760934D01*
X138070583Y-67555000D01*
X138050300Y-67349066D01*
X137990232Y-67151046D01*
X137892685Y-66968550D01*
X137840702Y-66905209D01*
X137761410Y-66808589D01*
X137643677Y-66711969D01*
X137601450Y-66677315D01*
X137418954Y-66579768D01*
X137413304Y-66578054D01*
X137371627Y-66565411D01*
X137313189Y-66527113D01*
X137284733Y-66463301D01*
X137295294Y-66394234D01*
X137341519Y-66341841D01*
X137408111Y-66322752D01*
X139140296Y-66329599D01*
X139207254Y-66349548D01*
X139252800Y-66402533D01*
X139262470Y-66471730D01*
X139233194Y-66535171D01*
X139175802Y-66572257D01*
X139151048Y-66579766D01*
X139050804Y-66633349D01*
X138968550Y-66677315D01*
X138968548Y-66677316D01*
X138968547Y-66677317D01*
X138808589Y-66808589D01*
X138677317Y-66968547D01*
X138579769Y-67151043D01*
X138519699Y-67349067D01*
X138499417Y-67555000D01*
X138519699Y-67760932D01*
X138520886Y-67764844D01*
X138579768Y-67958954D01*
X138677315Y-68141450D01*
X138711969Y-68183677D01*
X138808589Y-68301410D01*
X138831851Y-68320500D01*
X138968550Y-68432685D01*
X139151046Y-68530232D01*
X139349066Y-68590300D01*
X139349065Y-68590300D01*
X139367529Y-68592118D01*
X139555000Y-68610583D01*
X139760934Y-68590300D01*
X139958954Y-68530232D01*
X140141450Y-68432685D01*
X140301410Y-68301410D01*
X140432685Y-68141450D01*
X140530232Y-67958954D01*
X140590300Y-67760934D01*
X140610583Y-67555000D01*
X140590300Y-67349066D01*
X140530232Y-67151046D01*
X140432685Y-66968550D01*
X140380702Y-66905209D01*
X140301410Y-66808589D01*
X140183677Y-66711969D01*
X140141450Y-66677315D01*
X139958954Y-66579768D01*
X139945160Y-66575583D01*
X139886724Y-66537284D01*
X139858269Y-66473471D01*
X139868831Y-66404405D01*
X139915057Y-66352012D01*
X139981647Y-66332925D01*
X141439571Y-66338688D01*
X141506530Y-66358637D01*
X141552076Y-66411622D01*
X141561746Y-66480819D01*
X141532470Y-66544260D01*
X141504357Y-66568114D01*
X141398999Y-66633349D01*
X141241500Y-66776928D01*
X141113059Y-66947010D01*
X141018066Y-67137783D01*
X141018058Y-67137803D01*
X140959738Y-67342781D01*
X140953972Y-67404999D01*
X140953973Y-67405000D01*
X141617935Y-67405000D01*
X141595000Y-67483111D01*
X141595000Y-67626889D01*
X141617935Y-67705000D01*
X140953973Y-67705000D01*
X140959738Y-67767218D01*
X141018058Y-67972196D01*
X141018066Y-67972216D01*
X141113059Y-68162989D01*
X141241500Y-68333071D01*
X141399000Y-68476651D01*
X141399002Y-68476653D01*
X141580201Y-68588846D01*
X141580207Y-68588849D01*
X141778936Y-68665836D01*
X141945000Y-68696879D01*
X141945000Y-68036170D01*
X141952685Y-68039680D01*
X142059237Y-68055000D01*
X142130763Y-68055000D01*
X142237315Y-68039680D01*
X142245000Y-68036170D01*
X142245000Y-68696879D01*
X142411063Y-68665836D01*
X142609792Y-68588849D01*
X142609798Y-68588846D01*
X142790997Y-68476653D01*
X142790999Y-68476651D01*
X142948499Y-68333071D01*
X143076940Y-68162989D01*
X143171933Y-67972216D01*
X143171941Y-67972196D01*
X143230261Y-67767218D01*
X143236027Y-67705000D01*
X142572065Y-67705000D01*
X142595000Y-67626889D01*
X142595000Y-67483111D01*
X142572065Y-67405000D01*
X143236027Y-67405000D01*
X143236027Y-67404999D01*
X143230261Y-67342781D01*
X143171941Y-67137803D01*
X143171933Y-67137783D01*
X143076940Y-66947010D01*
X142948499Y-66776928D01*
X142790999Y-66633348D01*
X142790997Y-66633346D01*
X142694072Y-66573333D01*
X142647436Y-66521305D01*
X142636332Y-66452323D01*
X142664285Y-66388289D01*
X142722420Y-66349533D01*
X142759834Y-66343907D01*
X144167357Y-66349471D01*
X144234317Y-66369420D01*
X144279863Y-66422405D01*
X144289533Y-66491602D01*
X144260257Y-66555043D01*
X144225320Y-66582828D01*
X144148124Y-66624091D01*
X144048550Y-66677315D01*
X144048548Y-66677316D01*
X144048547Y-66677317D01*
X143888589Y-66808589D01*
X143757317Y-66968547D01*
X143659769Y-67151043D01*
X143599699Y-67349067D01*
X143579417Y-67555000D01*
X143599699Y-67760932D01*
X143600886Y-67764844D01*
X143659768Y-67958954D01*
X143757315Y-68141450D01*
X143791969Y-68183677D01*
X143888589Y-68301410D01*
X143911851Y-68320500D01*
X144048550Y-68432685D01*
X144231046Y-68530232D01*
X144429066Y-68590300D01*
X144429065Y-68590300D01*
X144447529Y-68592118D01*
X144635000Y-68610583D01*
X144840934Y-68590300D01*
X145038954Y-68530232D01*
X145221450Y-68432685D01*
X145381410Y-68301410D01*
X145512685Y-68141450D01*
X145610232Y-67958954D01*
X145670300Y-67760934D01*
X145690583Y-67555000D01*
X145670300Y-67349066D01*
X145610232Y-67151046D01*
X145512685Y-66968550D01*
X145460702Y-66905209D01*
X145381410Y-66808589D01*
X145263677Y-66711969D01*
X145221450Y-66677315D01*
X145097856Y-66611252D01*
X145051654Y-66586556D01*
X145001810Y-66537593D01*
X144986350Y-66469455D01*
X145010182Y-66403776D01*
X145065740Y-66361407D01*
X145110592Y-66353199D01*
X146688713Y-66359438D01*
X146755671Y-66379386D01*
X146801217Y-66432371D01*
X146810887Y-66501568D01*
X146781611Y-66565009D01*
X146746675Y-66592794D01*
X146670804Y-66633349D01*
X146588550Y-66677315D01*
X146588548Y-66677315D01*
X146588545Y-66677318D01*
X146428589Y-66808589D01*
X146297317Y-66968547D01*
X146199769Y-67151043D01*
X146139699Y-67349067D01*
X146119417Y-67555000D01*
X146139699Y-67760932D01*
X146140886Y-67764844D01*
X146199768Y-67958954D01*
X146297315Y-68141450D01*
X146331969Y-68183677D01*
X146428589Y-68301410D01*
X146451851Y-68320500D01*
X146588550Y-68432685D01*
X146771046Y-68530232D01*
X146969066Y-68590300D01*
X146969065Y-68590300D01*
X146987529Y-68592118D01*
X147175000Y-68610583D01*
X147380934Y-68590300D01*
X147578954Y-68530232D01*
X147761450Y-68432685D01*
X147921410Y-68301410D01*
X148052685Y-68141450D01*
X148150232Y-67958954D01*
X148210300Y-67760934D01*
X148230583Y-67555000D01*
X148210300Y-67349066D01*
X148150232Y-67151046D01*
X148052685Y-66968550D01*
X148000702Y-66905209D01*
X147921410Y-66808589D01*
X147803677Y-66711969D01*
X147761450Y-66677315D01*
X147610576Y-66596670D01*
X147560734Y-66547709D01*
X147545274Y-66479572D01*
X147569106Y-66413892D01*
X147624664Y-66371523D01*
X147669521Y-66363315D01*
X149011232Y-66368618D01*
X149078191Y-66388567D01*
X149123737Y-66441552D01*
X149133407Y-66510749D01*
X149104131Y-66574189D01*
X149076018Y-66598043D01*
X149019005Y-66633344D01*
X149019000Y-66633348D01*
X148861500Y-66776928D01*
X148733059Y-66947010D01*
X148638066Y-67137783D01*
X148638058Y-67137803D01*
X148579738Y-67342781D01*
X148573972Y-67404999D01*
X148573973Y-67405000D01*
X149237935Y-67405000D01*
X149215000Y-67483111D01*
X149215000Y-67626889D01*
X149237935Y-67705000D01*
X148573973Y-67705000D01*
X148579738Y-67767218D01*
X148638058Y-67972196D01*
X148638066Y-67972216D01*
X148733059Y-68162989D01*
X148861500Y-68333071D01*
X149019000Y-68476651D01*
X149019002Y-68476653D01*
X149200201Y-68588846D01*
X149200207Y-68588849D01*
X149398936Y-68665836D01*
X149565000Y-68696879D01*
X149565000Y-68036170D01*
X149572685Y-68039680D01*
X149679237Y-68055000D01*
X149750763Y-68055000D01*
X149857315Y-68039680D01*
X149865000Y-68036170D01*
X149865000Y-68696879D01*
X150031063Y-68665836D01*
X150229792Y-68588849D01*
X150229798Y-68588846D01*
X150410997Y-68476653D01*
X150410999Y-68476651D01*
X150568499Y-68333071D01*
X150696940Y-68162989D01*
X150791933Y-67972216D01*
X150791941Y-67972196D01*
X150850261Y-67767218D01*
X150856027Y-67705000D01*
X150192065Y-67705000D01*
X150215000Y-67626889D01*
X150215000Y-67483111D01*
X150192065Y-67405000D01*
X150856027Y-67405000D01*
X150856027Y-67404999D01*
X150850261Y-67342781D01*
X150791941Y-67137803D01*
X150791933Y-67137783D01*
X150696940Y-66947010D01*
X150568499Y-66776928D01*
X150410999Y-66633348D01*
X150410997Y-66633346D01*
X150363032Y-66603648D01*
X150316396Y-66551621D01*
X150305292Y-66482639D01*
X150333245Y-66418605D01*
X150391380Y-66379848D01*
X150428796Y-66374222D01*
X151731419Y-66379371D01*
X151798379Y-66399320D01*
X151843925Y-66452305D01*
X151853595Y-66521502D01*
X151824319Y-66584943D01*
X151789382Y-66612728D01*
X151750804Y-66633349D01*
X151668550Y-66677315D01*
X151668548Y-66677316D01*
X151668547Y-66677317D01*
X151508589Y-66808589D01*
X151377317Y-66968547D01*
X151279769Y-67151043D01*
X151219699Y-67349067D01*
X151199417Y-67555000D01*
X151219699Y-67760932D01*
X151220886Y-67764844D01*
X151279768Y-67958954D01*
X151377315Y-68141450D01*
X151411969Y-68183677D01*
X151508589Y-68301410D01*
X151531851Y-68320500D01*
X151668550Y-68432685D01*
X151851046Y-68530232D01*
X152049066Y-68590300D01*
X152049065Y-68590300D01*
X152067529Y-68592118D01*
X152255000Y-68610583D01*
X152460934Y-68590300D01*
X152658954Y-68530232D01*
X152841450Y-68432685D01*
X153001410Y-68301410D01*
X153132685Y-68141450D01*
X153230232Y-67958954D01*
X153290300Y-67760934D01*
X153310583Y-67555000D01*
X153290300Y-67349066D01*
X153230232Y-67151046D01*
X153132685Y-66968550D01*
X153080702Y-66905209D01*
X153001410Y-66808589D01*
X152883677Y-66711969D01*
X152841450Y-66677315D01*
X152728425Y-66616901D01*
X152678582Y-66567939D01*
X152663122Y-66499801D01*
X152686954Y-66434122D01*
X152742512Y-66391753D01*
X152787367Y-66383545D01*
X153173025Y-66385070D01*
X154252775Y-66389338D01*
X154319733Y-66409286D01*
X154365279Y-66462271D01*
X154374949Y-66531468D01*
X154345673Y-66594908D01*
X154310737Y-66622693D01*
X154208548Y-66677315D01*
X154048589Y-66808589D01*
X153917317Y-66968547D01*
X153819769Y-67151043D01*
X153759699Y-67349067D01*
X153739417Y-67555000D01*
X153759699Y-67760932D01*
X153760886Y-67764844D01*
X153819768Y-67958954D01*
X153917315Y-68141450D01*
X153951969Y-68183677D01*
X154048589Y-68301410D01*
X154071851Y-68320500D01*
X154208550Y-68432685D01*
X154391046Y-68530232D01*
X154589066Y-68590300D01*
X154589065Y-68590300D01*
X154607529Y-68592118D01*
X154795000Y-68610583D01*
X155000934Y-68590300D01*
X155198954Y-68530232D01*
X155381450Y-68432685D01*
X155541410Y-68301410D01*
X155672685Y-68141450D01*
X155770232Y-67958954D01*
X155830300Y-67760934D01*
X155850583Y-67555000D01*
X155830300Y-67349066D01*
X155770232Y-67151046D01*
X155672685Y-66968550D01*
X155620702Y-66905209D01*
X155541410Y-66808589D01*
X155423677Y-66711969D01*
X155381450Y-66677315D01*
X155287350Y-66627017D01*
X155237506Y-66578054D01*
X155222046Y-66509916D01*
X155245878Y-66444237D01*
X155301436Y-66401868D01*
X155346289Y-66393660D01*
X156774128Y-66399304D01*
X156841087Y-66419253D01*
X156886633Y-66472238D01*
X156896303Y-66541435D01*
X156867027Y-66604876D01*
X156832091Y-66632660D01*
X156748548Y-66677315D01*
X156588589Y-66808589D01*
X156457317Y-66968547D01*
X156359769Y-67151043D01*
X156299699Y-67349067D01*
X156279417Y-67555000D01*
X156299699Y-67760932D01*
X156300886Y-67764844D01*
X156359768Y-67958954D01*
X156457315Y-68141450D01*
X156491969Y-68183677D01*
X156588589Y-68301410D01*
X156611851Y-68320500D01*
X156748550Y-68432685D01*
X156931046Y-68530232D01*
X157129066Y-68590300D01*
X157129065Y-68590300D01*
X157147529Y-68592118D01*
X157335000Y-68610583D01*
X157540934Y-68590300D01*
X157738954Y-68530232D01*
X157921450Y-68432685D01*
X158081410Y-68301410D01*
X158212685Y-68141450D01*
X158310232Y-67958954D01*
X158370300Y-67760934D01*
X158390583Y-67555000D01*
X158370300Y-67349066D01*
X158310232Y-67151046D01*
X158212685Y-66968550D01*
X158160702Y-66905209D01*
X158081410Y-66808589D01*
X157963677Y-66711969D01*
X157921450Y-66677315D01*
X157846274Y-66637132D01*
X157796430Y-66588169D01*
X157780970Y-66520031D01*
X157804802Y-66454351D01*
X157860361Y-66411983D01*
X157905212Y-66403775D01*
X159295481Y-66409271D01*
X159362441Y-66429220D01*
X159407987Y-66482205D01*
X159417657Y-66551402D01*
X159388381Y-66614843D01*
X159353443Y-66642628D01*
X159288550Y-66677315D01*
X159288548Y-66677316D01*
X159288547Y-66677317D01*
X159128589Y-66808589D01*
X158997317Y-66968547D01*
X158899769Y-67151043D01*
X158839699Y-67349067D01*
X158819417Y-67555000D01*
X158839699Y-67760932D01*
X158840886Y-67764844D01*
X158899768Y-67958954D01*
X158997315Y-68141450D01*
X159031969Y-68183677D01*
X159128589Y-68301410D01*
X159151851Y-68320500D01*
X159288550Y-68432685D01*
X159471046Y-68530232D01*
X159669066Y-68590300D01*
X159669065Y-68590300D01*
X159687529Y-68592118D01*
X159875000Y-68610583D01*
X160080934Y-68590300D01*
X160278954Y-68530232D01*
X160461450Y-68432685D01*
X160621410Y-68301410D01*
X160752685Y-68141450D01*
X160850232Y-67958954D01*
X160910300Y-67760934D01*
X160930583Y-67555000D01*
X160910300Y-67349066D01*
X160850232Y-67151046D01*
X160752685Y-66968550D01*
X160700702Y-66905209D01*
X160621410Y-66808589D01*
X160503677Y-66711969D01*
X160461450Y-66677315D01*
X160405196Y-66647246D01*
X160355353Y-66598284D01*
X160339893Y-66530146D01*
X160363725Y-66464467D01*
X160419283Y-66422098D01*
X160464134Y-66413891D01*
X161635069Y-66418519D01*
X161702028Y-66438468D01*
X161747574Y-66491453D01*
X161757244Y-66560650D01*
X161727968Y-66624091D01*
X161718116Y-66634155D01*
X161561498Y-66776931D01*
X161433059Y-66947010D01*
X161338066Y-67137783D01*
X161338058Y-67137803D01*
X161279738Y-67342781D01*
X161273972Y-67404999D01*
X161273973Y-67405000D01*
X161937935Y-67405000D01*
X161915000Y-67483111D01*
X161915000Y-67626889D01*
X161937935Y-67705000D01*
X161273973Y-67705000D01*
X161279738Y-67767218D01*
X161338058Y-67972196D01*
X161338066Y-67972216D01*
X161433059Y-68162989D01*
X161561500Y-68333071D01*
X161719000Y-68476651D01*
X161719002Y-68476653D01*
X161900201Y-68588846D01*
X161900207Y-68588849D01*
X162098936Y-68665836D01*
X162265000Y-68696879D01*
X162265000Y-68036170D01*
X162272685Y-68039680D01*
X162379237Y-68055000D01*
X162450763Y-68055000D01*
X162557315Y-68039680D01*
X162565000Y-68036170D01*
X162565000Y-68696879D01*
X162731063Y-68665836D01*
X162929792Y-68588849D01*
X162929798Y-68588846D01*
X163110997Y-68476653D01*
X163110999Y-68476651D01*
X163268499Y-68333071D01*
X163396940Y-68162989D01*
X163491933Y-67972216D01*
X163491941Y-67972196D01*
X163550261Y-67767218D01*
X163556027Y-67705000D01*
X162892065Y-67705000D01*
X162915000Y-67626889D01*
X162915000Y-67483111D01*
X162892065Y-67405000D01*
X163556027Y-67405000D01*
X163556027Y-67404999D01*
X163550261Y-67342781D01*
X163491941Y-67137803D01*
X163491933Y-67137783D01*
X163396940Y-66947010D01*
X163268501Y-66776931D01*
X163118681Y-66640351D01*
X163082400Y-66580639D01*
X163084161Y-66510792D01*
X163123405Y-66452984D01*
X163187672Y-66425570D01*
X163202685Y-66424716D01*
X164338191Y-66429204D01*
X164405149Y-66449153D01*
X164450695Y-66502138D01*
X164460365Y-66571335D01*
X164431089Y-66634776D01*
X164396154Y-66662560D01*
X164368547Y-66677316D01*
X164208589Y-66808589D01*
X164077317Y-66968547D01*
X163979769Y-67151043D01*
X163919699Y-67349067D01*
X163899417Y-67555000D01*
X163919699Y-67760932D01*
X163920886Y-67764844D01*
X163979768Y-67958954D01*
X164077315Y-68141450D01*
X164111969Y-68183677D01*
X164208589Y-68301410D01*
X164231851Y-68320500D01*
X164368550Y-68432685D01*
X164551046Y-68530232D01*
X164749066Y-68590300D01*
X164749065Y-68590300D01*
X164767529Y-68592118D01*
X164955000Y-68610583D01*
X165160934Y-68590300D01*
X165358954Y-68530232D01*
X165541450Y-68432685D01*
X165701410Y-68301410D01*
X165832685Y-68141450D01*
X165930232Y-67958954D01*
X165990300Y-67760934D01*
X166010583Y-67555000D01*
X165990300Y-67349066D01*
X165930232Y-67151046D01*
X165832685Y-66968550D01*
X165780702Y-66905209D01*
X165701410Y-66808589D01*
X165541451Y-66677315D01*
X165523046Y-66667478D01*
X165473202Y-66618516D01*
X165457741Y-66550378D01*
X165481572Y-66484699D01*
X165537130Y-66442330D01*
X165581985Y-66434121D01*
X166693136Y-66438513D01*
X166760095Y-66458462D01*
X166805641Y-66511447D01*
X166815311Y-66580644D01*
X166786035Y-66644085D01*
X166776183Y-66654149D01*
X166641498Y-66776931D01*
X166513059Y-66947010D01*
X166418066Y-67137783D01*
X166418058Y-67137803D01*
X166359738Y-67342781D01*
X166353972Y-67404999D01*
X166353973Y-67405000D01*
X167017935Y-67405000D01*
X166995000Y-67483111D01*
X166995000Y-67626889D01*
X167017935Y-67705000D01*
X166353973Y-67705000D01*
X166359738Y-67767218D01*
X166418058Y-67972196D01*
X166418066Y-67972216D01*
X166513059Y-68162989D01*
X166641500Y-68333071D01*
X166799000Y-68476651D01*
X166799002Y-68476653D01*
X166980201Y-68588846D01*
X166980207Y-68588849D01*
X167178936Y-68665836D01*
X167345000Y-68696879D01*
X167345000Y-68036170D01*
X167352685Y-68039680D01*
X167459237Y-68055000D01*
X167530763Y-68055000D01*
X167637315Y-68039680D01*
X167645000Y-68036170D01*
X167645000Y-68696879D01*
X167811063Y-68665836D01*
X168009792Y-68588849D01*
X168009798Y-68588846D01*
X168190997Y-68476653D01*
X168190999Y-68476651D01*
X168348499Y-68333071D01*
X168476940Y-68162989D01*
X168571933Y-67972216D01*
X168571941Y-67972196D01*
X168630261Y-67767218D01*
X168636027Y-67705000D01*
X167972065Y-67705000D01*
X167995000Y-67626889D01*
X167995000Y-67483111D01*
X167972065Y-67405000D01*
X168636027Y-67405000D01*
X168636027Y-67404999D01*
X168630261Y-67342781D01*
X168571941Y-67137803D01*
X168571933Y-67137783D01*
X168476940Y-66947010D01*
X168348499Y-66776929D01*
X168220805Y-66660520D01*
X168184523Y-66600809D01*
X168186284Y-66530961D01*
X168225527Y-66473154D01*
X168289794Y-66445739D01*
X168304820Y-66444884D01*
X169381756Y-66449141D01*
X169448715Y-66469090D01*
X169494261Y-66522075D01*
X169503931Y-66591272D01*
X169474655Y-66654713D01*
X169450157Y-66676240D01*
X169448555Y-66677309D01*
X169288589Y-66808589D01*
X169157317Y-66968547D01*
X169059769Y-67151043D01*
X168999699Y-67349067D01*
X168979417Y-67555000D01*
X168999699Y-67760932D01*
X169000886Y-67764844D01*
X169059768Y-67958954D01*
X169157315Y-68141450D01*
X169191969Y-68183677D01*
X169288589Y-68301410D01*
X169311851Y-68320500D01*
X169448550Y-68432685D01*
X169631046Y-68530232D01*
X169829066Y-68590300D01*
X169829065Y-68590300D01*
X169847529Y-68592118D01*
X170035000Y-68610583D01*
X170240934Y-68590300D01*
X170438954Y-68530232D01*
X170621450Y-68432685D01*
X170781410Y-68301410D01*
X170912685Y-68141450D01*
X171010232Y-67958954D01*
X171070300Y-67760934D01*
X171090583Y-67555000D01*
X171070300Y-67349066D01*
X171010232Y-67151046D01*
X170912685Y-66968550D01*
X170860702Y-66905209D01*
X170781410Y-66808589D01*
X170617645Y-66674192D01*
X170578310Y-66616446D01*
X170576439Y-66546601D01*
X170612626Y-66486833D01*
X170675382Y-66456117D01*
X170696787Y-66454339D01*
X171908347Y-66459129D01*
X171975305Y-66479077D01*
X172020851Y-66532062D01*
X172030521Y-66601259D01*
X172001245Y-66664700D01*
X171986519Y-66678980D01*
X171828590Y-66808589D01*
X171697317Y-66968547D01*
X171599769Y-67151043D01*
X171539699Y-67349067D01*
X171519417Y-67555000D01*
X171539699Y-67760932D01*
X171540886Y-67764844D01*
X171599768Y-67958954D01*
X171697315Y-68141450D01*
X171731969Y-68183677D01*
X171828589Y-68301410D01*
X171851851Y-68320500D01*
X171988550Y-68432685D01*
X172171046Y-68530232D01*
X172369066Y-68590300D01*
X172369065Y-68590300D01*
X172387529Y-68592118D01*
X172575000Y-68610583D01*
X172780934Y-68590300D01*
X172978954Y-68530232D01*
X173161450Y-68432685D01*
X173321410Y-68301410D01*
X173452685Y-68141450D01*
X173550232Y-67958954D01*
X173610300Y-67760934D01*
X173630583Y-67555000D01*
X173610300Y-67349066D01*
X173550232Y-67151046D01*
X173452685Y-66968550D01*
X173321410Y-66808590D01*
X173291743Y-66784243D01*
X173169938Y-66684280D01*
X173130604Y-66626535D01*
X173128733Y-66556690D01*
X173164920Y-66496922D01*
X173227676Y-66466206D01*
X173249081Y-66464428D01*
X174436169Y-66469121D01*
X174503129Y-66489070D01*
X174548675Y-66542055D01*
X174558345Y-66611252D01*
X174529069Y-66674693D01*
X174514343Y-66688973D01*
X174368590Y-66808589D01*
X174237317Y-66968547D01*
X174139769Y-67151043D01*
X174079699Y-67349067D01*
X174059417Y-67555000D01*
X174079699Y-67760932D01*
X174080886Y-67764844D01*
X174139768Y-67958954D01*
X174237315Y-68141450D01*
X174271969Y-68183677D01*
X174368589Y-68301410D01*
X174391851Y-68320500D01*
X174528550Y-68432685D01*
X174711046Y-68530232D01*
X174909066Y-68590300D01*
X174909065Y-68590300D01*
X174927529Y-68592118D01*
X175115000Y-68610583D01*
X175320934Y-68590300D01*
X175518954Y-68530232D01*
X175701450Y-68432685D01*
X175861410Y-68301410D01*
X175992685Y-68141450D01*
X176090232Y-67958954D01*
X176150300Y-67760934D01*
X176170583Y-67555000D01*
X176150300Y-67349066D01*
X176090232Y-67151046D01*
X175992685Y-66968550D01*
X175940702Y-66905209D01*
X175861410Y-66808589D01*
X175722232Y-66694370D01*
X175682897Y-66636624D01*
X175681026Y-66566779D01*
X175717213Y-66507011D01*
X175779969Y-66476295D01*
X175801374Y-66474517D01*
X176760920Y-66478311D01*
X177192815Y-66498830D01*
X177198169Y-66499318D01*
X177547543Y-66546601D01*
X177623982Y-66556946D01*
X177629293Y-66557901D01*
X178048481Y-66652327D01*
X178053657Y-66653732D01*
X178463051Y-66784243D01*
X178468110Y-66786101D01*
X178687137Y-66877583D01*
X178864604Y-66951706D01*
X178869479Y-66953995D01*
X178896737Y-66968280D01*
X178900292Y-66970143D01*
X178950535Y-67018697D01*
X178966551Y-67086706D01*
X178943257Y-67152578D01*
X178917044Y-67179242D01*
X178699439Y-67342138D01*
X178699421Y-67342154D01*
X178502154Y-67539421D01*
X178502138Y-67539439D01*
X178334945Y-67762784D01*
X178334940Y-67762792D01*
X178201233Y-68007657D01*
X178201231Y-68007661D01*
X178103727Y-68269083D01*
X178044422Y-68541700D01*
X178024518Y-68819998D01*
X178024518Y-68820001D01*
X178044422Y-69098299D01*
X178103727Y-69370916D01*
X178103729Y-69370923D01*
X178147027Y-69487010D01*
X178201231Y-69632338D01*
X178201233Y-69632342D01*
X178334940Y-69877207D01*
X178334945Y-69877215D01*
X178502138Y-70100560D01*
X178502154Y-70100578D01*
X178699421Y-70297845D01*
X178699439Y-70297861D01*
X178922784Y-70465054D01*
X178922792Y-70465059D01*
X179167657Y-70598766D01*
X179167661Y-70598768D01*
X179167663Y-70598769D01*
X179429077Y-70696271D01*
X179565391Y-70725924D01*
X179701700Y-70755577D01*
X179701702Y-70755577D01*
X179701706Y-70755578D01*
X179949014Y-70773265D01*
X179979999Y-70775482D01*
X179980000Y-70775482D01*
X179980001Y-70775482D01*
X180007881Y-70773487D01*
X180258294Y-70755578D01*
X180530923Y-70696271D01*
X180792337Y-70598769D01*
X181037213Y-70465056D01*
X181260568Y-70297855D01*
X181375384Y-70183038D01*
X181436705Y-70149555D01*
X181506397Y-70154539D01*
X181562331Y-70196410D01*
X181584138Y-70243942D01*
X181664941Y-70609271D01*
X181665876Y-70614587D01*
X181721846Y-71040614D01*
X181722316Y-71045991D01*
X181741155Y-71477951D01*
X181743946Y-114999679D01*
X181725063Y-115432768D01*
X181724592Y-115438159D01*
X181668388Y-115865274D01*
X181667449Y-115870604D01*
X181574232Y-116291186D01*
X181572831Y-116296413D01*
X181548468Y-116373700D01*
X181509539Y-116431719D01*
X181445421Y-116459482D01*
X181376473Y-116448173D01*
X181342524Y-116424100D01*
X181260578Y-116342154D01*
X181260560Y-116342138D01*
X181037215Y-116174945D01*
X181037207Y-116174940D01*
X180792342Y-116041233D01*
X180792338Y-116041231D01*
X180639701Y-115984301D01*
X180530923Y-115943729D01*
X180530919Y-115943728D01*
X180530916Y-115943727D01*
X180258299Y-115884422D01*
X179980001Y-115864518D01*
X179979999Y-115864518D01*
X179701700Y-115884422D01*
X179429083Y-115943727D01*
X179429078Y-115943728D01*
X179429077Y-115943729D01*
X179365875Y-115967301D01*
X179167661Y-116041231D01*
X179167657Y-116041233D01*
X178922792Y-116174940D01*
X178922784Y-116174945D01*
X178699439Y-116342138D01*
X178699421Y-116342154D01*
X178502154Y-116539421D01*
X178502138Y-116539439D01*
X178334945Y-116762784D01*
X178334940Y-116762792D01*
X178201233Y-117007657D01*
X178201231Y-117007661D01*
X178103727Y-117269083D01*
X178044422Y-117541700D01*
X178024518Y-117819998D01*
X178024518Y-117820001D01*
X178044422Y-118098299D01*
X178092651Y-118320000D01*
X178103729Y-118370923D01*
X178143387Y-118477250D01*
X178201231Y-118632338D01*
X178201233Y-118632342D01*
X178334940Y-118877207D01*
X178334945Y-118877215D01*
X178502138Y-119100560D01*
X178502154Y-119100578D01*
X178699421Y-119297845D01*
X178699439Y-119297861D01*
X178782214Y-119359825D01*
X178824086Y-119415758D01*
X178829070Y-119485450D01*
X178795585Y-119546773D01*
X178755359Y-119573652D01*
X178456613Y-119697404D01*
X178451532Y-119699252D01*
X178309830Y-119743933D01*
X178040676Y-119828800D01*
X178035449Y-119830201D01*
X177614869Y-119923446D01*
X177609540Y-119924386D01*
X177182429Y-119980618D01*
X177177038Y-119981090D01*
X176743946Y-120000000D01*
X172048961Y-120000000D01*
X171616814Y-119981172D01*
X171611435Y-119980702D01*
X171185219Y-119924711D01*
X171179901Y-119923775D01*
X170760187Y-119830930D01*
X170754971Y-119829535D01*
X170367161Y-119707537D01*
X170344920Y-119700540D01*
X170339846Y-119698698D01*
X169942566Y-119534526D01*
X169937670Y-119532249D01*
X169556169Y-119334145D01*
X169551503Y-119331459D01*
X169188675Y-119100925D01*
X169184248Y-119097833D01*
X168842840Y-118836615D01*
X168838706Y-118833156D01*
X168521323Y-118543247D01*
X168517499Y-118539435D01*
X168226523Y-118223012D01*
X168223044Y-118218881D01*
X168219131Y-118213802D01*
X167960695Y-117878353D01*
X167957594Y-117873943D01*
X167953612Y-117867722D01*
X167725849Y-117511880D01*
X167723149Y-117507226D01*
X167523773Y-117126384D01*
X167521487Y-117121514D01*
X167355976Y-116724744D01*
X167354136Y-116719729D01*
X167223764Y-116310080D01*
X167222353Y-116304871D01*
X167193158Y-116174945D01*
X167128106Y-115885451D01*
X167127159Y-115880173D01*
X167069741Y-115454108D01*
X167069257Y-115448760D01*
X167049526Y-115028152D01*
X167005076Y-101692936D01*
X167012209Y-101668339D01*
X167004962Y-101588403D01*
X167004709Y-101583024D01*
X167000515Y-100324685D01*
X167000539Y-100320002D01*
X167000541Y-100320000D01*
X167000539Y-100319997D01*
X167000540Y-100319996D01*
X167000500Y-100319899D01*
X167000383Y-100319618D01*
X167000383Y-100319617D01*
X167000382Y-100319616D01*
X167000193Y-100319538D01*
X167000169Y-100319528D01*
X167000000Y-100319459D01*
X166999998Y-100319459D01*
X166999997Y-100319459D01*
X166977034Y-100319500D01*
X165852946Y-100319500D01*
X165828331Y-100312272D01*
X165748418Y-100319264D01*
X165743012Y-100319500D01*
X165736976Y-100319500D01*
X165731581Y-100319265D01*
X165660233Y-100313036D01*
X165627055Y-100319500D01*
X164504760Y-100319500D01*
X164504554Y-100319459D01*
X164480000Y-100319459D01*
X164479901Y-100319500D01*
X164479617Y-100319616D01*
X164479615Y-100319618D01*
X164479459Y-100319999D01*
X164479476Y-100344616D01*
X164479471Y-100344616D01*
X164479500Y-100344759D01*
X164479500Y-101583003D01*
X164479264Y-101588409D01*
X164473025Y-101659711D01*
X164479500Y-101692944D01*
X164479500Y-115011451D01*
X164461091Y-115433075D01*
X164460619Y-115438466D01*
X164404393Y-115865549D01*
X164403453Y-115870878D01*
X164310213Y-116291455D01*
X164308813Y-116296682D01*
X164179277Y-116707517D01*
X164177426Y-116712602D01*
X164012574Y-117110591D01*
X164010287Y-117115496D01*
X163811376Y-117497601D01*
X163808670Y-117502287D01*
X163577218Y-117865593D01*
X163574114Y-117870026D01*
X163311868Y-118211792D01*
X163308389Y-118215937D01*
X163017363Y-118533537D01*
X163013537Y-118537363D01*
X162695937Y-118828389D01*
X162691792Y-118831868D01*
X162350026Y-119094114D01*
X162345593Y-119097218D01*
X161982287Y-119328670D01*
X161977603Y-119331374D01*
X161922951Y-119359825D01*
X161595496Y-119530287D01*
X161590591Y-119532574D01*
X161192602Y-119697426D01*
X161187517Y-119699277D01*
X160776682Y-119828813D01*
X160771455Y-119830213D01*
X160350878Y-119923453D01*
X160345549Y-119924393D01*
X159918466Y-119980619D01*
X159913075Y-119981091D01*
X159480000Y-120000000D01*
X144344243Y-120000000D01*
X144313406Y-119996104D01*
X144284130Y-119988587D01*
X144257399Y-119981724D01*
X144203354Y-119952012D01*
X144179301Y-119929424D01*
X144162139Y-119909477D01*
X144162138Y-119909476D01*
X144069649Y-119775482D01*
X144035184Y-119725550D01*
X144035182Y-119725548D01*
X144035180Y-119725546D01*
X144035177Y-119725541D01*
X143828148Y-119491852D01*
X143594459Y-119284823D01*
X143594453Y-119284819D01*
X143594451Y-119284817D01*
X143594449Y-119284815D01*
X143337518Y-119107469D01*
X143061085Y-118962385D01*
X143061080Y-118962383D01*
X143061078Y-118962382D01*
X142917587Y-118907963D01*
X142769167Y-118851674D01*
X142674695Y-118828389D01*
X142594117Y-118808528D01*
X142593344Y-118808078D01*
X142592993Y-118808023D01*
X142587856Y-118806985D01*
X142519049Y-118790026D01*
X142466030Y-118776958D01*
X142457925Y-118775973D01*
X142372400Y-118765588D01*
X142372399Y-118765589D01*
X142272627Y-118753474D01*
X142272288Y-118753328D01*
X142269964Y-118753151D01*
X142156105Y-118739326D01*
X142156102Y-118739326D01*
X142051732Y-118739326D01*
X142051127Y-118739297D01*
X142050967Y-118739326D01*
X141949032Y-118739326D01*
X141948926Y-118739294D01*
X141948267Y-118739326D01*
X141843895Y-118739326D01*
X141730035Y-118753151D01*
X141727892Y-118753314D01*
X141727372Y-118753474D01*
X141627709Y-118765575D01*
X141627707Y-118765576D01*
X141533969Y-118776958D01*
X141412143Y-118806985D01*
X141407021Y-118808020D01*
X141405881Y-118808529D01*
X141230832Y-118851674D01*
X141001099Y-118938801D01*
X140938922Y-118962382D01*
X140938919Y-118962383D01*
X140938915Y-118962385D01*
X140938914Y-118962385D01*
X140662481Y-119107469D01*
X140405550Y-119284815D01*
X140405548Y-119284817D01*
X140405542Y-119284822D01*
X140405541Y-119284823D01*
X140171852Y-119491852D01*
X139986534Y-119701035D01*
X139964819Y-119725546D01*
X139837859Y-119909476D01*
X139820697Y-119929424D01*
X139796647Y-119952010D01*
X139742597Y-119981725D01*
X139686594Y-119996104D01*
X139655757Y-120000000D01*
X124976797Y-120000000D01*
X124544994Y-119981202D01*
X124539619Y-119980733D01*
X124113781Y-119924838D01*
X124108467Y-119923904D01*
X123689090Y-119831215D01*
X123683877Y-119829822D01*
X123274124Y-119701035D01*
X123269052Y-119699195D01*
X123119579Y-119637484D01*
X123065125Y-119593706D01*
X123042983Y-119527438D01*
X123060184Y-119459718D01*
X123092583Y-119423606D01*
X123260568Y-119297855D01*
X123457855Y-119100568D01*
X123625056Y-118877213D01*
X123758769Y-118632337D01*
X123856271Y-118370923D01*
X123915578Y-118098294D01*
X123935482Y-117820000D01*
X123915578Y-117541706D01*
X123909813Y-117515206D01*
X123895570Y-117449733D01*
X137600000Y-117449733D01*
X137614536Y-117583394D01*
X137614537Y-117583398D01*
X137671837Y-117753456D01*
X137764351Y-117907214D01*
X137764352Y-117907215D01*
X137887756Y-118037491D01*
X137887755Y-118037491D01*
X138036282Y-118138195D01*
X138036283Y-118138196D01*
X138202984Y-118204614D01*
X138275000Y-118216420D01*
X138275000Y-117553205D01*
X138353918Y-117598769D01*
X138449044Y-117608767D01*
X138540013Y-117579209D01*
X138575000Y-117547706D01*
X138575000Y-118219561D01*
X138732162Y-118175926D01*
X138732168Y-118175923D01*
X138890711Y-118091869D01*
X139027477Y-117975698D01*
X139136074Y-117832841D01*
X139211425Y-117669971D01*
X139249999Y-117494724D01*
X139250000Y-117494721D01*
X139250000Y-117449733D01*
X144750000Y-117449733D01*
X144764536Y-117583394D01*
X144764537Y-117583398D01*
X144821837Y-117753456D01*
X144914351Y-117907214D01*
X144914352Y-117907215D01*
X145037756Y-118037491D01*
X145037755Y-118037491D01*
X145186282Y-118138195D01*
X145186283Y-118138196D01*
X145352984Y-118204614D01*
X145425000Y-118216420D01*
X145425000Y-117553205D01*
X145503918Y-117598769D01*
X145599044Y-117608767D01*
X145690013Y-117579209D01*
X145725000Y-117547706D01*
X145725000Y-118219561D01*
X145882162Y-118175926D01*
X145882168Y-118175923D01*
X146040711Y-118091869D01*
X146177477Y-117975698D01*
X146286074Y-117832841D01*
X146361425Y-117669971D01*
X146399999Y-117494724D01*
X146400000Y-117494721D01*
X146400000Y-117130000D01*
X145800000Y-117130000D01*
X145800000Y-116830000D01*
X146400000Y-116830000D01*
X146400000Y-116510274D01*
X146399999Y-116510266D01*
X146385463Y-116376605D01*
X146385462Y-116376601D01*
X146328162Y-116206543D01*
X146235648Y-116052785D01*
X146235647Y-116052784D01*
X146112243Y-115922508D01*
X146112244Y-115922508D01*
X145963717Y-115821804D01*
X145963716Y-115821803D01*
X145797012Y-115755383D01*
X145797008Y-115755382D01*
X145725000Y-115743577D01*
X145725000Y-116406794D01*
X145646082Y-116361231D01*
X145550956Y-116351233D01*
X145459987Y-116380791D01*
X145425000Y-116412293D01*
X145425000Y-115740437D01*
X145424999Y-115740437D01*
X145267837Y-115784073D01*
X145267831Y-115784076D01*
X145109288Y-115868130D01*
X144972522Y-115984301D01*
X144863925Y-116127158D01*
X144788574Y-116290028D01*
X144750000Y-116465275D01*
X144750000Y-116830000D01*
X145350000Y-116830000D01*
X145350000Y-117130000D01*
X144750000Y-117130000D01*
X144750000Y-117449733D01*
X139250000Y-117449733D01*
X139250000Y-117130000D01*
X138650000Y-117130000D01*
X138650000Y-116830000D01*
X139250000Y-116830000D01*
X139250000Y-116510274D01*
X139249999Y-116510266D01*
X139235463Y-116376605D01*
X139235462Y-116376601D01*
X139178162Y-116206543D01*
X139085648Y-116052785D01*
X139085647Y-116052784D01*
X138962243Y-115922508D01*
X138962244Y-115922508D01*
X138813717Y-115821804D01*
X138813716Y-115821803D01*
X138647012Y-115755383D01*
X138647008Y-115755382D01*
X138575000Y-115743577D01*
X138575000Y-116406794D01*
X138496082Y-116361231D01*
X138400956Y-116351233D01*
X138309987Y-116380791D01*
X138275000Y-116412293D01*
X138275000Y-115740437D01*
X138274999Y-115740437D01*
X138117837Y-115784073D01*
X138117831Y-115784076D01*
X137959288Y-115868130D01*
X137822522Y-115984301D01*
X137713925Y-116127158D01*
X137638574Y-116290028D01*
X137600000Y-116465275D01*
X137600000Y-116830000D01*
X138200000Y-116830000D01*
X138200000Y-117130000D01*
X137600000Y-117130000D01*
X137600000Y-117449733D01*
X123895570Y-117449733D01*
X123856272Y-117269083D01*
X123856271Y-117269077D01*
X123758769Y-117007663D01*
X123661757Y-116830000D01*
X123625059Y-116762792D01*
X123625054Y-116762784D01*
X123457861Y-116539439D01*
X123457845Y-116539421D01*
X123260578Y-116342154D01*
X123260560Y-116342138D01*
X123037215Y-116174945D01*
X123037207Y-116174940D01*
X122792342Y-116041233D01*
X122792338Y-116041231D01*
X122639701Y-115984301D01*
X122530923Y-115943729D01*
X122530919Y-115943728D01*
X122530916Y-115943727D01*
X122258299Y-115884422D01*
X121980001Y-115864518D01*
X121979999Y-115864518D01*
X121701700Y-115884422D01*
X121429083Y-115943727D01*
X121429078Y-115943728D01*
X121429077Y-115943729D01*
X121365875Y-115967301D01*
X121167661Y-116041231D01*
X121167657Y-116041233D01*
X120922792Y-116174940D01*
X120922784Y-116174945D01*
X120699439Y-116342138D01*
X120699421Y-116342154D01*
X120502154Y-116539421D01*
X120502141Y-116539436D01*
X120451794Y-116606691D01*
X120395860Y-116648561D01*
X120326168Y-116653545D01*
X120264846Y-116620059D01*
X120234409Y-116570110D01*
X120153042Y-116315379D01*
X120151625Y-116310174D01*
X120056978Y-115891195D01*
X120056030Y-115885948D01*
X119998147Y-115460317D01*
X119997656Y-115454956D01*
X119976851Y-115023257D01*
X119917763Y-102320001D01*
X160934318Y-102320001D01*
X160954955Y-102476760D01*
X160954956Y-102476762D01*
X161015464Y-102622841D01*
X161111718Y-102748282D01*
X161237159Y-102844536D01*
X161383238Y-102905044D01*
X161461619Y-102915363D01*
X161539999Y-102925682D01*
X161540000Y-102925682D01*
X161540001Y-102925682D01*
X161592254Y-102918802D01*
X161696762Y-102905044D01*
X161842841Y-102844536D01*
X161968282Y-102748282D01*
X162064536Y-102622841D01*
X162125044Y-102476762D01*
X162145682Y-102320000D01*
X162125044Y-102163238D01*
X162064536Y-102017159D01*
X162064535Y-102017158D01*
X162064535Y-102017157D01*
X162016124Y-101954066D01*
X161990930Y-101888896D01*
X161990500Y-101878580D01*
X161990500Y-74987964D01*
X162010185Y-74920925D01*
X162026815Y-74900287D01*
X162713205Y-74213896D01*
X162718373Y-74209277D01*
X162748970Y-74184879D01*
X162782480Y-74135728D01*
X162817793Y-74087882D01*
X162817794Y-74087879D01*
X162821787Y-74080324D01*
X162825470Y-74072676D01*
X162825470Y-74072675D01*
X162825472Y-74072673D01*
X162843007Y-74015822D01*
X162862646Y-73959699D01*
X162864228Y-73951336D01*
X162865500Y-73942899D01*
X162865500Y-73883441D01*
X162867725Y-73823990D01*
X162866685Y-73814758D01*
X162867513Y-73814664D01*
X162865500Y-73799361D01*
X162865500Y-71119674D01*
X162885185Y-71052635D01*
X162931046Y-71010316D01*
X163001450Y-70972685D01*
X163161410Y-70841410D01*
X163292685Y-70681450D01*
X163390232Y-70498954D01*
X163450300Y-70300934D01*
X163470583Y-70095000D01*
X163899417Y-70095000D01*
X163919699Y-70300932D01*
X163919700Y-70300934D01*
X163979768Y-70498954D01*
X164077315Y-70681450D01*
X164111969Y-70723677D01*
X164208589Y-70841410D01*
X164231935Y-70860569D01*
X164368550Y-70972685D01*
X164551046Y-71070232D01*
X164749066Y-71130300D01*
X164749065Y-71130300D01*
X164767529Y-71132118D01*
X164955000Y-71150583D01*
X165160934Y-71130300D01*
X165358954Y-71070232D01*
X165541450Y-70972685D01*
X165701410Y-70841410D01*
X165832685Y-70681450D01*
X165930232Y-70498954D01*
X165990300Y-70300934D01*
X166010583Y-70095000D01*
X166439417Y-70095000D01*
X166459699Y-70300932D01*
X166459700Y-70300934D01*
X166519768Y-70498954D01*
X166617315Y-70681450D01*
X166651969Y-70723677D01*
X166748589Y-70841410D01*
X166771935Y-70860569D01*
X166908550Y-70972685D01*
X167091046Y-71070232D01*
X167289066Y-71130300D01*
X167289065Y-71130300D01*
X167307529Y-71132118D01*
X167495000Y-71150583D01*
X167700934Y-71130300D01*
X167898954Y-71070232D01*
X168081450Y-70972685D01*
X168241410Y-70841410D01*
X168372685Y-70681450D01*
X168470232Y-70498954D01*
X168530300Y-70300934D01*
X168550583Y-70095000D01*
X168979417Y-70095000D01*
X168999699Y-70300932D01*
X168999700Y-70300934D01*
X169059768Y-70498954D01*
X169157315Y-70681450D01*
X169191969Y-70723677D01*
X169288589Y-70841410D01*
X169311935Y-70860569D01*
X169448550Y-70972685D01*
X169631046Y-71070232D01*
X169829066Y-71130300D01*
X169829065Y-71130300D01*
X169847529Y-71132118D01*
X170035000Y-71150583D01*
X170240934Y-71130300D01*
X170438954Y-71070232D01*
X170621450Y-70972685D01*
X170781410Y-70841410D01*
X170912685Y-70681450D01*
X171010232Y-70498954D01*
X171070300Y-70300934D01*
X171090583Y-70095000D01*
X171519417Y-70095000D01*
X171539699Y-70300932D01*
X171539700Y-70300934D01*
X171599768Y-70498954D01*
X171697315Y-70681450D01*
X171731969Y-70723677D01*
X171828589Y-70841410D01*
X171851935Y-70860569D01*
X171988550Y-70972685D01*
X172171046Y-71070232D01*
X172369066Y-71130300D01*
X172369065Y-71130300D01*
X172387529Y-71132118D01*
X172575000Y-71150583D01*
X172780934Y-71130300D01*
X172978954Y-71070232D01*
X173161450Y-70972685D01*
X173321410Y-70841410D01*
X173452685Y-70681450D01*
X173550232Y-70498954D01*
X173610300Y-70300934D01*
X173630583Y-70095000D01*
X173615809Y-69944999D01*
X173973972Y-69944999D01*
X173973973Y-69945000D01*
X174637935Y-69945000D01*
X174615000Y-70023111D01*
X174615000Y-70166889D01*
X174637935Y-70245000D01*
X173973973Y-70245000D01*
X173979738Y-70307218D01*
X174038058Y-70512196D01*
X174038066Y-70512216D01*
X174133059Y-70702989D01*
X174261500Y-70873071D01*
X174419000Y-71016651D01*
X174419002Y-71016653D01*
X174600201Y-71128846D01*
X174600207Y-71128849D01*
X174798936Y-71205836D01*
X174965000Y-71236879D01*
X174965000Y-70576170D01*
X174972685Y-70579680D01*
X175079237Y-70595000D01*
X175150763Y-70595000D01*
X175257315Y-70579680D01*
X175265000Y-70576170D01*
X175265000Y-71236879D01*
X175431063Y-71205836D01*
X175629792Y-71128849D01*
X175629798Y-71128846D01*
X175810997Y-71016653D01*
X175810999Y-71016651D01*
X175968499Y-70873071D01*
X176096940Y-70702989D01*
X176191933Y-70512216D01*
X176191941Y-70512196D01*
X176250261Y-70307218D01*
X176256027Y-70245000D01*
X175592065Y-70245000D01*
X175615000Y-70166889D01*
X175615000Y-70023111D01*
X175592065Y-69945000D01*
X176256027Y-69945000D01*
X176256027Y-69944999D01*
X176250261Y-69882781D01*
X176191941Y-69677803D01*
X176191933Y-69677783D01*
X176096940Y-69487010D01*
X175968499Y-69316928D01*
X175810999Y-69173348D01*
X175810997Y-69173346D01*
X175629798Y-69061153D01*
X175629789Y-69061149D01*
X175431060Y-68984162D01*
X175431061Y-68984162D01*
X175265000Y-68953119D01*
X175265000Y-69613829D01*
X175257315Y-69610320D01*
X175150763Y-69595000D01*
X175079237Y-69595000D01*
X174972685Y-69610320D01*
X174965000Y-69613829D01*
X174965000Y-68953119D01*
X174798939Y-68984162D01*
X174600210Y-69061149D01*
X174600201Y-69061153D01*
X174419002Y-69173346D01*
X174419000Y-69173348D01*
X174261500Y-69316928D01*
X174133059Y-69487010D01*
X174038066Y-69677783D01*
X174038058Y-69677803D01*
X173979738Y-69882781D01*
X173973972Y-69944999D01*
X173615809Y-69944999D01*
X173610300Y-69889066D01*
X173550232Y-69691046D01*
X173452685Y-69508550D01*
X173400702Y-69445209D01*
X173321410Y-69348589D01*
X173171121Y-69225252D01*
X173161450Y-69217315D01*
X172978954Y-69119768D01*
X172780934Y-69059700D01*
X172780932Y-69059699D01*
X172780934Y-69059699D01*
X172575000Y-69039417D01*
X172369067Y-69059699D01*
X172171043Y-69119769D01*
X172083114Y-69166769D01*
X171988550Y-69217315D01*
X171988548Y-69217316D01*
X171988547Y-69217317D01*
X171828589Y-69348589D01*
X171697317Y-69508547D01*
X171599769Y-69691043D01*
X171539699Y-69889067D01*
X171519417Y-70095000D01*
X171090583Y-70095000D01*
X171070300Y-69889066D01*
X171010232Y-69691046D01*
X170912685Y-69508550D01*
X170860702Y-69445209D01*
X170781410Y-69348589D01*
X170631121Y-69225252D01*
X170621450Y-69217315D01*
X170438954Y-69119768D01*
X170240934Y-69059700D01*
X170240932Y-69059699D01*
X170240934Y-69059699D01*
X170035000Y-69039417D01*
X169829067Y-69059699D01*
X169631043Y-69119769D01*
X169543114Y-69166769D01*
X169448550Y-69217315D01*
X169448548Y-69217316D01*
X169448547Y-69217317D01*
X169288589Y-69348589D01*
X169157317Y-69508547D01*
X169059769Y-69691043D01*
X168999699Y-69889067D01*
X168979417Y-70095000D01*
X168550583Y-70095000D01*
X168530300Y-69889066D01*
X168470232Y-69691046D01*
X168372685Y-69508550D01*
X168320702Y-69445209D01*
X168241410Y-69348589D01*
X168091121Y-69225252D01*
X168081450Y-69217315D01*
X167898954Y-69119768D01*
X167700934Y-69059700D01*
X167700932Y-69059699D01*
X167700934Y-69059699D01*
X167495000Y-69039417D01*
X167289067Y-69059699D01*
X167091043Y-69119769D01*
X167003114Y-69166769D01*
X166908550Y-69217315D01*
X166908548Y-69217316D01*
X166908547Y-69217317D01*
X166748589Y-69348589D01*
X166617317Y-69508547D01*
X166519769Y-69691043D01*
X166459699Y-69889067D01*
X166439417Y-70095000D01*
X166010583Y-70095000D01*
X165990300Y-69889066D01*
X165930232Y-69691046D01*
X165832685Y-69508550D01*
X165780702Y-69445209D01*
X165701410Y-69348589D01*
X165551121Y-69225252D01*
X165541450Y-69217315D01*
X165358954Y-69119768D01*
X165160934Y-69059700D01*
X165160932Y-69059699D01*
X165160934Y-69059699D01*
X164955000Y-69039417D01*
X164749067Y-69059699D01*
X164551043Y-69119769D01*
X164463114Y-69166769D01*
X164368550Y-69217315D01*
X164368548Y-69217316D01*
X164368547Y-69217317D01*
X164208589Y-69348589D01*
X164077317Y-69508547D01*
X163979769Y-69691043D01*
X163919699Y-69889067D01*
X163899417Y-70095000D01*
X163470583Y-70095000D01*
X163450300Y-69889066D01*
X163390232Y-69691046D01*
X163292685Y-69508550D01*
X163240702Y-69445209D01*
X163161410Y-69348589D01*
X163011121Y-69225252D01*
X163001450Y-69217315D01*
X162818954Y-69119768D01*
X162620934Y-69059700D01*
X162620932Y-69059699D01*
X162620934Y-69059699D01*
X162415000Y-69039417D01*
X162209067Y-69059699D01*
X162011043Y-69119769D01*
X161923114Y-69166769D01*
X161828550Y-69217315D01*
X161828548Y-69217316D01*
X161828547Y-69217317D01*
X161668589Y-69348589D01*
X161537317Y-69508547D01*
X161439769Y-69691043D01*
X161379699Y-69889067D01*
X161359417Y-70095000D01*
X161379699Y-70300932D01*
X161379700Y-70300934D01*
X161439768Y-70498954D01*
X161537315Y-70681450D01*
X161571969Y-70723677D01*
X161668589Y-70841410D01*
X161691935Y-70860569D01*
X161828546Y-70972682D01*
X161828549Y-70972684D01*
X161828551Y-70972686D01*
X161855242Y-70986952D01*
X161898953Y-71010316D01*
X161948797Y-71059277D01*
X161964500Y-71119674D01*
X161964500Y-73637034D01*
X161944815Y-73704073D01*
X161928181Y-73724715D01*
X161241804Y-74411092D01*
X161236617Y-74415727D01*
X161206033Y-74440117D01*
X161206029Y-74440121D01*
X161172519Y-74489271D01*
X161137206Y-74537118D01*
X161133216Y-74544667D01*
X161129528Y-74552326D01*
X161111992Y-74609177D01*
X161092353Y-74665301D01*
X161090771Y-74673659D01*
X161089500Y-74682100D01*
X161089500Y-74741573D01*
X161087275Y-74801009D01*
X161088316Y-74810243D01*
X161087485Y-74810336D01*
X161089500Y-74825635D01*
X161089500Y-101878580D01*
X161069815Y-101945619D01*
X161063876Y-101954066D01*
X161015464Y-102017157D01*
X160954956Y-102163237D01*
X160954955Y-102163239D01*
X160934318Y-102319998D01*
X160934318Y-102320001D01*
X119917763Y-102320001D01*
X119910302Y-100716007D01*
X138794500Y-100716007D01*
X138799197Y-100759686D01*
X138810402Y-100811193D01*
X138812889Y-100821370D01*
X138812890Y-100821373D01*
X138855900Y-100902085D01*
X138901655Y-100954889D01*
X138919246Y-100972843D01*
X138919247Y-100972844D01*
X138919249Y-100972845D01*
X138999059Y-101017488D01*
X138999063Y-101017490D01*
X139066102Y-101037175D01*
X139124000Y-101045500D01*
X139124004Y-101045500D01*
X159875991Y-101045500D01*
X159876000Y-101045500D01*
X159919684Y-101040803D01*
X159945439Y-101035200D01*
X159971193Y-101029598D01*
X159975374Y-101028575D01*
X159981373Y-101027110D01*
X160062085Y-100984100D01*
X160114889Y-100938345D01*
X160132843Y-100920754D01*
X160177490Y-100840937D01*
X160197175Y-100773898D01*
X160205500Y-100716000D01*
X160205500Y-78964000D01*
X160200803Y-78920316D01*
X160196535Y-78900701D01*
X160189598Y-78868807D01*
X160187110Y-78858629D01*
X160187110Y-78858627D01*
X160144100Y-78777915D01*
X160098345Y-78725111D01*
X160080756Y-78707159D01*
X160080750Y-78707154D01*
X160000940Y-78662511D01*
X160000935Y-78662509D01*
X159933903Y-78642826D01*
X159933899Y-78642825D01*
X159933898Y-78642825D01*
X159876000Y-78634500D01*
X139124000Y-78634500D01*
X139123992Y-78634500D01*
X139080313Y-78639197D01*
X139028807Y-78650402D01*
X139018629Y-78652889D01*
X139018624Y-78652891D01*
X138937916Y-78695899D01*
X138937913Y-78695901D01*
X138924921Y-78707159D01*
X138885111Y-78741655D01*
X138867159Y-78759243D01*
X138867154Y-78759249D01*
X138822511Y-78839059D01*
X138822509Y-78839064D01*
X138802826Y-78906096D01*
X138802825Y-78906101D01*
X138802825Y-78906102D01*
X138794502Y-78963992D01*
X138794500Y-78964003D01*
X138794500Y-100716007D01*
X119910302Y-100716007D01*
X119879854Y-94170000D01*
X121571776Y-94170000D01*
X122387498Y-94170000D01*
X122374835Y-94194852D01*
X122355014Y-94320000D01*
X122374835Y-94445148D01*
X122387498Y-94470000D01*
X121571777Y-94470000D01*
X121599334Y-94599644D01*
X121676286Y-94772481D01*
X121787487Y-94925535D01*
X121928081Y-95052127D01*
X121928084Y-95052129D01*
X122091915Y-95146716D01*
X122091927Y-95146721D01*
X122271845Y-95205180D01*
X122412841Y-95220000D01*
X122610000Y-95220000D01*
X122610000Y-94692502D01*
X122634852Y-94705165D01*
X122728519Y-94720000D01*
X122791481Y-94720000D01*
X122885148Y-94705165D01*
X122910000Y-94692502D01*
X122910000Y-95220000D01*
X123107159Y-95220000D01*
X123248154Y-95205180D01*
X123428072Y-95146721D01*
X123428084Y-95146716D01*
X123591915Y-95052129D01*
X123591918Y-95052127D01*
X123732509Y-94925539D01*
X123732511Y-94925536D01*
X123843717Y-94772477D01*
X123920665Y-94599644D01*
X123948223Y-94470000D01*
X123132502Y-94470000D01*
X123145165Y-94445148D01*
X123164986Y-94320000D01*
X123145165Y-94194852D01*
X123132502Y-94170000D01*
X123948223Y-94170000D01*
X123920665Y-94040355D01*
X123843713Y-93867518D01*
X123732512Y-93714464D01*
X123591918Y-93587872D01*
X123591915Y-93587870D01*
X123428084Y-93493283D01*
X123428072Y-93493278D01*
X123248154Y-93434819D01*
X123107159Y-93420000D01*
X122910000Y-93420000D01*
X122910000Y-93947497D01*
X122885148Y-93934835D01*
X122791481Y-93920000D01*
X122728519Y-93920000D01*
X122634852Y-93934835D01*
X122610000Y-93947497D01*
X122610000Y-93420000D01*
X122412841Y-93420000D01*
X122271845Y-93434819D01*
X122091927Y-93493278D01*
X122091915Y-93493283D01*
X121928084Y-93587870D01*
X121928081Y-93587872D01*
X121787490Y-93714460D01*
X121787488Y-93714463D01*
X121676282Y-93867522D01*
X121599334Y-94040355D01*
X121571776Y-94170000D01*
X119879854Y-94170000D01*
X119872867Y-92667870D01*
X121659500Y-92667870D01*
X121659501Y-92667876D01*
X121665908Y-92727483D01*
X121716202Y-92862328D01*
X121716206Y-92862335D01*
X121802452Y-92977544D01*
X121802455Y-92977547D01*
X121917664Y-93063793D01*
X121917671Y-93063797D01*
X122052517Y-93114091D01*
X122052516Y-93114091D01*
X122059444Y-93114835D01*
X122112127Y-93120500D01*
X123407872Y-93120499D01*
X123467483Y-93114091D01*
X123602331Y-93063796D01*
X123717546Y-92977546D01*
X123803796Y-92862331D01*
X123854091Y-92727483D01*
X123860500Y-92667873D01*
X123860499Y-91972128D01*
X123854091Y-91912517D01*
X123803796Y-91777669D01*
X123803795Y-91777668D01*
X123803793Y-91777664D01*
X123717547Y-91662455D01*
X123717544Y-91662452D01*
X123602335Y-91576206D01*
X123602328Y-91576202D01*
X123467482Y-91525908D01*
X123467483Y-91525908D01*
X123407883Y-91519501D01*
X123407881Y-91519500D01*
X123407873Y-91519500D01*
X123407864Y-91519500D01*
X122112129Y-91519500D01*
X122112123Y-91519501D01*
X122052516Y-91525908D01*
X121917671Y-91576202D01*
X121917664Y-91576206D01*
X121802455Y-91662452D01*
X121802452Y-91662455D01*
X121716206Y-91777664D01*
X121716202Y-91777671D01*
X121665910Y-91912513D01*
X121665909Y-91912517D01*
X121659500Y-91972127D01*
X121659500Y-91972134D01*
X121659500Y-91972135D01*
X121659500Y-92667870D01*
X119872867Y-92667870D01*
X119773458Y-71296105D01*
X119783012Y-71052635D01*
X119786460Y-70964752D01*
X125804500Y-70964752D01*
X125816131Y-71023229D01*
X125816132Y-71023230D01*
X125860447Y-71089552D01*
X125926769Y-71133867D01*
X125926770Y-71133868D01*
X125985247Y-71145499D01*
X125985250Y-71145500D01*
X125985252Y-71145500D01*
X127724750Y-71145500D01*
X127724751Y-71145499D01*
X127739568Y-71142552D01*
X127783229Y-71133868D01*
X127783229Y-71133867D01*
X127783231Y-71133867D01*
X127849552Y-71089552D01*
X127893867Y-71023231D01*
X127893867Y-71023229D01*
X127893868Y-71023229D01*
X127905499Y-70964752D01*
X127905500Y-70964750D01*
X127905500Y-70095000D01*
X128339417Y-70095000D01*
X128359699Y-70300932D01*
X128359700Y-70300934D01*
X128419768Y-70498954D01*
X128517315Y-70681450D01*
X128551969Y-70723677D01*
X128648589Y-70841410D01*
X128671935Y-70860569D01*
X128808550Y-70972685D01*
X128991046Y-71070232D01*
X129189066Y-71130300D01*
X129189065Y-71130300D01*
X129207529Y-71132118D01*
X129395000Y-71150583D01*
X129600934Y-71130300D01*
X129798954Y-71070232D01*
X129981450Y-70972685D01*
X130141410Y-70841410D01*
X130272685Y-70681450D01*
X130370232Y-70498954D01*
X130430300Y-70300934D01*
X130450583Y-70095000D01*
X130879417Y-70095000D01*
X130899699Y-70300932D01*
X130899700Y-70300934D01*
X130959768Y-70498954D01*
X131057315Y-70681450D01*
X131091969Y-70723677D01*
X131188589Y-70841410D01*
X131211935Y-70860569D01*
X131348550Y-70972685D01*
X131531046Y-71070232D01*
X131729066Y-71130300D01*
X131729065Y-71130300D01*
X131747529Y-71132118D01*
X131935000Y-71150583D01*
X132140934Y-71130300D01*
X132338954Y-71070232D01*
X132521450Y-70972685D01*
X132681410Y-70841410D01*
X132812685Y-70681450D01*
X132910232Y-70498954D01*
X132970300Y-70300934D01*
X132990583Y-70095000D01*
X133419417Y-70095000D01*
X133439699Y-70300932D01*
X133439700Y-70300934D01*
X133499768Y-70498954D01*
X133597315Y-70681450D01*
X133631969Y-70723677D01*
X133728589Y-70841410D01*
X133751935Y-70860569D01*
X133888550Y-70972685D01*
X134071046Y-71070232D01*
X134269066Y-71130300D01*
X134269065Y-71130300D01*
X134287529Y-71132118D01*
X134475000Y-71150583D01*
X134680934Y-71130300D01*
X134878954Y-71070232D01*
X135061450Y-70972685D01*
X135221410Y-70841410D01*
X135352685Y-70681450D01*
X135450232Y-70498954D01*
X135510300Y-70300934D01*
X135530583Y-70095000D01*
X135515809Y-69944999D01*
X135873972Y-69944999D01*
X135873973Y-69945000D01*
X136537935Y-69945000D01*
X136515000Y-70023111D01*
X136515000Y-70166889D01*
X136537935Y-70245000D01*
X135873973Y-70245000D01*
X135879738Y-70307218D01*
X135938058Y-70512196D01*
X135938066Y-70512216D01*
X136033059Y-70702989D01*
X136161500Y-70873071D01*
X136319000Y-71016651D01*
X136319002Y-71016653D01*
X136500201Y-71128846D01*
X136500207Y-71128849D01*
X136698936Y-71205836D01*
X136865000Y-71236879D01*
X136865000Y-70576170D01*
X136872685Y-70579680D01*
X136979237Y-70595000D01*
X137050763Y-70595000D01*
X137157315Y-70579680D01*
X137165000Y-70576170D01*
X137165000Y-71236879D01*
X137331063Y-71205836D01*
X137529792Y-71128849D01*
X137529798Y-71128846D01*
X137710997Y-71016653D01*
X137710999Y-71016651D01*
X137868499Y-70873071D01*
X137996940Y-70702989D01*
X138091933Y-70512216D01*
X138091941Y-70512196D01*
X138150261Y-70307218D01*
X138156027Y-70245000D01*
X137492065Y-70245000D01*
X137515000Y-70166889D01*
X137515000Y-70095000D01*
X138499417Y-70095000D01*
X138519699Y-70300932D01*
X138519700Y-70300934D01*
X138579768Y-70498954D01*
X138677315Y-70681450D01*
X138711969Y-70723677D01*
X138808589Y-70841410D01*
X138831935Y-70860569D01*
X138968550Y-70972685D01*
X139151046Y-71070232D01*
X139349066Y-71130300D01*
X139349065Y-71130300D01*
X139367529Y-71132118D01*
X139555000Y-71150583D01*
X139760934Y-71130300D01*
X139958954Y-71070232D01*
X140141450Y-70972685D01*
X140301410Y-70841410D01*
X140432685Y-70681450D01*
X140530232Y-70498954D01*
X140590300Y-70300934D01*
X140610583Y-70095000D01*
X141039417Y-70095000D01*
X141059699Y-70300932D01*
X141059700Y-70300934D01*
X141119768Y-70498954D01*
X141217315Y-70681450D01*
X141251969Y-70723677D01*
X141348589Y-70841410D01*
X141371935Y-70860569D01*
X141508550Y-70972685D01*
X141691046Y-71070232D01*
X141889066Y-71130300D01*
X141889065Y-71130300D01*
X141907529Y-71132118D01*
X142095000Y-71150583D01*
X142300934Y-71130300D01*
X142498954Y-71070232D01*
X142681450Y-70972685D01*
X142841410Y-70841410D01*
X142972685Y-70681450D01*
X143070232Y-70498954D01*
X143130300Y-70300934D01*
X143150583Y-70095000D01*
X143579417Y-70095000D01*
X143599699Y-70300932D01*
X143599700Y-70300934D01*
X143659768Y-70498954D01*
X143757315Y-70681450D01*
X143791969Y-70723677D01*
X143888589Y-70841410D01*
X143911935Y-70860569D01*
X144048550Y-70972685D01*
X144231046Y-71070232D01*
X144429066Y-71130300D01*
X144429065Y-71130300D01*
X144447529Y-71132118D01*
X144635000Y-71150583D01*
X144840934Y-71130300D01*
X145038954Y-71070232D01*
X145221450Y-70972685D01*
X145381410Y-70841410D01*
X145512685Y-70681450D01*
X145610232Y-70498954D01*
X145670300Y-70300934D01*
X145690583Y-70095000D01*
X146119417Y-70095000D01*
X146139699Y-70300932D01*
X146139700Y-70300934D01*
X146199768Y-70498954D01*
X146297315Y-70681450D01*
X146331969Y-70723677D01*
X146428589Y-70841410D01*
X146451935Y-70860569D01*
X146588550Y-70972685D01*
X146771046Y-71070232D01*
X146969066Y-71130300D01*
X146969065Y-71130300D01*
X146987529Y-71132118D01*
X147175000Y-71150583D01*
X147380934Y-71130300D01*
X147578954Y-71070232D01*
X147761450Y-70972685D01*
X147921410Y-70841410D01*
X148052685Y-70681450D01*
X148150232Y-70498954D01*
X148210300Y-70300934D01*
X148230583Y-70095000D01*
X148659417Y-70095000D01*
X148679699Y-70300932D01*
X148679700Y-70300934D01*
X148739768Y-70498954D01*
X148837315Y-70681450D01*
X148871969Y-70723677D01*
X148968589Y-70841410D01*
X148991935Y-70860569D01*
X149128550Y-70972685D01*
X149311046Y-71070232D01*
X149509066Y-71130300D01*
X149509065Y-71130300D01*
X149527529Y-71132118D01*
X149715000Y-71150583D01*
X149920934Y-71130300D01*
X150118954Y-71070232D01*
X150301450Y-70972685D01*
X150461410Y-70841410D01*
X150592685Y-70681450D01*
X150690232Y-70498954D01*
X150750300Y-70300934D01*
X150770583Y-70095000D01*
X151199417Y-70095000D01*
X151219699Y-70300932D01*
X151219700Y-70300934D01*
X151279768Y-70498954D01*
X151377315Y-70681450D01*
X151411969Y-70723677D01*
X151508589Y-70841410D01*
X151531935Y-70860569D01*
X151668550Y-70972685D01*
X151851046Y-71070232D01*
X152049066Y-71130300D01*
X152049065Y-71130300D01*
X152067529Y-71132118D01*
X152255000Y-71150583D01*
X152460934Y-71130300D01*
X152658954Y-71070232D01*
X152841450Y-70972685D01*
X153001410Y-70841410D01*
X153132685Y-70681450D01*
X153230232Y-70498954D01*
X153290300Y-70300934D01*
X153310583Y-70095000D01*
X153739417Y-70095000D01*
X153759699Y-70300932D01*
X153759700Y-70300934D01*
X153819768Y-70498954D01*
X153917315Y-70681450D01*
X153951969Y-70723677D01*
X154048589Y-70841410D01*
X154071935Y-70860569D01*
X154208550Y-70972685D01*
X154391046Y-71070232D01*
X154589066Y-71130300D01*
X154589065Y-71130300D01*
X154607529Y-71132118D01*
X154795000Y-71150583D01*
X155000934Y-71130300D01*
X155198954Y-71070232D01*
X155381450Y-70972685D01*
X155541410Y-70841410D01*
X155672685Y-70681450D01*
X155770232Y-70498954D01*
X155830300Y-70300934D01*
X155850583Y-70095000D01*
X155835809Y-69944999D01*
X156193972Y-69944999D01*
X156193973Y-69945000D01*
X156857935Y-69945000D01*
X156835000Y-70023111D01*
X156835000Y-70166889D01*
X156857935Y-70245000D01*
X156193973Y-70245000D01*
X156199738Y-70307218D01*
X156258058Y-70512196D01*
X156258066Y-70512216D01*
X156353059Y-70702989D01*
X156481500Y-70873071D01*
X156639000Y-71016651D01*
X156639002Y-71016653D01*
X156820201Y-71128846D01*
X156820207Y-71128849D01*
X157018936Y-71205836D01*
X157185000Y-71236879D01*
X157185000Y-70576170D01*
X157192685Y-70579680D01*
X157299237Y-70595000D01*
X157370763Y-70595000D01*
X157477315Y-70579680D01*
X157485000Y-70576170D01*
X157485000Y-71236879D01*
X157651063Y-71205836D01*
X157849792Y-71128849D01*
X157849798Y-71128846D01*
X158030997Y-71016653D01*
X158030999Y-71016651D01*
X158188499Y-70873071D01*
X158316940Y-70702989D01*
X158411933Y-70512216D01*
X158411941Y-70512196D01*
X158470261Y-70307218D01*
X158476027Y-70245000D01*
X157812065Y-70245000D01*
X157835000Y-70166889D01*
X157835000Y-70095000D01*
X158819417Y-70095000D01*
X158839699Y-70300932D01*
X158839700Y-70300934D01*
X158899768Y-70498954D01*
X158997315Y-70681450D01*
X159031969Y-70723677D01*
X159128589Y-70841410D01*
X159151935Y-70860569D01*
X159288550Y-70972685D01*
X159471046Y-71070232D01*
X159669066Y-71130300D01*
X159669065Y-71130300D01*
X159687529Y-71132118D01*
X159875000Y-71150583D01*
X160080934Y-71130300D01*
X160278954Y-71070232D01*
X160461450Y-70972685D01*
X160621410Y-70841410D01*
X160752685Y-70681450D01*
X160850232Y-70498954D01*
X160910300Y-70300934D01*
X160930583Y-70095000D01*
X160910300Y-69889066D01*
X160850232Y-69691046D01*
X160752685Y-69508550D01*
X160700702Y-69445209D01*
X160621410Y-69348589D01*
X160471121Y-69225252D01*
X160461450Y-69217315D01*
X160278954Y-69119768D01*
X160080934Y-69059700D01*
X160080932Y-69059699D01*
X160080934Y-69059699D01*
X159875000Y-69039417D01*
X159669067Y-69059699D01*
X159471043Y-69119769D01*
X159383114Y-69166769D01*
X159288550Y-69217315D01*
X159288548Y-69217316D01*
X159288547Y-69217317D01*
X159128589Y-69348589D01*
X158997317Y-69508547D01*
X158899769Y-69691043D01*
X158839699Y-69889067D01*
X158819417Y-70095000D01*
X157835000Y-70095000D01*
X157835000Y-70023111D01*
X157812065Y-69945000D01*
X158476027Y-69945000D01*
X158476027Y-69944999D01*
X158470261Y-69882781D01*
X158411941Y-69677803D01*
X158411933Y-69677783D01*
X158316940Y-69487010D01*
X158188499Y-69316928D01*
X158030999Y-69173348D01*
X158030997Y-69173346D01*
X157849798Y-69061153D01*
X157849789Y-69061149D01*
X157651060Y-68984162D01*
X157651061Y-68984162D01*
X157485000Y-68953119D01*
X157485000Y-69613829D01*
X157477315Y-69610320D01*
X157370763Y-69595000D01*
X157299237Y-69595000D01*
X157192685Y-69610320D01*
X157185000Y-69613829D01*
X157185000Y-68953119D01*
X157018939Y-68984162D01*
X156820210Y-69061149D01*
X156820201Y-69061153D01*
X156639002Y-69173346D01*
X156639000Y-69173348D01*
X156481500Y-69316928D01*
X156353059Y-69487010D01*
X156258066Y-69677783D01*
X156258058Y-69677803D01*
X156199738Y-69882781D01*
X156193972Y-69944999D01*
X155835809Y-69944999D01*
X155830300Y-69889066D01*
X155770232Y-69691046D01*
X155672685Y-69508550D01*
X155620702Y-69445209D01*
X155541410Y-69348589D01*
X155391121Y-69225252D01*
X155381450Y-69217315D01*
X155198954Y-69119768D01*
X155000934Y-69059700D01*
X155000932Y-69059699D01*
X155000934Y-69059699D01*
X154795000Y-69039417D01*
X154589067Y-69059699D01*
X154391043Y-69119769D01*
X154303114Y-69166769D01*
X154208550Y-69217315D01*
X154208548Y-69217316D01*
X154208547Y-69217317D01*
X154048589Y-69348589D01*
X153917317Y-69508547D01*
X153819769Y-69691043D01*
X153759699Y-69889067D01*
X153739417Y-70095000D01*
X153310583Y-70095000D01*
X153290300Y-69889066D01*
X153230232Y-69691046D01*
X153132685Y-69508550D01*
X153080702Y-69445209D01*
X153001410Y-69348589D01*
X152851121Y-69225252D01*
X152841450Y-69217315D01*
X152658954Y-69119768D01*
X152460934Y-69059700D01*
X152460932Y-69059699D01*
X152460934Y-69059699D01*
X152255000Y-69039417D01*
X152049067Y-69059699D01*
X151851043Y-69119769D01*
X151763114Y-69166769D01*
X151668550Y-69217315D01*
X151668548Y-69217316D01*
X151668547Y-69217317D01*
X151508589Y-69348589D01*
X151377317Y-69508547D01*
X151279769Y-69691043D01*
X151219699Y-69889067D01*
X151199417Y-70095000D01*
X150770583Y-70095000D01*
X150750300Y-69889066D01*
X150690232Y-69691046D01*
X150592685Y-69508550D01*
X150540702Y-69445209D01*
X150461410Y-69348589D01*
X150311121Y-69225252D01*
X150301450Y-69217315D01*
X150118954Y-69119768D01*
X149920934Y-69059700D01*
X149920932Y-69059699D01*
X149920934Y-69059699D01*
X149715000Y-69039417D01*
X149509067Y-69059699D01*
X149311043Y-69119769D01*
X149223114Y-69166769D01*
X149128550Y-69217315D01*
X149128548Y-69217316D01*
X149128547Y-69217317D01*
X148968589Y-69348589D01*
X148837317Y-69508547D01*
X148739769Y-69691043D01*
X148679699Y-69889067D01*
X148659417Y-70095000D01*
X148230583Y-70095000D01*
X148210300Y-69889066D01*
X148150232Y-69691046D01*
X148052685Y-69508550D01*
X148000702Y-69445209D01*
X147921410Y-69348589D01*
X147771121Y-69225252D01*
X147761450Y-69217315D01*
X147578954Y-69119768D01*
X147380934Y-69059700D01*
X147380932Y-69059699D01*
X147380934Y-69059699D01*
X147175000Y-69039417D01*
X146969067Y-69059699D01*
X146771043Y-69119769D01*
X146683114Y-69166769D01*
X146588550Y-69217315D01*
X146588548Y-69217316D01*
X146588547Y-69217317D01*
X146428589Y-69348589D01*
X146297317Y-69508547D01*
X146199769Y-69691043D01*
X146139699Y-69889067D01*
X146119417Y-70095000D01*
X145690583Y-70095000D01*
X145670300Y-69889066D01*
X145610232Y-69691046D01*
X145512685Y-69508550D01*
X145460702Y-69445209D01*
X145381410Y-69348589D01*
X145231121Y-69225252D01*
X145221450Y-69217315D01*
X145038954Y-69119768D01*
X144840934Y-69059700D01*
X144840932Y-69059699D01*
X144840934Y-69059699D01*
X144635000Y-69039417D01*
X144429067Y-69059699D01*
X144231043Y-69119769D01*
X144143114Y-69166769D01*
X144048550Y-69217315D01*
X144048548Y-69217316D01*
X144048547Y-69217317D01*
X143888589Y-69348589D01*
X143757317Y-69508547D01*
X143659769Y-69691043D01*
X143599699Y-69889067D01*
X143579417Y-70095000D01*
X143150583Y-70095000D01*
X143130300Y-69889066D01*
X143070232Y-69691046D01*
X142972685Y-69508550D01*
X142920702Y-69445209D01*
X142841410Y-69348589D01*
X142691121Y-69225252D01*
X142681450Y-69217315D01*
X142498954Y-69119768D01*
X142300934Y-69059700D01*
X142300932Y-69059699D01*
X142300934Y-69059699D01*
X142095000Y-69039417D01*
X141889067Y-69059699D01*
X141691043Y-69119769D01*
X141603114Y-69166769D01*
X141508550Y-69217315D01*
X141508548Y-69217316D01*
X141508547Y-69217317D01*
X141348589Y-69348589D01*
X141217317Y-69508547D01*
X141119769Y-69691043D01*
X141059699Y-69889067D01*
X141039417Y-70095000D01*
X140610583Y-70095000D01*
X140590300Y-69889066D01*
X140530232Y-69691046D01*
X140432685Y-69508550D01*
X140380702Y-69445209D01*
X140301410Y-69348589D01*
X140151121Y-69225252D01*
X140141450Y-69217315D01*
X139958954Y-69119768D01*
X139760934Y-69059700D01*
X139760932Y-69059699D01*
X139760934Y-69059699D01*
X139555000Y-69039417D01*
X139349067Y-69059699D01*
X139151043Y-69119769D01*
X139063114Y-69166769D01*
X138968550Y-69217315D01*
X138968548Y-69217316D01*
X138968547Y-69217317D01*
X138808589Y-69348589D01*
X138677317Y-69508547D01*
X138579769Y-69691043D01*
X138519699Y-69889067D01*
X138499417Y-70095000D01*
X137515000Y-70095000D01*
X137515000Y-70023111D01*
X137492065Y-69945000D01*
X138156027Y-69945000D01*
X138156027Y-69944999D01*
X138150261Y-69882781D01*
X138091941Y-69677803D01*
X138091933Y-69677783D01*
X137996940Y-69487010D01*
X137868499Y-69316928D01*
X137710999Y-69173348D01*
X137710997Y-69173346D01*
X137529798Y-69061153D01*
X137529789Y-69061149D01*
X137331060Y-68984162D01*
X137331061Y-68984162D01*
X137165000Y-68953119D01*
X137165000Y-69613829D01*
X137157315Y-69610320D01*
X137050763Y-69595000D01*
X136979237Y-69595000D01*
X136872685Y-69610320D01*
X136865000Y-69613829D01*
X136865000Y-68953119D01*
X136698939Y-68984162D01*
X136500210Y-69061149D01*
X136500201Y-69061153D01*
X136319002Y-69173346D01*
X136319000Y-69173348D01*
X136161500Y-69316928D01*
X136033059Y-69487010D01*
X135938066Y-69677783D01*
X135938058Y-69677803D01*
X135879738Y-69882781D01*
X135873972Y-69944999D01*
X135515809Y-69944999D01*
X135510300Y-69889066D01*
X135450232Y-69691046D01*
X135352685Y-69508550D01*
X135300702Y-69445209D01*
X135221410Y-69348589D01*
X135071121Y-69225252D01*
X135061450Y-69217315D01*
X134878954Y-69119768D01*
X134680934Y-69059700D01*
X134680932Y-69059699D01*
X134680934Y-69059699D01*
X134475000Y-69039417D01*
X134269067Y-69059699D01*
X134071043Y-69119769D01*
X133983114Y-69166769D01*
X133888550Y-69217315D01*
X133888548Y-69217316D01*
X133888547Y-69217317D01*
X133728589Y-69348589D01*
X133597317Y-69508547D01*
X133499769Y-69691043D01*
X133439699Y-69889067D01*
X133419417Y-70095000D01*
X132990583Y-70095000D01*
X132970300Y-69889066D01*
X132910232Y-69691046D01*
X132812685Y-69508550D01*
X132760702Y-69445209D01*
X132681410Y-69348589D01*
X132531121Y-69225252D01*
X132521450Y-69217315D01*
X132338954Y-69119768D01*
X132140934Y-69059700D01*
X132140932Y-69059699D01*
X132140934Y-69059699D01*
X131935000Y-69039417D01*
X131729067Y-69059699D01*
X131531043Y-69119769D01*
X131443114Y-69166769D01*
X131348550Y-69217315D01*
X131348548Y-69217316D01*
X131348547Y-69217317D01*
X131188589Y-69348589D01*
X131057317Y-69508547D01*
X130959769Y-69691043D01*
X130899699Y-69889067D01*
X130879417Y-70095000D01*
X130450583Y-70095000D01*
X130430300Y-69889066D01*
X130370232Y-69691046D01*
X130272685Y-69508550D01*
X130220702Y-69445209D01*
X130141410Y-69348589D01*
X129991121Y-69225252D01*
X129981450Y-69217315D01*
X129798954Y-69119768D01*
X129600934Y-69059700D01*
X129600932Y-69059699D01*
X129600934Y-69059699D01*
X129395000Y-69039417D01*
X129189067Y-69059699D01*
X128991043Y-69119769D01*
X128903114Y-69166769D01*
X128808550Y-69217315D01*
X128808548Y-69217316D01*
X128808547Y-69217317D01*
X128648589Y-69348589D01*
X128517317Y-69508547D01*
X128419769Y-69691043D01*
X128359699Y-69889067D01*
X128339417Y-70095000D01*
X127905500Y-70095000D01*
X127905500Y-69225249D01*
X127905499Y-69225247D01*
X127893868Y-69166770D01*
X127893867Y-69166769D01*
X127849552Y-69100447D01*
X127783230Y-69056132D01*
X127783229Y-69056131D01*
X127724752Y-69044500D01*
X127724748Y-69044500D01*
X125985252Y-69044500D01*
X125985247Y-69044500D01*
X125926770Y-69056131D01*
X125926769Y-69056132D01*
X125860447Y-69100447D01*
X125816132Y-69166769D01*
X125816131Y-69166770D01*
X125804500Y-69225247D01*
X125804500Y-70964752D01*
X119786460Y-70964752D01*
X119790548Y-70860569D01*
X119791000Y-70855156D01*
X119803712Y-70755577D01*
X119845845Y-70425512D01*
X119846770Y-70420150D01*
X119872768Y-70300932D01*
X119939060Y-69996935D01*
X119940438Y-69991727D01*
X120019548Y-69738190D01*
X120058306Y-69680060D01*
X120122342Y-69652110D01*
X120191323Y-69663218D01*
X120243349Y-69709856D01*
X120246750Y-69715700D01*
X120334944Y-69877213D01*
X120334945Y-69877215D01*
X120502138Y-70100560D01*
X120502154Y-70100578D01*
X120699421Y-70297845D01*
X120699439Y-70297861D01*
X120922784Y-70465054D01*
X120922792Y-70465059D01*
X121167657Y-70598766D01*
X121167661Y-70598768D01*
X121167663Y-70598769D01*
X121429077Y-70696271D01*
X121565391Y-70725924D01*
X121701700Y-70755577D01*
X121701702Y-70755577D01*
X121701706Y-70755578D01*
X121949014Y-70773265D01*
X121979999Y-70775482D01*
X121980000Y-70775482D01*
X121980001Y-70775482D01*
X122007881Y-70773487D01*
X122258294Y-70755578D01*
X122530923Y-70696271D01*
X122792337Y-70598769D01*
X123037213Y-70465056D01*
X123260568Y-70297855D01*
X123457855Y-70100568D01*
X123625056Y-69877213D01*
X123758769Y-69632337D01*
X123856271Y-69370923D01*
X123910907Y-69119768D01*
X123915577Y-69098299D01*
X123915577Y-69098298D01*
X123915578Y-69098294D01*
X123935482Y-68820000D01*
X123915578Y-68541706D01*
X123856271Y-68269077D01*
X123758769Y-68007663D01*
X123739413Y-67972216D01*
X123625059Y-67762792D01*
X123625054Y-67762784D01*
X123457861Y-67539439D01*
X123457845Y-67539421D01*
X123260578Y-67342154D01*
X123260560Y-67342138D01*
X123037215Y-67174945D01*
X123037207Y-67174940D01*
X122792342Y-67041233D01*
X122792338Y-67041231D01*
X122641358Y-66984919D01*
X122585424Y-66943048D01*
X122561007Y-66877583D01*
X122575859Y-66809310D01*
X122625264Y-66759905D01*
X122627503Y-66758711D01*
X122665002Y-66739254D01*
X122669888Y-66736985D01*
X123070402Y-66571932D01*
X123075459Y-66570102D01*
X123445518Y-66454351D01*
X123488886Y-66440786D01*
X123494135Y-66439393D01*
X123917274Y-66346808D01*
X123922621Y-66345883D01*
X124126690Y-66319688D01*
X124352247Y-66290735D01*
X124357630Y-66290282D01*
X124743542Y-66274868D01*
X124793167Y-66272887D01*
X126603660Y-66280043D01*
G37*
G04 #@! TD.AperFunction*
G04 #@! TA.AperFunction,Conductor*
G36*
X159943039Y-78859685D02*
G01*
X159988794Y-78912489D01*
X160000000Y-78964000D01*
X160000000Y-100716000D01*
X159980315Y-100783039D01*
X159927511Y-100828794D01*
X159876000Y-100840000D01*
X139124000Y-100840000D01*
X139056961Y-100820315D01*
X139011206Y-100767511D01*
X139000000Y-100716000D01*
X139000000Y-78964000D01*
X139019685Y-78896961D01*
X139072489Y-78851206D01*
X139124000Y-78840000D01*
X159876000Y-78840000D01*
X159943039Y-78859685D01*
G37*
G04 #@! TD.AperFunction*
M02*
