M48
; DRILL file {KiCad 7.0.9} date Wed Nov  8 23:19:26 2023
; FORMAT={-:-/ absolute / metric / decimal}
; #@! TF.CreationDate,2023-11-08T23:19:26+02:00
; #@! TF.GenerationSoftware,Kicad,Pcbnew,7.0.9
; #@! TF.FileFunction,Plated,1,2,PTH
FMAT,2
METRIC
; #@! TA.AperFunction,Plated,PTH,ViaDrill
T1C0.400
; #@! TA.AperFunction,Plated,PTH,ComponentDrill
T2C1.000
%
G90
G05
T1
X189.12Y-103.37
X190.92Y-105.95
X193.46Y-107.89
X196.0Y-98.0
X201.12Y-88.01
X202.045Y-103.465
X202.05Y-91.79
X203.62Y-89.25
X206.16Y-68.0
X207.18Y-107.87
X209.69Y-106.02
X211.24Y-86.57
X213.8Y-69.32
X216.32Y-71.19
X221.95Y-69.32
X224.11Y-71.19
X226.48Y-82.19
X229.11Y-68.0
X231.15Y-78.26
X233.04Y-93.92
X256.28Y-103.44
T2
X188.38Y-62.31
X188.38Y-64.85
X190.92Y-62.31
X190.92Y-64.85
X193.46Y-62.31
X193.46Y-64.85
X196.0Y-62.31
X196.0Y-64.85
X198.54Y-62.31
X198.54Y-64.85
X201.08Y-62.31
X201.08Y-64.85
X202.075Y-112.5
X203.62Y-62.31
X203.62Y-64.85
X204.615Y-112.5
X206.16Y-62.31
X206.16Y-64.85
X207.155Y-112.5
X208.7Y-62.31
X208.7Y-64.85
X209.695Y-112.5
X211.24Y-62.31
X211.24Y-64.85
X212.235Y-112.5
X213.78Y-62.31
X213.78Y-64.85
X214.775Y-112.5
X216.32Y-62.31
X216.32Y-64.85
X217.315Y-112.5
X218.45Y-84.09
X218.45Y-86.63
X218.45Y-89.17
X218.45Y-91.71
X218.86Y-62.31
X218.86Y-64.85
X219.855Y-112.5
X220.99Y-84.09
X220.99Y-86.63
X220.99Y-89.17
X220.99Y-91.71
X221.4Y-62.31
X221.4Y-64.85
X222.395Y-112.5
X223.94Y-62.31
X223.94Y-64.85
X224.935Y-112.5
X226.48Y-62.31
X226.48Y-64.85
X229.02Y-62.31
X229.02Y-64.85
X231.56Y-62.31
X231.56Y-64.85
X234.1Y-62.31
X234.1Y-64.85
X236.64Y-62.31
X236.64Y-64.85
T0
M30
