G04 #@! TF.GenerationSoftware,KiCad,Pcbnew,7.0.9*
G04 #@! TF.CreationDate,2023-11-08T23:19:24+02:00*
G04 #@! TF.ProjectId,CubeSAT,43756265-5341-4542-9e6b-696361645f70,rev?*
G04 #@! TF.SameCoordinates,Original*
G04 #@! TF.FileFunction,Soldermask,Bot*
G04 #@! TF.FilePolarity,Negative*
%FSLAX46Y46*%
G04 Gerber Fmt 4.6, Leading zero omitted, Abs format (unit mm)*
G04 Created by KiCad (PCBNEW 7.0.9) date 2023-11-08 23:19:24*
%MOMM*%
%LPD*%
G01*
G04 APERTURE LIST*
%ADD10R,1.700000X1.700000*%
%ADD11O,1.700000X1.700000*%
%ADD12C,2.700000*%
G04 APERTURE END LIST*
D10*
X202075000Y-112500000D03*
D11*
X204615000Y-112500000D03*
X207155000Y-112500000D03*
X209695000Y-112500000D03*
X212235000Y-112500000D03*
X214775000Y-112500000D03*
X217315000Y-112500000D03*
X219855000Y-112500000D03*
X222395000Y-112500000D03*
X224935000Y-112500000D03*
D12*
X183500000Y-63500000D03*
X183500000Y-112500000D03*
X241500000Y-112500000D03*
X241500000Y-63500000D03*
D10*
X220990000Y-91710000D03*
D11*
X218450000Y-91710000D03*
X220990000Y-89170000D03*
X218450000Y-89170000D03*
X220990000Y-86630000D03*
X218450000Y-86630000D03*
X220990000Y-84090000D03*
X218450000Y-84090000D03*
D10*
X188380000Y-62310000D03*
D11*
X188380000Y-64850000D03*
X190920000Y-62310000D03*
X190920000Y-64850000D03*
X193460000Y-62310000D03*
X193460000Y-64850000D03*
X196000000Y-62310000D03*
X196000000Y-64850000D03*
X198540000Y-62310000D03*
X198540000Y-64850000D03*
X201080000Y-62310000D03*
X201080000Y-64850000D03*
X203620000Y-62310000D03*
X203620000Y-64850000D03*
X206160000Y-62310000D03*
X206160000Y-64850000D03*
X208700000Y-62310000D03*
X208700000Y-64850000D03*
X211240000Y-62310000D03*
X211240000Y-64850000D03*
X213780000Y-62310000D03*
X213780000Y-64850000D03*
X216320000Y-62310000D03*
X216320000Y-64850000D03*
X218860000Y-62310000D03*
X218860000Y-64850000D03*
X221400000Y-62310000D03*
X221400000Y-64850000D03*
X223940000Y-62310000D03*
X223940000Y-64850000D03*
X226480000Y-62310000D03*
X226480000Y-64850000D03*
X229020000Y-62310000D03*
X229020000Y-64850000D03*
X231560000Y-62310000D03*
X231560000Y-64850000D03*
X234100000Y-62310000D03*
X234100000Y-64850000D03*
X236640000Y-62310000D03*
X236640000Y-64850000D03*
M02*
