G04 #@! TF.GenerationSoftware,KiCad,Pcbnew,7.0.9*
G04 #@! TF.CreationDate,2023-11-08T23:19:24+02:00*
G04 #@! TF.ProjectId,CubeSAT,43756265-5341-4542-9e6b-696361645f70,rev?*
G04 #@! TF.SameCoordinates,Original*
G04 #@! TF.FileFunction,Copper,L2,Bot*
G04 #@! TF.FilePolarity,Positive*
%FSLAX46Y46*%
G04 Gerber Fmt 4.6, Leading zero omitted, Abs format (unit mm)*
G04 Created by KiCad (PCBNEW 7.0.9) date 2023-11-08 23:19:24*
%MOMM*%
%LPD*%
G01*
G04 APERTURE LIST*
G04 #@! TA.AperFunction,ComponentPad*
%ADD10R,1.700000X1.700000*%
G04 #@! TD*
G04 #@! TA.AperFunction,ComponentPad*
%ADD11O,1.700000X1.700000*%
G04 #@! TD*
G04 #@! TA.AperFunction,ViaPad*
%ADD12C,0.800000*%
G04 #@! TD*
G04 #@! TA.AperFunction,Conductor*
%ADD13C,0.500000*%
G04 #@! TD*
G04 APERTURE END LIST*
D10*
X202075000Y-112500000D03*
D11*
X204615000Y-112500000D03*
X207155000Y-112500000D03*
X209695000Y-112500000D03*
X212235000Y-112500000D03*
X214775000Y-112500000D03*
X217315000Y-112500000D03*
X219855000Y-112500000D03*
X222395000Y-112500000D03*
X224935000Y-112500000D03*
D10*
X220990000Y-91710000D03*
D11*
X218450000Y-91710000D03*
X220990000Y-89170000D03*
X218450000Y-89170000D03*
X220990000Y-86630000D03*
X218450000Y-86630000D03*
X220990000Y-84090000D03*
X218450000Y-84090000D03*
D10*
X188380000Y-62310000D03*
D11*
X188380000Y-64850000D03*
X190920000Y-62310000D03*
X190920000Y-64850000D03*
X193460000Y-62310000D03*
X193460000Y-64850000D03*
X196000000Y-62310000D03*
X196000000Y-64850000D03*
X198540000Y-62310000D03*
X198540000Y-64850000D03*
X201080000Y-62310000D03*
X201080000Y-64850000D03*
X203620000Y-62310000D03*
X203620000Y-64850000D03*
X206160000Y-62310000D03*
X206160000Y-64850000D03*
X208700000Y-62310000D03*
X208700000Y-64850000D03*
X211240000Y-62310000D03*
X211240000Y-64850000D03*
X213780000Y-62310000D03*
X213780000Y-64850000D03*
X216320000Y-62310000D03*
X216320000Y-64850000D03*
X218860000Y-62310000D03*
X218860000Y-64850000D03*
X221400000Y-62310000D03*
X221400000Y-64850000D03*
X223940000Y-62310000D03*
X223940000Y-64850000D03*
X226480000Y-62310000D03*
X226480000Y-64850000D03*
X229020000Y-62310000D03*
X229020000Y-64850000D03*
X231560000Y-62310000D03*
X231560000Y-64850000D03*
X234100000Y-62310000D03*
X234100000Y-64850000D03*
X236640000Y-62310000D03*
X236640000Y-64850000D03*
D12*
X189120000Y-103370000D03*
X202045000Y-103465000D03*
X202050000Y-91790000D03*
X256280000Y-103440000D03*
X190920000Y-105950000D03*
X209690000Y-106020000D03*
X193460000Y-107890000D03*
X207180000Y-107870000D03*
X221950000Y-69320000D03*
X213800000Y-69320000D03*
X211240000Y-86570000D03*
X224110000Y-71190000D03*
X216320000Y-71190000D03*
X203620000Y-89250000D03*
X229110000Y-68000000D03*
X206160000Y-68000000D03*
X226480000Y-82190000D03*
X231150000Y-78260000D03*
X196000000Y-98000000D03*
X201120000Y-88010000D03*
X233040000Y-93920000D03*
D13*
X202045000Y-91790000D02*
X202050000Y-91790000D01*
X202050000Y-91790000D02*
X202045000Y-103465000D01*
X256330000Y-103390000D02*
X256330000Y-91820000D01*
X189120000Y-65590000D02*
X188380000Y-64850000D01*
X202075000Y-103495000D02*
X202075000Y-112500000D01*
X189120000Y-103370000D02*
X189120000Y-65590000D01*
X202045000Y-103465000D02*
X202075000Y-103495000D01*
X256280000Y-103440000D02*
X256330000Y-103390000D01*
X209695000Y-106025000D02*
X209690000Y-106020000D01*
X190920000Y-64850000D02*
X190920000Y-105950000D01*
X209695000Y-112500000D02*
X209695000Y-106025000D01*
X207155000Y-107895000D02*
X207180000Y-107870000D01*
X193460000Y-64850000D02*
X193460000Y-107890000D01*
X207155000Y-112500000D02*
X207155000Y-107895000D01*
X221950000Y-83130000D02*
X220990000Y-84090000D01*
X213780000Y-69300000D02*
X213800000Y-69320000D01*
X213780000Y-64850000D02*
X213780000Y-69300000D01*
X221950000Y-69320000D02*
X221950000Y-83130000D01*
X211240000Y-64850000D02*
X211240000Y-86570000D01*
X211240000Y-86570000D02*
X211240000Y-86600000D01*
X224110000Y-83510000D02*
X220990000Y-86630000D01*
X216320000Y-64850000D02*
X216320000Y-71190000D01*
X224110000Y-71190000D02*
X224110000Y-83510000D01*
X203620000Y-89250000D02*
X203620000Y-64850000D01*
X229110000Y-68000000D02*
X229110000Y-84910000D01*
X229110000Y-84910000D02*
X224850000Y-89170000D01*
X206160000Y-64850000D02*
X206160000Y-68000000D01*
X224850000Y-89170000D02*
X220990000Y-89170000D01*
X226480000Y-82190000D02*
X226480000Y-64850000D01*
X231150000Y-78260000D02*
X231170000Y-78240000D01*
X231170000Y-78240000D02*
X231170000Y-67000000D01*
X231170000Y-67000000D02*
X229020000Y-64850000D01*
X196000000Y-97600000D02*
X196000000Y-98000000D01*
X196000000Y-64850000D02*
X196000000Y-97600000D01*
X201120000Y-88010000D02*
X201080000Y-87970000D01*
X201080000Y-87970000D02*
X201080000Y-64850000D01*
X233040000Y-93920000D02*
X233020000Y-93900000D01*
X233020000Y-66310000D02*
X231560000Y-64850000D01*
X233020000Y-93900000D02*
X233020000Y-66310000D01*
G04 #@! TA.AperFunction,Conductor*
G36*
X259489594Y-61142753D02*
G01*
X259690958Y-61152026D01*
X259877922Y-61160637D01*
X259883986Y-61161215D01*
X260267150Y-61216923D01*
X260273113Y-61218092D01*
X260648966Y-61311162D01*
X260654791Y-61312913D01*
X261019668Y-61442435D01*
X261025304Y-61444754D01*
X261375694Y-61609480D01*
X261381074Y-61612340D01*
X261547340Y-61711513D01*
X261713601Y-61810683D01*
X261718672Y-61814055D01*
X261934031Y-61973126D01*
X262030110Y-62044093D01*
X262034832Y-62047954D01*
X262322177Y-62307464D01*
X262326491Y-62311764D01*
X262586961Y-62598236D01*
X262590832Y-62602939D01*
X262821910Y-62913603D01*
X262825305Y-62918671D01*
X263024754Y-63250521D01*
X263027635Y-63255897D01*
X263071724Y-63348868D01*
X263175814Y-63568366D01*
X263193536Y-63605735D01*
X263195866Y-63611346D01*
X263309591Y-63928348D01*
X263326614Y-63975798D01*
X263328389Y-63981633D01*
X263422711Y-64357151D01*
X263423904Y-64363133D01*
X263480893Y-64746086D01*
X263481493Y-64752156D01*
X263500675Y-65140394D01*
X263500751Y-65143442D01*
X263509252Y-110550368D01*
X263509178Y-110553405D01*
X263490286Y-110940175D01*
X263489693Y-110946223D01*
X263433276Y-111327780D01*
X263432094Y-111333740D01*
X263338613Y-111707972D01*
X263336854Y-111713788D01*
X263207218Y-112077055D01*
X263204898Y-112082671D01*
X263040338Y-112431528D01*
X263037479Y-112436890D01*
X262839589Y-112767958D01*
X262836219Y-112773015D01*
X262606876Y-113083151D01*
X262603028Y-113087853D01*
X262344448Y-113374063D01*
X262340158Y-113378367D01*
X262054824Y-113637899D01*
X262050134Y-113641763D01*
X261740779Y-113872134D01*
X261735734Y-113875520D01*
X261405311Y-114074529D01*
X261399959Y-114077406D01*
X261051665Y-114243129D01*
X261046064Y-114245465D01*
X260921520Y-114290381D01*
X260683219Y-114376321D01*
X260677409Y-114378100D01*
X260303508Y-114472830D01*
X260297551Y-114474032D01*
X259916170Y-114531729D01*
X259910129Y-114532342D01*
X259523375Y-114552532D01*
X259520429Y-114552613D01*
X185293397Y-114787309D01*
X185290404Y-114787245D01*
X185190221Y-114782632D01*
X184902077Y-114769362D01*
X184896005Y-114768783D01*
X184512858Y-114713077D01*
X184506872Y-114711904D01*
X184131043Y-114618840D01*
X184125201Y-114617084D01*
X183760336Y-114487566D01*
X183754695Y-114485245D01*
X183438761Y-114336718D01*
X183386466Y-114290381D01*
X183367525Y-114223128D01*
X183387950Y-114156311D01*
X183441256Y-114111143D01*
X183491517Y-114100500D01*
X183562884Y-114100500D01*
X183592518Y-114098167D01*
X183751148Y-114085683D01*
X183996111Y-114026873D01*
X184228859Y-113930466D01*
X184443659Y-113798836D01*
X184635224Y-113635224D01*
X184798836Y-113443659D01*
X184844126Y-113369752D01*
X201024500Y-113369752D01*
X201036131Y-113428229D01*
X201036132Y-113428230D01*
X201080447Y-113494552D01*
X201146769Y-113538867D01*
X201146770Y-113538868D01*
X201205247Y-113550499D01*
X201205250Y-113550500D01*
X201205252Y-113550500D01*
X202944750Y-113550500D01*
X202944751Y-113550499D01*
X202959568Y-113547552D01*
X203003229Y-113538868D01*
X203003229Y-113538867D01*
X203003231Y-113538867D01*
X203069552Y-113494552D01*
X203113867Y-113428231D01*
X203113867Y-113428229D01*
X203113868Y-113428229D01*
X203122552Y-113384568D01*
X203125500Y-113369748D01*
X203125500Y-112349999D01*
X203473972Y-112349999D01*
X203473973Y-112350000D01*
X204137935Y-112350000D01*
X204115000Y-112428111D01*
X204115000Y-112571889D01*
X204137935Y-112650000D01*
X203473973Y-112650000D01*
X203479738Y-112712218D01*
X203538058Y-112917196D01*
X203538066Y-112917216D01*
X203633059Y-113107989D01*
X203761500Y-113278071D01*
X203919000Y-113421651D01*
X203919002Y-113421653D01*
X204100201Y-113533846D01*
X204100207Y-113533849D01*
X204298936Y-113610836D01*
X204465000Y-113641879D01*
X204465000Y-112981170D01*
X204472685Y-112984680D01*
X204579237Y-113000000D01*
X204650763Y-113000000D01*
X204757315Y-112984680D01*
X204765000Y-112981170D01*
X204765000Y-113641879D01*
X204931063Y-113610836D01*
X205129792Y-113533849D01*
X205129798Y-113533846D01*
X205310997Y-113421653D01*
X205310999Y-113421651D01*
X205468499Y-113278071D01*
X205596940Y-113107989D01*
X205691933Y-112917216D01*
X205691941Y-112917196D01*
X205750261Y-112712218D01*
X205756027Y-112650000D01*
X205092065Y-112650000D01*
X205115000Y-112571889D01*
X205115000Y-112500000D01*
X206099417Y-112500000D01*
X206119699Y-112705932D01*
X206149734Y-112804944D01*
X206179768Y-112903954D01*
X206277315Y-113086450D01*
X206311969Y-113128677D01*
X206408589Y-113246410D01*
X206447169Y-113278071D01*
X206568550Y-113377685D01*
X206751046Y-113475232D01*
X206949066Y-113535300D01*
X206949065Y-113535300D01*
X206967529Y-113537118D01*
X207155000Y-113555583D01*
X207360934Y-113535300D01*
X207558954Y-113475232D01*
X207741450Y-113377685D01*
X207901410Y-113246410D01*
X208032685Y-113086450D01*
X208130232Y-112903954D01*
X208190300Y-112705934D01*
X208210583Y-112500000D01*
X208639417Y-112500000D01*
X208659699Y-112705932D01*
X208689734Y-112804944D01*
X208719768Y-112903954D01*
X208817315Y-113086450D01*
X208851969Y-113128677D01*
X208948589Y-113246410D01*
X208987169Y-113278071D01*
X209108550Y-113377685D01*
X209291046Y-113475232D01*
X209489066Y-113535300D01*
X209489065Y-113535300D01*
X209507529Y-113537118D01*
X209695000Y-113555583D01*
X209900934Y-113535300D01*
X210098954Y-113475232D01*
X210281450Y-113377685D01*
X210441410Y-113246410D01*
X210572685Y-113086450D01*
X210670232Y-112903954D01*
X210730300Y-112705934D01*
X210750583Y-112500000D01*
X211179417Y-112500000D01*
X211199699Y-112705932D01*
X211229734Y-112804944D01*
X211259768Y-112903954D01*
X211357315Y-113086450D01*
X211391969Y-113128677D01*
X211488589Y-113246410D01*
X211527169Y-113278071D01*
X211648550Y-113377685D01*
X211831046Y-113475232D01*
X212029066Y-113535300D01*
X212029065Y-113535300D01*
X212047529Y-113537118D01*
X212235000Y-113555583D01*
X212440934Y-113535300D01*
X212638954Y-113475232D01*
X212821450Y-113377685D01*
X212981410Y-113246410D01*
X213112685Y-113086450D01*
X213210232Y-112903954D01*
X213270300Y-112705934D01*
X213290583Y-112500000D01*
X213719417Y-112500000D01*
X213739699Y-112705932D01*
X213769734Y-112804944D01*
X213799768Y-112903954D01*
X213897315Y-113086450D01*
X213931969Y-113128677D01*
X214028589Y-113246410D01*
X214067169Y-113278071D01*
X214188550Y-113377685D01*
X214371046Y-113475232D01*
X214569066Y-113535300D01*
X214569065Y-113535300D01*
X214587529Y-113537118D01*
X214775000Y-113555583D01*
X214980934Y-113535300D01*
X215178954Y-113475232D01*
X215361450Y-113377685D01*
X215521410Y-113246410D01*
X215652685Y-113086450D01*
X215750232Y-112903954D01*
X215810300Y-112705934D01*
X215830583Y-112500000D01*
X216259417Y-112500000D01*
X216279699Y-112705932D01*
X216309734Y-112804944D01*
X216339768Y-112903954D01*
X216437315Y-113086450D01*
X216471969Y-113128677D01*
X216568589Y-113246410D01*
X216607169Y-113278071D01*
X216728550Y-113377685D01*
X216911046Y-113475232D01*
X217109066Y-113535300D01*
X217109065Y-113535300D01*
X217127529Y-113537118D01*
X217315000Y-113555583D01*
X217520934Y-113535300D01*
X217718954Y-113475232D01*
X217901450Y-113377685D01*
X218061410Y-113246410D01*
X218192685Y-113086450D01*
X218290232Y-112903954D01*
X218350300Y-112705934D01*
X218370583Y-112500000D01*
X218799417Y-112500000D01*
X218819699Y-112705932D01*
X218849734Y-112804944D01*
X218879768Y-112903954D01*
X218977315Y-113086450D01*
X219011969Y-113128677D01*
X219108589Y-113246410D01*
X219147169Y-113278071D01*
X219268550Y-113377685D01*
X219451046Y-113475232D01*
X219649066Y-113535300D01*
X219649065Y-113535300D01*
X219667529Y-113537118D01*
X219855000Y-113555583D01*
X220060934Y-113535300D01*
X220258954Y-113475232D01*
X220441450Y-113377685D01*
X220601410Y-113246410D01*
X220732685Y-113086450D01*
X220830232Y-112903954D01*
X220890300Y-112705934D01*
X220910583Y-112500000D01*
X221339417Y-112500000D01*
X221359699Y-112705932D01*
X221389734Y-112804944D01*
X221419768Y-112903954D01*
X221517315Y-113086450D01*
X221551969Y-113128677D01*
X221648589Y-113246410D01*
X221687169Y-113278071D01*
X221808550Y-113377685D01*
X221991046Y-113475232D01*
X222189066Y-113535300D01*
X222189065Y-113535300D01*
X222207529Y-113537118D01*
X222395000Y-113555583D01*
X222600934Y-113535300D01*
X222798954Y-113475232D01*
X222981450Y-113377685D01*
X223141410Y-113246410D01*
X223272685Y-113086450D01*
X223370232Y-112903954D01*
X223430300Y-112705934D01*
X223450583Y-112500000D01*
X223879417Y-112500000D01*
X223899699Y-112705932D01*
X223929734Y-112804944D01*
X223959768Y-112903954D01*
X224057315Y-113086450D01*
X224091969Y-113128677D01*
X224188589Y-113246410D01*
X224227169Y-113278071D01*
X224348550Y-113377685D01*
X224531046Y-113475232D01*
X224729066Y-113535300D01*
X224729065Y-113535300D01*
X224747529Y-113537118D01*
X224935000Y-113555583D01*
X225140934Y-113535300D01*
X225338954Y-113475232D01*
X225521450Y-113377685D01*
X225681410Y-113246410D01*
X225812685Y-113086450D01*
X225910232Y-112903954D01*
X225970300Y-112705934D01*
X225990583Y-112500000D01*
X239894551Y-112500000D01*
X239914317Y-112751151D01*
X239973126Y-112996110D01*
X240069533Y-113228859D01*
X240201160Y-113443653D01*
X240201161Y-113443656D01*
X240228128Y-113475230D01*
X240364776Y-113635224D01*
X240513066Y-113761875D01*
X240556343Y-113798838D01*
X240556346Y-113798839D01*
X240771140Y-113930466D01*
X241003889Y-114026873D01*
X241248852Y-114085683D01*
X241404950Y-114097968D01*
X241437116Y-114100500D01*
X241437118Y-114100500D01*
X241562884Y-114100500D01*
X241592518Y-114098167D01*
X241751148Y-114085683D01*
X241996111Y-114026873D01*
X242228859Y-113930466D01*
X242443659Y-113798836D01*
X242635224Y-113635224D01*
X242798836Y-113443659D01*
X242930466Y-113228859D01*
X243026873Y-112996111D01*
X243085683Y-112751148D01*
X243105449Y-112500000D01*
X243085683Y-112248852D01*
X243026873Y-112003889D01*
X243025262Y-112000000D01*
X242930466Y-111771140D01*
X242798839Y-111556346D01*
X242798838Y-111556343D01*
X242721808Y-111466153D01*
X242635224Y-111364776D01*
X242508571Y-111256604D01*
X242443656Y-111201161D01*
X242443653Y-111201160D01*
X242228859Y-111069533D01*
X241996110Y-110973126D01*
X241751150Y-110914317D01*
X241562884Y-110899500D01*
X241562882Y-110899500D01*
X241437118Y-110899500D01*
X241437116Y-110899500D01*
X241248849Y-110914317D01*
X241003889Y-110973126D01*
X240771140Y-111069533D01*
X240556346Y-111201160D01*
X240556343Y-111201161D01*
X240364776Y-111364776D01*
X240201161Y-111556343D01*
X240201160Y-111556346D01*
X240069533Y-111771140D01*
X239973126Y-112003889D01*
X239914317Y-112248848D01*
X239894551Y-112500000D01*
X225990583Y-112500000D01*
X225970300Y-112294066D01*
X225910232Y-112096046D01*
X225812685Y-111913550D01*
X225695813Y-111771140D01*
X225681410Y-111753589D01*
X225531121Y-111630252D01*
X225521450Y-111622315D01*
X225338954Y-111524768D01*
X225140934Y-111464700D01*
X225140932Y-111464699D01*
X225140934Y-111464699D01*
X224935000Y-111444417D01*
X224729067Y-111464699D01*
X224531043Y-111524769D01*
X224471968Y-111556346D01*
X224348550Y-111622315D01*
X224348548Y-111622316D01*
X224348547Y-111622317D01*
X224188589Y-111753589D01*
X224074992Y-111892010D01*
X224057315Y-111913550D01*
X224018643Y-111985898D01*
X223959769Y-112096043D01*
X223899699Y-112294067D01*
X223879417Y-112500000D01*
X223450583Y-112500000D01*
X223430300Y-112294066D01*
X223370232Y-112096046D01*
X223272685Y-111913550D01*
X223155813Y-111771140D01*
X223141410Y-111753589D01*
X222991121Y-111630252D01*
X222981450Y-111622315D01*
X222798954Y-111524768D01*
X222600934Y-111464700D01*
X222600932Y-111464699D01*
X222600934Y-111464699D01*
X222395000Y-111444417D01*
X222189067Y-111464699D01*
X221991043Y-111524769D01*
X221931968Y-111556346D01*
X221808550Y-111622315D01*
X221808548Y-111622316D01*
X221808547Y-111622317D01*
X221648589Y-111753589D01*
X221534992Y-111892010D01*
X221517315Y-111913550D01*
X221478643Y-111985898D01*
X221419769Y-112096043D01*
X221359699Y-112294067D01*
X221339417Y-112500000D01*
X220910583Y-112500000D01*
X220890300Y-112294066D01*
X220830232Y-112096046D01*
X220732685Y-111913550D01*
X220615813Y-111771140D01*
X220601410Y-111753589D01*
X220451121Y-111630252D01*
X220441450Y-111622315D01*
X220258954Y-111524768D01*
X220060934Y-111464700D01*
X220060932Y-111464699D01*
X220060934Y-111464699D01*
X219855000Y-111444417D01*
X219649067Y-111464699D01*
X219451043Y-111524769D01*
X219391968Y-111556346D01*
X219268550Y-111622315D01*
X219268548Y-111622316D01*
X219268547Y-111622317D01*
X219108589Y-111753589D01*
X218994992Y-111892010D01*
X218977315Y-111913550D01*
X218938643Y-111985898D01*
X218879769Y-112096043D01*
X218819699Y-112294067D01*
X218799417Y-112500000D01*
X218370583Y-112500000D01*
X218350300Y-112294066D01*
X218290232Y-112096046D01*
X218192685Y-111913550D01*
X218075813Y-111771140D01*
X218061410Y-111753589D01*
X217911121Y-111630252D01*
X217901450Y-111622315D01*
X217718954Y-111524768D01*
X217520934Y-111464700D01*
X217520932Y-111464699D01*
X217520934Y-111464699D01*
X217315000Y-111444417D01*
X217109067Y-111464699D01*
X216911043Y-111524769D01*
X216851968Y-111556346D01*
X216728550Y-111622315D01*
X216728548Y-111622316D01*
X216728547Y-111622317D01*
X216568589Y-111753589D01*
X216454992Y-111892010D01*
X216437315Y-111913550D01*
X216398643Y-111985898D01*
X216339769Y-112096043D01*
X216279699Y-112294067D01*
X216259417Y-112500000D01*
X215830583Y-112500000D01*
X215810300Y-112294066D01*
X215750232Y-112096046D01*
X215652685Y-111913550D01*
X215535813Y-111771140D01*
X215521410Y-111753589D01*
X215371121Y-111630252D01*
X215361450Y-111622315D01*
X215178954Y-111524768D01*
X214980934Y-111464700D01*
X214980932Y-111464699D01*
X214980934Y-111464699D01*
X214775000Y-111444417D01*
X214569067Y-111464699D01*
X214371043Y-111524769D01*
X214311968Y-111556346D01*
X214188550Y-111622315D01*
X214188548Y-111622316D01*
X214188547Y-111622317D01*
X214028589Y-111753589D01*
X213914992Y-111892010D01*
X213897315Y-111913550D01*
X213858643Y-111985898D01*
X213799769Y-112096043D01*
X213739699Y-112294067D01*
X213719417Y-112500000D01*
X213290583Y-112500000D01*
X213270300Y-112294066D01*
X213210232Y-112096046D01*
X213112685Y-111913550D01*
X212995813Y-111771140D01*
X212981410Y-111753589D01*
X212831121Y-111630252D01*
X212821450Y-111622315D01*
X212638954Y-111524768D01*
X212440934Y-111464700D01*
X212440932Y-111464699D01*
X212440934Y-111464699D01*
X212235000Y-111444417D01*
X212029067Y-111464699D01*
X211831043Y-111524769D01*
X211771968Y-111556346D01*
X211648550Y-111622315D01*
X211648548Y-111622316D01*
X211648547Y-111622317D01*
X211488589Y-111753589D01*
X211374992Y-111892010D01*
X211357315Y-111913550D01*
X211318643Y-111985898D01*
X211259769Y-112096043D01*
X211199699Y-112294067D01*
X211179417Y-112500000D01*
X210750583Y-112500000D01*
X210730300Y-112294066D01*
X210670232Y-112096046D01*
X210572685Y-111913550D01*
X210455813Y-111771140D01*
X210441410Y-111753589D01*
X210281450Y-111622315D01*
X210211045Y-111584681D01*
X210161201Y-111535718D01*
X210145500Y-111475324D01*
X210145500Y-106454902D01*
X210165185Y-106387863D01*
X210171125Y-106379415D01*
X210214535Y-106322842D01*
X210214534Y-106322842D01*
X210214536Y-106322841D01*
X210275044Y-106176762D01*
X210295682Y-106020000D01*
X210275044Y-105863238D01*
X210214536Y-105717159D01*
X210118282Y-105591718D01*
X209992841Y-105495464D01*
X209846762Y-105434956D01*
X209846760Y-105434955D01*
X209690001Y-105414318D01*
X209689999Y-105414318D01*
X209533239Y-105434955D01*
X209533237Y-105434956D01*
X209387160Y-105495463D01*
X209261718Y-105591718D01*
X209165463Y-105717160D01*
X209104956Y-105863237D01*
X209104955Y-105863239D01*
X209084318Y-106019998D01*
X209084318Y-106020001D01*
X209104955Y-106176760D01*
X209104956Y-106176762D01*
X209165464Y-106322841D01*
X209218876Y-106392450D01*
X209244070Y-106457618D01*
X209244500Y-106467935D01*
X209244500Y-111475324D01*
X209224815Y-111542363D01*
X209178955Y-111584681D01*
X209108549Y-111622315D01*
X208948589Y-111753589D01*
X208834992Y-111892010D01*
X208817315Y-111913550D01*
X208778643Y-111985898D01*
X208719769Y-112096043D01*
X208659699Y-112294067D01*
X208639417Y-112500000D01*
X208210583Y-112500000D01*
X208190300Y-112294066D01*
X208130232Y-112096046D01*
X208032685Y-111913550D01*
X207915813Y-111771140D01*
X207901410Y-111753589D01*
X207741450Y-111622315D01*
X207671045Y-111584681D01*
X207621201Y-111535718D01*
X207605500Y-111475324D01*
X207605500Y-108343999D01*
X207625185Y-108276960D01*
X207631110Y-108268531D01*
X207704536Y-108172841D01*
X207765044Y-108026762D01*
X207785682Y-107870000D01*
X207765044Y-107713238D01*
X207704536Y-107567159D01*
X207608282Y-107441718D01*
X207482841Y-107345464D01*
X207336762Y-107284956D01*
X207336760Y-107284955D01*
X207180001Y-107264318D01*
X207179999Y-107264318D01*
X207023239Y-107284955D01*
X207023237Y-107284956D01*
X206877160Y-107345463D01*
X206751718Y-107441718D01*
X206655463Y-107567160D01*
X206594956Y-107713237D01*
X206594955Y-107713239D01*
X206574318Y-107869998D01*
X206574318Y-107870001D01*
X206594955Y-108026760D01*
X206594957Y-108026765D01*
X206655461Y-108172836D01*
X206655461Y-108172837D01*
X206655463Y-108172839D01*
X206655464Y-108172841D01*
X206678876Y-108203353D01*
X206704070Y-108268520D01*
X206704500Y-108278838D01*
X206704500Y-111475324D01*
X206684815Y-111542363D01*
X206638955Y-111584681D01*
X206568549Y-111622315D01*
X206408589Y-111753589D01*
X206294992Y-111892010D01*
X206277315Y-111913550D01*
X206238643Y-111985898D01*
X206179769Y-112096043D01*
X206119699Y-112294067D01*
X206099417Y-112500000D01*
X205115000Y-112500000D01*
X205115000Y-112428111D01*
X205092065Y-112350000D01*
X205756027Y-112350000D01*
X205756027Y-112349999D01*
X205750261Y-112287781D01*
X205691941Y-112082803D01*
X205691933Y-112082783D01*
X205596940Y-111892010D01*
X205468499Y-111721928D01*
X205310999Y-111578348D01*
X205310997Y-111578346D01*
X205129798Y-111466153D01*
X205129789Y-111466149D01*
X204931060Y-111389162D01*
X204931061Y-111389162D01*
X204765000Y-111358119D01*
X204765000Y-112018829D01*
X204757315Y-112015320D01*
X204650763Y-112000000D01*
X204579237Y-112000000D01*
X204472685Y-112015320D01*
X204465000Y-112018829D01*
X204465000Y-111358119D01*
X204298939Y-111389162D01*
X204100210Y-111466149D01*
X204100201Y-111466153D01*
X203919002Y-111578346D01*
X203919000Y-111578348D01*
X203761500Y-111721928D01*
X203633059Y-111892010D01*
X203538066Y-112082783D01*
X203538058Y-112082803D01*
X203479738Y-112287781D01*
X203473972Y-112349999D01*
X203125500Y-112349999D01*
X203125500Y-111630252D01*
X203125500Y-111630249D01*
X203125499Y-111630247D01*
X203113868Y-111571770D01*
X203113867Y-111571769D01*
X203069552Y-111505447D01*
X203003230Y-111461132D01*
X203003229Y-111461131D01*
X202944752Y-111449500D01*
X202944748Y-111449500D01*
X202649500Y-111449500D01*
X202582461Y-111429815D01*
X202536706Y-111377011D01*
X202525500Y-111325500D01*
X202525500Y-103867321D01*
X202545185Y-103800282D01*
X202551113Y-103791848D01*
X202569536Y-103767841D01*
X202630044Y-103621762D01*
X202650682Y-103465000D01*
X202647390Y-103440001D01*
X255674318Y-103440001D01*
X255694955Y-103596760D01*
X255694956Y-103596762D01*
X255705310Y-103621760D01*
X255755464Y-103742841D01*
X255851718Y-103868282D01*
X255977159Y-103964536D01*
X256123238Y-104025044D01*
X256201619Y-104035363D01*
X256279999Y-104045682D01*
X256280000Y-104045682D01*
X256280001Y-104045682D01*
X256332254Y-104038802D01*
X256436762Y-104025044D01*
X256582841Y-103964536D01*
X256708282Y-103868282D01*
X256804536Y-103742841D01*
X256865044Y-103596762D01*
X256885682Y-103440000D01*
X256865044Y-103283238D01*
X256804536Y-103137159D01*
X256804534Y-103137156D01*
X256800472Y-103130119D01*
X256802213Y-103129113D01*
X256780930Y-103074057D01*
X256780500Y-103063742D01*
X256780500Y-91786237D01*
X256780499Y-91786232D01*
X256765348Y-91685713D01*
X256706425Y-91563358D01*
X256703309Y-91560000D01*
X256614055Y-91463806D01*
X256614053Y-91463805D01*
X256614053Y-91463804D01*
X256544172Y-91423459D01*
X256496445Y-91395904D01*
X256496443Y-91395903D01*
X256496442Y-91395903D01*
X256364043Y-91365684D01*
X256228624Y-91375833D01*
X256102205Y-91425447D01*
X255996028Y-91510122D01*
X255996027Y-91510123D01*
X255919529Y-91622324D01*
X255919527Y-91622328D01*
X255879500Y-91752096D01*
X255879500Y-102933419D01*
X255859815Y-103000458D01*
X255853876Y-103008905D01*
X255755464Y-103137157D01*
X255694956Y-103283237D01*
X255694955Y-103283239D01*
X255674318Y-103439998D01*
X255674318Y-103440001D01*
X202647390Y-103440001D01*
X202647390Y-103439998D01*
X202630044Y-103308239D01*
X202630044Y-103308238D01*
X202569536Y-103162159D01*
X202569535Y-103162158D01*
X202569535Y-103162157D01*
X202521313Y-103099313D01*
X202496119Y-103034144D01*
X202495689Y-103023774D01*
X202495730Y-102928580D01*
X202500309Y-92231609D01*
X202520022Y-92164582D01*
X202525918Y-92156200D01*
X202574536Y-92092841D01*
X202635044Y-91946762D01*
X202655682Y-91790000D01*
X202645150Y-91710000D01*
X217394417Y-91710000D01*
X217414699Y-91915932D01*
X217414700Y-91915934D01*
X217474768Y-92113954D01*
X217572315Y-92296450D01*
X217572317Y-92296452D01*
X217703589Y-92456410D01*
X217800209Y-92535702D01*
X217863550Y-92587685D01*
X218046046Y-92685232D01*
X218244066Y-92745300D01*
X218244065Y-92745300D01*
X218262529Y-92747118D01*
X218450000Y-92765583D01*
X218655934Y-92745300D01*
X218853954Y-92685232D01*
X219036450Y-92587685D01*
X219196410Y-92456410D01*
X219327685Y-92296450D01*
X219425232Y-92113954D01*
X219485300Y-91915934D01*
X219505583Y-91710000D01*
X219490809Y-91560000D01*
X219840000Y-91560000D01*
X220512935Y-91560000D01*
X220490000Y-91638111D01*
X220490000Y-91781889D01*
X220512935Y-91860000D01*
X219840001Y-91860000D01*
X219840001Y-92604785D01*
X219840002Y-92604808D01*
X219842908Y-92629869D01*
X219842909Y-92629873D01*
X219888211Y-92732474D01*
X219888214Y-92732479D01*
X219967520Y-92811785D01*
X219967525Y-92811788D01*
X220070123Y-92857089D01*
X220095206Y-92859999D01*
X220839999Y-92859999D01*
X220840000Y-92859998D01*
X220840000Y-92191170D01*
X220847685Y-92194680D01*
X220954237Y-92210000D01*
X221025763Y-92210000D01*
X221132315Y-92194680D01*
X221140000Y-92191170D01*
X221140000Y-92859999D01*
X221884786Y-92859999D01*
X221884808Y-92859997D01*
X221909869Y-92857091D01*
X221909873Y-92857090D01*
X222012474Y-92811788D01*
X222012479Y-92811785D01*
X222091785Y-92732479D01*
X222091788Y-92732474D01*
X222137089Y-92629877D01*
X222137089Y-92629875D01*
X222139999Y-92604794D01*
X222140000Y-92604791D01*
X222140000Y-91860000D01*
X221467065Y-91860000D01*
X221490000Y-91781889D01*
X221490000Y-91638111D01*
X221467065Y-91560000D01*
X222139999Y-91560000D01*
X222139999Y-90815214D01*
X222139997Y-90815191D01*
X222137091Y-90790130D01*
X222137090Y-90790126D01*
X222091788Y-90687525D01*
X222091785Y-90687520D01*
X222012479Y-90608214D01*
X222012474Y-90608211D01*
X221909876Y-90562910D01*
X221884794Y-90560000D01*
X221140000Y-90560000D01*
X221140000Y-91228829D01*
X221132315Y-91225320D01*
X221025763Y-91210000D01*
X220954237Y-91210000D01*
X220847685Y-91225320D01*
X220840000Y-91228829D01*
X220840000Y-90560000D01*
X220095214Y-90560000D01*
X220095191Y-90560002D01*
X220070130Y-90562908D01*
X220070126Y-90562909D01*
X219967525Y-90608211D01*
X219967520Y-90608214D01*
X219888214Y-90687520D01*
X219888211Y-90687525D01*
X219842910Y-90790122D01*
X219842910Y-90790124D01*
X219840000Y-90815205D01*
X219840000Y-91560000D01*
X219490809Y-91560000D01*
X219485300Y-91504066D01*
X219425232Y-91306046D01*
X219327685Y-91123550D01*
X219275702Y-91060209D01*
X219196410Y-90963589D01*
X219036452Y-90832317D01*
X219036453Y-90832317D01*
X219036450Y-90832315D01*
X218853954Y-90734768D01*
X218655934Y-90674700D01*
X218655932Y-90674699D01*
X218655934Y-90674699D01*
X218450000Y-90654417D01*
X218244067Y-90674699D01*
X218046043Y-90734769D01*
X217942487Y-90790122D01*
X217863550Y-90832315D01*
X217863548Y-90832316D01*
X217863547Y-90832317D01*
X217703589Y-90963589D01*
X217572317Y-91123547D01*
X217474769Y-91306043D01*
X217414699Y-91504067D01*
X217394417Y-91710000D01*
X202645150Y-91710000D01*
X202635044Y-91633238D01*
X202574536Y-91487159D01*
X202478282Y-91361718D01*
X202352841Y-91265464D01*
X202206762Y-91204956D01*
X202206760Y-91204955D01*
X202050001Y-91184318D01*
X202049999Y-91184318D01*
X201893239Y-91204955D01*
X201893237Y-91204956D01*
X201747160Y-91265463D01*
X201621718Y-91361718D01*
X201525463Y-91487160D01*
X201464956Y-91633237D01*
X201464955Y-91633239D01*
X201444318Y-91789998D01*
X201444318Y-91790001D01*
X201464955Y-91946760D01*
X201464956Y-91946762D01*
X201525464Y-92092842D01*
X201573685Y-92155685D01*
X201598879Y-92220854D01*
X201599309Y-92231224D01*
X201594689Y-103023386D01*
X201574976Y-103090417D01*
X201569066Y-103098818D01*
X201520464Y-103162158D01*
X201459956Y-103308237D01*
X201459955Y-103308239D01*
X201439318Y-103464998D01*
X201439318Y-103465001D01*
X201459955Y-103621760D01*
X201459956Y-103621762D01*
X201520464Y-103767842D01*
X201598876Y-103870030D01*
X201624070Y-103935199D01*
X201624500Y-103945516D01*
X201624500Y-111325500D01*
X201604815Y-111392539D01*
X201552011Y-111438294D01*
X201500500Y-111449500D01*
X201205247Y-111449500D01*
X201146770Y-111461131D01*
X201146769Y-111461132D01*
X201080447Y-111505447D01*
X201036132Y-111571769D01*
X201036131Y-111571770D01*
X201024500Y-111630247D01*
X201024500Y-113369752D01*
X184844126Y-113369752D01*
X184930466Y-113228859D01*
X185026873Y-112996111D01*
X185085683Y-112751148D01*
X185105449Y-112500000D01*
X185085683Y-112248852D01*
X185026873Y-112003889D01*
X185025262Y-112000000D01*
X184930466Y-111771140D01*
X184798839Y-111556346D01*
X184798838Y-111556343D01*
X184721808Y-111466153D01*
X184635224Y-111364776D01*
X184508571Y-111256604D01*
X184443656Y-111201161D01*
X184443653Y-111201160D01*
X184228859Y-111069533D01*
X183996110Y-110973126D01*
X183751150Y-110914317D01*
X183562884Y-110899500D01*
X183562882Y-110899500D01*
X183437118Y-110899500D01*
X183437116Y-110899500D01*
X183248849Y-110914317D01*
X183003889Y-110973126D01*
X182771140Y-111069533D01*
X182556346Y-111201160D01*
X182556343Y-111201161D01*
X182364776Y-111364776D01*
X182201161Y-111556343D01*
X182201160Y-111556346D01*
X182069533Y-111771140D01*
X181973126Y-112003889D01*
X181951002Y-112096046D01*
X181914317Y-112248852D01*
X181904191Y-112377506D01*
X181899033Y-112443047D01*
X181874149Y-112508335D01*
X181817917Y-112549805D01*
X181748192Y-112554292D01*
X181687109Y-112520369D01*
X181663375Y-112486449D01*
X181639873Y-112436890D01*
X181586456Y-112324247D01*
X181584136Y-112318664D01*
X181453380Y-111954186D01*
X181451614Y-111948380D01*
X181357287Y-111572843D01*
X181356095Y-111566866D01*
X181354529Y-111556346D01*
X181299105Y-111183912D01*
X181298506Y-111177843D01*
X181279324Y-110789605D01*
X181279248Y-110786585D01*
X181270747Y-65379619D01*
X181270821Y-65376594D01*
X181273612Y-65319460D01*
X181289714Y-64989810D01*
X181290303Y-64983800D01*
X181346726Y-64602200D01*
X181347905Y-64596259D01*
X181441386Y-64222027D01*
X181443139Y-64216227D01*
X181572787Y-63852928D01*
X181575095Y-63847340D01*
X181673159Y-63639452D01*
X181719561Y-63587221D01*
X181786839Y-63568366D01*
X181853630Y-63588878D01*
X181898729Y-63642244D01*
X181908924Y-63682626D01*
X181914317Y-63751148D01*
X181914318Y-63751151D01*
X181973126Y-63996110D01*
X182069533Y-64228859D01*
X182201160Y-64443653D01*
X182201161Y-64443656D01*
X182256604Y-64508571D01*
X182364776Y-64635224D01*
X182494579Y-64746086D01*
X182556343Y-64798838D01*
X182556346Y-64798839D01*
X182771140Y-64930466D01*
X183003889Y-65026873D01*
X183248852Y-65085683D01*
X183404950Y-65097968D01*
X183437116Y-65100500D01*
X183437118Y-65100500D01*
X183562884Y-65100500D01*
X183592518Y-65098167D01*
X183751148Y-65085683D01*
X183996111Y-65026873D01*
X184228859Y-64930466D01*
X184360167Y-64850000D01*
X187324417Y-64850000D01*
X187344699Y-65055932D01*
X187344700Y-65055934D01*
X187404768Y-65253954D01*
X187502315Y-65436450D01*
X187536969Y-65478677D01*
X187633589Y-65596410D01*
X187672169Y-65628071D01*
X187793550Y-65727685D01*
X187976046Y-65825232D01*
X188174066Y-65885300D01*
X188174065Y-65885300D01*
X188194348Y-65887297D01*
X188380000Y-65905583D01*
X188533347Y-65890479D01*
X188601991Y-65903498D01*
X188652702Y-65951562D01*
X188669500Y-66013882D01*
X188669500Y-102928580D01*
X188649815Y-102995619D01*
X188643876Y-103004066D01*
X188595464Y-103067157D01*
X188534956Y-103213237D01*
X188534955Y-103213239D01*
X188514318Y-103369998D01*
X188514318Y-103370001D01*
X188534955Y-103526760D01*
X188534956Y-103526762D01*
X188574307Y-103621765D01*
X188595464Y-103672841D01*
X188691718Y-103798282D01*
X188817159Y-103894536D01*
X188963238Y-103955044D01*
X189035337Y-103964536D01*
X189119999Y-103975682D01*
X189120000Y-103975682D01*
X189120001Y-103975682D01*
X189172254Y-103968802D01*
X189276762Y-103955044D01*
X189422841Y-103894536D01*
X189548282Y-103798282D01*
X189644536Y-103672841D01*
X189705044Y-103526762D01*
X189725682Y-103370000D01*
X189714259Y-103283237D01*
X189705044Y-103213239D01*
X189705044Y-103213238D01*
X189644536Y-103067159D01*
X189644535Y-103067158D01*
X189644535Y-103067157D01*
X189596124Y-103004066D01*
X189570930Y-102938896D01*
X189570500Y-102928580D01*
X189570500Y-65618782D01*
X189570889Y-65611843D01*
X189575270Y-65572965D01*
X189564211Y-65514520D01*
X189555348Y-65455713D01*
X189555347Y-65455711D01*
X189552833Y-65447561D01*
X189550021Y-65439523D01*
X189534767Y-65410663D01*
X189522222Y-65386927D01*
X189496425Y-65333358D01*
X189496423Y-65333356D01*
X189491624Y-65326316D01*
X189486567Y-65319464D01*
X189486566Y-65319462D01*
X189444504Y-65277400D01*
X189420296Y-65251310D01*
X189389129Y-65188781D01*
X189392535Y-65130977D01*
X189415300Y-65055934D01*
X189435583Y-64850000D01*
X189864417Y-64850000D01*
X189884699Y-65055932D01*
X189884700Y-65055934D01*
X189944768Y-65253954D01*
X190042315Y-65436450D01*
X190076969Y-65478677D01*
X190173589Y-65596410D01*
X190212169Y-65628071D01*
X190333546Y-65727682D01*
X190333549Y-65727684D01*
X190333551Y-65727686D01*
X190360242Y-65741952D01*
X190403953Y-65765316D01*
X190453797Y-65814277D01*
X190469500Y-65874674D01*
X190469500Y-105508580D01*
X190449815Y-105575619D01*
X190443876Y-105584066D01*
X190395464Y-105647157D01*
X190334956Y-105793237D01*
X190334955Y-105793239D01*
X190314318Y-105949998D01*
X190314318Y-105950001D01*
X190334955Y-106106760D01*
X190334956Y-106106762D01*
X190395464Y-106252841D01*
X190491718Y-106378282D01*
X190617159Y-106474536D01*
X190763238Y-106535044D01*
X190841619Y-106545363D01*
X190919999Y-106555682D01*
X190920000Y-106555682D01*
X190920001Y-106555682D01*
X190972254Y-106548802D01*
X191076762Y-106535044D01*
X191222841Y-106474536D01*
X191348282Y-106378282D01*
X191444536Y-106252841D01*
X191505044Y-106106762D01*
X191525682Y-105950000D01*
X191514259Y-105863237D01*
X191505044Y-105793239D01*
X191505044Y-105793238D01*
X191444536Y-105647159D01*
X191444535Y-105647158D01*
X191444535Y-105647157D01*
X191396124Y-105584066D01*
X191370930Y-105518896D01*
X191370500Y-105508580D01*
X191370500Y-65874674D01*
X191390185Y-65807635D01*
X191436046Y-65765316D01*
X191506450Y-65727685D01*
X191666410Y-65596410D01*
X191797685Y-65436450D01*
X191895232Y-65253954D01*
X191955300Y-65055934D01*
X191975583Y-64850000D01*
X192404417Y-64850000D01*
X192424699Y-65055932D01*
X192424700Y-65055934D01*
X192484768Y-65253954D01*
X192582315Y-65436450D01*
X192616969Y-65478677D01*
X192713589Y-65596410D01*
X192752169Y-65628071D01*
X192873546Y-65727682D01*
X192873549Y-65727684D01*
X192873551Y-65727686D01*
X192900242Y-65741952D01*
X192943953Y-65765316D01*
X192993797Y-65814277D01*
X193009500Y-65874674D01*
X193009500Y-107448580D01*
X192989815Y-107515619D01*
X192983876Y-107524066D01*
X192935464Y-107587157D01*
X192874956Y-107733237D01*
X192874955Y-107733239D01*
X192854318Y-107889998D01*
X192854318Y-107890001D01*
X192874955Y-108046760D01*
X192874956Y-108046762D01*
X192927177Y-108172836D01*
X192935464Y-108192841D01*
X193031718Y-108318282D01*
X193157159Y-108414536D01*
X193303238Y-108475044D01*
X193381619Y-108485363D01*
X193459999Y-108495682D01*
X193460000Y-108495682D01*
X193460001Y-108495682D01*
X193512254Y-108488802D01*
X193616762Y-108475044D01*
X193762841Y-108414536D01*
X193888282Y-108318282D01*
X193984536Y-108192841D01*
X194045044Y-108046762D01*
X194065682Y-107890000D01*
X194045044Y-107733238D01*
X193984536Y-107587159D01*
X193984535Y-107587158D01*
X193984535Y-107587157D01*
X193936124Y-107524066D01*
X193910930Y-107458896D01*
X193910500Y-107448580D01*
X193910500Y-65874674D01*
X193930185Y-65807635D01*
X193976046Y-65765316D01*
X194046450Y-65727685D01*
X194206410Y-65596410D01*
X194337685Y-65436450D01*
X194435232Y-65253954D01*
X194495300Y-65055934D01*
X194515583Y-64850000D01*
X194944417Y-64850000D01*
X194964699Y-65055932D01*
X194964700Y-65055934D01*
X195024768Y-65253954D01*
X195122315Y-65436450D01*
X195156969Y-65478677D01*
X195253589Y-65596410D01*
X195292169Y-65628071D01*
X195413546Y-65727682D01*
X195413549Y-65727684D01*
X195413551Y-65727686D01*
X195440242Y-65741952D01*
X195483953Y-65765316D01*
X195533797Y-65814277D01*
X195549500Y-65874674D01*
X195549500Y-97558580D01*
X195529815Y-97625619D01*
X195523876Y-97634066D01*
X195475464Y-97697157D01*
X195414956Y-97843237D01*
X195414955Y-97843239D01*
X195394318Y-97999998D01*
X195394318Y-98000001D01*
X195414955Y-98156760D01*
X195414956Y-98156762D01*
X195475464Y-98302841D01*
X195571718Y-98428282D01*
X195697159Y-98524536D01*
X195843238Y-98585044D01*
X195921619Y-98595363D01*
X195999999Y-98605682D01*
X196000000Y-98605682D01*
X196000001Y-98605682D01*
X196052254Y-98598802D01*
X196156762Y-98585044D01*
X196302841Y-98524536D01*
X196428282Y-98428282D01*
X196524536Y-98302841D01*
X196585044Y-98156762D01*
X196605682Y-98000000D01*
X196585044Y-97843238D01*
X196524536Y-97697159D01*
X196524535Y-97697158D01*
X196524535Y-97697157D01*
X196476124Y-97634066D01*
X196450930Y-97568896D01*
X196450500Y-97558580D01*
X196450500Y-65874674D01*
X196470185Y-65807635D01*
X196516046Y-65765316D01*
X196586450Y-65727685D01*
X196746410Y-65596410D01*
X196877685Y-65436450D01*
X196975232Y-65253954D01*
X197035300Y-65055934D01*
X197055583Y-64850000D01*
X197040809Y-64699999D01*
X197398972Y-64699999D01*
X197398973Y-64700000D01*
X198062935Y-64700000D01*
X198040000Y-64778111D01*
X198040000Y-64921889D01*
X198062935Y-65000000D01*
X197398973Y-65000000D01*
X197404738Y-65062218D01*
X197463058Y-65267196D01*
X197463066Y-65267216D01*
X197558059Y-65457989D01*
X197686500Y-65628071D01*
X197844000Y-65771651D01*
X197844002Y-65771653D01*
X198025201Y-65883846D01*
X198025207Y-65883849D01*
X198223936Y-65960836D01*
X198390000Y-65991879D01*
X198390000Y-65331170D01*
X198397685Y-65334680D01*
X198504237Y-65350000D01*
X198575763Y-65350000D01*
X198682315Y-65334680D01*
X198690000Y-65331170D01*
X198690000Y-65991879D01*
X198856063Y-65960836D01*
X199054792Y-65883849D01*
X199054798Y-65883846D01*
X199235997Y-65771653D01*
X199235999Y-65771651D01*
X199393499Y-65628071D01*
X199521940Y-65457989D01*
X199616933Y-65267216D01*
X199616941Y-65267196D01*
X199675261Y-65062218D01*
X199681027Y-65000000D01*
X199017065Y-65000000D01*
X199040000Y-64921889D01*
X199040000Y-64850000D01*
X200024417Y-64850000D01*
X200044699Y-65055932D01*
X200044700Y-65055934D01*
X200104768Y-65253954D01*
X200202315Y-65436450D01*
X200236969Y-65478677D01*
X200333589Y-65596410D01*
X200372169Y-65628071D01*
X200493546Y-65727682D01*
X200493549Y-65727684D01*
X200493551Y-65727686D01*
X200520242Y-65741952D01*
X200563953Y-65765316D01*
X200613797Y-65814277D01*
X200629500Y-65874674D01*
X200629500Y-87620709D01*
X200609815Y-87687748D01*
X200603878Y-87696193D01*
X200595464Y-87707158D01*
X200534956Y-87853237D01*
X200534955Y-87853239D01*
X200514318Y-88009998D01*
X200514318Y-88010001D01*
X200534955Y-88166760D01*
X200534956Y-88166762D01*
X200595464Y-88312841D01*
X200691718Y-88438282D01*
X200817159Y-88534536D01*
X200963238Y-88595044D01*
X201041619Y-88605363D01*
X201119999Y-88615682D01*
X201120000Y-88615682D01*
X201120001Y-88615682D01*
X201172254Y-88608802D01*
X201276762Y-88595044D01*
X201422841Y-88534536D01*
X201548282Y-88438282D01*
X201644536Y-88312841D01*
X201705044Y-88166762D01*
X201725682Y-88010000D01*
X201705044Y-87853238D01*
X201644536Y-87707159D01*
X201644535Y-87707158D01*
X201644535Y-87707157D01*
X201556124Y-87591937D01*
X201530930Y-87526768D01*
X201530500Y-87516451D01*
X201530500Y-65874674D01*
X201550185Y-65807635D01*
X201596046Y-65765316D01*
X201666450Y-65727685D01*
X201826410Y-65596410D01*
X201957685Y-65436450D01*
X202055232Y-65253954D01*
X202115300Y-65055934D01*
X202135583Y-64850000D01*
X202564417Y-64850000D01*
X202584699Y-65055932D01*
X202584700Y-65055934D01*
X202644768Y-65253954D01*
X202742315Y-65436450D01*
X202776969Y-65478677D01*
X202873589Y-65596410D01*
X202912169Y-65628071D01*
X203033546Y-65727682D01*
X203033549Y-65727684D01*
X203033551Y-65727686D01*
X203060242Y-65741952D01*
X203103953Y-65765316D01*
X203153797Y-65814277D01*
X203169500Y-65874674D01*
X203169500Y-88808580D01*
X203149815Y-88875619D01*
X203143876Y-88884066D01*
X203095464Y-88947157D01*
X203034956Y-89093237D01*
X203034955Y-89093239D01*
X203014318Y-89249998D01*
X203014318Y-89250001D01*
X203034955Y-89406760D01*
X203034956Y-89406762D01*
X203071299Y-89494503D01*
X203095464Y-89552841D01*
X203191718Y-89678282D01*
X203317159Y-89774536D01*
X203463238Y-89835044D01*
X203541619Y-89845363D01*
X203619999Y-89855682D01*
X203620000Y-89855682D01*
X203620001Y-89855682D01*
X203672254Y-89848802D01*
X203776762Y-89835044D01*
X203922841Y-89774536D01*
X204048282Y-89678282D01*
X204144536Y-89552841D01*
X204205044Y-89406762D01*
X204225682Y-89250000D01*
X204215150Y-89170000D01*
X217394417Y-89170000D01*
X217414699Y-89375932D01*
X217414700Y-89375934D01*
X217474768Y-89573954D01*
X217572315Y-89756450D01*
X217572317Y-89756452D01*
X217703589Y-89916410D01*
X217800209Y-89995702D01*
X217863550Y-90047685D01*
X218046046Y-90145232D01*
X218244066Y-90205300D01*
X218244065Y-90205300D01*
X218262529Y-90207118D01*
X218450000Y-90225583D01*
X218655934Y-90205300D01*
X218853954Y-90145232D01*
X219036450Y-90047685D01*
X219196410Y-89916410D01*
X219327685Y-89756450D01*
X219425232Y-89573954D01*
X219485300Y-89375934D01*
X219505583Y-89170000D01*
X219934417Y-89170000D01*
X219954699Y-89375932D01*
X219954700Y-89375934D01*
X220014768Y-89573954D01*
X220112315Y-89756450D01*
X220112317Y-89756452D01*
X220243589Y-89916410D01*
X220340209Y-89995702D01*
X220403550Y-90047685D01*
X220586046Y-90145232D01*
X220784066Y-90205300D01*
X220784065Y-90205300D01*
X220802529Y-90207118D01*
X220990000Y-90225583D01*
X221195934Y-90205300D01*
X221393954Y-90145232D01*
X221576450Y-90047685D01*
X221736410Y-89916410D01*
X221867685Y-89756450D01*
X221876248Y-89740429D01*
X221905317Y-89686047D01*
X221954279Y-89636203D01*
X222014675Y-89620500D01*
X224821217Y-89620500D01*
X224828155Y-89620889D01*
X224860050Y-89624483D01*
X224867034Y-89625270D01*
X224867034Y-89625269D01*
X224867035Y-89625270D01*
X224925479Y-89614211D01*
X224984287Y-89605348D01*
X224984290Y-89605346D01*
X224992447Y-89602830D01*
X225000469Y-89600023D01*
X225000472Y-89600023D01*
X225053072Y-89572222D01*
X225106642Y-89546425D01*
X225106642Y-89546424D01*
X225106644Y-89546424D01*
X225113695Y-89541616D01*
X225120538Y-89536566D01*
X225162600Y-89494503D01*
X225206194Y-89454055D01*
X225206196Y-89454050D01*
X225211987Y-89446790D01*
X225212643Y-89447313D01*
X225222032Y-89435070D01*
X229408205Y-85248896D01*
X229413373Y-85244277D01*
X229443970Y-85219879D01*
X229477480Y-85170728D01*
X229512793Y-85122882D01*
X229512794Y-85122879D01*
X229516787Y-85115324D01*
X229520470Y-85107676D01*
X229520470Y-85107675D01*
X229520472Y-85107673D01*
X229538007Y-85050822D01*
X229557646Y-84994699D01*
X229559228Y-84986336D01*
X229560500Y-84977899D01*
X229560500Y-84918441D01*
X229562725Y-84858990D01*
X229561685Y-84849758D01*
X229562513Y-84849664D01*
X229560500Y-84834361D01*
X229560500Y-68441419D01*
X229580185Y-68374380D01*
X229586124Y-68365933D01*
X229602092Y-68345121D01*
X229634536Y-68302841D01*
X229695044Y-68156762D01*
X229715682Y-68000000D01*
X229695044Y-67843238D01*
X229634536Y-67697159D01*
X229538282Y-67571718D01*
X229412841Y-67475464D01*
X229266762Y-67414956D01*
X229266760Y-67414955D01*
X229110001Y-67394318D01*
X229109999Y-67394318D01*
X228953239Y-67414955D01*
X228953237Y-67414956D01*
X228807160Y-67475463D01*
X228681718Y-67571718D01*
X228585463Y-67697160D01*
X228524956Y-67843237D01*
X228524955Y-67843239D01*
X228504318Y-67999998D01*
X228504318Y-68000001D01*
X228524955Y-68156760D01*
X228524957Y-68156765D01*
X228585461Y-68302836D01*
X228585464Y-68302841D01*
X228633876Y-68365933D01*
X228659070Y-68431102D01*
X228659500Y-68441419D01*
X228659500Y-84672035D01*
X228639815Y-84739074D01*
X228623181Y-84759716D01*
X224699716Y-88683181D01*
X224638393Y-88716666D01*
X224612035Y-88719500D01*
X222014675Y-88719500D01*
X221947636Y-88699815D01*
X221905317Y-88653953D01*
X221867688Y-88583555D01*
X221867684Y-88583549D01*
X221867682Y-88583547D01*
X221844143Y-88554864D01*
X221736410Y-88423589D01*
X221576452Y-88292317D01*
X221576453Y-88292317D01*
X221576450Y-88292315D01*
X221393954Y-88194768D01*
X221195934Y-88134700D01*
X221195932Y-88134699D01*
X221195934Y-88134699D01*
X220990000Y-88114417D01*
X220784067Y-88134699D01*
X220586043Y-88194769D01*
X220475898Y-88253643D01*
X220403550Y-88292315D01*
X220403548Y-88292316D01*
X220403547Y-88292317D01*
X220243589Y-88423589D01*
X220112317Y-88583547D01*
X220112315Y-88583550D01*
X220095140Y-88615682D01*
X220014769Y-88766043D01*
X219954699Y-88964067D01*
X219934417Y-89170000D01*
X219505583Y-89170000D01*
X219485300Y-88964066D01*
X219425232Y-88766046D01*
X219327685Y-88583550D01*
X219275702Y-88520209D01*
X219196410Y-88423589D01*
X219036452Y-88292317D01*
X219036453Y-88292317D01*
X219036450Y-88292315D01*
X218853954Y-88194768D01*
X218655934Y-88134700D01*
X218655932Y-88134699D01*
X218655934Y-88134699D01*
X218450000Y-88114417D01*
X218244067Y-88134699D01*
X218046043Y-88194769D01*
X217935898Y-88253643D01*
X217863550Y-88292315D01*
X217863548Y-88292316D01*
X217863547Y-88292317D01*
X217703589Y-88423589D01*
X217572317Y-88583547D01*
X217572315Y-88583550D01*
X217555140Y-88615682D01*
X217474769Y-88766043D01*
X217414699Y-88964067D01*
X217394417Y-89170000D01*
X204215150Y-89170000D01*
X204205044Y-89093238D01*
X204144536Y-88947159D01*
X204144535Y-88947158D01*
X204144535Y-88947157D01*
X204096124Y-88884066D01*
X204070930Y-88818896D01*
X204070500Y-88808580D01*
X204070500Y-65874674D01*
X204090185Y-65807635D01*
X204136046Y-65765316D01*
X204206450Y-65727685D01*
X204366410Y-65596410D01*
X204497685Y-65436450D01*
X204595232Y-65253954D01*
X204655300Y-65055934D01*
X204675583Y-64850000D01*
X205104417Y-64850000D01*
X205124699Y-65055932D01*
X205124700Y-65055934D01*
X205184768Y-65253954D01*
X205282315Y-65436450D01*
X205316969Y-65478677D01*
X205413589Y-65596410D01*
X205452169Y-65628071D01*
X205573546Y-65727682D01*
X205573549Y-65727684D01*
X205573551Y-65727686D01*
X205600242Y-65741952D01*
X205643953Y-65765316D01*
X205693797Y-65814277D01*
X205709500Y-65874674D01*
X205709500Y-67558580D01*
X205689815Y-67625619D01*
X205683876Y-67634066D01*
X205635464Y-67697157D01*
X205574956Y-67843237D01*
X205574955Y-67843239D01*
X205554318Y-67999998D01*
X205554318Y-68000001D01*
X205574955Y-68156760D01*
X205574956Y-68156762D01*
X205635464Y-68302841D01*
X205731718Y-68428282D01*
X205857159Y-68524536D01*
X206003238Y-68585044D01*
X206081619Y-68595363D01*
X206159999Y-68605682D01*
X206160000Y-68605682D01*
X206160001Y-68605682D01*
X206212254Y-68598802D01*
X206316762Y-68585044D01*
X206462841Y-68524536D01*
X206588282Y-68428282D01*
X206684536Y-68302841D01*
X206745044Y-68156762D01*
X206765682Y-68000000D01*
X206745044Y-67843238D01*
X206684536Y-67697159D01*
X206684535Y-67697158D01*
X206684535Y-67697157D01*
X206636124Y-67634066D01*
X206610930Y-67568896D01*
X206610500Y-67558580D01*
X206610500Y-65874674D01*
X206630185Y-65807635D01*
X206676046Y-65765316D01*
X206746450Y-65727685D01*
X206906410Y-65596410D01*
X207037685Y-65436450D01*
X207135232Y-65253954D01*
X207195300Y-65055934D01*
X207215583Y-64850000D01*
X207644417Y-64850000D01*
X207664699Y-65055932D01*
X207664700Y-65055934D01*
X207724768Y-65253954D01*
X207822315Y-65436450D01*
X207856969Y-65478677D01*
X207953589Y-65596410D01*
X207992169Y-65628071D01*
X208113550Y-65727685D01*
X208296046Y-65825232D01*
X208494066Y-65885300D01*
X208494065Y-65885300D01*
X208512529Y-65887118D01*
X208700000Y-65905583D01*
X208905934Y-65885300D01*
X209103954Y-65825232D01*
X209286450Y-65727685D01*
X209446410Y-65596410D01*
X209577685Y-65436450D01*
X209675232Y-65253954D01*
X209735300Y-65055934D01*
X209755583Y-64850000D01*
X210184417Y-64850000D01*
X210204699Y-65055932D01*
X210204700Y-65055934D01*
X210264768Y-65253954D01*
X210362315Y-65436450D01*
X210396969Y-65478677D01*
X210493589Y-65596410D01*
X210532169Y-65628071D01*
X210653546Y-65727682D01*
X210653549Y-65727684D01*
X210653551Y-65727686D01*
X210680242Y-65741952D01*
X210723953Y-65765316D01*
X210773797Y-65814277D01*
X210789500Y-65874674D01*
X210789500Y-86128580D01*
X210769815Y-86195619D01*
X210763876Y-86204066D01*
X210715464Y-86267157D01*
X210654956Y-86413237D01*
X210654955Y-86413239D01*
X210634318Y-86569998D01*
X210634318Y-86570001D01*
X210654955Y-86726760D01*
X210654956Y-86726762D01*
X210700176Y-86835934D01*
X210715464Y-86872841D01*
X210811718Y-86998282D01*
X210937159Y-87094536D01*
X211083238Y-87155044D01*
X211161619Y-87165363D01*
X211239999Y-87175682D01*
X211240000Y-87175682D01*
X211240001Y-87175682D01*
X211292254Y-87168802D01*
X211396762Y-87155044D01*
X211542841Y-87094536D01*
X211668282Y-86998282D01*
X211764536Y-86872841D01*
X211825044Y-86726762D01*
X211837783Y-86630000D01*
X217394417Y-86630000D01*
X217414699Y-86835932D01*
X217414700Y-86835934D01*
X217474768Y-87033954D01*
X217572315Y-87216450D01*
X217572317Y-87216452D01*
X217703589Y-87376410D01*
X217800209Y-87455702D01*
X217863550Y-87507685D01*
X218046046Y-87605232D01*
X218244066Y-87665300D01*
X218244065Y-87665300D01*
X218262529Y-87667118D01*
X218450000Y-87685583D01*
X218655934Y-87665300D01*
X218853954Y-87605232D01*
X219036450Y-87507685D01*
X219196410Y-87376410D01*
X219327685Y-87216450D01*
X219425232Y-87033954D01*
X219485300Y-86835934D01*
X219505583Y-86630000D01*
X219934417Y-86630000D01*
X219954699Y-86835932D01*
X219954700Y-86835934D01*
X220014768Y-87033954D01*
X220112315Y-87216450D01*
X220112317Y-87216452D01*
X220243589Y-87376410D01*
X220340209Y-87455702D01*
X220403550Y-87507685D01*
X220586046Y-87605232D01*
X220784066Y-87665300D01*
X220784065Y-87665300D01*
X220802529Y-87667118D01*
X220990000Y-87685583D01*
X221195934Y-87665300D01*
X221393954Y-87605232D01*
X221576450Y-87507685D01*
X221736410Y-87376410D01*
X221867685Y-87216450D01*
X221965232Y-87033954D01*
X222025300Y-86835934D01*
X222045583Y-86630000D01*
X222025300Y-86424066D01*
X222002125Y-86347671D01*
X222001503Y-86277805D01*
X222033104Y-86223998D01*
X224408205Y-83848896D01*
X224413373Y-83844277D01*
X224443970Y-83819879D01*
X224477480Y-83770728D01*
X224512793Y-83722882D01*
X224512794Y-83722879D01*
X224516778Y-83715341D01*
X224520474Y-83707668D01*
X224538006Y-83650827D01*
X224557645Y-83594702D01*
X224557646Y-83594700D01*
X224557646Y-83594695D01*
X224559228Y-83586336D01*
X224560500Y-83577899D01*
X224560500Y-83518426D01*
X224562724Y-83458992D01*
X224561684Y-83449761D01*
X224562513Y-83449667D01*
X224560500Y-83434366D01*
X224560500Y-71631419D01*
X224580185Y-71564380D01*
X224586124Y-71555933D01*
X224602092Y-71535121D01*
X224634536Y-71492841D01*
X224695044Y-71346762D01*
X224715682Y-71190000D01*
X224695044Y-71033238D01*
X224634536Y-70887159D01*
X224538282Y-70761718D01*
X224412841Y-70665464D01*
X224266762Y-70604956D01*
X224266760Y-70604955D01*
X224110001Y-70584318D01*
X224109999Y-70584318D01*
X223953239Y-70604955D01*
X223953237Y-70604956D01*
X223807160Y-70665463D01*
X223681718Y-70761718D01*
X223585463Y-70887160D01*
X223524956Y-71033237D01*
X223524955Y-71033239D01*
X223504318Y-71189998D01*
X223504318Y-71190001D01*
X223524955Y-71346760D01*
X223524957Y-71346765D01*
X223585461Y-71492836D01*
X223585464Y-71492841D01*
X223633876Y-71555933D01*
X223659070Y-71621102D01*
X223659500Y-71631419D01*
X223659500Y-83272034D01*
X223639815Y-83339073D01*
X223623181Y-83359715D01*
X221396002Y-85586893D01*
X221334679Y-85620378D01*
X221272327Y-85617873D01*
X221195932Y-85594699D01*
X221195933Y-85594699D01*
X221010282Y-85576414D01*
X220990000Y-85574417D01*
X220989999Y-85574417D01*
X220784067Y-85594699D01*
X220586043Y-85654769D01*
X220475898Y-85713643D01*
X220403550Y-85752315D01*
X220403548Y-85752316D01*
X220403547Y-85752317D01*
X220243589Y-85883589D01*
X220112317Y-86043547D01*
X220014769Y-86226043D01*
X219954699Y-86424067D01*
X219934417Y-86630000D01*
X219505583Y-86630000D01*
X219485300Y-86424066D01*
X219425232Y-86226046D01*
X219327685Y-86043550D01*
X219275702Y-85980209D01*
X219196410Y-85883589D01*
X219036452Y-85752317D01*
X219036453Y-85752317D01*
X219036450Y-85752315D01*
X218853954Y-85654768D01*
X218655934Y-85594700D01*
X218655932Y-85594699D01*
X218655934Y-85594699D01*
X218450000Y-85574417D01*
X218244067Y-85594699D01*
X218046043Y-85654769D01*
X217935898Y-85713643D01*
X217863550Y-85752315D01*
X217863548Y-85752316D01*
X217863547Y-85752317D01*
X217703589Y-85883589D01*
X217572317Y-86043547D01*
X217474769Y-86226043D01*
X217414699Y-86424067D01*
X217394417Y-86630000D01*
X211837783Y-86630000D01*
X211845682Y-86570000D01*
X211825044Y-86413238D01*
X211764536Y-86267159D01*
X211764535Y-86267158D01*
X211764535Y-86267157D01*
X211716124Y-86204066D01*
X211690930Y-86138896D01*
X211690500Y-86128580D01*
X211690500Y-84090000D01*
X217394417Y-84090000D01*
X217414699Y-84295932D01*
X217414700Y-84295934D01*
X217474768Y-84493954D01*
X217572315Y-84676450D01*
X217572317Y-84676452D01*
X217703589Y-84836410D01*
X217800209Y-84915702D01*
X217863550Y-84967685D01*
X218046046Y-85065232D01*
X218244066Y-85125300D01*
X218244065Y-85125300D01*
X218262529Y-85127118D01*
X218450000Y-85145583D01*
X218655934Y-85125300D01*
X218853954Y-85065232D01*
X219036450Y-84967685D01*
X219196410Y-84836410D01*
X219327685Y-84676450D01*
X219425232Y-84493954D01*
X219485300Y-84295934D01*
X219505583Y-84090000D01*
X219934417Y-84090000D01*
X219954699Y-84295932D01*
X219954700Y-84295934D01*
X220014768Y-84493954D01*
X220112315Y-84676450D01*
X220112317Y-84676452D01*
X220243589Y-84836410D01*
X220340209Y-84915702D01*
X220403550Y-84967685D01*
X220586046Y-85065232D01*
X220784066Y-85125300D01*
X220784065Y-85125300D01*
X220802529Y-85127118D01*
X220990000Y-85145583D01*
X221195934Y-85125300D01*
X221393954Y-85065232D01*
X221576450Y-84967685D01*
X221736410Y-84836410D01*
X221867685Y-84676450D01*
X221965232Y-84493954D01*
X222025300Y-84295934D01*
X222045583Y-84090000D01*
X222025300Y-83884066D01*
X222002125Y-83807670D01*
X222001503Y-83737804D01*
X222033104Y-83683997D01*
X222248205Y-83468896D01*
X222253373Y-83464277D01*
X222283970Y-83439879D01*
X222317480Y-83390728D01*
X222352793Y-83342882D01*
X222352794Y-83342879D01*
X222356787Y-83335324D01*
X222360470Y-83327676D01*
X222360470Y-83327675D01*
X222360472Y-83327673D01*
X222378007Y-83270822D01*
X222397646Y-83214699D01*
X222399232Y-83206311D01*
X222400500Y-83197904D01*
X222400500Y-83138426D01*
X222402724Y-83078992D01*
X222401684Y-83069761D01*
X222402513Y-83069667D01*
X222400500Y-83054366D01*
X222400500Y-69761419D01*
X222420185Y-69694380D01*
X222426124Y-69685933D01*
X222442092Y-69665121D01*
X222474536Y-69622841D01*
X222535044Y-69476762D01*
X222555682Y-69320000D01*
X222535044Y-69163238D01*
X222474536Y-69017159D01*
X222378282Y-68891718D01*
X222252841Y-68795464D01*
X222106762Y-68734956D01*
X222106760Y-68734955D01*
X221950001Y-68714318D01*
X221949999Y-68714318D01*
X221793239Y-68734955D01*
X221793237Y-68734956D01*
X221647160Y-68795463D01*
X221521718Y-68891718D01*
X221425463Y-69017160D01*
X221364956Y-69163237D01*
X221364955Y-69163239D01*
X221344318Y-69319998D01*
X221344318Y-69320001D01*
X221364955Y-69476760D01*
X221364957Y-69476765D01*
X221425461Y-69622836D01*
X221425464Y-69622841D01*
X221473876Y-69685933D01*
X221499070Y-69751102D01*
X221499500Y-69761419D01*
X221499500Y-82892032D01*
X221479815Y-82959071D01*
X221463181Y-82979714D01*
X221396001Y-83046893D01*
X221334677Y-83080377D01*
X221272327Y-83077872D01*
X221195935Y-83054700D01*
X221195933Y-83054699D01*
X221010282Y-83036414D01*
X220990000Y-83034417D01*
X220989999Y-83034417D01*
X220784067Y-83054699D01*
X220586043Y-83114769D01*
X220541785Y-83138426D01*
X220403550Y-83212315D01*
X220403548Y-83212316D01*
X220403547Y-83212317D01*
X220243589Y-83343589D01*
X220112317Y-83503547D01*
X220014769Y-83686043D01*
X219954699Y-83884067D01*
X219934417Y-84090000D01*
X219505583Y-84090000D01*
X219485300Y-83884066D01*
X219425232Y-83686046D01*
X219327685Y-83503550D01*
X219275430Y-83439877D01*
X219196410Y-83343589D01*
X219036452Y-83212317D01*
X219036453Y-83212317D01*
X219036450Y-83212315D01*
X218853954Y-83114768D01*
X218655934Y-83054700D01*
X218655932Y-83054699D01*
X218655934Y-83054699D01*
X218450000Y-83034417D01*
X218244067Y-83054699D01*
X218046043Y-83114769D01*
X218001785Y-83138426D01*
X217863550Y-83212315D01*
X217863548Y-83212316D01*
X217863547Y-83212317D01*
X217703589Y-83343589D01*
X217572317Y-83503547D01*
X217474769Y-83686043D01*
X217414699Y-83884067D01*
X217394417Y-84090000D01*
X211690500Y-84090000D01*
X211690500Y-65874674D01*
X211710185Y-65807635D01*
X211756046Y-65765316D01*
X211826450Y-65727685D01*
X211986410Y-65596410D01*
X212117685Y-65436450D01*
X212215232Y-65253954D01*
X212275300Y-65055934D01*
X212295583Y-64850000D01*
X212724417Y-64850000D01*
X212744699Y-65055932D01*
X212744700Y-65055934D01*
X212804768Y-65253954D01*
X212902315Y-65436450D01*
X212936969Y-65478677D01*
X213033589Y-65596410D01*
X213072169Y-65628071D01*
X213193546Y-65727682D01*
X213193549Y-65727684D01*
X213193551Y-65727686D01*
X213220242Y-65741952D01*
X213263953Y-65765316D01*
X213313797Y-65814277D01*
X213329500Y-65874674D01*
X213329500Y-68904645D01*
X213309815Y-68971684D01*
X213303876Y-68980131D01*
X213275464Y-69017157D01*
X213214956Y-69163237D01*
X213214955Y-69163239D01*
X213194318Y-69319998D01*
X213194318Y-69320001D01*
X213214955Y-69476760D01*
X213214956Y-69476762D01*
X213275464Y-69622841D01*
X213371718Y-69748282D01*
X213497159Y-69844536D01*
X213643238Y-69905044D01*
X213721619Y-69915363D01*
X213799999Y-69925682D01*
X213800000Y-69925682D01*
X213800001Y-69925682D01*
X213852254Y-69918802D01*
X213956762Y-69905044D01*
X214102841Y-69844536D01*
X214228282Y-69748282D01*
X214324536Y-69622841D01*
X214385044Y-69476762D01*
X214405682Y-69320000D01*
X214385044Y-69163238D01*
X214324536Y-69017159D01*
X214324535Y-69017158D01*
X214324535Y-69017157D01*
X214256124Y-68928001D01*
X214230930Y-68862831D01*
X214230500Y-68852515D01*
X214230500Y-65874674D01*
X214250185Y-65807635D01*
X214296046Y-65765316D01*
X214366450Y-65727685D01*
X214526410Y-65596410D01*
X214657685Y-65436450D01*
X214755232Y-65253954D01*
X214815300Y-65055934D01*
X214835583Y-64850000D01*
X215264417Y-64850000D01*
X215284699Y-65055932D01*
X215284700Y-65055934D01*
X215344768Y-65253954D01*
X215442315Y-65436450D01*
X215476969Y-65478677D01*
X215573589Y-65596410D01*
X215612169Y-65628071D01*
X215733546Y-65727682D01*
X215733549Y-65727684D01*
X215733551Y-65727686D01*
X215760242Y-65741952D01*
X215803953Y-65765316D01*
X215853797Y-65814277D01*
X215869500Y-65874674D01*
X215869500Y-70748580D01*
X215849815Y-70815619D01*
X215843876Y-70824066D01*
X215795464Y-70887157D01*
X215734956Y-71033237D01*
X215734955Y-71033239D01*
X215714318Y-71189998D01*
X215714318Y-71190001D01*
X215734955Y-71346760D01*
X215734956Y-71346762D01*
X215795464Y-71492841D01*
X215891718Y-71618282D01*
X216017159Y-71714536D01*
X216163238Y-71775044D01*
X216241619Y-71785363D01*
X216319999Y-71795682D01*
X216320000Y-71795682D01*
X216320001Y-71795682D01*
X216372254Y-71788802D01*
X216476762Y-71775044D01*
X216622841Y-71714536D01*
X216748282Y-71618282D01*
X216844536Y-71492841D01*
X216905044Y-71346762D01*
X216925682Y-71190000D01*
X216905044Y-71033238D01*
X216844536Y-70887159D01*
X216844535Y-70887158D01*
X216844535Y-70887157D01*
X216796124Y-70824066D01*
X216770930Y-70758896D01*
X216770500Y-70748580D01*
X216770500Y-65874674D01*
X216790185Y-65807635D01*
X216836046Y-65765316D01*
X216906450Y-65727685D01*
X217066410Y-65596410D01*
X217197685Y-65436450D01*
X217295232Y-65253954D01*
X217355300Y-65055934D01*
X217375583Y-64850000D01*
X217360809Y-64699999D01*
X217718972Y-64699999D01*
X217718973Y-64700000D01*
X218382935Y-64700000D01*
X218360000Y-64778111D01*
X218360000Y-64921889D01*
X218382935Y-65000000D01*
X217718973Y-65000000D01*
X217724738Y-65062218D01*
X217783058Y-65267196D01*
X217783066Y-65267216D01*
X217878059Y-65457989D01*
X218006500Y-65628071D01*
X218164000Y-65771651D01*
X218164002Y-65771653D01*
X218345201Y-65883846D01*
X218345207Y-65883849D01*
X218543936Y-65960836D01*
X218710000Y-65991879D01*
X218710000Y-65331170D01*
X218717685Y-65334680D01*
X218824237Y-65350000D01*
X218895763Y-65350000D01*
X219002315Y-65334680D01*
X219010000Y-65331170D01*
X219010000Y-65991879D01*
X219176063Y-65960836D01*
X219374792Y-65883849D01*
X219374798Y-65883846D01*
X219555997Y-65771653D01*
X219555999Y-65771651D01*
X219713499Y-65628071D01*
X219841940Y-65457989D01*
X219936933Y-65267216D01*
X219936941Y-65267196D01*
X219995261Y-65062218D01*
X220001027Y-65000000D01*
X219337065Y-65000000D01*
X219360000Y-64921889D01*
X219360000Y-64850000D01*
X220344417Y-64850000D01*
X220364699Y-65055932D01*
X220364700Y-65055934D01*
X220424768Y-65253954D01*
X220522315Y-65436450D01*
X220556969Y-65478677D01*
X220653589Y-65596410D01*
X220692169Y-65628071D01*
X220813550Y-65727685D01*
X220996046Y-65825232D01*
X221194066Y-65885300D01*
X221194065Y-65885300D01*
X221212529Y-65887118D01*
X221400000Y-65905583D01*
X221605934Y-65885300D01*
X221803954Y-65825232D01*
X221986450Y-65727685D01*
X222146410Y-65596410D01*
X222277685Y-65436450D01*
X222375232Y-65253954D01*
X222435300Y-65055934D01*
X222455583Y-64850000D01*
X222884417Y-64850000D01*
X222904699Y-65055932D01*
X222904700Y-65055934D01*
X222964768Y-65253954D01*
X223062315Y-65436450D01*
X223096969Y-65478677D01*
X223193589Y-65596410D01*
X223232169Y-65628071D01*
X223353550Y-65727685D01*
X223536046Y-65825232D01*
X223734066Y-65885300D01*
X223734065Y-65885300D01*
X223752529Y-65887118D01*
X223940000Y-65905583D01*
X224145934Y-65885300D01*
X224343954Y-65825232D01*
X224526450Y-65727685D01*
X224686410Y-65596410D01*
X224817685Y-65436450D01*
X224915232Y-65253954D01*
X224975300Y-65055934D01*
X224995583Y-64850000D01*
X225424417Y-64850000D01*
X225444699Y-65055932D01*
X225444700Y-65055934D01*
X225504768Y-65253954D01*
X225602315Y-65436450D01*
X225636969Y-65478677D01*
X225733589Y-65596410D01*
X225772169Y-65628071D01*
X225893546Y-65727682D01*
X225893549Y-65727684D01*
X225893551Y-65727686D01*
X225920242Y-65741952D01*
X225963953Y-65765316D01*
X226013797Y-65814277D01*
X226029500Y-65874674D01*
X226029500Y-81748580D01*
X226009815Y-81815619D01*
X226003876Y-81824066D01*
X225955464Y-81887157D01*
X225894956Y-82033237D01*
X225894955Y-82033239D01*
X225874318Y-82189998D01*
X225874318Y-82190001D01*
X225894955Y-82346760D01*
X225894956Y-82346762D01*
X225955464Y-82492841D01*
X226051718Y-82618282D01*
X226177159Y-82714536D01*
X226323238Y-82775044D01*
X226401619Y-82785363D01*
X226479999Y-82795682D01*
X226480000Y-82795682D01*
X226480001Y-82795682D01*
X226532254Y-82788802D01*
X226636762Y-82775044D01*
X226782841Y-82714536D01*
X226908282Y-82618282D01*
X227004536Y-82492841D01*
X227065044Y-82346762D01*
X227085682Y-82190000D01*
X227065044Y-82033238D01*
X227004536Y-81887159D01*
X227004535Y-81887158D01*
X227004535Y-81887157D01*
X226956124Y-81824066D01*
X226930930Y-81758896D01*
X226930500Y-81748580D01*
X226930500Y-65874674D01*
X226950185Y-65807635D01*
X226996046Y-65765316D01*
X227066450Y-65727685D01*
X227226410Y-65596410D01*
X227357685Y-65436450D01*
X227455232Y-65253954D01*
X227515300Y-65055934D01*
X227535583Y-64850000D01*
X227964417Y-64850000D01*
X227984699Y-65055932D01*
X227984700Y-65055934D01*
X228044768Y-65253954D01*
X228142315Y-65436450D01*
X228176969Y-65478677D01*
X228273589Y-65596410D01*
X228312169Y-65628071D01*
X228433550Y-65727685D01*
X228616046Y-65825232D01*
X228814066Y-65885300D01*
X228814065Y-65885300D01*
X228832529Y-65887118D01*
X229020000Y-65905583D01*
X229225934Y-65885300D01*
X229302325Y-65862127D01*
X229372192Y-65861503D01*
X229426002Y-65893106D01*
X230683181Y-67150284D01*
X230716666Y-67211607D01*
X230719500Y-67237965D01*
X230719500Y-77792515D01*
X230699815Y-77859554D01*
X230693876Y-77868001D01*
X230625464Y-77957157D01*
X230564956Y-78103237D01*
X230564955Y-78103239D01*
X230544318Y-78259998D01*
X230544318Y-78260001D01*
X230564955Y-78416760D01*
X230564956Y-78416762D01*
X230625464Y-78562841D01*
X230721718Y-78688282D01*
X230847159Y-78784536D01*
X230993238Y-78845044D01*
X231071619Y-78855363D01*
X231149999Y-78865682D01*
X231150000Y-78865682D01*
X231150001Y-78865682D01*
X231202254Y-78858802D01*
X231306762Y-78845044D01*
X231452841Y-78784536D01*
X231578282Y-78688282D01*
X231674536Y-78562841D01*
X231735044Y-78416762D01*
X231755682Y-78260000D01*
X231735044Y-78103238D01*
X231674536Y-77957159D01*
X231674535Y-77957158D01*
X231674535Y-77957157D01*
X231646124Y-77920131D01*
X231620930Y-77854962D01*
X231620500Y-77844645D01*
X231620500Y-67028782D01*
X231620889Y-67021843D01*
X231625270Y-66982965D01*
X231614211Y-66924520D01*
X231605348Y-66865713D01*
X231605347Y-66865711D01*
X231602836Y-66857571D01*
X231600024Y-66849533D01*
X231600023Y-66849528D01*
X231572226Y-66796936D01*
X231546425Y-66743358D01*
X231546422Y-66743355D01*
X231546421Y-66743352D01*
X231541642Y-66736342D01*
X231536568Y-66729469D01*
X231536565Y-66729462D01*
X231494516Y-66687413D01*
X231454055Y-66643806D01*
X231446792Y-66638014D01*
X231447312Y-66637361D01*
X231435067Y-66627964D01*
X230063106Y-65256003D01*
X230029621Y-65194680D01*
X230032125Y-65132329D01*
X230055300Y-65055934D01*
X230075583Y-64850000D01*
X230504417Y-64850000D01*
X230524699Y-65055932D01*
X230524700Y-65055934D01*
X230584768Y-65253954D01*
X230682315Y-65436450D01*
X230716969Y-65478677D01*
X230813589Y-65596410D01*
X230852169Y-65628071D01*
X230973550Y-65727685D01*
X231156046Y-65825232D01*
X231354066Y-65885300D01*
X231354065Y-65885300D01*
X231372529Y-65887118D01*
X231560000Y-65905583D01*
X231765934Y-65885300D01*
X231842325Y-65862127D01*
X231912192Y-65861503D01*
X231966002Y-65893106D01*
X232533181Y-66460284D01*
X232566666Y-66521607D01*
X232569500Y-66547965D01*
X232569500Y-93504645D01*
X232549815Y-93571684D01*
X232543876Y-93580131D01*
X232515464Y-93617157D01*
X232454956Y-93763237D01*
X232454955Y-93763239D01*
X232434318Y-93919998D01*
X232434318Y-93920001D01*
X232454955Y-94076760D01*
X232454956Y-94076762D01*
X232515464Y-94222841D01*
X232611718Y-94348282D01*
X232737159Y-94444536D01*
X232883238Y-94505044D01*
X232961619Y-94515363D01*
X233039999Y-94525682D01*
X233040000Y-94525682D01*
X233040001Y-94525682D01*
X233092254Y-94518802D01*
X233196762Y-94505044D01*
X233342841Y-94444536D01*
X233468282Y-94348282D01*
X233564536Y-94222841D01*
X233625044Y-94076762D01*
X233645682Y-93920000D01*
X233625044Y-93763238D01*
X233564536Y-93617159D01*
X233564535Y-93617158D01*
X233564535Y-93617157D01*
X233496124Y-93528001D01*
X233470930Y-93462831D01*
X233470500Y-93452515D01*
X233470500Y-66338781D01*
X233470889Y-66331844D01*
X233475270Y-66292965D01*
X233464210Y-66234511D01*
X233455348Y-66175713D01*
X233455347Y-66175711D01*
X233455347Y-66175709D01*
X233452831Y-66167552D01*
X233450025Y-66159531D01*
X233450024Y-66159529D01*
X233422222Y-66106926D01*
X233396425Y-66053358D01*
X233396422Y-66053355D01*
X233396422Y-66053354D01*
X233391642Y-66046342D01*
X233386567Y-66039465D01*
X233386566Y-66039463D01*
X233344516Y-65997413D01*
X233304055Y-65953806D01*
X233296792Y-65948014D01*
X233297312Y-65947361D01*
X233285067Y-65937964D01*
X232603106Y-65256003D01*
X232569621Y-65194680D01*
X232572125Y-65132329D01*
X232595300Y-65055934D01*
X232615583Y-64850000D01*
X233044417Y-64850000D01*
X233064699Y-65055932D01*
X233064700Y-65055934D01*
X233124768Y-65253954D01*
X233222315Y-65436450D01*
X233256969Y-65478677D01*
X233353589Y-65596410D01*
X233392169Y-65628071D01*
X233513550Y-65727685D01*
X233696046Y-65825232D01*
X233894066Y-65885300D01*
X233894065Y-65885300D01*
X233912529Y-65887118D01*
X234100000Y-65905583D01*
X234305934Y-65885300D01*
X234503954Y-65825232D01*
X234686450Y-65727685D01*
X234846410Y-65596410D01*
X234977685Y-65436450D01*
X235075232Y-65253954D01*
X235135300Y-65055934D01*
X235155583Y-64850000D01*
X235140809Y-64699999D01*
X235498972Y-64699999D01*
X235498973Y-64700000D01*
X236162935Y-64700000D01*
X236140000Y-64778111D01*
X236140000Y-64921889D01*
X236162935Y-65000000D01*
X235498973Y-65000000D01*
X235504738Y-65062218D01*
X235563058Y-65267196D01*
X235563066Y-65267216D01*
X235658059Y-65457989D01*
X235786500Y-65628071D01*
X235944000Y-65771651D01*
X235944002Y-65771653D01*
X236125201Y-65883846D01*
X236125207Y-65883849D01*
X236323936Y-65960836D01*
X236490000Y-65991879D01*
X236490000Y-65331170D01*
X236497685Y-65334680D01*
X236604237Y-65350000D01*
X236675763Y-65350000D01*
X236782315Y-65334680D01*
X236790000Y-65331170D01*
X236790000Y-65991879D01*
X236956063Y-65960836D01*
X237154792Y-65883849D01*
X237154798Y-65883846D01*
X237335997Y-65771653D01*
X237335999Y-65771651D01*
X237493499Y-65628071D01*
X237621940Y-65457989D01*
X237716933Y-65267216D01*
X237716941Y-65267196D01*
X237775261Y-65062218D01*
X237781027Y-65000000D01*
X237117065Y-65000000D01*
X237140000Y-64921889D01*
X237140000Y-64778111D01*
X237117065Y-64700000D01*
X237781027Y-64700000D01*
X237781027Y-64699999D01*
X237775261Y-64637781D01*
X237716941Y-64432803D01*
X237716933Y-64432783D01*
X237621940Y-64242010D01*
X237493499Y-64071928D01*
X237335999Y-63928348D01*
X237335997Y-63928346D01*
X237154798Y-63816153D01*
X237154789Y-63816149D01*
X236956060Y-63739162D01*
X236956061Y-63739162D01*
X236790000Y-63708119D01*
X236790000Y-64368829D01*
X236782315Y-64365320D01*
X236675763Y-64350000D01*
X236604237Y-64350000D01*
X236497685Y-64365320D01*
X236490000Y-64368829D01*
X236490000Y-63708119D01*
X236323939Y-63739162D01*
X236125210Y-63816149D01*
X236125201Y-63816153D01*
X235944002Y-63928346D01*
X235944000Y-63928348D01*
X235786500Y-64071928D01*
X235658059Y-64242010D01*
X235563066Y-64432783D01*
X235563058Y-64432803D01*
X235504738Y-64637781D01*
X235498972Y-64699999D01*
X235140809Y-64699999D01*
X235135300Y-64644066D01*
X235075232Y-64446046D01*
X234977685Y-64263550D01*
X234925702Y-64200209D01*
X234846410Y-64103589D01*
X234686452Y-63972317D01*
X234686453Y-63972317D01*
X234686450Y-63972315D01*
X234503954Y-63874768D01*
X234305934Y-63814700D01*
X234305932Y-63814699D01*
X234305934Y-63814699D01*
X234100000Y-63794417D01*
X233894067Y-63814699D01*
X233696043Y-63874769D01*
X233595809Y-63928346D01*
X233513550Y-63972315D01*
X233513548Y-63972316D01*
X233513547Y-63972317D01*
X233353589Y-64103589D01*
X233222317Y-64263547D01*
X233124769Y-64446043D01*
X233064699Y-64644067D01*
X233044417Y-64850000D01*
X232615583Y-64850000D01*
X232595300Y-64644066D01*
X232535232Y-64446046D01*
X232437685Y-64263550D01*
X232385702Y-64200209D01*
X232306410Y-64103589D01*
X232146452Y-63972317D01*
X232146453Y-63972317D01*
X232146450Y-63972315D01*
X231963954Y-63874768D01*
X231765934Y-63814700D01*
X231765932Y-63814699D01*
X231765934Y-63814699D01*
X231560000Y-63794417D01*
X231354067Y-63814699D01*
X231156043Y-63874769D01*
X231055809Y-63928346D01*
X230973550Y-63972315D01*
X230973548Y-63972316D01*
X230973547Y-63972317D01*
X230813589Y-64103589D01*
X230682317Y-64263547D01*
X230584769Y-64446043D01*
X230524699Y-64644067D01*
X230504417Y-64850000D01*
X230075583Y-64850000D01*
X230055300Y-64644066D01*
X229995232Y-64446046D01*
X229897685Y-64263550D01*
X229845702Y-64200209D01*
X229766410Y-64103589D01*
X229606452Y-63972317D01*
X229606453Y-63972317D01*
X229606450Y-63972315D01*
X229423954Y-63874768D01*
X229225934Y-63814700D01*
X229225932Y-63814699D01*
X229225934Y-63814699D01*
X229020000Y-63794417D01*
X228814067Y-63814699D01*
X228616043Y-63874769D01*
X228515809Y-63928346D01*
X228433550Y-63972315D01*
X228433548Y-63972316D01*
X228433547Y-63972317D01*
X228273589Y-64103589D01*
X228142317Y-64263547D01*
X228044769Y-64446043D01*
X227984699Y-64644067D01*
X227964417Y-64850000D01*
X227535583Y-64850000D01*
X227515300Y-64644066D01*
X227455232Y-64446046D01*
X227357685Y-64263550D01*
X227305702Y-64200209D01*
X227226410Y-64103589D01*
X227066452Y-63972317D01*
X227066453Y-63972317D01*
X227066450Y-63972315D01*
X226883954Y-63874768D01*
X226685934Y-63814700D01*
X226685932Y-63814699D01*
X226685934Y-63814699D01*
X226480000Y-63794417D01*
X226274067Y-63814699D01*
X226076043Y-63874769D01*
X225975809Y-63928346D01*
X225893550Y-63972315D01*
X225893548Y-63972316D01*
X225893547Y-63972317D01*
X225733589Y-64103589D01*
X225602317Y-64263547D01*
X225504769Y-64446043D01*
X225444699Y-64644067D01*
X225424417Y-64850000D01*
X224995583Y-64850000D01*
X224975300Y-64644066D01*
X224915232Y-64446046D01*
X224817685Y-64263550D01*
X224765702Y-64200209D01*
X224686410Y-64103589D01*
X224526452Y-63972317D01*
X224526453Y-63972317D01*
X224526450Y-63972315D01*
X224343954Y-63874768D01*
X224145934Y-63814700D01*
X224145932Y-63814699D01*
X224145934Y-63814699D01*
X223940000Y-63794417D01*
X223734067Y-63814699D01*
X223536043Y-63874769D01*
X223435809Y-63928346D01*
X223353550Y-63972315D01*
X223353548Y-63972316D01*
X223353547Y-63972317D01*
X223193589Y-64103589D01*
X223062317Y-64263547D01*
X222964769Y-64446043D01*
X222904699Y-64644067D01*
X222884417Y-64850000D01*
X222455583Y-64850000D01*
X222435300Y-64644066D01*
X222375232Y-64446046D01*
X222277685Y-64263550D01*
X222225702Y-64200209D01*
X222146410Y-64103589D01*
X221986452Y-63972317D01*
X221986453Y-63972317D01*
X221986450Y-63972315D01*
X221803954Y-63874768D01*
X221605934Y-63814700D01*
X221605932Y-63814699D01*
X221605934Y-63814699D01*
X221400000Y-63794417D01*
X221194067Y-63814699D01*
X220996043Y-63874769D01*
X220895809Y-63928346D01*
X220813550Y-63972315D01*
X220813548Y-63972316D01*
X220813547Y-63972317D01*
X220653589Y-64103589D01*
X220522317Y-64263547D01*
X220424769Y-64446043D01*
X220364699Y-64644067D01*
X220344417Y-64850000D01*
X219360000Y-64850000D01*
X219360000Y-64778111D01*
X219337065Y-64700000D01*
X220001027Y-64700000D01*
X220001027Y-64699999D01*
X219995261Y-64637781D01*
X219936941Y-64432803D01*
X219936933Y-64432783D01*
X219841940Y-64242010D01*
X219713499Y-64071928D01*
X219555999Y-63928348D01*
X219555997Y-63928346D01*
X219374798Y-63816153D01*
X219374789Y-63816149D01*
X219176060Y-63739162D01*
X219176061Y-63739162D01*
X219010000Y-63708119D01*
X219010000Y-64368829D01*
X219002315Y-64365320D01*
X218895763Y-64350000D01*
X218824237Y-64350000D01*
X218717685Y-64365320D01*
X218710000Y-64368829D01*
X218710000Y-63708119D01*
X218543939Y-63739162D01*
X218345210Y-63816149D01*
X218345201Y-63816153D01*
X218164002Y-63928346D01*
X218164000Y-63928348D01*
X218006500Y-64071928D01*
X217878059Y-64242010D01*
X217783066Y-64432783D01*
X217783058Y-64432803D01*
X217724738Y-64637781D01*
X217718972Y-64699999D01*
X217360809Y-64699999D01*
X217355300Y-64644066D01*
X217295232Y-64446046D01*
X217197685Y-64263550D01*
X217145702Y-64200209D01*
X217066410Y-64103589D01*
X216906452Y-63972317D01*
X216906453Y-63972317D01*
X216906450Y-63972315D01*
X216723954Y-63874768D01*
X216525934Y-63814700D01*
X216525932Y-63814699D01*
X216525934Y-63814699D01*
X216320000Y-63794417D01*
X216114067Y-63814699D01*
X215916043Y-63874769D01*
X215815809Y-63928346D01*
X215733550Y-63972315D01*
X215733548Y-63972316D01*
X215733547Y-63972317D01*
X215573589Y-64103589D01*
X215442317Y-64263547D01*
X215344769Y-64446043D01*
X215284699Y-64644067D01*
X215264417Y-64850000D01*
X214835583Y-64850000D01*
X214815300Y-64644066D01*
X214755232Y-64446046D01*
X214657685Y-64263550D01*
X214605702Y-64200209D01*
X214526410Y-64103589D01*
X214366452Y-63972317D01*
X214366453Y-63972317D01*
X214366450Y-63972315D01*
X214183954Y-63874768D01*
X213985934Y-63814700D01*
X213985932Y-63814699D01*
X213985934Y-63814699D01*
X213780000Y-63794417D01*
X213574067Y-63814699D01*
X213376043Y-63874769D01*
X213275809Y-63928346D01*
X213193550Y-63972315D01*
X213193548Y-63972316D01*
X213193547Y-63972317D01*
X213033589Y-64103589D01*
X212902317Y-64263547D01*
X212804769Y-64446043D01*
X212744699Y-64644067D01*
X212724417Y-64850000D01*
X212295583Y-64850000D01*
X212275300Y-64644066D01*
X212215232Y-64446046D01*
X212117685Y-64263550D01*
X212065702Y-64200209D01*
X211986410Y-64103589D01*
X211826452Y-63972317D01*
X211826453Y-63972317D01*
X211826450Y-63972315D01*
X211643954Y-63874768D01*
X211445934Y-63814700D01*
X211445932Y-63814699D01*
X211445934Y-63814699D01*
X211240000Y-63794417D01*
X211034067Y-63814699D01*
X210836043Y-63874769D01*
X210735809Y-63928346D01*
X210653550Y-63972315D01*
X210653548Y-63972316D01*
X210653547Y-63972317D01*
X210493589Y-64103589D01*
X210362317Y-64263547D01*
X210264769Y-64446043D01*
X210204699Y-64644067D01*
X210184417Y-64850000D01*
X209755583Y-64850000D01*
X209735300Y-64644066D01*
X209675232Y-64446046D01*
X209577685Y-64263550D01*
X209525702Y-64200209D01*
X209446410Y-64103589D01*
X209286452Y-63972317D01*
X209286453Y-63972317D01*
X209286450Y-63972315D01*
X209103954Y-63874768D01*
X208905934Y-63814700D01*
X208905932Y-63814699D01*
X208905934Y-63814699D01*
X208700000Y-63794417D01*
X208494067Y-63814699D01*
X208296043Y-63874769D01*
X208195809Y-63928346D01*
X208113550Y-63972315D01*
X208113548Y-63972316D01*
X208113547Y-63972317D01*
X207953589Y-64103589D01*
X207822317Y-64263547D01*
X207724769Y-64446043D01*
X207664699Y-64644067D01*
X207644417Y-64850000D01*
X207215583Y-64850000D01*
X207195300Y-64644066D01*
X207135232Y-64446046D01*
X207037685Y-64263550D01*
X206985702Y-64200209D01*
X206906410Y-64103589D01*
X206746452Y-63972317D01*
X206746453Y-63972317D01*
X206746450Y-63972315D01*
X206563954Y-63874768D01*
X206365934Y-63814700D01*
X206365932Y-63814699D01*
X206365934Y-63814699D01*
X206160000Y-63794417D01*
X205954067Y-63814699D01*
X205756043Y-63874769D01*
X205655809Y-63928346D01*
X205573550Y-63972315D01*
X205573548Y-63972316D01*
X205573547Y-63972317D01*
X205413589Y-64103589D01*
X205282317Y-64263547D01*
X205184769Y-64446043D01*
X205124699Y-64644067D01*
X205104417Y-64850000D01*
X204675583Y-64850000D01*
X204655300Y-64644066D01*
X204595232Y-64446046D01*
X204497685Y-64263550D01*
X204445702Y-64200209D01*
X204366410Y-64103589D01*
X204206452Y-63972317D01*
X204206453Y-63972317D01*
X204206450Y-63972315D01*
X204023954Y-63874768D01*
X203825934Y-63814700D01*
X203825932Y-63814699D01*
X203825934Y-63814699D01*
X203620000Y-63794417D01*
X203414067Y-63814699D01*
X203216043Y-63874769D01*
X203115809Y-63928346D01*
X203033550Y-63972315D01*
X203033548Y-63972316D01*
X203033547Y-63972317D01*
X202873589Y-64103589D01*
X202742317Y-64263547D01*
X202644769Y-64446043D01*
X202584699Y-64644067D01*
X202564417Y-64850000D01*
X202135583Y-64850000D01*
X202115300Y-64644066D01*
X202055232Y-64446046D01*
X201957685Y-64263550D01*
X201905702Y-64200209D01*
X201826410Y-64103589D01*
X201666452Y-63972317D01*
X201666453Y-63972317D01*
X201666450Y-63972315D01*
X201483954Y-63874768D01*
X201285934Y-63814700D01*
X201285932Y-63814699D01*
X201285934Y-63814699D01*
X201080000Y-63794417D01*
X200874067Y-63814699D01*
X200676043Y-63874769D01*
X200575809Y-63928346D01*
X200493550Y-63972315D01*
X200493548Y-63972316D01*
X200493547Y-63972317D01*
X200333589Y-64103589D01*
X200202317Y-64263547D01*
X200104769Y-64446043D01*
X200044699Y-64644067D01*
X200024417Y-64850000D01*
X199040000Y-64850000D01*
X199040000Y-64778111D01*
X199017065Y-64700000D01*
X199681027Y-64700000D01*
X199681027Y-64699999D01*
X199675261Y-64637781D01*
X199616941Y-64432803D01*
X199616933Y-64432783D01*
X199521940Y-64242010D01*
X199393499Y-64071928D01*
X199235999Y-63928348D01*
X199235997Y-63928346D01*
X199054798Y-63816153D01*
X199054789Y-63816149D01*
X198856060Y-63739162D01*
X198856061Y-63739162D01*
X198690000Y-63708119D01*
X198690000Y-64368829D01*
X198682315Y-64365320D01*
X198575763Y-64350000D01*
X198504237Y-64350000D01*
X198397685Y-64365320D01*
X198390000Y-64368829D01*
X198390000Y-63708119D01*
X198223939Y-63739162D01*
X198025210Y-63816149D01*
X198025201Y-63816153D01*
X197844002Y-63928346D01*
X197844000Y-63928348D01*
X197686500Y-64071928D01*
X197558059Y-64242010D01*
X197463066Y-64432783D01*
X197463058Y-64432803D01*
X197404738Y-64637781D01*
X197398972Y-64699999D01*
X197040809Y-64699999D01*
X197035300Y-64644066D01*
X196975232Y-64446046D01*
X196877685Y-64263550D01*
X196825702Y-64200209D01*
X196746410Y-64103589D01*
X196586452Y-63972317D01*
X196586453Y-63972317D01*
X196586450Y-63972315D01*
X196403954Y-63874768D01*
X196205934Y-63814700D01*
X196205932Y-63814699D01*
X196205934Y-63814699D01*
X196000000Y-63794417D01*
X195794067Y-63814699D01*
X195596043Y-63874769D01*
X195495809Y-63928346D01*
X195413550Y-63972315D01*
X195413548Y-63972316D01*
X195413547Y-63972317D01*
X195253589Y-64103589D01*
X195122317Y-64263547D01*
X195024769Y-64446043D01*
X194964699Y-64644067D01*
X194944417Y-64850000D01*
X194515583Y-64850000D01*
X194495300Y-64644066D01*
X194435232Y-64446046D01*
X194337685Y-64263550D01*
X194285702Y-64200209D01*
X194206410Y-64103589D01*
X194046452Y-63972317D01*
X194046453Y-63972317D01*
X194046450Y-63972315D01*
X193863954Y-63874768D01*
X193665934Y-63814700D01*
X193665932Y-63814699D01*
X193665934Y-63814699D01*
X193460000Y-63794417D01*
X193254067Y-63814699D01*
X193056043Y-63874769D01*
X192955809Y-63928346D01*
X192873550Y-63972315D01*
X192873548Y-63972316D01*
X192873547Y-63972317D01*
X192713589Y-64103589D01*
X192582317Y-64263547D01*
X192484769Y-64446043D01*
X192424699Y-64644067D01*
X192404417Y-64850000D01*
X191975583Y-64850000D01*
X191955300Y-64644066D01*
X191895232Y-64446046D01*
X191797685Y-64263550D01*
X191745702Y-64200209D01*
X191666410Y-64103589D01*
X191506452Y-63972317D01*
X191506453Y-63972317D01*
X191506450Y-63972315D01*
X191323954Y-63874768D01*
X191125934Y-63814700D01*
X191125932Y-63814699D01*
X191125934Y-63814699D01*
X190920000Y-63794417D01*
X190714067Y-63814699D01*
X190516043Y-63874769D01*
X190415809Y-63928346D01*
X190333550Y-63972315D01*
X190333548Y-63972316D01*
X190333547Y-63972317D01*
X190173589Y-64103589D01*
X190042317Y-64263547D01*
X189944769Y-64446043D01*
X189884699Y-64644067D01*
X189864417Y-64850000D01*
X189435583Y-64850000D01*
X189415300Y-64644066D01*
X189355232Y-64446046D01*
X189257685Y-64263550D01*
X189205702Y-64200209D01*
X189126410Y-64103589D01*
X188966452Y-63972317D01*
X188966453Y-63972317D01*
X188966450Y-63972315D01*
X188783954Y-63874768D01*
X188585934Y-63814700D01*
X188585932Y-63814699D01*
X188585934Y-63814699D01*
X188380000Y-63794417D01*
X188174067Y-63814699D01*
X187976043Y-63874769D01*
X187875809Y-63928346D01*
X187793550Y-63972315D01*
X187793548Y-63972316D01*
X187793547Y-63972317D01*
X187633589Y-64103589D01*
X187502317Y-64263547D01*
X187404769Y-64446043D01*
X187344699Y-64644067D01*
X187324417Y-64850000D01*
X184360167Y-64850000D01*
X184443659Y-64798836D01*
X184635224Y-64635224D01*
X184798836Y-64443659D01*
X184930466Y-64228859D01*
X185026873Y-63996111D01*
X185085683Y-63751148D01*
X185105449Y-63500000D01*
X239894551Y-63500000D01*
X239914317Y-63751151D01*
X239973126Y-63996110D01*
X240069533Y-64228859D01*
X240201160Y-64443653D01*
X240201161Y-64443656D01*
X240256604Y-64508571D01*
X240364776Y-64635224D01*
X240494579Y-64746086D01*
X240556343Y-64798838D01*
X240556346Y-64798839D01*
X240771140Y-64930466D01*
X241003889Y-65026873D01*
X241248852Y-65085683D01*
X241404950Y-65097968D01*
X241437116Y-65100500D01*
X241437118Y-65100500D01*
X241562884Y-65100500D01*
X241592518Y-65098167D01*
X241751148Y-65085683D01*
X241996111Y-65026873D01*
X242228859Y-64930466D01*
X242443659Y-64798836D01*
X242635224Y-64635224D01*
X242798836Y-64443659D01*
X242930466Y-64228859D01*
X243026873Y-63996111D01*
X243085683Y-63751148D01*
X243105449Y-63500000D01*
X243085683Y-63248852D01*
X243026873Y-63003889D01*
X242991292Y-62917989D01*
X242930466Y-62771140D01*
X242798839Y-62556346D01*
X242798838Y-62556343D01*
X242716553Y-62460000D01*
X242635224Y-62364776D01*
X242508571Y-62256604D01*
X242443656Y-62201161D01*
X242443653Y-62201160D01*
X242228859Y-62069533D01*
X241996110Y-61973126D01*
X241751150Y-61914317D01*
X241562884Y-61899500D01*
X241562882Y-61899500D01*
X241437118Y-61899500D01*
X241437116Y-61899500D01*
X241248849Y-61914317D01*
X241003889Y-61973126D01*
X240771140Y-62069533D01*
X240556346Y-62201160D01*
X240556343Y-62201161D01*
X240364776Y-62364776D01*
X240201161Y-62556343D01*
X240201160Y-62556346D01*
X240069533Y-62771140D01*
X239973126Y-63003889D01*
X239914317Y-63248848D01*
X239894551Y-63500000D01*
X185105449Y-63500000D01*
X185085683Y-63248852D01*
X185026873Y-63003889D01*
X184991292Y-62917989D01*
X184930466Y-62771140D01*
X184798839Y-62556346D01*
X184798838Y-62556343D01*
X184716553Y-62460000D01*
X184635224Y-62364776D01*
X184508571Y-62256604D01*
X184443656Y-62201161D01*
X184443653Y-62201160D01*
X184228859Y-62069533D01*
X183996110Y-61973126D01*
X183761071Y-61916699D01*
X183700479Y-61881908D01*
X183668315Y-61819882D01*
X183674791Y-61750313D01*
X183717851Y-61695289D01*
X183747944Y-61679482D01*
X184096795Y-61553673D01*
X184102578Y-61551902D01*
X184476508Y-61457165D01*
X184482440Y-61455968D01*
X184863838Y-61398269D01*
X184869848Y-61397658D01*
X185256623Y-61377466D01*
X185259569Y-61377385D01*
X187205110Y-61371233D01*
X187272209Y-61390705D01*
X187318131Y-61443364D01*
X187329500Y-61495232D01*
X187329500Y-63179752D01*
X187341131Y-63238229D01*
X187341132Y-63238230D01*
X187385447Y-63304552D01*
X187451769Y-63348867D01*
X187451770Y-63348868D01*
X187510247Y-63360499D01*
X187510250Y-63360500D01*
X187510252Y-63360500D01*
X189249750Y-63360500D01*
X189249751Y-63360499D01*
X189264568Y-63357552D01*
X189308229Y-63348868D01*
X189308229Y-63348867D01*
X189308231Y-63348867D01*
X189374552Y-63304552D01*
X189418867Y-63238231D01*
X189418867Y-63238229D01*
X189418868Y-63238229D01*
X189430499Y-63179752D01*
X189430500Y-63179750D01*
X189430500Y-61487805D01*
X189450185Y-61420766D01*
X189502989Y-61375011D01*
X189554105Y-61363806D01*
X190076339Y-61362155D01*
X190143436Y-61381626D01*
X190189358Y-61434285D01*
X190199520Y-61503412D01*
X190172581Y-61564817D01*
X190042317Y-61723546D01*
X189944769Y-61906043D01*
X189944768Y-61906045D01*
X189944768Y-61906046D01*
X189939552Y-61923241D01*
X189884699Y-62104067D01*
X189864417Y-62310000D01*
X189884699Y-62515932D01*
X189909666Y-62598236D01*
X189944768Y-62713954D01*
X190042315Y-62896450D01*
X190060551Y-62918671D01*
X190173589Y-63056410D01*
X190212169Y-63088071D01*
X190333550Y-63187685D01*
X190516046Y-63285232D01*
X190714066Y-63345300D01*
X190714065Y-63345300D01*
X190732529Y-63347118D01*
X190920000Y-63365583D01*
X191125934Y-63345300D01*
X191323954Y-63285232D01*
X191506450Y-63187685D01*
X191666410Y-63056410D01*
X191797685Y-62896450D01*
X191895232Y-62713954D01*
X191955300Y-62515934D01*
X191975583Y-62310000D01*
X191955300Y-62104066D01*
X191895232Y-61906046D01*
X191797685Y-61723550D01*
X191666410Y-61563590D01*
X191666408Y-61563588D01*
X191663052Y-61559499D01*
X191635740Y-61495188D01*
X191647531Y-61426321D01*
X191694684Y-61374761D01*
X191758508Y-61356836D01*
X192491060Y-61354520D01*
X192558157Y-61373991D01*
X192604079Y-61426650D01*
X192614241Y-61495777D01*
X192590402Y-61553245D01*
X192478060Y-61702010D01*
X192383066Y-61892783D01*
X192383058Y-61892803D01*
X192324738Y-62097781D01*
X192318972Y-62159999D01*
X192318973Y-62160000D01*
X192982935Y-62160000D01*
X192960000Y-62238111D01*
X192960000Y-62381889D01*
X192982935Y-62460000D01*
X192318973Y-62460000D01*
X192324738Y-62522218D01*
X192383058Y-62727196D01*
X192383066Y-62727216D01*
X192478059Y-62917989D01*
X192606500Y-63088071D01*
X192764000Y-63231651D01*
X192764002Y-63231653D01*
X192945201Y-63343846D01*
X192945207Y-63343849D01*
X193143936Y-63420836D01*
X193310000Y-63451879D01*
X193310000Y-62791170D01*
X193317685Y-62794680D01*
X193424237Y-62810000D01*
X193495763Y-62810000D01*
X193602315Y-62794680D01*
X193610000Y-62791170D01*
X193610000Y-63451879D01*
X193776063Y-63420836D01*
X193974792Y-63343849D01*
X193974798Y-63343846D01*
X194155997Y-63231653D01*
X194155999Y-63231651D01*
X194313499Y-63088071D01*
X194441940Y-62917989D01*
X194536933Y-62727216D01*
X194536941Y-62727196D01*
X194595261Y-62522218D01*
X194601027Y-62460000D01*
X193937065Y-62460000D01*
X193960000Y-62381889D01*
X193960000Y-62238111D01*
X193937065Y-62160000D01*
X194601027Y-62160000D01*
X194601027Y-62159999D01*
X194595261Y-62097781D01*
X194536941Y-61892803D01*
X194536933Y-61892783D01*
X194441940Y-61702010D01*
X194324982Y-61547135D01*
X194300290Y-61481774D01*
X194314855Y-61413439D01*
X194364052Y-61363827D01*
X194423539Y-61348410D01*
X195171727Y-61346044D01*
X195238823Y-61365515D01*
X195284745Y-61418174D01*
X195294907Y-61487301D01*
X195266083Y-61550948D01*
X195257727Y-61559112D01*
X195257897Y-61559282D01*
X195253592Y-61563586D01*
X195122317Y-61723547D01*
X195024769Y-61906043D01*
X195024768Y-61906045D01*
X195024768Y-61906046D01*
X195019552Y-61923241D01*
X194964699Y-62104067D01*
X194944417Y-62310000D01*
X194964699Y-62515932D01*
X194989666Y-62598236D01*
X195024768Y-62713954D01*
X195122315Y-62896450D01*
X195140551Y-62918671D01*
X195253589Y-63056410D01*
X195292169Y-63088071D01*
X195413550Y-63187685D01*
X195596046Y-63285232D01*
X195794066Y-63345300D01*
X195794065Y-63345300D01*
X195812529Y-63347118D01*
X196000000Y-63365583D01*
X196205934Y-63345300D01*
X196403954Y-63285232D01*
X196586450Y-63187685D01*
X196746410Y-63056410D01*
X196877685Y-62896450D01*
X196975232Y-62713954D01*
X197035300Y-62515934D01*
X197055583Y-62310000D01*
X197035300Y-62104066D01*
X196975232Y-61906046D01*
X196877685Y-61723550D01*
X196746410Y-61563590D01*
X196742863Y-61560679D01*
X196703530Y-61502934D01*
X196701661Y-61433089D01*
X196737848Y-61373321D01*
X196800604Y-61342605D01*
X196821122Y-61340829D01*
X197721550Y-61337982D01*
X197788647Y-61357453D01*
X197834569Y-61410112D01*
X197844731Y-61479239D01*
X197815907Y-61542886D01*
X197800608Y-61557829D01*
X197793591Y-61563588D01*
X197662317Y-61723547D01*
X197564769Y-61906043D01*
X197564768Y-61906045D01*
X197564768Y-61906046D01*
X197559552Y-61923241D01*
X197504699Y-62104067D01*
X197484417Y-62310000D01*
X197504699Y-62515932D01*
X197529666Y-62598236D01*
X197564768Y-62713954D01*
X197662315Y-62896450D01*
X197680551Y-62918671D01*
X197793589Y-63056410D01*
X197832169Y-63088071D01*
X197953550Y-63187685D01*
X198136046Y-63285232D01*
X198334066Y-63345300D01*
X198334065Y-63345300D01*
X198352529Y-63347118D01*
X198540000Y-63365583D01*
X198745934Y-63345300D01*
X198943954Y-63285232D01*
X199126450Y-63187685D01*
X199286410Y-63056410D01*
X199417685Y-62896450D01*
X199515232Y-62713954D01*
X199575300Y-62515934D01*
X199595583Y-62310000D01*
X199575300Y-62104066D01*
X199515232Y-61906046D01*
X199417685Y-61723550D01*
X199323582Y-61608884D01*
X199286411Y-61563590D01*
X199274326Y-61553673D01*
X199273117Y-61552681D01*
X199233783Y-61494937D01*
X199231911Y-61425093D01*
X199268096Y-61365323D01*
X199330852Y-61334606D01*
X199351377Y-61332828D01*
X200271373Y-61329920D01*
X200338471Y-61349391D01*
X200384393Y-61402050D01*
X200394555Y-61471177D01*
X200365731Y-61534824D01*
X200350429Y-61549770D01*
X200333589Y-61563590D01*
X200202317Y-61723547D01*
X200104769Y-61906043D01*
X200104768Y-61906045D01*
X200104768Y-61906046D01*
X200099552Y-61923241D01*
X200044699Y-62104067D01*
X200024417Y-62310000D01*
X200044699Y-62515932D01*
X200069666Y-62598236D01*
X200104768Y-62713954D01*
X200202315Y-62896450D01*
X200220551Y-62918671D01*
X200333589Y-63056410D01*
X200372169Y-63088071D01*
X200493550Y-63187685D01*
X200676046Y-63285232D01*
X200874066Y-63345300D01*
X200874065Y-63345300D01*
X200892529Y-63347118D01*
X201080000Y-63365583D01*
X201285934Y-63345300D01*
X201483954Y-63285232D01*
X201666450Y-63187685D01*
X201826410Y-63056410D01*
X201957685Y-62896450D01*
X202055232Y-62713954D01*
X202115300Y-62515934D01*
X202135583Y-62310000D01*
X202115300Y-62104066D01*
X202055232Y-61906046D01*
X201957685Y-61723550D01*
X201863582Y-61608884D01*
X201826410Y-61563589D01*
X201803368Y-61544680D01*
X201764033Y-61486935D01*
X201762162Y-61417090D01*
X201798349Y-61357321D01*
X201861104Y-61326605D01*
X201881620Y-61324828D01*
X202676370Y-61322315D01*
X202743465Y-61341786D01*
X202789387Y-61394445D01*
X202799549Y-61463572D01*
X202770725Y-61527219D01*
X202768406Y-61529837D01*
X202766505Y-61531921D01*
X202638059Y-61702010D01*
X202543066Y-61892783D01*
X202543058Y-61892803D01*
X202484738Y-62097781D01*
X202478972Y-62159999D01*
X202478973Y-62160000D01*
X203142935Y-62160000D01*
X203120000Y-62238111D01*
X203120000Y-62381889D01*
X203142935Y-62460000D01*
X202478973Y-62460000D01*
X202484738Y-62522218D01*
X202543058Y-62727196D01*
X202543066Y-62727216D01*
X202638059Y-62917989D01*
X202766500Y-63088071D01*
X202924000Y-63231651D01*
X202924002Y-63231653D01*
X203105201Y-63343846D01*
X203105207Y-63343849D01*
X203303936Y-63420836D01*
X203470000Y-63451879D01*
X203470000Y-62791170D01*
X203477685Y-62794680D01*
X203584237Y-62810000D01*
X203655763Y-62810000D01*
X203762315Y-62794680D01*
X203770000Y-62791170D01*
X203770000Y-63451879D01*
X203936063Y-63420836D01*
X204134792Y-63343849D01*
X204134798Y-63343846D01*
X204315997Y-63231653D01*
X204315999Y-63231651D01*
X204473499Y-63088071D01*
X204601940Y-62917989D01*
X204696933Y-62727216D01*
X204696941Y-62727196D01*
X204755261Y-62522218D01*
X204761027Y-62460000D01*
X204097065Y-62460000D01*
X204120000Y-62381889D01*
X204120000Y-62238111D01*
X204097065Y-62160000D01*
X204761027Y-62160000D01*
X204761027Y-62159999D01*
X204755261Y-62097781D01*
X204696941Y-61892803D01*
X204696933Y-61892783D01*
X204601940Y-61702010D01*
X204473498Y-61531928D01*
X204469638Y-61527693D01*
X204470489Y-61526916D01*
X204437300Y-61472290D01*
X204439063Y-61402443D01*
X204478308Y-61344636D01*
X204542576Y-61317224D01*
X204556704Y-61316370D01*
X205371019Y-61313795D01*
X205438118Y-61333267D01*
X205484040Y-61385926D01*
X205494202Y-61455053D01*
X205465378Y-61518700D01*
X205450075Y-61533646D01*
X205413590Y-61563588D01*
X205282317Y-61723547D01*
X205184769Y-61906043D01*
X205184768Y-61906045D01*
X205184768Y-61906046D01*
X205179552Y-61923241D01*
X205124699Y-62104067D01*
X205104417Y-62310000D01*
X205124699Y-62515932D01*
X205149666Y-62598236D01*
X205184768Y-62713954D01*
X205282315Y-62896450D01*
X205300551Y-62918671D01*
X205413589Y-63056410D01*
X205452169Y-63088071D01*
X205573550Y-63187685D01*
X205756046Y-63285232D01*
X205954066Y-63345300D01*
X205954065Y-63345300D01*
X205972529Y-63347118D01*
X206160000Y-63365583D01*
X206365934Y-63345300D01*
X206563954Y-63285232D01*
X206746450Y-63187685D01*
X206906410Y-63056410D01*
X207037685Y-62896450D01*
X207135232Y-62713954D01*
X207195300Y-62515934D01*
X207215583Y-62310000D01*
X207195300Y-62104066D01*
X207135232Y-61906046D01*
X207037685Y-61723550D01*
X206943582Y-61608884D01*
X206906410Y-61563589D01*
X206863872Y-61528680D01*
X206824537Y-61470934D01*
X206822666Y-61401090D01*
X206858853Y-61341321D01*
X206921609Y-61310605D01*
X206942131Y-61308828D01*
X207920847Y-61305733D01*
X207987943Y-61325204D01*
X208033865Y-61377863D01*
X208044027Y-61446990D01*
X208015203Y-61510637D01*
X207999899Y-61525584D01*
X207953590Y-61563588D01*
X207822317Y-61723547D01*
X207724769Y-61906043D01*
X207724768Y-61906045D01*
X207724768Y-61906046D01*
X207719552Y-61923241D01*
X207664699Y-62104067D01*
X207644417Y-62310000D01*
X207664699Y-62515932D01*
X207689666Y-62598236D01*
X207724768Y-62713954D01*
X207822315Y-62896450D01*
X207840551Y-62918671D01*
X207953589Y-63056410D01*
X207992169Y-63088071D01*
X208113550Y-63187685D01*
X208296046Y-63285232D01*
X208494066Y-63345300D01*
X208494065Y-63345300D01*
X208512529Y-63347118D01*
X208700000Y-63365583D01*
X208905934Y-63345300D01*
X209103954Y-63285232D01*
X209286450Y-63187685D01*
X209446410Y-63056410D01*
X209577685Y-62896450D01*
X209675232Y-62713954D01*
X209735300Y-62515934D01*
X209755583Y-62310000D01*
X209735300Y-62104066D01*
X209675232Y-61906046D01*
X209577685Y-61723550D01*
X209446410Y-61563590D01*
X209440954Y-61559112D01*
X209394123Y-61520678D01*
X209354789Y-61462932D01*
X209352918Y-61393087D01*
X209389106Y-61333319D01*
X209451862Y-61302603D01*
X209472375Y-61300827D01*
X210322486Y-61298139D01*
X210389585Y-61317611D01*
X210435507Y-61370270D01*
X210445669Y-61439397D01*
X210416845Y-61503044D01*
X210406415Y-61513774D01*
X210386501Y-61531928D01*
X210258059Y-61702010D01*
X210163066Y-61892783D01*
X210163058Y-61892803D01*
X210104738Y-62097781D01*
X210098972Y-62159999D01*
X210098973Y-62160000D01*
X210762935Y-62160000D01*
X210740000Y-62238111D01*
X210740000Y-62381889D01*
X210762935Y-62460000D01*
X210098973Y-62460000D01*
X210104738Y-62522218D01*
X210163058Y-62727196D01*
X210163066Y-62727216D01*
X210258059Y-62917989D01*
X210386500Y-63088071D01*
X210544000Y-63231651D01*
X210544002Y-63231653D01*
X210725201Y-63343846D01*
X210725207Y-63343849D01*
X210923936Y-63420836D01*
X211090000Y-63451879D01*
X211090000Y-62791170D01*
X211097685Y-62794680D01*
X211204237Y-62810000D01*
X211275763Y-62810000D01*
X211382315Y-62794680D01*
X211390000Y-62791170D01*
X211390000Y-63451879D01*
X211556063Y-63420836D01*
X211754792Y-63343849D01*
X211754798Y-63343846D01*
X211935997Y-63231653D01*
X211935999Y-63231651D01*
X212093499Y-63088071D01*
X212221940Y-62917989D01*
X212316933Y-62727216D01*
X212316941Y-62727196D01*
X212375261Y-62522218D01*
X212381027Y-62460000D01*
X211717065Y-62460000D01*
X211740000Y-62381889D01*
X211740000Y-62238111D01*
X211717065Y-62160000D01*
X212381027Y-62160000D01*
X212381027Y-62159999D01*
X212375261Y-62097781D01*
X212316941Y-61892803D01*
X212316933Y-61892783D01*
X212221940Y-61702010D01*
X212093499Y-61531929D01*
X212067245Y-61507995D01*
X212030963Y-61448284D01*
X212032724Y-61378436D01*
X212071967Y-61320629D01*
X212136234Y-61293214D01*
X212150368Y-61292360D01*
X213020493Y-61289609D01*
X213087591Y-61309080D01*
X213133513Y-61361739D01*
X213143675Y-61430866D01*
X213114851Y-61494513D01*
X213099547Y-61509460D01*
X213033590Y-61563589D01*
X212902317Y-61723547D01*
X212804769Y-61906043D01*
X212804768Y-61906045D01*
X212804768Y-61906046D01*
X212799552Y-61923241D01*
X212744699Y-62104067D01*
X212724417Y-62310000D01*
X212744699Y-62515932D01*
X212769666Y-62598236D01*
X212804768Y-62713954D01*
X212902315Y-62896450D01*
X212920551Y-62918671D01*
X213033589Y-63056410D01*
X213072169Y-63088071D01*
X213193550Y-63187685D01*
X213376046Y-63285232D01*
X213574066Y-63345300D01*
X213574065Y-63345300D01*
X213592529Y-63347118D01*
X213780000Y-63365583D01*
X213985934Y-63345300D01*
X214183954Y-63285232D01*
X214366450Y-63187685D01*
X214526410Y-63056410D01*
X214657685Y-62896450D01*
X214755232Y-62713954D01*
X214815300Y-62515934D01*
X214835583Y-62310000D01*
X214815300Y-62104066D01*
X214755232Y-61906046D01*
X214657685Y-61723550D01*
X214563582Y-61608884D01*
X214526410Y-61563589D01*
X214454626Y-61504679D01*
X214415291Y-61446933D01*
X214413420Y-61377089D01*
X214449607Y-61317320D01*
X214512362Y-61286604D01*
X214532884Y-61284827D01*
X215570316Y-61281546D01*
X215637414Y-61301018D01*
X215683336Y-61353677D01*
X215693498Y-61422804D01*
X215664674Y-61486451D01*
X215649370Y-61501398D01*
X215573590Y-61563589D01*
X215442317Y-61723547D01*
X215344769Y-61906043D01*
X215344768Y-61906045D01*
X215344768Y-61906046D01*
X215339552Y-61923241D01*
X215284699Y-62104067D01*
X215264417Y-62310000D01*
X215284699Y-62515932D01*
X215309666Y-62598236D01*
X215344768Y-62713954D01*
X215442315Y-62896450D01*
X215460551Y-62918671D01*
X215573589Y-63056410D01*
X215612169Y-63088071D01*
X215733550Y-63187685D01*
X215916046Y-63285232D01*
X216114066Y-63345300D01*
X216114065Y-63345300D01*
X216132529Y-63347118D01*
X216320000Y-63365583D01*
X216525934Y-63345300D01*
X216723954Y-63285232D01*
X216906450Y-63187685D01*
X217066410Y-63056410D01*
X217197685Y-62896450D01*
X217295232Y-62713954D01*
X217355300Y-62515934D01*
X217375583Y-62310000D01*
X217355300Y-62104066D01*
X217295232Y-61906046D01*
X217197685Y-61723550D01*
X217066410Y-61563590D01*
X217053805Y-61553245D01*
X216984877Y-61496677D01*
X216945543Y-61438932D01*
X216943672Y-61369087D01*
X216979860Y-61309319D01*
X217042615Y-61278603D01*
X217063128Y-61276826D01*
X218120143Y-61273484D01*
X218187238Y-61292955D01*
X218233160Y-61345614D01*
X218243322Y-61414741D01*
X218214498Y-61478388D01*
X218199194Y-61493335D01*
X218113590Y-61563589D01*
X217982317Y-61723547D01*
X217884769Y-61906043D01*
X217884768Y-61906045D01*
X217884768Y-61906046D01*
X217879552Y-61923241D01*
X217824699Y-62104067D01*
X217804417Y-62310000D01*
X217824699Y-62515932D01*
X217849666Y-62598236D01*
X217884768Y-62713954D01*
X217982315Y-62896450D01*
X218000551Y-62918671D01*
X218113589Y-63056410D01*
X218152169Y-63088071D01*
X218273550Y-63187685D01*
X218456046Y-63285232D01*
X218654066Y-63345300D01*
X218654065Y-63345300D01*
X218672529Y-63347118D01*
X218860000Y-63365583D01*
X219065934Y-63345300D01*
X219263954Y-63285232D01*
X219446450Y-63187685D01*
X219606410Y-63056410D01*
X219737685Y-62896450D01*
X219835232Y-62713954D01*
X219895300Y-62515934D01*
X219915583Y-62310000D01*
X219895300Y-62104066D01*
X219835232Y-61906046D01*
X219737685Y-61723550D01*
X219606410Y-61563590D01*
X219593805Y-61553245D01*
X219515129Y-61488677D01*
X219475795Y-61430932D01*
X219473924Y-61361087D01*
X219510112Y-61301319D01*
X219572867Y-61270603D01*
X219593383Y-61268826D01*
X220669967Y-61265422D01*
X220737063Y-61284893D01*
X220782985Y-61337552D01*
X220793147Y-61406679D01*
X220764323Y-61470326D01*
X220749019Y-61485273D01*
X220653590Y-61563589D01*
X220522317Y-61723547D01*
X220424769Y-61906043D01*
X220424768Y-61906045D01*
X220424768Y-61906046D01*
X220419552Y-61923241D01*
X220364699Y-62104067D01*
X220344417Y-62310000D01*
X220364699Y-62515932D01*
X220389666Y-62598236D01*
X220424768Y-62713954D01*
X220522315Y-62896450D01*
X220540551Y-62918671D01*
X220653589Y-63056410D01*
X220692169Y-63088071D01*
X220813550Y-63187685D01*
X220996046Y-63285232D01*
X221194066Y-63345300D01*
X221194065Y-63345300D01*
X221212529Y-63347118D01*
X221400000Y-63365583D01*
X221605934Y-63345300D01*
X221803954Y-63285232D01*
X221986450Y-63187685D01*
X222146410Y-63056410D01*
X222277685Y-62896450D01*
X222375232Y-62713954D01*
X222435300Y-62515934D01*
X222455583Y-62310000D01*
X222435300Y-62104066D01*
X222375232Y-61906046D01*
X222277685Y-61723550D01*
X222183582Y-61608884D01*
X222146410Y-61563589D01*
X222045381Y-61480678D01*
X222006046Y-61422932D01*
X222004175Y-61353087D01*
X222040362Y-61293319D01*
X222103118Y-61262603D01*
X222123638Y-61260826D01*
X223066691Y-61257844D01*
X223133787Y-61277315D01*
X223179709Y-61329974D01*
X223189871Y-61399101D01*
X223161047Y-61462748D01*
X223150617Y-61473478D01*
X223086500Y-61531928D01*
X222958059Y-61702010D01*
X222863066Y-61892783D01*
X222863058Y-61892803D01*
X222804738Y-62097781D01*
X222798972Y-62159999D01*
X222798973Y-62160000D01*
X223462935Y-62160000D01*
X223440000Y-62238111D01*
X223440000Y-62381889D01*
X223462935Y-62460000D01*
X222798973Y-62460000D01*
X222804738Y-62522218D01*
X222863058Y-62727196D01*
X222863066Y-62727216D01*
X222958059Y-62917989D01*
X223086500Y-63088071D01*
X223244000Y-63231651D01*
X223244002Y-63231653D01*
X223425201Y-63343846D01*
X223425207Y-63343849D01*
X223623936Y-63420836D01*
X223790000Y-63451879D01*
X223790000Y-62791170D01*
X223797685Y-62794680D01*
X223904237Y-62810000D01*
X223975763Y-62810000D01*
X224082315Y-62794680D01*
X224090000Y-62791170D01*
X224090000Y-63451879D01*
X224256063Y-63420836D01*
X224454792Y-63343849D01*
X224454798Y-63343846D01*
X224635997Y-63231653D01*
X224635999Y-63231651D01*
X224793499Y-63088071D01*
X224921940Y-62917989D01*
X225016933Y-62727216D01*
X225016941Y-62727196D01*
X225075261Y-62522218D01*
X225081027Y-62460000D01*
X224417065Y-62460000D01*
X224440000Y-62381889D01*
X224440000Y-62238111D01*
X224417065Y-62160000D01*
X225081027Y-62160000D01*
X225081027Y-62159999D01*
X225075261Y-62097781D01*
X225016941Y-61892803D01*
X225016933Y-61892783D01*
X224921940Y-61702010D01*
X224793501Y-61531931D01*
X224723349Y-61467979D01*
X224687068Y-61408268D01*
X224688829Y-61338420D01*
X224728073Y-61280613D01*
X224792340Y-61253198D01*
X224806488Y-61252343D01*
X225769612Y-61249298D01*
X225836709Y-61268769D01*
X225882631Y-61321428D01*
X225892793Y-61390555D01*
X225863969Y-61454202D01*
X225848665Y-61469149D01*
X225733590Y-61563589D01*
X225602317Y-61723547D01*
X225504769Y-61906043D01*
X225504768Y-61906045D01*
X225504768Y-61906046D01*
X225499552Y-61923241D01*
X225444699Y-62104067D01*
X225424417Y-62310000D01*
X225444699Y-62515932D01*
X225469666Y-62598236D01*
X225504768Y-62713954D01*
X225602315Y-62896450D01*
X225620551Y-62918671D01*
X225733589Y-63056410D01*
X225772169Y-63088071D01*
X225893550Y-63187685D01*
X226076046Y-63285232D01*
X226274066Y-63345300D01*
X226274065Y-63345300D01*
X226292529Y-63347118D01*
X226480000Y-63365583D01*
X226685934Y-63345300D01*
X226883954Y-63285232D01*
X227066450Y-63187685D01*
X227226410Y-63056410D01*
X227357685Y-62896450D01*
X227455232Y-62713954D01*
X227515300Y-62515934D01*
X227535583Y-62310000D01*
X227515300Y-62104066D01*
X227455232Y-61906046D01*
X227357685Y-61723550D01*
X227263582Y-61608884D01*
X227226410Y-61563589D01*
X227105885Y-61464678D01*
X227066550Y-61406932D01*
X227064679Y-61337087D01*
X227100866Y-61277319D01*
X227163622Y-61246603D01*
X227184149Y-61244825D01*
X228164370Y-61241726D01*
X228231467Y-61261197D01*
X228277389Y-61313856D01*
X228287551Y-61382983D01*
X228258727Y-61446630D01*
X228248297Y-61457360D01*
X228166500Y-61531928D01*
X228038059Y-61702010D01*
X227943066Y-61892783D01*
X227943058Y-61892803D01*
X227884738Y-62097781D01*
X227878972Y-62159999D01*
X227878973Y-62160000D01*
X228542935Y-62160000D01*
X228520000Y-62238111D01*
X228520000Y-62381889D01*
X228542935Y-62460000D01*
X227878973Y-62460000D01*
X227884738Y-62522218D01*
X227943058Y-62727196D01*
X227943066Y-62727216D01*
X228038059Y-62917989D01*
X228166500Y-63088071D01*
X228324000Y-63231651D01*
X228324002Y-63231653D01*
X228505201Y-63343846D01*
X228505207Y-63343849D01*
X228703936Y-63420836D01*
X228870000Y-63451879D01*
X228870000Y-62791170D01*
X228877685Y-62794680D01*
X228984237Y-62810000D01*
X229055763Y-62810000D01*
X229162315Y-62794680D01*
X229170000Y-62791170D01*
X229170000Y-63451879D01*
X229336063Y-63420836D01*
X229534792Y-63343849D01*
X229534798Y-63343846D01*
X229715997Y-63231653D01*
X229715999Y-63231651D01*
X229873499Y-63088071D01*
X230001940Y-62917989D01*
X230096933Y-62727216D01*
X230096941Y-62727196D01*
X230155261Y-62522218D01*
X230161027Y-62460000D01*
X229497065Y-62460000D01*
X229520000Y-62381889D01*
X229520000Y-62238111D01*
X229497065Y-62160000D01*
X230161027Y-62160000D01*
X230161027Y-62159999D01*
X230155261Y-62097781D01*
X230096941Y-61892803D01*
X230096933Y-61892783D01*
X230001940Y-61702010D01*
X229873499Y-61531928D01*
X229785790Y-61451971D01*
X229749508Y-61392260D01*
X229751269Y-61322412D01*
X229790513Y-61264605D01*
X229854779Y-61237190D01*
X229868906Y-61236336D01*
X230869263Y-61233173D01*
X230936358Y-61252644D01*
X230982280Y-61305303D01*
X230992442Y-61374430D01*
X230963618Y-61438077D01*
X230948314Y-61453024D01*
X230813590Y-61563589D01*
X230682317Y-61723547D01*
X230584769Y-61906043D01*
X230584768Y-61906045D01*
X230584768Y-61906046D01*
X230579552Y-61923241D01*
X230524699Y-62104067D01*
X230504417Y-62310000D01*
X230524699Y-62515932D01*
X230549666Y-62598236D01*
X230584768Y-62713954D01*
X230682315Y-62896450D01*
X230700551Y-62918671D01*
X230813589Y-63056410D01*
X230852169Y-63088071D01*
X230973550Y-63187685D01*
X231156046Y-63285232D01*
X231354066Y-63345300D01*
X231354065Y-63345300D01*
X231372529Y-63347118D01*
X231560000Y-63365583D01*
X231765934Y-63345300D01*
X231963954Y-63285232D01*
X232146450Y-63187685D01*
X232306410Y-63056410D01*
X232437685Y-62896450D01*
X232535232Y-62713954D01*
X232595300Y-62515934D01*
X232615583Y-62310000D01*
X232595300Y-62104066D01*
X232535232Y-61906046D01*
X232437685Y-61723550D01*
X232343582Y-61608884D01*
X232306410Y-61563589D01*
X232183533Y-61462748D01*
X232166386Y-61448676D01*
X232127052Y-61390931D01*
X232125181Y-61321087D01*
X232161368Y-61261318D01*
X232224124Y-61230602D01*
X232244647Y-61228825D01*
X233419085Y-61225111D01*
X233486181Y-61244582D01*
X233532103Y-61297241D01*
X233542265Y-61366368D01*
X233513441Y-61430015D01*
X233498137Y-61444962D01*
X233353590Y-61563589D01*
X233222317Y-61723547D01*
X233124769Y-61906043D01*
X233124768Y-61906045D01*
X233124768Y-61906046D01*
X233119552Y-61923241D01*
X233064699Y-62104067D01*
X233044417Y-62310000D01*
X233064699Y-62515932D01*
X233089666Y-62598236D01*
X233124768Y-62713954D01*
X233222315Y-62896450D01*
X233240551Y-62918671D01*
X233353589Y-63056410D01*
X233392169Y-63088071D01*
X233513550Y-63187685D01*
X233696046Y-63285232D01*
X233894066Y-63345300D01*
X233894065Y-63345300D01*
X233912529Y-63347118D01*
X234100000Y-63365583D01*
X234305934Y-63345300D01*
X234503954Y-63285232D01*
X234686450Y-63187685D01*
X234846410Y-63056410D01*
X234977685Y-62896450D01*
X235075232Y-62713954D01*
X235135300Y-62515934D01*
X235155583Y-62310000D01*
X235135300Y-62104066D01*
X235075232Y-61906046D01*
X234977685Y-61723550D01*
X234846410Y-61563590D01*
X234833805Y-61553245D01*
X234696638Y-61440675D01*
X234657304Y-61382930D01*
X234655433Y-61313085D01*
X234691620Y-61253317D01*
X234754376Y-61222601D01*
X234774890Y-61220824D01*
X235968908Y-61217049D01*
X236036005Y-61236520D01*
X236081927Y-61289179D01*
X236092089Y-61358306D01*
X236063265Y-61421953D01*
X236047961Y-61436900D01*
X235893590Y-61563589D01*
X235762317Y-61723547D01*
X235664769Y-61906043D01*
X235664768Y-61906045D01*
X235664768Y-61906046D01*
X235659552Y-61923241D01*
X235604699Y-62104067D01*
X235584417Y-62310000D01*
X235604699Y-62515932D01*
X235629666Y-62598236D01*
X235664768Y-62713954D01*
X235762315Y-62896450D01*
X235780551Y-62918671D01*
X235893589Y-63056410D01*
X235932169Y-63088071D01*
X236053550Y-63187685D01*
X236236046Y-63285232D01*
X236434066Y-63345300D01*
X236434065Y-63345300D01*
X236452529Y-63347118D01*
X236640000Y-63365583D01*
X236845934Y-63345300D01*
X237043954Y-63285232D01*
X237226450Y-63187685D01*
X237386410Y-63056410D01*
X237517685Y-62896450D01*
X237615232Y-62713954D01*
X237675300Y-62515934D01*
X237695583Y-62310000D01*
X237675300Y-62104066D01*
X237615232Y-61906046D01*
X237517685Y-61723550D01*
X237386410Y-61563590D01*
X237373805Y-61553245D01*
X237226890Y-61432675D01*
X237187556Y-61374930D01*
X237185685Y-61305085D01*
X237221872Y-61245317D01*
X237284628Y-61214601D01*
X237305146Y-61212824D01*
X259486601Y-61142689D01*
X259489594Y-61142753D01*
G37*
G04 #@! TD.AperFunction*
M02*
