M48
; DRILL file {KiCad 7.0.8} date Mon Oct 30 18:51:14 2023
; FORMAT={-:-/ absolute / metric / decimal}
; #@! TF.CreationDate,2023-10-30T18:51:14+02:00
; #@! TF.GenerationSoftware,Kicad,Pcbnew,7.0.8
; #@! TF.FileFunction,Plated,1,2,PTH
FMAT,2
METRIC
; #@! TA.AperFunction,Plated,PTH,ViaDrill
T1C0.400
; #@! TA.AperFunction,Plated,PTH,ComponentDrill
T2C1.000
%
G90
G05
T1
X186.375Y-87.34
X190.74Y-69.97
T2
X184.5Y-76.575
X184.5Y-79.115
X184.5Y-81.655
X184.5Y-84.195
X184.5Y-86.735
X184.5Y-89.275
X184.5Y-91.815
X184.5Y-94.355
X184.5Y-96.895
X184.5Y-99.435
X188.38Y-62.31
X188.38Y-64.85
X190.92Y-62.31
X190.92Y-64.85
X193.46Y-62.31
X193.46Y-64.85
X196.0Y-62.31
X196.0Y-64.85
X198.54Y-62.31
X198.54Y-64.85
X201.06Y-112.3
X201.08Y-62.31
X201.08Y-64.85
X203.6Y-112.3
X203.62Y-62.31
X203.62Y-64.85
X206.14Y-112.3
X206.16Y-62.31
X206.16Y-64.85
X208.68Y-112.3
X208.7Y-62.31
X208.7Y-64.85
X211.22Y-112.3
X211.24Y-62.31
X211.24Y-64.85
X213.76Y-112.3
X213.78Y-62.31
X213.78Y-64.85
X216.32Y-62.31
X216.32Y-64.85
X218.86Y-62.31
X218.86Y-64.85
X221.4Y-62.31
X221.4Y-64.85
X223.94Y-62.31
X223.94Y-64.85
X226.48Y-62.31
X226.48Y-64.85
X229.02Y-62.31
X229.02Y-64.85
X231.56Y-62.31
X231.56Y-64.85
X234.1Y-62.31
X234.1Y-64.85
X236.64Y-62.31
X236.64Y-64.85
X246.82Y-81.99
X246.82Y-84.53
X246.82Y-87.07
X246.82Y-89.61
X249.36Y-81.99
X249.36Y-84.53
X249.36Y-87.07
X249.36Y-89.61
T0
M30
