G04 #@! TF.GenerationSoftware,KiCad,Pcbnew,7.0.8*
G04 #@! TF.CreationDate,2023-10-30T18:50:45+02:00*
G04 #@! TF.ProjectId,CubeSAT,43756265-5341-4542-9e6b-696361645f70,rev?*
G04 #@! TF.SameCoordinates,Original*
G04 #@! TF.FileFunction,Soldermask,Top*
G04 #@! TF.FilePolarity,Negative*
%FSLAX46Y46*%
G04 Gerber Fmt 4.6, Leading zero omitted, Abs format (unit mm)*
G04 Created by KiCad (PCBNEW 7.0.8) date 2023-10-30 18:50:45*
%MOMM*%
%LPD*%
G01*
G04 APERTURE LIST*
G04 Aperture macros list*
%AMRoundRect*
0 Rectangle with rounded corners*
0 $1 Rounding radius*
0 $2 $3 $4 $5 $6 $7 $8 $9 X,Y pos of 4 corners*
0 Add a 4 corners polygon primitive as box body*
4,1,4,$2,$3,$4,$5,$6,$7,$8,$9,$2,$3,0*
0 Add four circle primitives for the rounded corners*
1,1,$1+$1,$2,$3*
1,1,$1+$1,$4,$5*
1,1,$1+$1,$6,$7*
1,1,$1+$1,$8,$9*
0 Add four rect primitives between the rounded corners*
20,1,$1+$1,$2,$3,$4,$5,0*
20,1,$1+$1,$4,$5,$6,$7,0*
20,1,$1+$1,$6,$7,$8,$9,0*
20,1,$1+$1,$8,$9,$2,$3,0*%
G04 Aperture macros list end*
%ADD10RoundRect,0.200000X-0.200000X-0.275000X0.200000X-0.275000X0.200000X0.275000X-0.200000X0.275000X0*%
%ADD11R,1.700000X1.700000*%
%ADD12O,1.700000X1.700000*%
%ADD13C,2.700000*%
%ADD14RoundRect,0.218750X-0.256250X0.218750X-0.256250X-0.218750X0.256250X-0.218750X0.256250X0.218750X0*%
G04 APERTURE END LIST*
D10*
X259400000Y-88390000D03*
X261050000Y-88390000D03*
D11*
X184500000Y-76575000D03*
D12*
X184500000Y-79115000D03*
X184500000Y-81655000D03*
X184500000Y-84195000D03*
X184500000Y-86735000D03*
X184500000Y-89275000D03*
X184500000Y-91815000D03*
X184500000Y-94355000D03*
X184500000Y-96895000D03*
X184500000Y-99435000D03*
D11*
X201060000Y-112300000D03*
D12*
X203600000Y-112300000D03*
X206140000Y-112300000D03*
X208680000Y-112300000D03*
X211220000Y-112300000D03*
X213760000Y-112300000D03*
D13*
X183500000Y-63500000D03*
D14*
X262740000Y-83622500D03*
X262740000Y-85197500D03*
D13*
X183500000Y-112500000D03*
D10*
X259450000Y-84380000D03*
X261100000Y-84380000D03*
D13*
X241500000Y-112500000D03*
D14*
X262735000Y-87602500D03*
X262735000Y-89177500D03*
D13*
X241500000Y-63500000D03*
D11*
X249360000Y-89610000D03*
D12*
X246820000Y-89610000D03*
X249360000Y-87070000D03*
X246820000Y-87070000D03*
X249360000Y-84530000D03*
X246820000Y-84530000D03*
X249360000Y-81990000D03*
X246820000Y-81990000D03*
X236640000Y-64850000D03*
X236640000Y-62310000D03*
X234100000Y-64850000D03*
X234100000Y-62310000D03*
X231560000Y-64850000D03*
X231560000Y-62310000D03*
X229020000Y-64850000D03*
X229020000Y-62310000D03*
X226480000Y-64850000D03*
X226480000Y-62310000D03*
X223940000Y-64850000D03*
X223940000Y-62310000D03*
X221400000Y-64850000D03*
X221400000Y-62310000D03*
X218860000Y-64850000D03*
X218860000Y-62310000D03*
X216320000Y-64850000D03*
X216320000Y-62310000D03*
X213780000Y-64850000D03*
X213780000Y-62310000D03*
X211240000Y-64850000D03*
X211240000Y-62310000D03*
X208700000Y-64850000D03*
X208700000Y-62310000D03*
X206160000Y-64850000D03*
X206160000Y-62310000D03*
X203620000Y-64850000D03*
X203620000Y-62310000D03*
X201080000Y-64850000D03*
X201080000Y-62310000D03*
X198540000Y-64850000D03*
X198540000Y-62310000D03*
X196000000Y-64850000D03*
X196000000Y-62310000D03*
X193460000Y-64850000D03*
X193460000Y-62310000D03*
X190920000Y-64850000D03*
X190920000Y-62310000D03*
X188380000Y-64850000D03*
D11*
X188380000Y-62310000D03*
M02*
