G04 #@! TF.GenerationSoftware,KiCad,Pcbnew,7.0.8*
G04 #@! TF.CreationDate,2023-10-30T18:50:45+02:00*
G04 #@! TF.ProjectId,CubeSAT,43756265-5341-4542-9e6b-696361645f70,rev?*
G04 #@! TF.SameCoordinates,Original*
G04 #@! TF.FileFunction,Legend,Bot*
G04 #@! TF.FilePolarity,Positive*
%FSLAX46Y46*%
G04 Gerber Fmt 4.6, Leading zero omitted, Abs format (unit mm)*
G04 Created by KiCad (PCBNEW 7.0.8) date 2023-10-30 18:50:45*
%MOMM*%
%LPD*%
G01*
G04 APERTURE LIST*
%ADD10C,0.300000*%
%ADD11C,0.120000*%
%ADD12R,1.700000X1.700000*%
%ADD13O,1.700000X1.700000*%
%ADD14C,2.700000*%
G04 APERTURE END LIST*
D10*
X262088346Y-108157971D02*
X262159774Y-108229400D01*
X262159774Y-108229400D02*
X262374060Y-108300828D01*
X262374060Y-108300828D02*
X262516917Y-108300828D01*
X262516917Y-108300828D02*
X262731203Y-108229400D01*
X262731203Y-108229400D02*
X262874060Y-108086542D01*
X262874060Y-108086542D02*
X262945489Y-107943685D01*
X262945489Y-107943685D02*
X263016917Y-107657971D01*
X263016917Y-107657971D02*
X263016917Y-107443685D01*
X263016917Y-107443685D02*
X262945489Y-107157971D01*
X262945489Y-107157971D02*
X262874060Y-107015114D01*
X262874060Y-107015114D02*
X262731203Y-106872257D01*
X262731203Y-106872257D02*
X262516917Y-106800828D01*
X262516917Y-106800828D02*
X262374060Y-106800828D01*
X262374060Y-106800828D02*
X262159774Y-106872257D01*
X262159774Y-106872257D02*
X262088346Y-106943685D01*
X261445489Y-108300828D02*
X261445489Y-107300828D01*
X261445489Y-107586542D02*
X261374060Y-107443685D01*
X261374060Y-107443685D02*
X261302632Y-107372257D01*
X261302632Y-107372257D02*
X261159774Y-107300828D01*
X261159774Y-107300828D02*
X261016917Y-107300828D01*
X260516918Y-108300828D02*
X260516918Y-107300828D01*
X260516918Y-106800828D02*
X260588346Y-106872257D01*
X260588346Y-106872257D02*
X260516918Y-106943685D01*
X260516918Y-106943685D02*
X260445489Y-106872257D01*
X260445489Y-106872257D02*
X260516918Y-106800828D01*
X260516918Y-106800828D02*
X260516918Y-106943685D01*
X259874060Y-108229400D02*
X259731203Y-108300828D01*
X259731203Y-108300828D02*
X259445489Y-108300828D01*
X259445489Y-108300828D02*
X259302632Y-108229400D01*
X259302632Y-108229400D02*
X259231203Y-108086542D01*
X259231203Y-108086542D02*
X259231203Y-108015114D01*
X259231203Y-108015114D02*
X259302632Y-107872257D01*
X259302632Y-107872257D02*
X259445489Y-107800828D01*
X259445489Y-107800828D02*
X259659775Y-107800828D01*
X259659775Y-107800828D02*
X259802632Y-107729400D01*
X259802632Y-107729400D02*
X259874060Y-107586542D01*
X259874060Y-107586542D02*
X259874060Y-107515114D01*
X259874060Y-107515114D02*
X259802632Y-107372257D01*
X259802632Y-107372257D02*
X259659775Y-107300828D01*
X259659775Y-107300828D02*
X259445489Y-107300828D01*
X259445489Y-107300828D02*
X259302632Y-107372257D01*
X258802631Y-107300828D02*
X258231203Y-107300828D01*
X258588346Y-106800828D02*
X258588346Y-108086542D01*
X258588346Y-108086542D02*
X258516917Y-108229400D01*
X258516917Y-108229400D02*
X258374060Y-108300828D01*
X258374060Y-108300828D02*
X258231203Y-108300828D01*
X257159774Y-108229400D02*
X257302631Y-108300828D01*
X257302631Y-108300828D02*
X257588346Y-108300828D01*
X257588346Y-108300828D02*
X257731203Y-108229400D01*
X257731203Y-108229400D02*
X257802631Y-108086542D01*
X257802631Y-108086542D02*
X257802631Y-107515114D01*
X257802631Y-107515114D02*
X257731203Y-107372257D01*
X257731203Y-107372257D02*
X257588346Y-107300828D01*
X257588346Y-107300828D02*
X257302631Y-107300828D01*
X257302631Y-107300828D02*
X257159774Y-107372257D01*
X257159774Y-107372257D02*
X257088346Y-107515114D01*
X257088346Y-107515114D02*
X257088346Y-107657971D01*
X257088346Y-107657971D02*
X257802631Y-107800828D01*
X255802632Y-108300828D02*
X255802632Y-107515114D01*
X255802632Y-107515114D02*
X255874060Y-107372257D01*
X255874060Y-107372257D02*
X256016917Y-107300828D01*
X256016917Y-107300828D02*
X256302632Y-107300828D01*
X256302632Y-107300828D02*
X256445489Y-107372257D01*
X255802632Y-108229400D02*
X255945489Y-108300828D01*
X255945489Y-108300828D02*
X256302632Y-108300828D01*
X256302632Y-108300828D02*
X256445489Y-108229400D01*
X256445489Y-108229400D02*
X256516917Y-108086542D01*
X256516917Y-108086542D02*
X256516917Y-107943685D01*
X256516917Y-107943685D02*
X256445489Y-107800828D01*
X256445489Y-107800828D02*
X256302632Y-107729400D01*
X256302632Y-107729400D02*
X255945489Y-107729400D01*
X255945489Y-107729400D02*
X255802632Y-107657971D01*
X254159774Y-106800828D02*
X253302632Y-106800828D01*
X253731203Y-108300828D02*
X253731203Y-106800828D01*
X252231203Y-108229400D02*
X252374060Y-108300828D01*
X252374060Y-108300828D02*
X252659775Y-108300828D01*
X252659775Y-108300828D02*
X252802632Y-108229400D01*
X252802632Y-108229400D02*
X252874060Y-108086542D01*
X252874060Y-108086542D02*
X252874060Y-107515114D01*
X252874060Y-107515114D02*
X252802632Y-107372257D01*
X252802632Y-107372257D02*
X252659775Y-107300828D01*
X252659775Y-107300828D02*
X252374060Y-107300828D01*
X252374060Y-107300828D02*
X252231203Y-107372257D01*
X252231203Y-107372257D02*
X252159775Y-107515114D01*
X252159775Y-107515114D02*
X252159775Y-107657971D01*
X252159775Y-107657971D02*
X252874060Y-107800828D01*
X251302632Y-108300828D02*
X251445489Y-108229400D01*
X251445489Y-108229400D02*
X251516918Y-108157971D01*
X251516918Y-108157971D02*
X251588346Y-108015114D01*
X251588346Y-108015114D02*
X251588346Y-107586542D01*
X251588346Y-107586542D02*
X251516918Y-107443685D01*
X251516918Y-107443685D02*
X251445489Y-107372257D01*
X251445489Y-107372257D02*
X251302632Y-107300828D01*
X251302632Y-107300828D02*
X251088346Y-107300828D01*
X251088346Y-107300828D02*
X250945489Y-107372257D01*
X250945489Y-107372257D02*
X250874061Y-107443685D01*
X250874061Y-107443685D02*
X250802632Y-107586542D01*
X250802632Y-107586542D02*
X250802632Y-108015114D01*
X250802632Y-108015114D02*
X250874061Y-108157971D01*
X250874061Y-108157971D02*
X250945489Y-108229400D01*
X250945489Y-108229400D02*
X251088346Y-108300828D01*
X251088346Y-108300828D02*
X251302632Y-108300828D01*
X249516918Y-108300828D02*
X249516918Y-106800828D01*
X249516918Y-108229400D02*
X249659775Y-108300828D01*
X249659775Y-108300828D02*
X249945489Y-108300828D01*
X249945489Y-108300828D02*
X250088346Y-108229400D01*
X250088346Y-108229400D02*
X250159775Y-108157971D01*
X250159775Y-108157971D02*
X250231203Y-108015114D01*
X250231203Y-108015114D02*
X250231203Y-107586542D01*
X250231203Y-107586542D02*
X250159775Y-107443685D01*
X250159775Y-107443685D02*
X250088346Y-107372257D01*
X250088346Y-107372257D02*
X249945489Y-107300828D01*
X249945489Y-107300828D02*
X249659775Y-107300828D01*
X249659775Y-107300828D02*
X249516918Y-107372257D01*
X248588346Y-108300828D02*
X248731203Y-108229400D01*
X248731203Y-108229400D02*
X248802632Y-108157971D01*
X248802632Y-108157971D02*
X248874060Y-108015114D01*
X248874060Y-108015114D02*
X248874060Y-107586542D01*
X248874060Y-107586542D02*
X248802632Y-107443685D01*
X248802632Y-107443685D02*
X248731203Y-107372257D01*
X248731203Y-107372257D02*
X248588346Y-107300828D01*
X248588346Y-107300828D02*
X248374060Y-107300828D01*
X248374060Y-107300828D02*
X248231203Y-107372257D01*
X248231203Y-107372257D02*
X248159775Y-107443685D01*
X248159775Y-107443685D02*
X248088346Y-107586542D01*
X248088346Y-107586542D02*
X248088346Y-108015114D01*
X248088346Y-108015114D02*
X248159775Y-108157971D01*
X248159775Y-108157971D02*
X248231203Y-108229400D01*
X248231203Y-108229400D02*
X248374060Y-108300828D01*
X248374060Y-108300828D02*
X248588346Y-108300828D01*
X247445489Y-108300828D02*
X247445489Y-107300828D01*
X247445489Y-107586542D02*
X247374060Y-107443685D01*
X247374060Y-107443685D02*
X247302632Y-107372257D01*
X247302632Y-107372257D02*
X247159774Y-107300828D01*
X247159774Y-107300828D02*
X247016917Y-107300828D01*
X245374061Y-107729400D02*
X244231204Y-107729400D01*
X242445489Y-107872257D02*
X241731204Y-107872257D01*
X242588346Y-108300828D02*
X242088346Y-106800828D01*
X242088346Y-106800828D02*
X241588346Y-108300828D01*
X241088347Y-107300828D02*
X241088347Y-108300828D01*
X241088347Y-107443685D02*
X241016918Y-107372257D01*
X241016918Y-107372257D02*
X240874061Y-107300828D01*
X240874061Y-107300828D02*
X240659775Y-107300828D01*
X240659775Y-107300828D02*
X240516918Y-107372257D01*
X240516918Y-107372257D02*
X240445490Y-107515114D01*
X240445490Y-107515114D02*
X240445490Y-108300828D01*
X239088347Y-108300828D02*
X239088347Y-106800828D01*
X239088347Y-108229400D02*
X239231204Y-108300828D01*
X239231204Y-108300828D02*
X239516918Y-108300828D01*
X239516918Y-108300828D02*
X239659775Y-108229400D01*
X239659775Y-108229400D02*
X239731204Y-108157971D01*
X239731204Y-108157971D02*
X239802632Y-108015114D01*
X239802632Y-108015114D02*
X239802632Y-107586542D01*
X239802632Y-107586542D02*
X239731204Y-107443685D01*
X239731204Y-107443685D02*
X239659775Y-107372257D01*
X239659775Y-107372257D02*
X239516918Y-107300828D01*
X239516918Y-107300828D02*
X239231204Y-107300828D01*
X239231204Y-107300828D02*
X239088347Y-107372257D01*
X238374061Y-108300828D02*
X238374061Y-107300828D01*
X238374061Y-107586542D02*
X238302632Y-107443685D01*
X238302632Y-107443685D02*
X238231204Y-107372257D01*
X238231204Y-107372257D02*
X238088346Y-107300828D01*
X238088346Y-107300828D02*
X237945489Y-107300828D01*
X236874061Y-108229400D02*
X237016918Y-108300828D01*
X237016918Y-108300828D02*
X237302633Y-108300828D01*
X237302633Y-108300828D02*
X237445490Y-108229400D01*
X237445490Y-108229400D02*
X237516918Y-108086542D01*
X237516918Y-108086542D02*
X237516918Y-107515114D01*
X237516918Y-107515114D02*
X237445490Y-107372257D01*
X237445490Y-107372257D02*
X237302633Y-107300828D01*
X237302633Y-107300828D02*
X237016918Y-107300828D01*
X237016918Y-107300828D02*
X236874061Y-107372257D01*
X236874061Y-107372257D02*
X236802633Y-107515114D01*
X236802633Y-107515114D02*
X236802633Y-107657971D01*
X236802633Y-107657971D02*
X237516918Y-107800828D01*
X236159776Y-108300828D02*
X236159776Y-107300828D01*
X236159776Y-106800828D02*
X236231204Y-106872257D01*
X236231204Y-106872257D02*
X236159776Y-106943685D01*
X236159776Y-106943685D02*
X236088347Y-106872257D01*
X236088347Y-106872257D02*
X236159776Y-106800828D01*
X236159776Y-106800828D02*
X236159776Y-106943685D01*
X261998346Y-113217971D02*
X262069774Y-113289400D01*
X262069774Y-113289400D02*
X262284060Y-113360828D01*
X262284060Y-113360828D02*
X262426917Y-113360828D01*
X262426917Y-113360828D02*
X262641203Y-113289400D01*
X262641203Y-113289400D02*
X262784060Y-113146542D01*
X262784060Y-113146542D02*
X262855489Y-113003685D01*
X262855489Y-113003685D02*
X262926917Y-112717971D01*
X262926917Y-112717971D02*
X262926917Y-112503685D01*
X262926917Y-112503685D02*
X262855489Y-112217971D01*
X262855489Y-112217971D02*
X262784060Y-112075114D01*
X262784060Y-112075114D02*
X262641203Y-111932257D01*
X262641203Y-111932257D02*
X262426917Y-111860828D01*
X262426917Y-111860828D02*
X262284060Y-111860828D01*
X262284060Y-111860828D02*
X262069774Y-111932257D01*
X262069774Y-111932257D02*
X261998346Y-112003685D01*
X261355489Y-111860828D02*
X261355489Y-113075114D01*
X261355489Y-113075114D02*
X261284060Y-113217971D01*
X261284060Y-113217971D02*
X261212632Y-113289400D01*
X261212632Y-113289400D02*
X261069774Y-113360828D01*
X261069774Y-113360828D02*
X260784060Y-113360828D01*
X260784060Y-113360828D02*
X260641203Y-113289400D01*
X260641203Y-113289400D02*
X260569774Y-113217971D01*
X260569774Y-113217971D02*
X260498346Y-113075114D01*
X260498346Y-113075114D02*
X260498346Y-111860828D01*
X259284060Y-112575114D02*
X259069774Y-112646542D01*
X259069774Y-112646542D02*
X258998345Y-112717971D01*
X258998345Y-112717971D02*
X258926917Y-112860828D01*
X258926917Y-112860828D02*
X258926917Y-113075114D01*
X258926917Y-113075114D02*
X258998345Y-113217971D01*
X258998345Y-113217971D02*
X259069774Y-113289400D01*
X259069774Y-113289400D02*
X259212631Y-113360828D01*
X259212631Y-113360828D02*
X259784060Y-113360828D01*
X259784060Y-113360828D02*
X259784060Y-111860828D01*
X259784060Y-111860828D02*
X259284060Y-111860828D01*
X259284060Y-111860828D02*
X259141203Y-111932257D01*
X259141203Y-111932257D02*
X259069774Y-112003685D01*
X259069774Y-112003685D02*
X258998345Y-112146542D01*
X258998345Y-112146542D02*
X258998345Y-112289400D01*
X258998345Y-112289400D02*
X259069774Y-112432257D01*
X259069774Y-112432257D02*
X259141203Y-112503685D01*
X259141203Y-112503685D02*
X259284060Y-112575114D01*
X259284060Y-112575114D02*
X259784060Y-112575114D01*
X258284060Y-112575114D02*
X257784060Y-112575114D01*
X257569774Y-113360828D02*
X258284060Y-113360828D01*
X258284060Y-113360828D02*
X258284060Y-111860828D01*
X258284060Y-111860828D02*
X257569774Y-111860828D01*
X256998345Y-113289400D02*
X256784060Y-113360828D01*
X256784060Y-113360828D02*
X256426917Y-113360828D01*
X256426917Y-113360828D02*
X256284060Y-113289400D01*
X256284060Y-113289400D02*
X256212631Y-113217971D01*
X256212631Y-113217971D02*
X256141202Y-113075114D01*
X256141202Y-113075114D02*
X256141202Y-112932257D01*
X256141202Y-112932257D02*
X256212631Y-112789400D01*
X256212631Y-112789400D02*
X256284060Y-112717971D01*
X256284060Y-112717971D02*
X256426917Y-112646542D01*
X256426917Y-112646542D02*
X256712631Y-112575114D01*
X256712631Y-112575114D02*
X256855488Y-112503685D01*
X256855488Y-112503685D02*
X256926917Y-112432257D01*
X256926917Y-112432257D02*
X256998345Y-112289400D01*
X256998345Y-112289400D02*
X256998345Y-112146542D01*
X256998345Y-112146542D02*
X256926917Y-112003685D01*
X256926917Y-112003685D02*
X256855488Y-111932257D01*
X256855488Y-111932257D02*
X256712631Y-111860828D01*
X256712631Y-111860828D02*
X256355488Y-111860828D01*
X256355488Y-111860828D02*
X256141202Y-111932257D01*
X255569774Y-112932257D02*
X254855489Y-112932257D01*
X255712631Y-113360828D02*
X255212631Y-111860828D01*
X255212631Y-111860828D02*
X254712631Y-113360828D01*
X254426917Y-111860828D02*
X253569775Y-111860828D01*
X253998346Y-113360828D02*
X253998346Y-111860828D01*
X251069775Y-113360828D02*
X251569775Y-112646542D01*
X251926918Y-113360828D02*
X251926918Y-111860828D01*
X251926918Y-111860828D02*
X251355489Y-111860828D01*
X251355489Y-111860828D02*
X251212632Y-111932257D01*
X251212632Y-111932257D02*
X251141203Y-112003685D01*
X251141203Y-112003685D02*
X251069775Y-112146542D01*
X251069775Y-112146542D02*
X251069775Y-112360828D01*
X251069775Y-112360828D02*
X251141203Y-112503685D01*
X251141203Y-112503685D02*
X251212632Y-112575114D01*
X251212632Y-112575114D02*
X251355489Y-112646542D01*
X251355489Y-112646542D02*
X251926918Y-112646542D01*
X249855489Y-113289400D02*
X249998346Y-113360828D01*
X249998346Y-113360828D02*
X250284061Y-113360828D01*
X250284061Y-113360828D02*
X250426918Y-113289400D01*
X250426918Y-113289400D02*
X250498346Y-113146542D01*
X250498346Y-113146542D02*
X250498346Y-112575114D01*
X250498346Y-112575114D02*
X250426918Y-112432257D01*
X250426918Y-112432257D02*
X250284061Y-112360828D01*
X250284061Y-112360828D02*
X249998346Y-112360828D01*
X249998346Y-112360828D02*
X249855489Y-112432257D01*
X249855489Y-112432257D02*
X249784061Y-112575114D01*
X249784061Y-112575114D02*
X249784061Y-112717971D01*
X249784061Y-112717971D02*
X250498346Y-112860828D01*
X249284061Y-112360828D02*
X248926918Y-113360828D01*
X248926918Y-113360828D02*
X248569775Y-112360828D01*
X248069775Y-112003685D02*
X247998347Y-111932257D01*
X247998347Y-111932257D02*
X247855490Y-111860828D01*
X247855490Y-111860828D02*
X247498347Y-111860828D01*
X247498347Y-111860828D02*
X247355490Y-111932257D01*
X247355490Y-111932257D02*
X247284061Y-112003685D01*
X247284061Y-112003685D02*
X247212632Y-112146542D01*
X247212632Y-112146542D02*
X247212632Y-112289400D01*
X247212632Y-112289400D02*
X247284061Y-112503685D01*
X247284061Y-112503685D02*
X248141204Y-113360828D01*
X248141204Y-113360828D02*
X247212632Y-113360828D01*
X246569776Y-113217971D02*
X246498347Y-113289400D01*
X246498347Y-113289400D02*
X246569776Y-113360828D01*
X246569776Y-113360828D02*
X246641204Y-113289400D01*
X246641204Y-113289400D02*
X246569776Y-113217971D01*
X246569776Y-113217971D02*
X246569776Y-113360828D01*
X245569775Y-111860828D02*
X245426918Y-111860828D01*
X245426918Y-111860828D02*
X245284061Y-111932257D01*
X245284061Y-111932257D02*
X245212633Y-112003685D01*
X245212633Y-112003685D02*
X245141204Y-112146542D01*
X245141204Y-112146542D02*
X245069775Y-112432257D01*
X245069775Y-112432257D02*
X245069775Y-112789400D01*
X245069775Y-112789400D02*
X245141204Y-113075114D01*
X245141204Y-113075114D02*
X245212633Y-113217971D01*
X245212633Y-113217971D02*
X245284061Y-113289400D01*
X245284061Y-113289400D02*
X245426918Y-113360828D01*
X245426918Y-113360828D02*
X245569775Y-113360828D01*
X245569775Y-113360828D02*
X245712633Y-113289400D01*
X245712633Y-113289400D02*
X245784061Y-113217971D01*
X245784061Y-113217971D02*
X245855490Y-113075114D01*
X245855490Y-113075114D02*
X245926918Y-112789400D01*
X245926918Y-112789400D02*
X245926918Y-112432257D01*
X245926918Y-112432257D02*
X245855490Y-112146542D01*
X245855490Y-112146542D02*
X245784061Y-112003685D01*
X245784061Y-112003685D02*
X245712633Y-111932257D01*
X245712633Y-111932257D02*
X245569775Y-111860828D01*
D11*
X187050000Y-66180000D02*
X237970000Y-66180000D01*
X187050000Y-63580000D02*
X187050000Y-66180000D01*
X189650000Y-63580000D02*
X187050000Y-63580000D01*
X187050000Y-60980000D02*
X187050000Y-62310000D01*
X188380000Y-60980000D02*
X187050000Y-60980000D01*
X189650000Y-60980000D02*
X189650000Y-63580000D01*
X189650000Y-60980000D02*
X237970000Y-60980000D01*
X237970000Y-60980000D02*
X237970000Y-66180000D01*
%LPC*%
D12*
X184500000Y-76575000D03*
D13*
X184500000Y-79115000D03*
X184500000Y-81655000D03*
X184500000Y-84195000D03*
X184500000Y-86735000D03*
X184500000Y-89275000D03*
X184500000Y-91815000D03*
X184500000Y-94355000D03*
X184500000Y-96895000D03*
X184500000Y-99435000D03*
D12*
X201060000Y-112300000D03*
D13*
X203600000Y-112300000D03*
X206140000Y-112300000D03*
X208680000Y-112300000D03*
X211220000Y-112300000D03*
X213760000Y-112300000D03*
D14*
X183500000Y-63500000D03*
X183500000Y-112500000D03*
X241500000Y-112500000D03*
X241500000Y-63500000D03*
D12*
X249360000Y-89610000D03*
D13*
X246820000Y-89610000D03*
X249360000Y-87070000D03*
X246820000Y-87070000D03*
X249360000Y-84530000D03*
X246820000Y-84530000D03*
X249360000Y-81990000D03*
X246820000Y-81990000D03*
X236640000Y-64850000D03*
X236640000Y-62310000D03*
X234100000Y-64850000D03*
X234100000Y-62310000D03*
X231560000Y-64850000D03*
X231560000Y-62310000D03*
X229020000Y-64850000D03*
X229020000Y-62310000D03*
X226480000Y-64850000D03*
X226480000Y-62310000D03*
X223940000Y-64850000D03*
X223940000Y-62310000D03*
X221400000Y-64850000D03*
X221400000Y-62310000D03*
X218860000Y-64850000D03*
X218860000Y-62310000D03*
X216320000Y-64850000D03*
X216320000Y-62310000D03*
X213780000Y-64850000D03*
X213780000Y-62310000D03*
X211240000Y-64850000D03*
X211240000Y-62310000D03*
X208700000Y-64850000D03*
X208700000Y-62310000D03*
X206160000Y-64850000D03*
X206160000Y-62310000D03*
X203620000Y-64850000D03*
X203620000Y-62310000D03*
X201080000Y-64850000D03*
X201080000Y-62310000D03*
X198540000Y-64850000D03*
X198540000Y-62310000D03*
X196000000Y-64850000D03*
X196000000Y-62310000D03*
X193460000Y-64850000D03*
X193460000Y-62310000D03*
X190920000Y-64850000D03*
X190920000Y-62310000D03*
X188380000Y-64850000D03*
D12*
X188380000Y-62310000D03*
%LPD*%
M02*
