G04 #@! TF.GenerationSoftware,KiCad,Pcbnew,7.0.8*
G04 #@! TF.CreationDate,2023-10-30T18:50:45+02:00*
G04 #@! TF.ProjectId,CubeSAT,43756265-5341-4542-9e6b-696361645f70,rev?*
G04 #@! TF.SameCoordinates,Original*
G04 #@! TF.FileFunction,Copper,L2,Bot*
G04 #@! TF.FilePolarity,Positive*
%FSLAX46Y46*%
G04 Gerber Fmt 4.6, Leading zero omitted, Abs format (unit mm)*
G04 Created by KiCad (PCBNEW 7.0.8) date 2023-10-30 18:50:45*
%MOMM*%
%LPD*%
G01*
G04 APERTURE LIST*
G04 #@! TA.AperFunction,ComponentPad*
%ADD10R,1.700000X1.700000*%
G04 #@! TD*
G04 #@! TA.AperFunction,ComponentPad*
%ADD11O,1.700000X1.700000*%
G04 #@! TD*
G04 #@! TA.AperFunction,ViaPad*
%ADD12C,0.800000*%
G04 #@! TD*
G04 #@! TA.AperFunction,Conductor*
%ADD13C,0.500000*%
G04 #@! TD*
G04 APERTURE END LIST*
D10*
X184500000Y-76575000D03*
D11*
X184500000Y-79115000D03*
X184500000Y-81655000D03*
X184500000Y-84195000D03*
X184500000Y-86735000D03*
X184500000Y-89275000D03*
X184500000Y-91815000D03*
X184500000Y-94355000D03*
X184500000Y-96895000D03*
X184500000Y-99435000D03*
D10*
X201060000Y-112300000D03*
D11*
X203600000Y-112300000D03*
X206140000Y-112300000D03*
X208680000Y-112300000D03*
X211220000Y-112300000D03*
X213760000Y-112300000D03*
D10*
X249360000Y-89610000D03*
D11*
X246820000Y-89610000D03*
X249360000Y-87070000D03*
X246820000Y-87070000D03*
X249360000Y-84530000D03*
X246820000Y-84530000D03*
X249360000Y-81990000D03*
X246820000Y-81990000D03*
X236640000Y-64850000D03*
X236640000Y-62310000D03*
X234100000Y-64850000D03*
X234100000Y-62310000D03*
X231560000Y-64850000D03*
X231560000Y-62310000D03*
X229020000Y-64850000D03*
X229020000Y-62310000D03*
X226480000Y-64850000D03*
X226480000Y-62310000D03*
X223940000Y-64850000D03*
X223940000Y-62310000D03*
X221400000Y-64850000D03*
X221400000Y-62310000D03*
X218860000Y-64850000D03*
X218860000Y-62310000D03*
X216320000Y-64850000D03*
X216320000Y-62310000D03*
X213780000Y-64850000D03*
X213780000Y-62310000D03*
X211240000Y-64850000D03*
X211240000Y-62310000D03*
X208700000Y-64850000D03*
X208700000Y-62310000D03*
X206160000Y-64850000D03*
X206160000Y-62310000D03*
X203620000Y-64850000D03*
X203620000Y-62310000D03*
X201080000Y-64850000D03*
X201080000Y-62310000D03*
X198540000Y-64850000D03*
X198540000Y-62310000D03*
X196000000Y-64850000D03*
X196000000Y-62310000D03*
X193460000Y-64850000D03*
X193460000Y-62310000D03*
X190920000Y-64850000D03*
X190920000Y-62310000D03*
X188380000Y-64850000D03*
D10*
X188380000Y-62310000D03*
D12*
X190740000Y-69970000D03*
X186375000Y-87340000D03*
D13*
X190740000Y-69970000D02*
X190740000Y-67570000D01*
X190740000Y-67570000D02*
X193460000Y-64850000D01*
X201060000Y-91990000D02*
X201060000Y-112300000D01*
X202090000Y-90960000D02*
X201060000Y-91990000D01*
X202090000Y-89600000D02*
X202090000Y-90960000D01*
X186375000Y-83530000D02*
X184500000Y-81655000D01*
X186375000Y-87340000D02*
X186375000Y-83530000D01*
X246810000Y-89600000D02*
X246820000Y-89610000D01*
X202090000Y-89600000D02*
X246810000Y-89600000D01*
X190330000Y-77840000D02*
X202090000Y-89600000D01*
X188720000Y-77840000D02*
X190330000Y-77840000D01*
X184500000Y-77840000D02*
X188720000Y-77840000D01*
X188380000Y-64850000D02*
X188380000Y-77840000D01*
X188380000Y-77840000D02*
X188720000Y-77840000D01*
G04 #@! TA.AperFunction,Conductor*
G36*
X264232131Y-60492381D02*
G01*
X264280099Y-60501922D01*
X264324791Y-60520433D01*
X264355104Y-60540688D01*
X264389311Y-60574895D01*
X264409564Y-60605205D01*
X264428078Y-60649904D01*
X264437617Y-60697860D01*
X264440000Y-60722051D01*
X264440000Y-115292088D01*
X264437617Y-115316280D01*
X264430676Y-115351173D01*
X264412160Y-115395874D01*
X264399311Y-115415103D01*
X264365103Y-115449311D01*
X264345874Y-115462160D01*
X264301173Y-115480676D01*
X264266279Y-115487617D01*
X264242089Y-115490000D01*
X181467634Y-115490000D01*
X181448580Y-115488527D01*
X181442455Y-115487574D01*
X181358141Y-115474462D01*
X181321836Y-115462891D01*
X181241500Y-115422805D01*
X181222305Y-115410931D01*
X181154733Y-115360078D01*
X181093703Y-115310656D01*
X181036429Y-115262293D01*
X181004106Y-115233406D01*
X180883290Y-115119186D01*
X180880830Y-115116727D01*
X180766594Y-114995895D01*
X180717560Y-114941027D01*
X180715642Y-114938773D01*
X180667632Y-114879485D01*
X180640742Y-114815000D01*
X180640000Y-114801453D01*
X180640000Y-112500000D01*
X181894551Y-112500000D01*
X181914317Y-112751151D01*
X181973126Y-112996110D01*
X182069533Y-113228859D01*
X182201160Y-113443653D01*
X182201161Y-113443656D01*
X182256604Y-113508571D01*
X182364776Y-113635224D01*
X182513066Y-113761875D01*
X182556343Y-113798838D01*
X182556346Y-113798839D01*
X182771140Y-113930466D01*
X183003889Y-114026873D01*
X183248852Y-114085683D01*
X183404950Y-114097968D01*
X183437116Y-114100500D01*
X183437118Y-114100500D01*
X183562884Y-114100500D01*
X183592518Y-114098167D01*
X183751148Y-114085683D01*
X183996111Y-114026873D01*
X184228859Y-113930466D01*
X184443659Y-113798836D01*
X184635224Y-113635224D01*
X184798836Y-113443659D01*
X184930466Y-113228859D01*
X185026873Y-112996111D01*
X185085683Y-112751148D01*
X185105449Y-112500000D01*
X185085683Y-112248852D01*
X185026873Y-112003889D01*
X184976718Y-111882803D01*
X184930466Y-111771140D01*
X184798839Y-111556346D01*
X184798838Y-111556343D01*
X184761875Y-111513066D01*
X184635224Y-111364776D01*
X184477205Y-111229815D01*
X184443656Y-111201161D01*
X184443653Y-111201160D01*
X184228859Y-111069533D01*
X183996110Y-110973126D01*
X183751150Y-110914317D01*
X183562884Y-110899500D01*
X183562882Y-110899500D01*
X183437118Y-110899500D01*
X183437116Y-110899500D01*
X183248849Y-110914317D01*
X183003889Y-110973126D01*
X182771140Y-111069533D01*
X182556346Y-111201160D01*
X182556343Y-111201161D01*
X182364776Y-111364776D01*
X182201161Y-111556343D01*
X182201160Y-111556346D01*
X182069533Y-111771140D01*
X181973126Y-112003889D01*
X181914317Y-112248848D01*
X181894551Y-112500000D01*
X180640000Y-112500000D01*
X180640000Y-99435000D01*
X183444417Y-99435000D01*
X183464699Y-99640932D01*
X183464700Y-99640934D01*
X183524768Y-99838954D01*
X183622315Y-100021450D01*
X183622317Y-100021452D01*
X183753589Y-100181410D01*
X183850209Y-100260702D01*
X183913550Y-100312685D01*
X184096046Y-100410232D01*
X184294066Y-100470300D01*
X184294065Y-100470300D01*
X184312529Y-100472118D01*
X184500000Y-100490583D01*
X184705934Y-100470300D01*
X184903954Y-100410232D01*
X185086450Y-100312685D01*
X185246410Y-100181410D01*
X185377685Y-100021450D01*
X185475232Y-99838954D01*
X185535300Y-99640934D01*
X185555583Y-99435000D01*
X185535300Y-99229066D01*
X185475232Y-99031046D01*
X185377685Y-98848550D01*
X185325702Y-98785209D01*
X185246410Y-98688589D01*
X185086452Y-98557317D01*
X185086453Y-98557317D01*
X185086450Y-98557315D01*
X184903954Y-98459768D01*
X184705934Y-98399700D01*
X184705932Y-98399699D01*
X184705934Y-98399699D01*
X184500000Y-98379417D01*
X184294067Y-98399699D01*
X184096043Y-98459769D01*
X183985898Y-98518643D01*
X183913550Y-98557315D01*
X183913548Y-98557316D01*
X183913547Y-98557317D01*
X183753589Y-98688589D01*
X183622317Y-98848547D01*
X183524769Y-99031043D01*
X183464699Y-99229067D01*
X183444417Y-99435000D01*
X180640000Y-99435000D01*
X180640000Y-96895000D01*
X183444417Y-96895000D01*
X183464699Y-97100932D01*
X183464700Y-97100934D01*
X183524768Y-97298954D01*
X183622315Y-97481450D01*
X183622317Y-97481452D01*
X183753589Y-97641410D01*
X183850209Y-97720702D01*
X183913550Y-97772685D01*
X184096046Y-97870232D01*
X184294066Y-97930300D01*
X184294065Y-97930300D01*
X184312529Y-97932118D01*
X184500000Y-97950583D01*
X184705934Y-97930300D01*
X184903954Y-97870232D01*
X185086450Y-97772685D01*
X185246410Y-97641410D01*
X185377685Y-97481450D01*
X185475232Y-97298954D01*
X185535300Y-97100934D01*
X185555583Y-96895000D01*
X185535300Y-96689066D01*
X185475232Y-96491046D01*
X185377685Y-96308550D01*
X185325702Y-96245209D01*
X185246410Y-96148589D01*
X185086452Y-96017317D01*
X185086453Y-96017317D01*
X185086450Y-96017315D01*
X184903954Y-95919768D01*
X184705934Y-95859700D01*
X184705932Y-95859699D01*
X184705934Y-95859699D01*
X184500000Y-95839417D01*
X184294067Y-95859699D01*
X184096043Y-95919769D01*
X183985898Y-95978643D01*
X183913550Y-96017315D01*
X183913548Y-96017316D01*
X183913547Y-96017317D01*
X183753589Y-96148589D01*
X183622317Y-96308547D01*
X183524769Y-96491043D01*
X183464699Y-96689067D01*
X183444417Y-96895000D01*
X180640000Y-96895000D01*
X180640000Y-94355000D01*
X183444417Y-94355000D01*
X183464699Y-94560932D01*
X183464700Y-94560934D01*
X183524768Y-94758954D01*
X183622315Y-94941450D01*
X183622317Y-94941452D01*
X183753589Y-95101410D01*
X183850209Y-95180702D01*
X183913550Y-95232685D01*
X184096046Y-95330232D01*
X184294066Y-95390300D01*
X184294065Y-95390300D01*
X184312529Y-95392118D01*
X184500000Y-95410583D01*
X184705934Y-95390300D01*
X184903954Y-95330232D01*
X185086450Y-95232685D01*
X185246410Y-95101410D01*
X185377685Y-94941450D01*
X185475232Y-94758954D01*
X185535300Y-94560934D01*
X185555583Y-94355000D01*
X185535300Y-94149066D01*
X185475232Y-93951046D01*
X185377685Y-93768550D01*
X185325702Y-93705209D01*
X185246410Y-93608589D01*
X185086452Y-93477317D01*
X185086453Y-93477317D01*
X185086450Y-93477315D01*
X184903954Y-93379768D01*
X184705934Y-93319700D01*
X184705932Y-93319699D01*
X184705934Y-93319699D01*
X184500000Y-93299417D01*
X184294067Y-93319699D01*
X184096043Y-93379769D01*
X183985898Y-93438643D01*
X183913550Y-93477315D01*
X183913548Y-93477316D01*
X183913547Y-93477317D01*
X183753589Y-93608589D01*
X183622317Y-93768547D01*
X183524769Y-93951043D01*
X183464699Y-94149067D01*
X183444417Y-94355000D01*
X180640000Y-94355000D01*
X180640000Y-91815000D01*
X183444417Y-91815000D01*
X183464699Y-92020932D01*
X183473619Y-92050336D01*
X183524768Y-92218954D01*
X183622315Y-92401450D01*
X183622317Y-92401452D01*
X183753589Y-92561410D01*
X183850209Y-92640702D01*
X183913550Y-92692685D01*
X184096046Y-92790232D01*
X184294066Y-92850300D01*
X184294065Y-92850300D01*
X184312529Y-92852118D01*
X184500000Y-92870583D01*
X184705934Y-92850300D01*
X184903954Y-92790232D01*
X185086450Y-92692685D01*
X185246410Y-92561410D01*
X185377685Y-92401450D01*
X185475232Y-92218954D01*
X185535300Y-92020934D01*
X185555583Y-91815000D01*
X185535300Y-91609066D01*
X185475232Y-91411046D01*
X185377685Y-91228550D01*
X185319518Y-91157673D01*
X185246410Y-91068589D01*
X185086452Y-90937317D01*
X185086453Y-90937317D01*
X185086450Y-90937315D01*
X184903954Y-90839768D01*
X184705934Y-90779700D01*
X184705932Y-90779699D01*
X184705934Y-90779699D01*
X184500000Y-90759417D01*
X184294067Y-90779699D01*
X184096043Y-90839769D01*
X183985898Y-90898643D01*
X183913550Y-90937315D01*
X183913548Y-90937316D01*
X183913547Y-90937317D01*
X183753589Y-91068589D01*
X183622317Y-91228547D01*
X183524769Y-91411043D01*
X183464699Y-91609067D01*
X183444417Y-91815000D01*
X180640000Y-91815000D01*
X180640000Y-89275000D01*
X183444417Y-89275000D01*
X183464699Y-89480932D01*
X183464700Y-89480934D01*
X183524768Y-89678954D01*
X183622315Y-89861450D01*
X183622317Y-89861452D01*
X183753589Y-90021410D01*
X183842870Y-90094680D01*
X183913550Y-90152685D01*
X184096046Y-90250232D01*
X184294066Y-90310300D01*
X184294065Y-90310300D01*
X184312529Y-90312118D01*
X184500000Y-90330583D01*
X184705934Y-90310300D01*
X184903954Y-90250232D01*
X185086450Y-90152685D01*
X185246410Y-90021410D01*
X185377685Y-89861450D01*
X185475232Y-89678954D01*
X185535300Y-89480934D01*
X185555583Y-89275000D01*
X185535300Y-89069066D01*
X185475232Y-88871046D01*
X185377685Y-88688550D01*
X185325702Y-88625209D01*
X185246410Y-88528589D01*
X185086452Y-88397317D01*
X185086453Y-88397317D01*
X185086450Y-88397315D01*
X184903954Y-88299768D01*
X184705934Y-88239700D01*
X184705932Y-88239699D01*
X184705934Y-88239699D01*
X184500000Y-88219417D01*
X184294067Y-88239699D01*
X184096043Y-88299769D01*
X183985898Y-88358643D01*
X183913550Y-88397315D01*
X183913548Y-88397316D01*
X183913547Y-88397317D01*
X183753589Y-88528589D01*
X183622317Y-88688547D01*
X183622315Y-88688550D01*
X183608063Y-88715214D01*
X183524769Y-88871043D01*
X183464699Y-89069067D01*
X183444417Y-89275000D01*
X180640000Y-89275000D01*
X180640000Y-86735000D01*
X183444417Y-86735000D01*
X183464699Y-86940932D01*
X183464700Y-86940934D01*
X183524768Y-87138954D01*
X183622315Y-87321450D01*
X183656969Y-87363677D01*
X183753589Y-87481410D01*
X183850209Y-87560702D01*
X183913550Y-87612685D01*
X184096046Y-87710232D01*
X184294066Y-87770300D01*
X184294065Y-87770300D01*
X184312529Y-87772118D01*
X184500000Y-87790583D01*
X184705934Y-87770300D01*
X184903954Y-87710232D01*
X185086450Y-87612685D01*
X185246410Y-87481410D01*
X185377685Y-87321450D01*
X185475232Y-87138954D01*
X185535300Y-86940934D01*
X185555583Y-86735000D01*
X185535300Y-86529066D01*
X185475232Y-86331046D01*
X185377685Y-86148550D01*
X185325702Y-86085209D01*
X185246410Y-85988589D01*
X185086452Y-85857317D01*
X185086453Y-85857317D01*
X185086450Y-85857315D01*
X184903954Y-85759768D01*
X184705934Y-85699700D01*
X184705932Y-85699699D01*
X184705934Y-85699699D01*
X184500000Y-85679417D01*
X184294067Y-85699699D01*
X184096043Y-85759769D01*
X183985898Y-85818643D01*
X183913550Y-85857315D01*
X183913548Y-85857316D01*
X183913547Y-85857317D01*
X183753589Y-85988589D01*
X183622317Y-86148547D01*
X183524769Y-86331043D01*
X183464699Y-86529067D01*
X183444417Y-86735000D01*
X180640000Y-86735000D01*
X180640000Y-84195000D01*
X183444417Y-84195000D01*
X183464699Y-84400932D01*
X183464700Y-84400934D01*
X183524768Y-84598954D01*
X183622315Y-84781450D01*
X183622317Y-84781452D01*
X183753589Y-84941410D01*
X183850209Y-85020702D01*
X183913550Y-85072685D01*
X184096046Y-85170232D01*
X184294066Y-85230300D01*
X184294065Y-85230300D01*
X184312529Y-85232118D01*
X184500000Y-85250583D01*
X184705934Y-85230300D01*
X184903954Y-85170232D01*
X185086450Y-85072685D01*
X185246410Y-84941410D01*
X185377685Y-84781450D01*
X185475232Y-84598954D01*
X185535300Y-84400934D01*
X185555583Y-84195000D01*
X185535300Y-83989066D01*
X185475232Y-83791046D01*
X185377685Y-83608550D01*
X185299241Y-83512965D01*
X185246410Y-83448589D01*
X185128677Y-83351969D01*
X185086450Y-83317315D01*
X184903954Y-83219768D01*
X184705934Y-83159700D01*
X184705932Y-83159699D01*
X184705934Y-83159699D01*
X184500000Y-83139417D01*
X184294067Y-83159699D01*
X184118692Y-83212898D01*
X184103810Y-83217413D01*
X184096043Y-83219769D01*
X184021788Y-83259460D01*
X183913550Y-83317315D01*
X183913548Y-83317316D01*
X183913547Y-83317317D01*
X183753589Y-83448589D01*
X183622317Y-83608547D01*
X183524769Y-83791043D01*
X183464699Y-83989067D01*
X183444417Y-84195000D01*
X180640000Y-84195000D01*
X180640000Y-81655000D01*
X183444417Y-81655000D01*
X183464699Y-81860932D01*
X183464700Y-81860934D01*
X183524768Y-82058954D01*
X183622315Y-82241450D01*
X183622317Y-82241452D01*
X183753589Y-82401410D01*
X183850209Y-82480702D01*
X183913550Y-82532685D01*
X184096046Y-82630232D01*
X184294066Y-82690300D01*
X184294065Y-82690300D01*
X184312529Y-82692118D01*
X184500000Y-82710583D01*
X184705934Y-82690300D01*
X184782325Y-82667127D01*
X184852192Y-82666503D01*
X184906002Y-82698106D01*
X185888181Y-83680285D01*
X185921666Y-83741608D01*
X185924500Y-83767966D01*
X185924500Y-86898580D01*
X185904815Y-86965619D01*
X185898876Y-86974066D01*
X185850464Y-87037157D01*
X185789956Y-87183237D01*
X185789955Y-87183239D01*
X185769318Y-87339998D01*
X185769318Y-87340001D01*
X185789955Y-87496760D01*
X185789956Y-87496762D01*
X185850464Y-87642841D01*
X185946718Y-87768282D01*
X186072159Y-87864536D01*
X186218238Y-87925044D01*
X186296619Y-87935363D01*
X186374999Y-87945682D01*
X186375000Y-87945682D01*
X186375001Y-87945682D01*
X186427254Y-87938802D01*
X186531762Y-87925044D01*
X186677841Y-87864536D01*
X186803282Y-87768282D01*
X186899536Y-87642841D01*
X186960044Y-87496762D01*
X186980682Y-87340000D01*
X186960044Y-87183238D01*
X186899536Y-87037159D01*
X186899535Y-87037158D01*
X186899535Y-87037157D01*
X186851124Y-86974066D01*
X186825930Y-86908896D01*
X186825500Y-86898580D01*
X186825500Y-83558782D01*
X186825889Y-83551843D01*
X186830270Y-83512965D01*
X186819211Y-83454520D01*
X186810348Y-83395713D01*
X186810347Y-83395711D01*
X186807836Y-83387571D01*
X186805024Y-83379533D01*
X186805023Y-83379528D01*
X186777226Y-83326936D01*
X186751425Y-83273358D01*
X186751422Y-83273355D01*
X186751421Y-83273352D01*
X186746642Y-83266342D01*
X186741568Y-83259469D01*
X186741565Y-83259462D01*
X186699516Y-83217413D01*
X186659055Y-83173806D01*
X186651792Y-83168014D01*
X186652312Y-83167361D01*
X186640067Y-83157964D01*
X185543106Y-82061003D01*
X185509621Y-81999680D01*
X185512125Y-81937329D01*
X185535300Y-81860934D01*
X185555583Y-81655000D01*
X185535300Y-81449066D01*
X185475232Y-81251046D01*
X185377685Y-81068550D01*
X185325702Y-81005209D01*
X185246410Y-80908589D01*
X185086452Y-80777317D01*
X185086453Y-80777317D01*
X185086450Y-80777315D01*
X184903954Y-80679768D01*
X184705934Y-80619700D01*
X184705932Y-80619699D01*
X184705934Y-80619699D01*
X184500000Y-80599417D01*
X184294067Y-80619699D01*
X184096043Y-80679769D01*
X183985898Y-80738643D01*
X183913550Y-80777315D01*
X183913548Y-80777316D01*
X183913547Y-80777317D01*
X183753589Y-80908589D01*
X183622317Y-81068547D01*
X183524769Y-81251043D01*
X183464699Y-81449067D01*
X183444417Y-81655000D01*
X180640000Y-81655000D01*
X180640000Y-78964999D01*
X183358972Y-78964999D01*
X183358973Y-78965000D01*
X184022935Y-78965000D01*
X184000000Y-79043111D01*
X184000000Y-79186889D01*
X184022935Y-79265000D01*
X183358973Y-79265000D01*
X183364738Y-79327218D01*
X183423058Y-79532196D01*
X183423066Y-79532216D01*
X183518059Y-79722989D01*
X183646500Y-79893071D01*
X183804000Y-80036651D01*
X183804002Y-80036653D01*
X183985201Y-80148846D01*
X183985207Y-80148849D01*
X184183936Y-80225836D01*
X184350000Y-80256879D01*
X184350000Y-79596170D01*
X184357685Y-79599680D01*
X184464237Y-79615000D01*
X184535763Y-79615000D01*
X184642315Y-79599680D01*
X184650000Y-79596170D01*
X184650000Y-80256879D01*
X184816063Y-80225836D01*
X185014792Y-80148849D01*
X185014798Y-80148846D01*
X185195997Y-80036653D01*
X185195999Y-80036651D01*
X185353499Y-79893071D01*
X185481940Y-79722989D01*
X185576933Y-79532216D01*
X185576941Y-79532196D01*
X185635261Y-79327218D01*
X185641027Y-79265000D01*
X184977065Y-79265000D01*
X185000000Y-79186889D01*
X185000000Y-79043111D01*
X184977065Y-78965000D01*
X185641027Y-78965000D01*
X185641027Y-78964999D01*
X185635261Y-78902781D01*
X185576941Y-78697803D01*
X185576933Y-78697783D01*
X185481940Y-78507010D01*
X185468510Y-78489226D01*
X185443819Y-78423865D01*
X185458385Y-78355530D01*
X185507582Y-78305918D01*
X185567465Y-78290500D01*
X188312098Y-78290500D01*
X188315268Y-78290500D01*
X188342859Y-78293608D01*
X188345954Y-78294315D01*
X188394561Y-78290672D01*
X188399178Y-78290500D01*
X188652098Y-78290500D01*
X190092034Y-78290500D01*
X190159073Y-78310185D01*
X190179715Y-78326819D01*
X201603181Y-89750285D01*
X201636666Y-89811608D01*
X201639500Y-89837966D01*
X201639500Y-90722034D01*
X201619815Y-90789073D01*
X201603181Y-90809715D01*
X200761804Y-91651092D01*
X200756617Y-91655727D01*
X200726033Y-91680117D01*
X200726029Y-91680121D01*
X200692519Y-91729271D01*
X200657206Y-91777118D01*
X200653216Y-91784667D01*
X200649528Y-91792326D01*
X200631992Y-91849177D01*
X200612353Y-91905301D01*
X200610771Y-91913659D01*
X200609500Y-91922100D01*
X200609500Y-91981573D01*
X200607275Y-92041009D01*
X200608316Y-92050243D01*
X200607485Y-92050336D01*
X200609500Y-92065635D01*
X200609500Y-111125500D01*
X200589815Y-111192539D01*
X200537011Y-111238294D01*
X200485500Y-111249500D01*
X200190247Y-111249500D01*
X200131770Y-111261131D01*
X200131769Y-111261132D01*
X200065447Y-111305447D01*
X200021132Y-111371769D01*
X200021131Y-111371770D01*
X200009500Y-111430247D01*
X200009500Y-113169752D01*
X200021131Y-113228229D01*
X200021132Y-113228230D01*
X200065447Y-113294552D01*
X200131769Y-113338867D01*
X200131770Y-113338868D01*
X200190247Y-113350499D01*
X200190250Y-113350500D01*
X200190252Y-113350500D01*
X201929750Y-113350500D01*
X201929751Y-113350499D01*
X201944568Y-113347552D01*
X201988229Y-113338868D01*
X201988229Y-113338867D01*
X201988231Y-113338867D01*
X202054552Y-113294552D01*
X202098867Y-113228231D01*
X202098867Y-113228229D01*
X202098868Y-113228229D01*
X202110499Y-113169752D01*
X202110500Y-113169750D01*
X202110500Y-112149999D01*
X202458972Y-112149999D01*
X202458973Y-112150000D01*
X203122935Y-112150000D01*
X203100000Y-112228111D01*
X203100000Y-112371889D01*
X203122935Y-112450000D01*
X202458973Y-112450000D01*
X202464738Y-112512218D01*
X202523058Y-112717196D01*
X202523066Y-112717216D01*
X202618059Y-112907989D01*
X202746500Y-113078071D01*
X202904000Y-113221651D01*
X202904002Y-113221653D01*
X203085201Y-113333846D01*
X203085207Y-113333849D01*
X203283936Y-113410836D01*
X203450000Y-113441879D01*
X203450000Y-112781170D01*
X203457685Y-112784680D01*
X203564237Y-112800000D01*
X203635763Y-112800000D01*
X203742315Y-112784680D01*
X203750000Y-112781170D01*
X203750000Y-113441879D01*
X203916063Y-113410836D01*
X204114792Y-113333849D01*
X204114798Y-113333846D01*
X204295997Y-113221653D01*
X204295999Y-113221651D01*
X204453499Y-113078071D01*
X204581940Y-112907989D01*
X204676933Y-112717216D01*
X204676941Y-112717196D01*
X204735261Y-112512218D01*
X204741027Y-112450000D01*
X204077065Y-112450000D01*
X204100000Y-112371889D01*
X204100000Y-112300000D01*
X205084417Y-112300000D01*
X205104699Y-112505932D01*
X205104700Y-112505934D01*
X205164768Y-112703954D01*
X205262315Y-112886450D01*
X205296969Y-112928677D01*
X205393589Y-113046410D01*
X205432169Y-113078071D01*
X205553550Y-113177685D01*
X205736046Y-113275232D01*
X205934066Y-113335300D01*
X205934065Y-113335300D01*
X205952529Y-113337118D01*
X206140000Y-113355583D01*
X206345934Y-113335300D01*
X206543954Y-113275232D01*
X206726450Y-113177685D01*
X206886410Y-113046410D01*
X207017685Y-112886450D01*
X207115232Y-112703954D01*
X207175300Y-112505934D01*
X207195583Y-112300000D01*
X207624417Y-112300000D01*
X207644699Y-112505932D01*
X207644700Y-112505934D01*
X207704768Y-112703954D01*
X207802315Y-112886450D01*
X207836969Y-112928677D01*
X207933589Y-113046410D01*
X207972169Y-113078071D01*
X208093550Y-113177685D01*
X208276046Y-113275232D01*
X208474066Y-113335300D01*
X208474065Y-113335300D01*
X208492529Y-113337118D01*
X208680000Y-113355583D01*
X208885934Y-113335300D01*
X209083954Y-113275232D01*
X209266450Y-113177685D01*
X209426410Y-113046410D01*
X209557685Y-112886450D01*
X209655232Y-112703954D01*
X209715300Y-112505934D01*
X209735583Y-112300000D01*
X210164417Y-112300000D01*
X210184699Y-112505932D01*
X210184700Y-112505934D01*
X210244768Y-112703954D01*
X210342315Y-112886450D01*
X210376969Y-112928677D01*
X210473589Y-113046410D01*
X210512169Y-113078071D01*
X210633550Y-113177685D01*
X210816046Y-113275232D01*
X211014066Y-113335300D01*
X211014065Y-113335300D01*
X211032529Y-113337118D01*
X211220000Y-113355583D01*
X211425934Y-113335300D01*
X211623954Y-113275232D01*
X211806450Y-113177685D01*
X211966410Y-113046410D01*
X212097685Y-112886450D01*
X212195232Y-112703954D01*
X212255300Y-112505934D01*
X212275583Y-112300000D01*
X212704417Y-112300000D01*
X212724699Y-112505932D01*
X212724700Y-112505934D01*
X212784768Y-112703954D01*
X212882315Y-112886450D01*
X212916969Y-112928677D01*
X213013589Y-113046410D01*
X213052169Y-113078071D01*
X213173550Y-113177685D01*
X213356046Y-113275232D01*
X213554066Y-113335300D01*
X213554065Y-113335300D01*
X213572529Y-113337118D01*
X213760000Y-113355583D01*
X213965934Y-113335300D01*
X214163954Y-113275232D01*
X214346450Y-113177685D01*
X214506410Y-113046410D01*
X214637685Y-112886450D01*
X214735232Y-112703954D01*
X214795300Y-112505934D01*
X214795884Y-112500000D01*
X239894551Y-112500000D01*
X239914317Y-112751151D01*
X239973126Y-112996110D01*
X240069533Y-113228859D01*
X240201160Y-113443653D01*
X240201161Y-113443656D01*
X240256604Y-113508571D01*
X240364776Y-113635224D01*
X240513066Y-113761875D01*
X240556343Y-113798838D01*
X240556346Y-113798839D01*
X240771140Y-113930466D01*
X241003889Y-114026873D01*
X241248852Y-114085683D01*
X241404950Y-114097968D01*
X241437116Y-114100500D01*
X241437118Y-114100500D01*
X241562884Y-114100500D01*
X241592518Y-114098167D01*
X241751148Y-114085683D01*
X241996111Y-114026873D01*
X242228859Y-113930466D01*
X242443659Y-113798836D01*
X242635224Y-113635224D01*
X242798836Y-113443659D01*
X242930466Y-113228859D01*
X243026873Y-112996111D01*
X243085683Y-112751148D01*
X243105449Y-112500000D01*
X243085683Y-112248852D01*
X243026873Y-112003889D01*
X242976718Y-111882803D01*
X242930466Y-111771140D01*
X242798839Y-111556346D01*
X242798838Y-111556343D01*
X242761875Y-111513066D01*
X242635224Y-111364776D01*
X242477205Y-111229815D01*
X242443656Y-111201161D01*
X242443653Y-111201160D01*
X242228859Y-111069533D01*
X241996110Y-110973126D01*
X241751150Y-110914317D01*
X241562884Y-110899500D01*
X241562882Y-110899500D01*
X241437118Y-110899500D01*
X241437116Y-110899500D01*
X241248849Y-110914317D01*
X241003889Y-110973126D01*
X240771140Y-111069533D01*
X240556346Y-111201160D01*
X240556343Y-111201161D01*
X240364776Y-111364776D01*
X240201161Y-111556343D01*
X240201160Y-111556346D01*
X240069533Y-111771140D01*
X239973126Y-112003889D01*
X239914317Y-112248848D01*
X239894551Y-112500000D01*
X214795884Y-112500000D01*
X214815583Y-112300000D01*
X214795300Y-112094066D01*
X214735232Y-111896046D01*
X214637685Y-111713550D01*
X214585702Y-111650209D01*
X214506410Y-111553589D01*
X214356121Y-111430252D01*
X214346450Y-111422315D01*
X214163954Y-111324768D01*
X213965934Y-111264700D01*
X213965932Y-111264699D01*
X213965934Y-111264699D01*
X213760000Y-111244417D01*
X213554067Y-111264699D01*
X213356043Y-111324769D01*
X213281197Y-111364776D01*
X213173550Y-111422315D01*
X213173548Y-111422316D01*
X213173547Y-111422317D01*
X213013589Y-111553589D01*
X212882317Y-111713547D01*
X212784769Y-111896043D01*
X212724699Y-112094067D01*
X212704417Y-112300000D01*
X212275583Y-112300000D01*
X212255300Y-112094066D01*
X212195232Y-111896046D01*
X212097685Y-111713550D01*
X212045702Y-111650209D01*
X211966410Y-111553589D01*
X211816121Y-111430252D01*
X211806450Y-111422315D01*
X211623954Y-111324768D01*
X211425934Y-111264700D01*
X211425932Y-111264699D01*
X211425934Y-111264699D01*
X211220000Y-111244417D01*
X211014067Y-111264699D01*
X210816043Y-111324769D01*
X210741197Y-111364776D01*
X210633550Y-111422315D01*
X210633548Y-111422316D01*
X210633547Y-111422317D01*
X210473589Y-111553589D01*
X210342317Y-111713547D01*
X210244769Y-111896043D01*
X210184699Y-112094067D01*
X210164417Y-112300000D01*
X209735583Y-112300000D01*
X209715300Y-112094066D01*
X209655232Y-111896046D01*
X209557685Y-111713550D01*
X209505702Y-111650209D01*
X209426410Y-111553589D01*
X209276121Y-111430252D01*
X209266450Y-111422315D01*
X209083954Y-111324768D01*
X208885934Y-111264700D01*
X208885932Y-111264699D01*
X208885934Y-111264699D01*
X208680000Y-111244417D01*
X208474067Y-111264699D01*
X208276043Y-111324769D01*
X208201197Y-111364776D01*
X208093550Y-111422315D01*
X208093548Y-111422316D01*
X208093547Y-111422317D01*
X207933589Y-111553589D01*
X207802317Y-111713547D01*
X207704769Y-111896043D01*
X207644699Y-112094067D01*
X207624417Y-112300000D01*
X207195583Y-112300000D01*
X207175300Y-112094066D01*
X207115232Y-111896046D01*
X207017685Y-111713550D01*
X206965702Y-111650209D01*
X206886410Y-111553589D01*
X206736121Y-111430252D01*
X206726450Y-111422315D01*
X206543954Y-111324768D01*
X206345934Y-111264700D01*
X206345932Y-111264699D01*
X206345934Y-111264699D01*
X206140000Y-111244417D01*
X205934067Y-111264699D01*
X205736043Y-111324769D01*
X205661197Y-111364776D01*
X205553550Y-111422315D01*
X205553548Y-111422316D01*
X205553547Y-111422317D01*
X205393589Y-111553589D01*
X205262317Y-111713547D01*
X205164769Y-111896043D01*
X205104699Y-112094067D01*
X205084417Y-112300000D01*
X204100000Y-112300000D01*
X204100000Y-112228111D01*
X204077065Y-112150000D01*
X204741027Y-112150000D01*
X204741027Y-112149999D01*
X204735261Y-112087781D01*
X204676941Y-111882803D01*
X204676933Y-111882783D01*
X204581940Y-111692010D01*
X204453499Y-111521928D01*
X204295999Y-111378348D01*
X204295997Y-111378346D01*
X204114798Y-111266153D01*
X204114789Y-111266149D01*
X203916060Y-111189162D01*
X203916061Y-111189162D01*
X203750000Y-111158119D01*
X203750000Y-111818829D01*
X203742315Y-111815320D01*
X203635763Y-111800000D01*
X203564237Y-111800000D01*
X203457685Y-111815320D01*
X203450000Y-111818829D01*
X203450000Y-111158119D01*
X203283939Y-111189162D01*
X203085210Y-111266149D01*
X203085201Y-111266153D01*
X202904002Y-111378346D01*
X202904000Y-111378348D01*
X202746500Y-111521928D01*
X202618059Y-111692010D01*
X202523066Y-111882783D01*
X202523058Y-111882803D01*
X202464738Y-112087781D01*
X202458972Y-112149999D01*
X202110500Y-112149999D01*
X202110500Y-111430249D01*
X202110499Y-111430247D01*
X202098868Y-111371770D01*
X202098867Y-111371769D01*
X202054552Y-111305447D01*
X201988230Y-111261132D01*
X201988229Y-111261131D01*
X201929752Y-111249500D01*
X201929748Y-111249500D01*
X201634500Y-111249500D01*
X201567461Y-111229815D01*
X201521706Y-111177011D01*
X201510500Y-111125500D01*
X201510500Y-92227964D01*
X201530185Y-92160925D01*
X201546815Y-92140287D01*
X202388205Y-91298896D01*
X202393373Y-91294277D01*
X202423970Y-91269879D01*
X202457480Y-91220728D01*
X202492793Y-91172882D01*
X202492794Y-91172879D01*
X202496787Y-91165324D01*
X202500470Y-91157676D01*
X202500470Y-91157675D01*
X202500472Y-91157673D01*
X202518007Y-91100822D01*
X202537646Y-91044699D01*
X202539232Y-91036311D01*
X202540500Y-91027904D01*
X202540500Y-90968426D01*
X202542724Y-90908992D01*
X202541684Y-90899761D01*
X202542513Y-90899667D01*
X202540500Y-90884366D01*
X202540500Y-90174500D01*
X202560185Y-90107461D01*
X202612989Y-90061706D01*
X202664500Y-90050500D01*
X245789980Y-90050500D01*
X245857019Y-90070185D01*
X245899336Y-90116044D01*
X245942315Y-90196450D01*
X245942317Y-90196452D01*
X246073589Y-90356410D01*
X246170209Y-90435702D01*
X246233550Y-90487685D01*
X246416046Y-90585232D01*
X246614066Y-90645300D01*
X246614065Y-90645300D01*
X246632529Y-90647118D01*
X246820000Y-90665583D01*
X247025934Y-90645300D01*
X247223954Y-90585232D01*
X247406450Y-90487685D01*
X247566410Y-90356410D01*
X247697685Y-90196450D01*
X247795232Y-90013954D01*
X247855300Y-89815934D01*
X247875583Y-89610000D01*
X247860809Y-89460000D01*
X248210000Y-89460000D01*
X248882935Y-89460000D01*
X248860000Y-89538111D01*
X248860000Y-89681889D01*
X248882935Y-89760000D01*
X248210001Y-89760000D01*
X248210001Y-90504785D01*
X248210002Y-90504808D01*
X248212908Y-90529869D01*
X248212909Y-90529873D01*
X248258211Y-90632474D01*
X248258214Y-90632479D01*
X248337520Y-90711785D01*
X248337525Y-90711788D01*
X248440123Y-90757089D01*
X248465206Y-90759999D01*
X249209999Y-90759999D01*
X249210000Y-90759998D01*
X249210000Y-90091170D01*
X249217685Y-90094680D01*
X249324237Y-90110000D01*
X249395763Y-90110000D01*
X249502315Y-90094680D01*
X249510000Y-90091170D01*
X249510000Y-90759999D01*
X250254786Y-90759999D01*
X250254808Y-90759997D01*
X250279869Y-90757091D01*
X250279873Y-90757090D01*
X250382474Y-90711788D01*
X250382479Y-90711785D01*
X250461785Y-90632479D01*
X250461788Y-90632474D01*
X250507089Y-90529877D01*
X250507089Y-90529875D01*
X250509999Y-90504794D01*
X250510000Y-90504791D01*
X250510000Y-89760000D01*
X249837065Y-89760000D01*
X249860000Y-89681889D01*
X249860000Y-89538111D01*
X249837065Y-89460000D01*
X250509999Y-89460000D01*
X250509999Y-88715214D01*
X250509997Y-88715191D01*
X250507091Y-88690130D01*
X250507090Y-88690126D01*
X250461788Y-88587525D01*
X250461785Y-88587520D01*
X250382479Y-88508214D01*
X250382474Y-88508211D01*
X250279876Y-88462910D01*
X250254794Y-88460000D01*
X249510000Y-88460000D01*
X249510000Y-89128829D01*
X249502315Y-89125320D01*
X249395763Y-89110000D01*
X249324237Y-89110000D01*
X249217685Y-89125320D01*
X249210000Y-89128829D01*
X249210000Y-88460000D01*
X248465214Y-88460000D01*
X248465191Y-88460002D01*
X248440130Y-88462908D01*
X248440126Y-88462909D01*
X248337525Y-88508211D01*
X248337520Y-88508214D01*
X248258214Y-88587520D01*
X248258211Y-88587525D01*
X248212910Y-88690122D01*
X248212910Y-88690124D01*
X248210000Y-88715205D01*
X248210000Y-89460000D01*
X247860809Y-89460000D01*
X247855300Y-89404066D01*
X247795232Y-89206046D01*
X247697685Y-89023550D01*
X247645702Y-88960209D01*
X247566410Y-88863589D01*
X247406452Y-88732317D01*
X247406453Y-88732317D01*
X247406450Y-88732315D01*
X247223954Y-88634768D01*
X247025934Y-88574700D01*
X247025932Y-88574699D01*
X247025934Y-88574699D01*
X246820000Y-88554417D01*
X246614067Y-88574699D01*
X246416043Y-88634769D01*
X246315433Y-88688547D01*
X246233550Y-88732315D01*
X246233548Y-88732316D01*
X246233547Y-88732317D01*
X246073589Y-88863589D01*
X245942315Y-89023549D01*
X245942311Y-89023555D01*
X245910028Y-89083953D01*
X245861066Y-89133797D01*
X245800670Y-89149500D01*
X202327965Y-89149500D01*
X202260926Y-89129815D01*
X202240284Y-89113181D01*
X200197103Y-87070000D01*
X245764417Y-87070000D01*
X245784699Y-87275932D01*
X245804133Y-87339998D01*
X245844768Y-87473954D01*
X245942315Y-87656450D01*
X245942317Y-87656452D01*
X246073589Y-87816410D01*
X246132232Y-87864536D01*
X246233550Y-87947685D01*
X246416046Y-88045232D01*
X246614066Y-88105300D01*
X246614065Y-88105300D01*
X246632529Y-88107118D01*
X246820000Y-88125583D01*
X247025934Y-88105300D01*
X247223954Y-88045232D01*
X247406450Y-87947685D01*
X247566410Y-87816410D01*
X247697685Y-87656450D01*
X247795232Y-87473954D01*
X247855300Y-87275934D01*
X247875583Y-87070000D01*
X248304417Y-87070000D01*
X248324699Y-87275932D01*
X248344133Y-87339998D01*
X248384768Y-87473954D01*
X248482315Y-87656450D01*
X248482317Y-87656452D01*
X248613589Y-87816410D01*
X248672232Y-87864536D01*
X248773550Y-87947685D01*
X248956046Y-88045232D01*
X249154066Y-88105300D01*
X249154065Y-88105300D01*
X249172529Y-88107118D01*
X249360000Y-88125583D01*
X249565934Y-88105300D01*
X249763954Y-88045232D01*
X249946450Y-87947685D01*
X250106410Y-87816410D01*
X250237685Y-87656450D01*
X250335232Y-87473954D01*
X250395300Y-87275934D01*
X250415583Y-87070000D01*
X250395300Y-86864066D01*
X250335232Y-86666046D01*
X250237685Y-86483550D01*
X250185702Y-86420209D01*
X250106410Y-86323589D01*
X249946452Y-86192317D01*
X249946453Y-86192317D01*
X249946450Y-86192315D01*
X249763954Y-86094768D01*
X249565934Y-86034700D01*
X249565932Y-86034699D01*
X249565934Y-86034699D01*
X249360000Y-86014417D01*
X249154067Y-86034699D01*
X248956043Y-86094769D01*
X248855433Y-86148547D01*
X248773550Y-86192315D01*
X248773548Y-86192316D01*
X248773547Y-86192317D01*
X248613589Y-86323589D01*
X248482317Y-86483547D01*
X248482315Y-86483550D01*
X248443643Y-86555898D01*
X248384769Y-86666043D01*
X248324699Y-86864067D01*
X248304417Y-87070000D01*
X247875583Y-87070000D01*
X247855300Y-86864066D01*
X247795232Y-86666046D01*
X247697685Y-86483550D01*
X247645702Y-86420209D01*
X247566410Y-86323589D01*
X247406452Y-86192317D01*
X247406453Y-86192317D01*
X247406450Y-86192315D01*
X247223954Y-86094768D01*
X247025934Y-86034700D01*
X247025932Y-86034699D01*
X247025934Y-86034699D01*
X246820000Y-86014417D01*
X246614067Y-86034699D01*
X246416043Y-86094769D01*
X246315433Y-86148547D01*
X246233550Y-86192315D01*
X246233548Y-86192316D01*
X246233547Y-86192317D01*
X246073589Y-86323589D01*
X245942317Y-86483547D01*
X245942315Y-86483550D01*
X245903643Y-86555898D01*
X245844769Y-86666043D01*
X245784699Y-86864067D01*
X245764417Y-87070000D01*
X200197103Y-87070000D01*
X197657103Y-84530000D01*
X245764417Y-84530000D01*
X245784699Y-84735932D01*
X245814734Y-84834944D01*
X245844768Y-84933954D01*
X245942315Y-85116450D01*
X245942317Y-85116452D01*
X246073589Y-85276410D01*
X246170209Y-85355702D01*
X246233550Y-85407685D01*
X246416046Y-85505232D01*
X246614066Y-85565300D01*
X246614065Y-85565300D01*
X246632529Y-85567118D01*
X246820000Y-85585583D01*
X247025934Y-85565300D01*
X247223954Y-85505232D01*
X247406450Y-85407685D01*
X247566410Y-85276410D01*
X247697685Y-85116450D01*
X247795232Y-84933954D01*
X247855300Y-84735934D01*
X247875583Y-84530000D01*
X248304417Y-84530000D01*
X248324699Y-84735932D01*
X248354734Y-84834944D01*
X248384768Y-84933954D01*
X248482315Y-85116450D01*
X248482317Y-85116452D01*
X248613589Y-85276410D01*
X248710209Y-85355702D01*
X248773550Y-85407685D01*
X248956046Y-85505232D01*
X249154066Y-85565300D01*
X249154065Y-85565300D01*
X249172529Y-85567118D01*
X249360000Y-85585583D01*
X249565934Y-85565300D01*
X249763954Y-85505232D01*
X249946450Y-85407685D01*
X250106410Y-85276410D01*
X250237685Y-85116450D01*
X250335232Y-84933954D01*
X250395300Y-84735934D01*
X250415583Y-84530000D01*
X250395300Y-84324066D01*
X250335232Y-84126046D01*
X250237685Y-83943550D01*
X250185702Y-83880209D01*
X250106410Y-83783589D01*
X249946452Y-83652317D01*
X249946453Y-83652317D01*
X249946450Y-83652315D01*
X249763954Y-83554768D01*
X249565934Y-83494700D01*
X249565932Y-83494699D01*
X249565934Y-83494699D01*
X249360000Y-83474417D01*
X249154067Y-83494699D01*
X248956043Y-83554769D01*
X248855433Y-83608547D01*
X248773550Y-83652315D01*
X248773548Y-83652316D01*
X248773547Y-83652317D01*
X248613589Y-83783589D01*
X248482317Y-83943547D01*
X248482315Y-83943550D01*
X248443643Y-84015898D01*
X248384769Y-84126043D01*
X248324699Y-84324067D01*
X248304417Y-84530000D01*
X247875583Y-84530000D01*
X247855300Y-84324066D01*
X247795232Y-84126046D01*
X247697685Y-83943550D01*
X247645702Y-83880209D01*
X247566410Y-83783589D01*
X247406452Y-83652317D01*
X247406453Y-83652317D01*
X247406450Y-83652315D01*
X247223954Y-83554768D01*
X247025934Y-83494700D01*
X247025932Y-83494699D01*
X247025934Y-83494699D01*
X246820000Y-83474417D01*
X246614067Y-83494699D01*
X246416043Y-83554769D01*
X246315433Y-83608547D01*
X246233550Y-83652315D01*
X246233548Y-83652316D01*
X246233547Y-83652317D01*
X246073589Y-83783589D01*
X245942317Y-83943547D01*
X245942315Y-83943550D01*
X245903643Y-84015898D01*
X245844769Y-84126043D01*
X245784699Y-84324067D01*
X245764417Y-84530000D01*
X197657103Y-84530000D01*
X195117103Y-81990000D01*
X245764417Y-81990000D01*
X245784699Y-82195932D01*
X245814734Y-82294944D01*
X245844768Y-82393954D01*
X245942315Y-82576450D01*
X245942317Y-82576452D01*
X246073589Y-82736410D01*
X246170209Y-82815702D01*
X246233550Y-82867685D01*
X246416046Y-82965232D01*
X246614066Y-83025300D01*
X246614065Y-83025300D01*
X246632529Y-83027118D01*
X246820000Y-83045583D01*
X247025934Y-83025300D01*
X247223954Y-82965232D01*
X247406450Y-82867685D01*
X247566410Y-82736410D01*
X247697685Y-82576450D01*
X247795232Y-82393954D01*
X247855300Y-82195934D01*
X247875583Y-81990000D01*
X248304417Y-81990000D01*
X248324699Y-82195932D01*
X248354734Y-82294944D01*
X248384768Y-82393954D01*
X248482315Y-82576450D01*
X248482317Y-82576452D01*
X248613589Y-82736410D01*
X248710209Y-82815702D01*
X248773550Y-82867685D01*
X248956046Y-82965232D01*
X249154066Y-83025300D01*
X249154065Y-83025300D01*
X249172529Y-83027118D01*
X249360000Y-83045583D01*
X249565934Y-83025300D01*
X249763954Y-82965232D01*
X249946450Y-82867685D01*
X250106410Y-82736410D01*
X250237685Y-82576450D01*
X250335232Y-82393954D01*
X250395300Y-82195934D01*
X250415583Y-81990000D01*
X250395300Y-81784066D01*
X250335232Y-81586046D01*
X250237685Y-81403550D01*
X250185702Y-81340209D01*
X250106410Y-81243589D01*
X249946452Y-81112317D01*
X249946453Y-81112317D01*
X249946450Y-81112315D01*
X249763954Y-81014768D01*
X249565934Y-80954700D01*
X249565932Y-80954699D01*
X249565934Y-80954699D01*
X249360000Y-80934417D01*
X249154067Y-80954699D01*
X248956043Y-81014769D01*
X248855433Y-81068547D01*
X248773550Y-81112315D01*
X248773548Y-81112316D01*
X248773547Y-81112317D01*
X248613589Y-81243589D01*
X248482317Y-81403547D01*
X248482315Y-81403550D01*
X248443643Y-81475898D01*
X248384769Y-81586043D01*
X248324699Y-81784067D01*
X248304417Y-81990000D01*
X247875583Y-81990000D01*
X247855300Y-81784066D01*
X247795232Y-81586046D01*
X247697685Y-81403550D01*
X247645702Y-81340209D01*
X247566410Y-81243589D01*
X247406452Y-81112317D01*
X247406453Y-81112317D01*
X247406450Y-81112315D01*
X247223954Y-81014768D01*
X247025934Y-80954700D01*
X247025932Y-80954699D01*
X247025934Y-80954699D01*
X246820000Y-80934417D01*
X246614067Y-80954699D01*
X246416043Y-81014769D01*
X246315433Y-81068547D01*
X246233550Y-81112315D01*
X246233548Y-81112316D01*
X246233547Y-81112317D01*
X246073589Y-81243589D01*
X245942317Y-81403547D01*
X245942315Y-81403550D01*
X245903643Y-81475898D01*
X245844769Y-81586043D01*
X245784699Y-81784067D01*
X245764417Y-81990000D01*
X195117103Y-81990000D01*
X190668908Y-77541805D01*
X190664271Y-77536617D01*
X190639878Y-77506029D01*
X190590728Y-77472519D01*
X190542882Y-77437207D01*
X190535297Y-77433198D01*
X190527677Y-77429529D01*
X190503161Y-77421967D01*
X190470822Y-77411992D01*
X190450154Y-77404760D01*
X190414695Y-77392352D01*
X190406326Y-77390768D01*
X190397904Y-77389500D01*
X190397902Y-77389500D01*
X190338426Y-77389500D01*
X190278990Y-77387275D01*
X190269756Y-77388316D01*
X190269662Y-77387486D01*
X190254364Y-77389500D01*
X188954500Y-77389500D01*
X188887461Y-77369815D01*
X188841706Y-77317011D01*
X188830500Y-77265500D01*
X188830500Y-69970001D01*
X190134318Y-69970001D01*
X190154955Y-70126760D01*
X190154956Y-70126762D01*
X190215464Y-70272841D01*
X190311718Y-70398282D01*
X190437159Y-70494536D01*
X190583238Y-70555044D01*
X190661619Y-70565363D01*
X190739999Y-70575682D01*
X190740000Y-70575682D01*
X190740001Y-70575682D01*
X190792254Y-70568802D01*
X190896762Y-70555044D01*
X191042841Y-70494536D01*
X191168282Y-70398282D01*
X191264536Y-70272841D01*
X191325044Y-70126762D01*
X191345682Y-69970000D01*
X191325044Y-69813238D01*
X191264536Y-69667159D01*
X191264535Y-69667158D01*
X191264535Y-69667157D01*
X191216124Y-69604066D01*
X191190930Y-69538896D01*
X191190500Y-69528580D01*
X191190500Y-67807964D01*
X191210185Y-67740925D01*
X191226814Y-67720288D01*
X193053997Y-65893104D01*
X193115318Y-65859621D01*
X193177670Y-65862125D01*
X193254066Y-65885300D01*
X193254065Y-65885300D01*
X193272529Y-65887118D01*
X193460000Y-65905583D01*
X193665934Y-65885300D01*
X193863954Y-65825232D01*
X194046450Y-65727685D01*
X194206410Y-65596410D01*
X194337685Y-65436450D01*
X194435232Y-65253954D01*
X194495300Y-65055934D01*
X194515583Y-64850000D01*
X194944417Y-64850000D01*
X194964699Y-65055932D01*
X194964700Y-65055934D01*
X195024768Y-65253954D01*
X195122315Y-65436450D01*
X195156969Y-65478677D01*
X195253589Y-65596410D01*
X195292169Y-65628071D01*
X195413550Y-65727685D01*
X195596046Y-65825232D01*
X195794066Y-65885300D01*
X195794065Y-65885300D01*
X195812529Y-65887118D01*
X196000000Y-65905583D01*
X196205934Y-65885300D01*
X196403954Y-65825232D01*
X196586450Y-65727685D01*
X196746410Y-65596410D01*
X196877685Y-65436450D01*
X196975232Y-65253954D01*
X197035300Y-65055934D01*
X197055583Y-64850000D01*
X197040809Y-64699999D01*
X197398972Y-64699999D01*
X197398973Y-64700000D01*
X198062935Y-64700000D01*
X198040000Y-64778111D01*
X198040000Y-64921889D01*
X198062935Y-65000000D01*
X197398973Y-65000000D01*
X197404738Y-65062218D01*
X197463058Y-65267196D01*
X197463066Y-65267216D01*
X197558059Y-65457989D01*
X197686500Y-65628071D01*
X197844000Y-65771651D01*
X197844002Y-65771653D01*
X198025201Y-65883846D01*
X198025207Y-65883849D01*
X198223936Y-65960836D01*
X198390000Y-65991879D01*
X198390000Y-65331170D01*
X198397685Y-65334680D01*
X198504237Y-65350000D01*
X198575763Y-65350000D01*
X198682315Y-65334680D01*
X198690000Y-65331170D01*
X198690000Y-65991879D01*
X198856063Y-65960836D01*
X199054792Y-65883849D01*
X199054798Y-65883846D01*
X199235997Y-65771653D01*
X199235999Y-65771651D01*
X199393499Y-65628071D01*
X199521940Y-65457989D01*
X199616933Y-65267216D01*
X199616941Y-65267196D01*
X199675261Y-65062218D01*
X199681027Y-65000000D01*
X199017065Y-65000000D01*
X199040000Y-64921889D01*
X199040000Y-64850000D01*
X200024417Y-64850000D01*
X200044699Y-65055932D01*
X200044700Y-65055934D01*
X200104768Y-65253954D01*
X200202315Y-65436450D01*
X200236969Y-65478677D01*
X200333589Y-65596410D01*
X200372169Y-65628071D01*
X200493550Y-65727685D01*
X200676046Y-65825232D01*
X200874066Y-65885300D01*
X200874065Y-65885300D01*
X200892529Y-65887118D01*
X201080000Y-65905583D01*
X201285934Y-65885300D01*
X201483954Y-65825232D01*
X201666450Y-65727685D01*
X201826410Y-65596410D01*
X201957685Y-65436450D01*
X202055232Y-65253954D01*
X202115300Y-65055934D01*
X202135583Y-64850000D01*
X202564417Y-64850000D01*
X202584699Y-65055932D01*
X202584700Y-65055934D01*
X202644768Y-65253954D01*
X202742315Y-65436450D01*
X202776969Y-65478677D01*
X202873589Y-65596410D01*
X202912169Y-65628071D01*
X203033550Y-65727685D01*
X203216046Y-65825232D01*
X203414066Y-65885300D01*
X203414065Y-65885300D01*
X203432529Y-65887118D01*
X203620000Y-65905583D01*
X203825934Y-65885300D01*
X204023954Y-65825232D01*
X204206450Y-65727685D01*
X204366410Y-65596410D01*
X204497685Y-65436450D01*
X204595232Y-65253954D01*
X204655300Y-65055934D01*
X204675583Y-64850000D01*
X205104417Y-64850000D01*
X205124699Y-65055932D01*
X205124700Y-65055934D01*
X205184768Y-65253954D01*
X205282315Y-65436450D01*
X205316969Y-65478677D01*
X205413589Y-65596410D01*
X205452169Y-65628071D01*
X205573550Y-65727685D01*
X205756046Y-65825232D01*
X205954066Y-65885300D01*
X205954065Y-65885300D01*
X205972529Y-65887118D01*
X206160000Y-65905583D01*
X206365934Y-65885300D01*
X206563954Y-65825232D01*
X206746450Y-65727685D01*
X206906410Y-65596410D01*
X207037685Y-65436450D01*
X207135232Y-65253954D01*
X207195300Y-65055934D01*
X207215583Y-64850000D01*
X207644417Y-64850000D01*
X207664699Y-65055932D01*
X207664700Y-65055934D01*
X207724768Y-65253954D01*
X207822315Y-65436450D01*
X207856969Y-65478677D01*
X207953589Y-65596410D01*
X207992169Y-65628071D01*
X208113550Y-65727685D01*
X208296046Y-65825232D01*
X208494066Y-65885300D01*
X208494065Y-65885300D01*
X208512529Y-65887118D01*
X208700000Y-65905583D01*
X208905934Y-65885300D01*
X209103954Y-65825232D01*
X209286450Y-65727685D01*
X209446410Y-65596410D01*
X209577685Y-65436450D01*
X209675232Y-65253954D01*
X209735300Y-65055934D01*
X209755583Y-64850000D01*
X210184417Y-64850000D01*
X210204699Y-65055932D01*
X210204700Y-65055934D01*
X210264768Y-65253954D01*
X210362315Y-65436450D01*
X210396969Y-65478677D01*
X210493589Y-65596410D01*
X210532169Y-65628071D01*
X210653550Y-65727685D01*
X210836046Y-65825232D01*
X211034066Y-65885300D01*
X211034065Y-65885300D01*
X211052529Y-65887118D01*
X211240000Y-65905583D01*
X211445934Y-65885300D01*
X211643954Y-65825232D01*
X211826450Y-65727685D01*
X211986410Y-65596410D01*
X212117685Y-65436450D01*
X212215232Y-65253954D01*
X212275300Y-65055934D01*
X212295583Y-64850000D01*
X212724417Y-64850000D01*
X212744699Y-65055932D01*
X212744700Y-65055934D01*
X212804768Y-65253954D01*
X212902315Y-65436450D01*
X212936969Y-65478677D01*
X213033589Y-65596410D01*
X213072169Y-65628071D01*
X213193550Y-65727685D01*
X213376046Y-65825232D01*
X213574066Y-65885300D01*
X213574065Y-65885300D01*
X213592529Y-65887118D01*
X213780000Y-65905583D01*
X213985934Y-65885300D01*
X214183954Y-65825232D01*
X214366450Y-65727685D01*
X214526410Y-65596410D01*
X214657685Y-65436450D01*
X214755232Y-65253954D01*
X214815300Y-65055934D01*
X214835583Y-64850000D01*
X215264417Y-64850000D01*
X215284699Y-65055932D01*
X215284700Y-65055934D01*
X215344768Y-65253954D01*
X215442315Y-65436450D01*
X215476969Y-65478677D01*
X215573589Y-65596410D01*
X215612169Y-65628071D01*
X215733550Y-65727685D01*
X215916046Y-65825232D01*
X216114066Y-65885300D01*
X216114065Y-65885300D01*
X216132529Y-65887118D01*
X216320000Y-65905583D01*
X216525934Y-65885300D01*
X216723954Y-65825232D01*
X216906450Y-65727685D01*
X217066410Y-65596410D01*
X217197685Y-65436450D01*
X217295232Y-65253954D01*
X217355300Y-65055934D01*
X217375583Y-64850000D01*
X217360809Y-64699999D01*
X217718972Y-64699999D01*
X217718973Y-64700000D01*
X218382935Y-64700000D01*
X218360000Y-64778111D01*
X218360000Y-64921889D01*
X218382935Y-65000000D01*
X217718973Y-65000000D01*
X217724738Y-65062218D01*
X217783058Y-65267196D01*
X217783066Y-65267216D01*
X217878059Y-65457989D01*
X218006500Y-65628071D01*
X218164000Y-65771651D01*
X218164002Y-65771653D01*
X218345201Y-65883846D01*
X218345207Y-65883849D01*
X218543936Y-65960836D01*
X218710000Y-65991879D01*
X218710000Y-65331170D01*
X218717685Y-65334680D01*
X218824237Y-65350000D01*
X218895763Y-65350000D01*
X219002315Y-65334680D01*
X219010000Y-65331170D01*
X219010000Y-65991879D01*
X219176063Y-65960836D01*
X219374792Y-65883849D01*
X219374798Y-65883846D01*
X219555997Y-65771653D01*
X219555999Y-65771651D01*
X219713499Y-65628071D01*
X219841940Y-65457989D01*
X219936933Y-65267216D01*
X219936941Y-65267196D01*
X219995261Y-65062218D01*
X220001027Y-65000000D01*
X219337065Y-65000000D01*
X219360000Y-64921889D01*
X219360000Y-64850000D01*
X220344417Y-64850000D01*
X220364699Y-65055932D01*
X220364700Y-65055934D01*
X220424768Y-65253954D01*
X220522315Y-65436450D01*
X220556969Y-65478677D01*
X220653589Y-65596410D01*
X220692169Y-65628071D01*
X220813550Y-65727685D01*
X220996046Y-65825232D01*
X221194066Y-65885300D01*
X221194065Y-65885300D01*
X221212529Y-65887118D01*
X221400000Y-65905583D01*
X221605934Y-65885300D01*
X221803954Y-65825232D01*
X221986450Y-65727685D01*
X222146410Y-65596410D01*
X222277685Y-65436450D01*
X222375232Y-65253954D01*
X222435300Y-65055934D01*
X222455583Y-64850000D01*
X222884417Y-64850000D01*
X222904699Y-65055932D01*
X222904700Y-65055934D01*
X222964768Y-65253954D01*
X223062315Y-65436450D01*
X223096969Y-65478677D01*
X223193589Y-65596410D01*
X223232169Y-65628071D01*
X223353550Y-65727685D01*
X223536046Y-65825232D01*
X223734066Y-65885300D01*
X223734065Y-65885300D01*
X223752529Y-65887118D01*
X223940000Y-65905583D01*
X224145934Y-65885300D01*
X224343954Y-65825232D01*
X224526450Y-65727685D01*
X224686410Y-65596410D01*
X224817685Y-65436450D01*
X224915232Y-65253954D01*
X224975300Y-65055934D01*
X224995583Y-64850000D01*
X225424417Y-64850000D01*
X225444699Y-65055932D01*
X225444700Y-65055934D01*
X225504768Y-65253954D01*
X225602315Y-65436450D01*
X225636969Y-65478677D01*
X225733589Y-65596410D01*
X225772169Y-65628071D01*
X225893550Y-65727685D01*
X226076046Y-65825232D01*
X226274066Y-65885300D01*
X226274065Y-65885300D01*
X226292529Y-65887118D01*
X226480000Y-65905583D01*
X226685934Y-65885300D01*
X226883954Y-65825232D01*
X227066450Y-65727685D01*
X227226410Y-65596410D01*
X227357685Y-65436450D01*
X227455232Y-65253954D01*
X227515300Y-65055934D01*
X227535583Y-64850000D01*
X227964417Y-64850000D01*
X227984699Y-65055932D01*
X227984700Y-65055934D01*
X228044768Y-65253954D01*
X228142315Y-65436450D01*
X228176969Y-65478677D01*
X228273589Y-65596410D01*
X228312169Y-65628071D01*
X228433550Y-65727685D01*
X228616046Y-65825232D01*
X228814066Y-65885300D01*
X228814065Y-65885300D01*
X228832529Y-65887118D01*
X229020000Y-65905583D01*
X229225934Y-65885300D01*
X229423954Y-65825232D01*
X229606450Y-65727685D01*
X229766410Y-65596410D01*
X229897685Y-65436450D01*
X229995232Y-65253954D01*
X230055300Y-65055934D01*
X230075583Y-64850000D01*
X230504417Y-64850000D01*
X230524699Y-65055932D01*
X230524700Y-65055934D01*
X230584768Y-65253954D01*
X230682315Y-65436450D01*
X230716969Y-65478677D01*
X230813589Y-65596410D01*
X230852169Y-65628071D01*
X230973550Y-65727685D01*
X231156046Y-65825232D01*
X231354066Y-65885300D01*
X231354065Y-65885300D01*
X231372529Y-65887118D01*
X231560000Y-65905583D01*
X231765934Y-65885300D01*
X231963954Y-65825232D01*
X232146450Y-65727685D01*
X232306410Y-65596410D01*
X232437685Y-65436450D01*
X232535232Y-65253954D01*
X232595300Y-65055934D01*
X232615583Y-64850000D01*
X233044417Y-64850000D01*
X233064699Y-65055932D01*
X233064700Y-65055934D01*
X233124768Y-65253954D01*
X233222315Y-65436450D01*
X233256969Y-65478677D01*
X233353589Y-65596410D01*
X233392169Y-65628071D01*
X233513550Y-65727685D01*
X233696046Y-65825232D01*
X233894066Y-65885300D01*
X233894065Y-65885300D01*
X233912529Y-65887118D01*
X234100000Y-65905583D01*
X234305934Y-65885300D01*
X234503954Y-65825232D01*
X234686450Y-65727685D01*
X234846410Y-65596410D01*
X234977685Y-65436450D01*
X235075232Y-65253954D01*
X235135300Y-65055934D01*
X235155583Y-64850000D01*
X235140809Y-64699999D01*
X235498972Y-64699999D01*
X235498973Y-64700000D01*
X236162935Y-64700000D01*
X236140000Y-64778111D01*
X236140000Y-64921889D01*
X236162935Y-65000000D01*
X235498973Y-65000000D01*
X235504738Y-65062218D01*
X235563058Y-65267196D01*
X235563066Y-65267216D01*
X235658059Y-65457989D01*
X235786500Y-65628071D01*
X235944000Y-65771651D01*
X235944002Y-65771653D01*
X236125201Y-65883846D01*
X236125207Y-65883849D01*
X236323936Y-65960836D01*
X236490000Y-65991879D01*
X236490000Y-65331170D01*
X236497685Y-65334680D01*
X236604237Y-65350000D01*
X236675763Y-65350000D01*
X236782315Y-65334680D01*
X236790000Y-65331170D01*
X236790000Y-65991879D01*
X236956063Y-65960836D01*
X237154792Y-65883849D01*
X237154798Y-65883846D01*
X237335997Y-65771653D01*
X237335999Y-65771651D01*
X237493499Y-65628071D01*
X237621940Y-65457989D01*
X237716933Y-65267216D01*
X237716941Y-65267196D01*
X237775261Y-65062218D01*
X237781027Y-65000000D01*
X237117065Y-65000000D01*
X237140000Y-64921889D01*
X237140000Y-64778111D01*
X237117065Y-64700000D01*
X237781027Y-64700000D01*
X237781027Y-64699999D01*
X237775261Y-64637781D01*
X237716941Y-64432803D01*
X237716933Y-64432783D01*
X237621940Y-64242010D01*
X237493499Y-64071928D01*
X237335999Y-63928348D01*
X237335997Y-63928346D01*
X237154798Y-63816153D01*
X237154789Y-63816149D01*
X236956060Y-63739162D01*
X236956061Y-63739162D01*
X236790000Y-63708119D01*
X236790000Y-64368829D01*
X236782315Y-64365320D01*
X236675763Y-64350000D01*
X236604237Y-64350000D01*
X236497685Y-64365320D01*
X236490000Y-64368829D01*
X236490000Y-63708119D01*
X236323939Y-63739162D01*
X236125210Y-63816149D01*
X236125201Y-63816153D01*
X235944002Y-63928346D01*
X235944000Y-63928348D01*
X235786500Y-64071928D01*
X235658059Y-64242010D01*
X235563066Y-64432783D01*
X235563058Y-64432803D01*
X235504738Y-64637781D01*
X235498972Y-64699999D01*
X235140809Y-64699999D01*
X235135300Y-64644066D01*
X235075232Y-64446046D01*
X234977685Y-64263550D01*
X234925702Y-64200209D01*
X234846410Y-64103589D01*
X234686452Y-63972317D01*
X234686453Y-63972317D01*
X234686450Y-63972315D01*
X234503954Y-63874768D01*
X234305934Y-63814700D01*
X234305932Y-63814699D01*
X234305934Y-63814699D01*
X234100000Y-63794417D01*
X233894067Y-63814699D01*
X233696043Y-63874769D01*
X233595809Y-63928346D01*
X233513550Y-63972315D01*
X233513548Y-63972316D01*
X233513547Y-63972317D01*
X233353589Y-64103589D01*
X233222317Y-64263547D01*
X233124769Y-64446043D01*
X233064699Y-64644067D01*
X233044417Y-64850000D01*
X232615583Y-64850000D01*
X232595300Y-64644066D01*
X232535232Y-64446046D01*
X232437685Y-64263550D01*
X232385702Y-64200209D01*
X232306410Y-64103589D01*
X232146452Y-63972317D01*
X232146453Y-63972317D01*
X232146450Y-63972315D01*
X231963954Y-63874768D01*
X231765934Y-63814700D01*
X231765932Y-63814699D01*
X231765934Y-63814699D01*
X231560000Y-63794417D01*
X231354067Y-63814699D01*
X231156043Y-63874769D01*
X231055809Y-63928346D01*
X230973550Y-63972315D01*
X230973548Y-63972316D01*
X230973547Y-63972317D01*
X230813589Y-64103589D01*
X230682317Y-64263547D01*
X230584769Y-64446043D01*
X230524699Y-64644067D01*
X230504417Y-64850000D01*
X230075583Y-64850000D01*
X230055300Y-64644066D01*
X229995232Y-64446046D01*
X229897685Y-64263550D01*
X229845702Y-64200209D01*
X229766410Y-64103589D01*
X229606452Y-63972317D01*
X229606453Y-63972317D01*
X229606450Y-63972315D01*
X229423954Y-63874768D01*
X229225934Y-63814700D01*
X229225932Y-63814699D01*
X229225934Y-63814699D01*
X229020000Y-63794417D01*
X228814067Y-63814699D01*
X228616043Y-63874769D01*
X228515809Y-63928346D01*
X228433550Y-63972315D01*
X228433548Y-63972316D01*
X228433547Y-63972317D01*
X228273589Y-64103589D01*
X228142317Y-64263547D01*
X228044769Y-64446043D01*
X227984699Y-64644067D01*
X227964417Y-64850000D01*
X227535583Y-64850000D01*
X227515300Y-64644066D01*
X227455232Y-64446046D01*
X227357685Y-64263550D01*
X227305702Y-64200209D01*
X227226410Y-64103589D01*
X227066452Y-63972317D01*
X227066453Y-63972317D01*
X227066450Y-63972315D01*
X226883954Y-63874768D01*
X226685934Y-63814700D01*
X226685932Y-63814699D01*
X226685934Y-63814699D01*
X226480000Y-63794417D01*
X226274067Y-63814699D01*
X226076043Y-63874769D01*
X225975809Y-63928346D01*
X225893550Y-63972315D01*
X225893548Y-63972316D01*
X225893547Y-63972317D01*
X225733589Y-64103589D01*
X225602317Y-64263547D01*
X225504769Y-64446043D01*
X225444699Y-64644067D01*
X225424417Y-64850000D01*
X224995583Y-64850000D01*
X224975300Y-64644066D01*
X224915232Y-64446046D01*
X224817685Y-64263550D01*
X224765702Y-64200209D01*
X224686410Y-64103589D01*
X224526452Y-63972317D01*
X224526453Y-63972317D01*
X224526450Y-63972315D01*
X224343954Y-63874768D01*
X224145934Y-63814700D01*
X224145932Y-63814699D01*
X224145934Y-63814699D01*
X223940000Y-63794417D01*
X223734067Y-63814699D01*
X223536043Y-63874769D01*
X223435809Y-63928346D01*
X223353550Y-63972315D01*
X223353548Y-63972316D01*
X223353547Y-63972317D01*
X223193589Y-64103589D01*
X223062317Y-64263547D01*
X222964769Y-64446043D01*
X222904699Y-64644067D01*
X222884417Y-64850000D01*
X222455583Y-64850000D01*
X222435300Y-64644066D01*
X222375232Y-64446046D01*
X222277685Y-64263550D01*
X222225702Y-64200209D01*
X222146410Y-64103589D01*
X221986452Y-63972317D01*
X221986453Y-63972317D01*
X221986450Y-63972315D01*
X221803954Y-63874768D01*
X221605934Y-63814700D01*
X221605932Y-63814699D01*
X221605934Y-63814699D01*
X221400000Y-63794417D01*
X221194067Y-63814699D01*
X220996043Y-63874769D01*
X220895809Y-63928346D01*
X220813550Y-63972315D01*
X220813548Y-63972316D01*
X220813547Y-63972317D01*
X220653589Y-64103589D01*
X220522317Y-64263547D01*
X220424769Y-64446043D01*
X220364699Y-64644067D01*
X220344417Y-64850000D01*
X219360000Y-64850000D01*
X219360000Y-64778111D01*
X219337065Y-64700000D01*
X220001027Y-64700000D01*
X220001027Y-64699999D01*
X219995261Y-64637781D01*
X219936941Y-64432803D01*
X219936933Y-64432783D01*
X219841940Y-64242010D01*
X219713499Y-64071928D01*
X219555999Y-63928348D01*
X219555997Y-63928346D01*
X219374798Y-63816153D01*
X219374789Y-63816149D01*
X219176060Y-63739162D01*
X219176061Y-63739162D01*
X219010000Y-63708119D01*
X219010000Y-64368829D01*
X219002315Y-64365320D01*
X218895763Y-64350000D01*
X218824237Y-64350000D01*
X218717685Y-64365320D01*
X218710000Y-64368829D01*
X218710000Y-63708119D01*
X218543939Y-63739162D01*
X218345210Y-63816149D01*
X218345201Y-63816153D01*
X218164002Y-63928346D01*
X218164000Y-63928348D01*
X218006500Y-64071928D01*
X217878059Y-64242010D01*
X217783066Y-64432783D01*
X217783058Y-64432803D01*
X217724738Y-64637781D01*
X217718972Y-64699999D01*
X217360809Y-64699999D01*
X217355300Y-64644066D01*
X217295232Y-64446046D01*
X217197685Y-64263550D01*
X217145702Y-64200209D01*
X217066410Y-64103589D01*
X216906452Y-63972317D01*
X216906453Y-63972317D01*
X216906450Y-63972315D01*
X216723954Y-63874768D01*
X216525934Y-63814700D01*
X216525932Y-63814699D01*
X216525934Y-63814699D01*
X216320000Y-63794417D01*
X216114067Y-63814699D01*
X215916043Y-63874769D01*
X215815809Y-63928346D01*
X215733550Y-63972315D01*
X215733548Y-63972316D01*
X215733547Y-63972317D01*
X215573589Y-64103589D01*
X215442317Y-64263547D01*
X215344769Y-64446043D01*
X215284699Y-64644067D01*
X215264417Y-64850000D01*
X214835583Y-64850000D01*
X214815300Y-64644066D01*
X214755232Y-64446046D01*
X214657685Y-64263550D01*
X214605702Y-64200209D01*
X214526410Y-64103589D01*
X214366452Y-63972317D01*
X214366453Y-63972317D01*
X214366450Y-63972315D01*
X214183954Y-63874768D01*
X213985934Y-63814700D01*
X213985932Y-63814699D01*
X213985934Y-63814699D01*
X213780000Y-63794417D01*
X213574067Y-63814699D01*
X213376043Y-63874769D01*
X213275809Y-63928346D01*
X213193550Y-63972315D01*
X213193548Y-63972316D01*
X213193547Y-63972317D01*
X213033589Y-64103589D01*
X212902317Y-64263547D01*
X212804769Y-64446043D01*
X212744699Y-64644067D01*
X212724417Y-64850000D01*
X212295583Y-64850000D01*
X212275300Y-64644066D01*
X212215232Y-64446046D01*
X212117685Y-64263550D01*
X212065702Y-64200209D01*
X211986410Y-64103589D01*
X211826452Y-63972317D01*
X211826453Y-63972317D01*
X211826450Y-63972315D01*
X211643954Y-63874768D01*
X211445934Y-63814700D01*
X211445932Y-63814699D01*
X211445934Y-63814699D01*
X211240000Y-63794417D01*
X211034067Y-63814699D01*
X210836043Y-63874769D01*
X210735809Y-63928346D01*
X210653550Y-63972315D01*
X210653548Y-63972316D01*
X210653547Y-63972317D01*
X210493589Y-64103589D01*
X210362317Y-64263547D01*
X210264769Y-64446043D01*
X210204699Y-64644067D01*
X210184417Y-64850000D01*
X209755583Y-64850000D01*
X209735300Y-64644066D01*
X209675232Y-64446046D01*
X209577685Y-64263550D01*
X209525702Y-64200209D01*
X209446410Y-64103589D01*
X209286452Y-63972317D01*
X209286453Y-63972317D01*
X209286450Y-63972315D01*
X209103954Y-63874768D01*
X208905934Y-63814700D01*
X208905932Y-63814699D01*
X208905934Y-63814699D01*
X208700000Y-63794417D01*
X208494067Y-63814699D01*
X208296043Y-63874769D01*
X208195809Y-63928346D01*
X208113550Y-63972315D01*
X208113548Y-63972316D01*
X208113547Y-63972317D01*
X207953589Y-64103589D01*
X207822317Y-64263547D01*
X207724769Y-64446043D01*
X207664699Y-64644067D01*
X207644417Y-64850000D01*
X207215583Y-64850000D01*
X207195300Y-64644066D01*
X207135232Y-64446046D01*
X207037685Y-64263550D01*
X206985702Y-64200209D01*
X206906410Y-64103589D01*
X206746452Y-63972317D01*
X206746453Y-63972317D01*
X206746450Y-63972315D01*
X206563954Y-63874768D01*
X206365934Y-63814700D01*
X206365932Y-63814699D01*
X206365934Y-63814699D01*
X206160000Y-63794417D01*
X205954067Y-63814699D01*
X205756043Y-63874769D01*
X205655809Y-63928346D01*
X205573550Y-63972315D01*
X205573548Y-63972316D01*
X205573547Y-63972317D01*
X205413589Y-64103589D01*
X205282317Y-64263547D01*
X205184769Y-64446043D01*
X205124699Y-64644067D01*
X205104417Y-64850000D01*
X204675583Y-64850000D01*
X204655300Y-64644066D01*
X204595232Y-64446046D01*
X204497685Y-64263550D01*
X204445702Y-64200209D01*
X204366410Y-64103589D01*
X204206452Y-63972317D01*
X204206453Y-63972317D01*
X204206450Y-63972315D01*
X204023954Y-63874768D01*
X203825934Y-63814700D01*
X203825932Y-63814699D01*
X203825934Y-63814699D01*
X203620000Y-63794417D01*
X203414067Y-63814699D01*
X203216043Y-63874769D01*
X203115809Y-63928346D01*
X203033550Y-63972315D01*
X203033548Y-63972316D01*
X203033547Y-63972317D01*
X202873589Y-64103589D01*
X202742317Y-64263547D01*
X202644769Y-64446043D01*
X202584699Y-64644067D01*
X202564417Y-64850000D01*
X202135583Y-64850000D01*
X202115300Y-64644066D01*
X202055232Y-64446046D01*
X201957685Y-64263550D01*
X201905702Y-64200209D01*
X201826410Y-64103589D01*
X201666452Y-63972317D01*
X201666453Y-63972317D01*
X201666450Y-63972315D01*
X201483954Y-63874768D01*
X201285934Y-63814700D01*
X201285932Y-63814699D01*
X201285934Y-63814699D01*
X201080000Y-63794417D01*
X200874067Y-63814699D01*
X200676043Y-63874769D01*
X200575809Y-63928346D01*
X200493550Y-63972315D01*
X200493548Y-63972316D01*
X200493547Y-63972317D01*
X200333589Y-64103589D01*
X200202317Y-64263547D01*
X200104769Y-64446043D01*
X200044699Y-64644067D01*
X200024417Y-64850000D01*
X199040000Y-64850000D01*
X199040000Y-64778111D01*
X199017065Y-64700000D01*
X199681027Y-64700000D01*
X199681027Y-64699999D01*
X199675261Y-64637781D01*
X199616941Y-64432803D01*
X199616933Y-64432783D01*
X199521940Y-64242010D01*
X199393499Y-64071928D01*
X199235999Y-63928348D01*
X199235997Y-63928346D01*
X199054798Y-63816153D01*
X199054789Y-63816149D01*
X198856060Y-63739162D01*
X198856061Y-63739162D01*
X198690000Y-63708119D01*
X198690000Y-64368829D01*
X198682315Y-64365320D01*
X198575763Y-64350000D01*
X198504237Y-64350000D01*
X198397685Y-64365320D01*
X198390000Y-64368829D01*
X198390000Y-63708119D01*
X198223939Y-63739162D01*
X198025210Y-63816149D01*
X198025201Y-63816153D01*
X197844002Y-63928346D01*
X197844000Y-63928348D01*
X197686500Y-64071928D01*
X197558059Y-64242010D01*
X197463066Y-64432783D01*
X197463058Y-64432803D01*
X197404738Y-64637781D01*
X197398972Y-64699999D01*
X197040809Y-64699999D01*
X197035300Y-64644066D01*
X196975232Y-64446046D01*
X196877685Y-64263550D01*
X196825702Y-64200209D01*
X196746410Y-64103589D01*
X196586452Y-63972317D01*
X196586453Y-63972317D01*
X196586450Y-63972315D01*
X196403954Y-63874768D01*
X196205934Y-63814700D01*
X196205932Y-63814699D01*
X196205934Y-63814699D01*
X196000000Y-63794417D01*
X195794067Y-63814699D01*
X195596043Y-63874769D01*
X195495809Y-63928346D01*
X195413550Y-63972315D01*
X195413548Y-63972316D01*
X195413547Y-63972317D01*
X195253589Y-64103589D01*
X195122317Y-64263547D01*
X195024769Y-64446043D01*
X194964699Y-64644067D01*
X194944417Y-64850000D01*
X194515583Y-64850000D01*
X194495300Y-64644066D01*
X194435232Y-64446046D01*
X194337685Y-64263550D01*
X194285702Y-64200209D01*
X194206410Y-64103589D01*
X194046452Y-63972317D01*
X194046453Y-63972317D01*
X194046450Y-63972315D01*
X193863954Y-63874768D01*
X193665934Y-63814700D01*
X193665932Y-63814699D01*
X193665934Y-63814699D01*
X193460000Y-63794417D01*
X193254067Y-63814699D01*
X193056043Y-63874769D01*
X192955809Y-63928346D01*
X192873550Y-63972315D01*
X192873548Y-63972316D01*
X192873547Y-63972317D01*
X192713589Y-64103589D01*
X192582317Y-64263547D01*
X192484769Y-64446043D01*
X192424699Y-64644067D01*
X192404417Y-64849999D01*
X192424699Y-65055932D01*
X192447873Y-65132327D01*
X192448496Y-65202194D01*
X192416893Y-65256002D01*
X190441804Y-67231092D01*
X190436617Y-67235727D01*
X190406033Y-67260117D01*
X190406029Y-67260121D01*
X190372519Y-67309271D01*
X190337206Y-67357118D01*
X190333216Y-67364667D01*
X190329528Y-67372326D01*
X190311992Y-67429177D01*
X190292353Y-67485301D01*
X190290771Y-67493659D01*
X190289500Y-67502100D01*
X190289500Y-67561573D01*
X190287275Y-67621009D01*
X190288316Y-67630243D01*
X190287485Y-67630336D01*
X190289500Y-67645635D01*
X190289500Y-69528580D01*
X190269815Y-69595619D01*
X190263876Y-69604066D01*
X190215464Y-69667157D01*
X190154956Y-69813237D01*
X190154955Y-69813239D01*
X190134318Y-69969998D01*
X190134318Y-69970001D01*
X188830500Y-69970001D01*
X188830500Y-65874674D01*
X188850185Y-65807635D01*
X188896046Y-65765316D01*
X188966450Y-65727685D01*
X189126410Y-65596410D01*
X189257685Y-65436450D01*
X189355232Y-65253954D01*
X189415300Y-65055934D01*
X189435583Y-64850000D01*
X189864417Y-64850000D01*
X189884699Y-65055932D01*
X189884700Y-65055934D01*
X189944768Y-65253954D01*
X190042315Y-65436450D01*
X190076969Y-65478677D01*
X190173589Y-65596410D01*
X190212169Y-65628071D01*
X190333550Y-65727685D01*
X190516046Y-65825232D01*
X190714066Y-65885300D01*
X190714065Y-65885300D01*
X190732529Y-65887118D01*
X190920000Y-65905583D01*
X191125934Y-65885300D01*
X191323954Y-65825232D01*
X191506450Y-65727685D01*
X191666410Y-65596410D01*
X191797685Y-65436450D01*
X191895232Y-65253954D01*
X191955300Y-65055934D01*
X191975583Y-64850000D01*
X191955300Y-64644066D01*
X191895232Y-64446046D01*
X191797685Y-64263550D01*
X191745702Y-64200209D01*
X191666410Y-64103589D01*
X191506452Y-63972317D01*
X191506453Y-63972317D01*
X191506450Y-63972315D01*
X191323954Y-63874768D01*
X191125934Y-63814700D01*
X191125932Y-63814699D01*
X191125934Y-63814699D01*
X190920000Y-63794417D01*
X190714067Y-63814699D01*
X190516043Y-63874769D01*
X190415809Y-63928346D01*
X190333550Y-63972315D01*
X190333548Y-63972316D01*
X190333547Y-63972317D01*
X190173589Y-64103589D01*
X190042317Y-64263547D01*
X189944769Y-64446043D01*
X189884699Y-64644067D01*
X189864417Y-64850000D01*
X189435583Y-64850000D01*
X189415300Y-64644066D01*
X189355232Y-64446046D01*
X189257685Y-64263550D01*
X189205702Y-64200209D01*
X189126410Y-64103589D01*
X188966452Y-63972317D01*
X188966453Y-63972317D01*
X188966450Y-63972315D01*
X188783954Y-63874768D01*
X188585934Y-63814700D01*
X188585932Y-63814699D01*
X188585934Y-63814699D01*
X188380000Y-63794417D01*
X188174067Y-63814699D01*
X187976043Y-63874769D01*
X187875809Y-63928346D01*
X187793550Y-63972315D01*
X187793548Y-63972316D01*
X187793547Y-63972317D01*
X187633589Y-64103589D01*
X187502317Y-64263547D01*
X187404769Y-64446043D01*
X187344699Y-64644067D01*
X187324417Y-64850000D01*
X187344699Y-65055932D01*
X187344700Y-65055934D01*
X187404768Y-65253954D01*
X187502315Y-65436450D01*
X187536969Y-65478677D01*
X187633589Y-65596410D01*
X187672169Y-65628071D01*
X187793546Y-65727682D01*
X187793549Y-65727684D01*
X187793551Y-65727686D01*
X187820242Y-65741952D01*
X187863953Y-65765316D01*
X187913797Y-65814277D01*
X187929500Y-65874674D01*
X187929500Y-77265500D01*
X187909815Y-77332539D01*
X187857011Y-77378294D01*
X187805500Y-77389500D01*
X185674500Y-77389500D01*
X185607461Y-77369815D01*
X185561706Y-77317011D01*
X185550500Y-77265500D01*
X185550500Y-75705249D01*
X185550499Y-75705247D01*
X185538868Y-75646770D01*
X185538867Y-75646769D01*
X185494552Y-75580447D01*
X185428230Y-75536132D01*
X185428229Y-75536131D01*
X185369752Y-75524500D01*
X185369748Y-75524500D01*
X183630252Y-75524500D01*
X183630247Y-75524500D01*
X183571770Y-75536131D01*
X183571769Y-75536132D01*
X183505447Y-75580447D01*
X183461132Y-75646769D01*
X183461131Y-75646770D01*
X183449500Y-75705247D01*
X183449500Y-77444752D01*
X183461131Y-77503229D01*
X183461132Y-77503230D01*
X183505447Y-77569552D01*
X183571769Y-77613867D01*
X183571770Y-77613868D01*
X183630247Y-77625499D01*
X183630250Y-77625500D01*
X183630252Y-77625500D01*
X183931381Y-77625500D01*
X183998420Y-77645185D01*
X184044175Y-77697989D01*
X184054119Y-77767147D01*
X184052272Y-77777092D01*
X184045684Y-77805954D01*
X184056528Y-77950644D01*
X184054918Y-77950764D01*
X184051288Y-78009945D01*
X184009985Y-78066300D01*
X183989952Y-78078788D01*
X183985202Y-78081153D01*
X183804002Y-78193346D01*
X183804000Y-78193348D01*
X183646500Y-78336928D01*
X183518059Y-78507010D01*
X183423066Y-78697783D01*
X183423058Y-78697803D01*
X183364738Y-78902781D01*
X183358972Y-78964999D01*
X180640000Y-78964999D01*
X180640000Y-63500000D01*
X181894551Y-63500000D01*
X181914317Y-63751151D01*
X181973126Y-63996110D01*
X182069533Y-64228859D01*
X182201160Y-64443653D01*
X182201161Y-64443656D01*
X182256604Y-64508571D01*
X182364776Y-64635224D01*
X182513066Y-64761875D01*
X182556343Y-64798838D01*
X182556346Y-64798839D01*
X182771140Y-64930466D01*
X183003889Y-65026873D01*
X183248852Y-65085683D01*
X183404950Y-65097968D01*
X183437116Y-65100500D01*
X183437118Y-65100500D01*
X183562884Y-65100500D01*
X183592518Y-65098167D01*
X183751148Y-65085683D01*
X183996111Y-65026873D01*
X184228859Y-64930466D01*
X184443659Y-64798836D01*
X184635224Y-64635224D01*
X184798836Y-64443659D01*
X184930466Y-64228859D01*
X185026873Y-63996111D01*
X185085683Y-63751148D01*
X185105449Y-63500000D01*
X239894551Y-63500000D01*
X239914317Y-63751151D01*
X239973126Y-63996110D01*
X240069533Y-64228859D01*
X240201160Y-64443653D01*
X240201161Y-64443656D01*
X240256604Y-64508571D01*
X240364776Y-64635224D01*
X240513066Y-64761875D01*
X240556343Y-64798838D01*
X240556346Y-64798839D01*
X240771140Y-64930466D01*
X241003889Y-65026873D01*
X241248852Y-65085683D01*
X241404950Y-65097968D01*
X241437116Y-65100500D01*
X241437118Y-65100500D01*
X241562884Y-65100500D01*
X241592518Y-65098167D01*
X241751148Y-65085683D01*
X241996111Y-65026873D01*
X242228859Y-64930466D01*
X242443659Y-64798836D01*
X242635224Y-64635224D01*
X242798836Y-64443659D01*
X242930466Y-64228859D01*
X243026873Y-63996111D01*
X243085683Y-63751148D01*
X243105449Y-63500000D01*
X243085683Y-63248852D01*
X243026873Y-63003889D01*
X242991292Y-62917989D01*
X242930466Y-62771140D01*
X242798839Y-62556346D01*
X242798838Y-62556343D01*
X242716553Y-62460000D01*
X242635224Y-62364776D01*
X242508571Y-62256604D01*
X242443656Y-62201161D01*
X242443653Y-62201160D01*
X242228859Y-62069533D01*
X241996110Y-61973126D01*
X241751150Y-61914317D01*
X241562884Y-61899500D01*
X241562882Y-61899500D01*
X241437118Y-61899500D01*
X241437116Y-61899500D01*
X241248849Y-61914317D01*
X241003889Y-61973126D01*
X240771140Y-62069533D01*
X240556346Y-62201160D01*
X240556343Y-62201161D01*
X240364776Y-62364776D01*
X240201161Y-62556343D01*
X240201160Y-62556346D01*
X240069533Y-62771140D01*
X239973126Y-63003889D01*
X239914317Y-63248848D01*
X239894551Y-63500000D01*
X185105449Y-63500000D01*
X185085683Y-63248852D01*
X185069094Y-63179752D01*
X187329500Y-63179752D01*
X187341131Y-63238229D01*
X187341132Y-63238230D01*
X187385447Y-63304552D01*
X187451769Y-63348867D01*
X187451770Y-63348868D01*
X187510247Y-63360499D01*
X187510250Y-63360500D01*
X187510252Y-63360500D01*
X189249750Y-63360500D01*
X189249751Y-63360499D01*
X189264568Y-63357552D01*
X189308229Y-63348868D01*
X189308229Y-63348867D01*
X189308231Y-63348867D01*
X189374552Y-63304552D01*
X189418867Y-63238231D01*
X189418867Y-63238229D01*
X189418868Y-63238229D01*
X189430499Y-63179752D01*
X189430500Y-63179750D01*
X189430500Y-62310000D01*
X189864417Y-62310000D01*
X189884699Y-62515932D01*
X189914734Y-62614944D01*
X189944768Y-62713954D01*
X190042315Y-62896450D01*
X190076969Y-62938677D01*
X190173589Y-63056410D01*
X190212169Y-63088071D01*
X190333550Y-63187685D01*
X190516046Y-63285232D01*
X190714066Y-63345300D01*
X190714065Y-63345300D01*
X190732529Y-63347118D01*
X190920000Y-63365583D01*
X191125934Y-63345300D01*
X191323954Y-63285232D01*
X191506450Y-63187685D01*
X191666410Y-63056410D01*
X191797685Y-62896450D01*
X191895232Y-62713954D01*
X191955300Y-62515934D01*
X191975583Y-62310000D01*
X191960809Y-62159999D01*
X192318972Y-62159999D01*
X192318973Y-62160000D01*
X192982935Y-62160000D01*
X192960000Y-62238111D01*
X192960000Y-62381889D01*
X192982935Y-62460000D01*
X192318973Y-62460000D01*
X192324738Y-62522218D01*
X192383058Y-62727196D01*
X192383066Y-62727216D01*
X192478059Y-62917989D01*
X192606500Y-63088071D01*
X192764000Y-63231651D01*
X192764002Y-63231653D01*
X192945201Y-63343846D01*
X192945207Y-63343849D01*
X193143936Y-63420836D01*
X193310000Y-63451879D01*
X193310000Y-62791170D01*
X193317685Y-62794680D01*
X193424237Y-62810000D01*
X193495763Y-62810000D01*
X193602315Y-62794680D01*
X193610000Y-62791170D01*
X193610000Y-63451879D01*
X193776063Y-63420836D01*
X193974792Y-63343849D01*
X193974798Y-63343846D01*
X194155997Y-63231653D01*
X194155999Y-63231651D01*
X194313499Y-63088071D01*
X194441940Y-62917989D01*
X194536933Y-62727216D01*
X194536941Y-62727196D01*
X194595261Y-62522218D01*
X194601027Y-62460000D01*
X193937065Y-62460000D01*
X193960000Y-62381889D01*
X193960000Y-62310000D01*
X194944417Y-62310000D01*
X194964699Y-62515932D01*
X194994734Y-62614944D01*
X195024768Y-62713954D01*
X195122315Y-62896450D01*
X195156969Y-62938677D01*
X195253589Y-63056410D01*
X195292169Y-63088071D01*
X195413550Y-63187685D01*
X195596046Y-63285232D01*
X195794066Y-63345300D01*
X195794065Y-63345300D01*
X195812529Y-63347118D01*
X196000000Y-63365583D01*
X196205934Y-63345300D01*
X196403954Y-63285232D01*
X196586450Y-63187685D01*
X196746410Y-63056410D01*
X196877685Y-62896450D01*
X196975232Y-62713954D01*
X197035300Y-62515934D01*
X197055583Y-62310000D01*
X197484417Y-62310000D01*
X197504699Y-62515932D01*
X197534734Y-62614944D01*
X197564768Y-62713954D01*
X197662315Y-62896450D01*
X197696969Y-62938677D01*
X197793589Y-63056410D01*
X197832169Y-63088071D01*
X197953550Y-63187685D01*
X198136046Y-63285232D01*
X198334066Y-63345300D01*
X198334065Y-63345300D01*
X198352529Y-63347118D01*
X198540000Y-63365583D01*
X198745934Y-63345300D01*
X198943954Y-63285232D01*
X199126450Y-63187685D01*
X199286410Y-63056410D01*
X199417685Y-62896450D01*
X199515232Y-62713954D01*
X199575300Y-62515934D01*
X199595583Y-62310000D01*
X200024417Y-62310000D01*
X200044699Y-62515932D01*
X200074734Y-62614944D01*
X200104768Y-62713954D01*
X200202315Y-62896450D01*
X200236969Y-62938677D01*
X200333589Y-63056410D01*
X200372169Y-63088071D01*
X200493550Y-63187685D01*
X200676046Y-63285232D01*
X200874066Y-63345300D01*
X200874065Y-63345300D01*
X200892529Y-63347118D01*
X201080000Y-63365583D01*
X201285934Y-63345300D01*
X201483954Y-63285232D01*
X201666450Y-63187685D01*
X201826410Y-63056410D01*
X201957685Y-62896450D01*
X202055232Y-62713954D01*
X202115300Y-62515934D01*
X202135583Y-62310000D01*
X202120809Y-62159999D01*
X202478972Y-62159999D01*
X202478973Y-62160000D01*
X203142935Y-62160000D01*
X203120000Y-62238111D01*
X203120000Y-62381889D01*
X203142935Y-62460000D01*
X202478973Y-62460000D01*
X202484738Y-62522218D01*
X202543058Y-62727196D01*
X202543066Y-62727216D01*
X202638059Y-62917989D01*
X202766500Y-63088071D01*
X202924000Y-63231651D01*
X202924002Y-63231653D01*
X203105201Y-63343846D01*
X203105207Y-63343849D01*
X203303936Y-63420836D01*
X203470000Y-63451879D01*
X203470000Y-62791170D01*
X203477685Y-62794680D01*
X203584237Y-62810000D01*
X203655763Y-62810000D01*
X203762315Y-62794680D01*
X203770000Y-62791170D01*
X203770000Y-63451879D01*
X203936063Y-63420836D01*
X204134792Y-63343849D01*
X204134798Y-63343846D01*
X204315997Y-63231653D01*
X204315999Y-63231651D01*
X204473499Y-63088071D01*
X204601940Y-62917989D01*
X204696933Y-62727216D01*
X204696941Y-62727196D01*
X204755261Y-62522218D01*
X204761027Y-62460000D01*
X204097065Y-62460000D01*
X204120000Y-62381889D01*
X204120000Y-62310000D01*
X205104417Y-62310000D01*
X205124699Y-62515932D01*
X205154734Y-62614944D01*
X205184768Y-62713954D01*
X205282315Y-62896450D01*
X205316969Y-62938677D01*
X205413589Y-63056410D01*
X205452169Y-63088071D01*
X205573550Y-63187685D01*
X205756046Y-63285232D01*
X205954066Y-63345300D01*
X205954065Y-63345300D01*
X205972529Y-63347118D01*
X206160000Y-63365583D01*
X206365934Y-63345300D01*
X206563954Y-63285232D01*
X206746450Y-63187685D01*
X206906410Y-63056410D01*
X207037685Y-62896450D01*
X207135232Y-62713954D01*
X207195300Y-62515934D01*
X207215583Y-62310000D01*
X207644417Y-62310000D01*
X207664699Y-62515932D01*
X207694734Y-62614944D01*
X207724768Y-62713954D01*
X207822315Y-62896450D01*
X207856969Y-62938677D01*
X207953589Y-63056410D01*
X207992169Y-63088071D01*
X208113550Y-63187685D01*
X208296046Y-63285232D01*
X208494066Y-63345300D01*
X208494065Y-63345300D01*
X208512529Y-63347118D01*
X208700000Y-63365583D01*
X208905934Y-63345300D01*
X209103954Y-63285232D01*
X209286450Y-63187685D01*
X209446410Y-63056410D01*
X209577685Y-62896450D01*
X209675232Y-62713954D01*
X209735300Y-62515934D01*
X209755583Y-62310000D01*
X209740809Y-62159999D01*
X210098972Y-62159999D01*
X210098973Y-62160000D01*
X210762935Y-62160000D01*
X210740000Y-62238111D01*
X210740000Y-62381889D01*
X210762935Y-62460000D01*
X210098973Y-62460000D01*
X210104738Y-62522218D01*
X210163058Y-62727196D01*
X210163066Y-62727216D01*
X210258059Y-62917989D01*
X210386500Y-63088071D01*
X210544000Y-63231651D01*
X210544002Y-63231653D01*
X210725201Y-63343846D01*
X210725207Y-63343849D01*
X210923936Y-63420836D01*
X211090000Y-63451879D01*
X211090000Y-62791170D01*
X211097685Y-62794680D01*
X211204237Y-62810000D01*
X211275763Y-62810000D01*
X211382315Y-62794680D01*
X211390000Y-62791170D01*
X211390000Y-63451879D01*
X211556063Y-63420836D01*
X211754792Y-63343849D01*
X211754798Y-63343846D01*
X211935997Y-63231653D01*
X211935999Y-63231651D01*
X212093499Y-63088071D01*
X212221940Y-62917989D01*
X212316933Y-62727216D01*
X212316941Y-62727196D01*
X212375261Y-62522218D01*
X212381027Y-62460000D01*
X211717065Y-62460000D01*
X211740000Y-62381889D01*
X211740000Y-62310000D01*
X212724417Y-62310000D01*
X212744699Y-62515932D01*
X212774734Y-62614944D01*
X212804768Y-62713954D01*
X212902315Y-62896450D01*
X212936969Y-62938677D01*
X213033589Y-63056410D01*
X213072169Y-63088071D01*
X213193550Y-63187685D01*
X213376046Y-63285232D01*
X213574066Y-63345300D01*
X213574065Y-63345300D01*
X213592529Y-63347118D01*
X213780000Y-63365583D01*
X213985934Y-63345300D01*
X214183954Y-63285232D01*
X214366450Y-63187685D01*
X214526410Y-63056410D01*
X214657685Y-62896450D01*
X214755232Y-62713954D01*
X214815300Y-62515934D01*
X214835583Y-62310000D01*
X215264417Y-62310000D01*
X215284699Y-62515932D01*
X215314734Y-62614944D01*
X215344768Y-62713954D01*
X215442315Y-62896450D01*
X215476969Y-62938677D01*
X215573589Y-63056410D01*
X215612169Y-63088071D01*
X215733550Y-63187685D01*
X215916046Y-63285232D01*
X216114066Y-63345300D01*
X216114065Y-63345300D01*
X216132529Y-63347118D01*
X216320000Y-63365583D01*
X216525934Y-63345300D01*
X216723954Y-63285232D01*
X216906450Y-63187685D01*
X217066410Y-63056410D01*
X217197685Y-62896450D01*
X217295232Y-62713954D01*
X217355300Y-62515934D01*
X217375583Y-62310000D01*
X217804417Y-62310000D01*
X217824699Y-62515932D01*
X217854734Y-62614944D01*
X217884768Y-62713954D01*
X217982315Y-62896450D01*
X218016969Y-62938677D01*
X218113589Y-63056410D01*
X218152169Y-63088071D01*
X218273550Y-63187685D01*
X218456046Y-63285232D01*
X218654066Y-63345300D01*
X218654065Y-63345300D01*
X218672529Y-63347118D01*
X218860000Y-63365583D01*
X219065934Y-63345300D01*
X219263954Y-63285232D01*
X219446450Y-63187685D01*
X219606410Y-63056410D01*
X219737685Y-62896450D01*
X219835232Y-62713954D01*
X219895300Y-62515934D01*
X219915583Y-62310000D01*
X220344417Y-62310000D01*
X220364699Y-62515932D01*
X220394734Y-62614944D01*
X220424768Y-62713954D01*
X220522315Y-62896450D01*
X220556969Y-62938677D01*
X220653589Y-63056410D01*
X220692169Y-63088071D01*
X220813550Y-63187685D01*
X220996046Y-63285232D01*
X221194066Y-63345300D01*
X221194065Y-63345300D01*
X221212529Y-63347118D01*
X221400000Y-63365583D01*
X221605934Y-63345300D01*
X221803954Y-63285232D01*
X221986450Y-63187685D01*
X222146410Y-63056410D01*
X222277685Y-62896450D01*
X222375232Y-62713954D01*
X222435300Y-62515934D01*
X222455583Y-62310000D01*
X222440809Y-62159999D01*
X222798972Y-62159999D01*
X222798973Y-62160000D01*
X223462935Y-62160000D01*
X223440000Y-62238111D01*
X223440000Y-62381889D01*
X223462935Y-62460000D01*
X222798973Y-62460000D01*
X222804738Y-62522218D01*
X222863058Y-62727196D01*
X222863066Y-62727216D01*
X222958059Y-62917989D01*
X223086500Y-63088071D01*
X223244000Y-63231651D01*
X223244002Y-63231653D01*
X223425201Y-63343846D01*
X223425207Y-63343849D01*
X223623936Y-63420836D01*
X223790000Y-63451879D01*
X223790000Y-62791170D01*
X223797685Y-62794680D01*
X223904237Y-62810000D01*
X223975763Y-62810000D01*
X224082315Y-62794680D01*
X224090000Y-62791170D01*
X224090000Y-63451879D01*
X224256063Y-63420836D01*
X224454792Y-63343849D01*
X224454798Y-63343846D01*
X224635997Y-63231653D01*
X224635999Y-63231651D01*
X224793499Y-63088071D01*
X224921940Y-62917989D01*
X225016933Y-62727216D01*
X225016941Y-62727196D01*
X225075261Y-62522218D01*
X225081027Y-62460000D01*
X224417065Y-62460000D01*
X224440000Y-62381889D01*
X224440000Y-62310000D01*
X225424417Y-62310000D01*
X225444699Y-62515932D01*
X225474734Y-62614944D01*
X225504768Y-62713954D01*
X225602315Y-62896450D01*
X225636969Y-62938677D01*
X225733589Y-63056410D01*
X225772169Y-63088071D01*
X225893550Y-63187685D01*
X226076046Y-63285232D01*
X226274066Y-63345300D01*
X226274065Y-63345300D01*
X226292529Y-63347118D01*
X226480000Y-63365583D01*
X226685934Y-63345300D01*
X226883954Y-63285232D01*
X227066450Y-63187685D01*
X227226410Y-63056410D01*
X227357685Y-62896450D01*
X227455232Y-62713954D01*
X227515300Y-62515934D01*
X227535583Y-62310000D01*
X227520809Y-62159999D01*
X227878972Y-62159999D01*
X227878973Y-62160000D01*
X228542935Y-62160000D01*
X228520000Y-62238111D01*
X228520000Y-62381889D01*
X228542935Y-62460000D01*
X227878973Y-62460000D01*
X227884738Y-62522218D01*
X227943058Y-62727196D01*
X227943066Y-62727216D01*
X228038059Y-62917989D01*
X228166500Y-63088071D01*
X228324000Y-63231651D01*
X228324002Y-63231653D01*
X228505201Y-63343846D01*
X228505207Y-63343849D01*
X228703936Y-63420836D01*
X228870000Y-63451879D01*
X228870000Y-62791170D01*
X228877685Y-62794680D01*
X228984237Y-62810000D01*
X229055763Y-62810000D01*
X229162315Y-62794680D01*
X229170000Y-62791170D01*
X229170000Y-63451879D01*
X229336063Y-63420836D01*
X229534792Y-63343849D01*
X229534798Y-63343846D01*
X229715997Y-63231653D01*
X229715999Y-63231651D01*
X229873499Y-63088071D01*
X230001940Y-62917989D01*
X230096933Y-62727216D01*
X230096941Y-62727196D01*
X230155261Y-62522218D01*
X230161027Y-62460000D01*
X229497065Y-62460000D01*
X229520000Y-62381889D01*
X229520000Y-62310000D01*
X230504417Y-62310000D01*
X230524699Y-62515932D01*
X230554734Y-62614944D01*
X230584768Y-62713954D01*
X230682315Y-62896450D01*
X230716969Y-62938677D01*
X230813589Y-63056410D01*
X230852169Y-63088071D01*
X230973550Y-63187685D01*
X231156046Y-63285232D01*
X231354066Y-63345300D01*
X231354065Y-63345300D01*
X231372529Y-63347118D01*
X231560000Y-63365583D01*
X231765934Y-63345300D01*
X231963954Y-63285232D01*
X232146450Y-63187685D01*
X232306410Y-63056410D01*
X232437685Y-62896450D01*
X232535232Y-62713954D01*
X232595300Y-62515934D01*
X232615583Y-62310000D01*
X233044417Y-62310000D01*
X233064699Y-62515932D01*
X233094734Y-62614944D01*
X233124768Y-62713954D01*
X233222315Y-62896450D01*
X233256969Y-62938677D01*
X233353589Y-63056410D01*
X233392169Y-63088071D01*
X233513550Y-63187685D01*
X233696046Y-63285232D01*
X233894066Y-63345300D01*
X233894065Y-63345300D01*
X233912529Y-63347118D01*
X234100000Y-63365583D01*
X234305934Y-63345300D01*
X234503954Y-63285232D01*
X234686450Y-63187685D01*
X234846410Y-63056410D01*
X234977685Y-62896450D01*
X235075232Y-62713954D01*
X235135300Y-62515934D01*
X235155583Y-62310000D01*
X235584417Y-62310000D01*
X235604699Y-62515932D01*
X235634734Y-62614944D01*
X235664768Y-62713954D01*
X235762315Y-62896450D01*
X235796969Y-62938677D01*
X235893589Y-63056410D01*
X235932169Y-63088071D01*
X236053550Y-63187685D01*
X236236046Y-63285232D01*
X236434066Y-63345300D01*
X236434065Y-63345300D01*
X236452529Y-63347118D01*
X236640000Y-63365583D01*
X236845934Y-63345300D01*
X237043954Y-63285232D01*
X237226450Y-63187685D01*
X237386410Y-63056410D01*
X237517685Y-62896450D01*
X237615232Y-62713954D01*
X237675300Y-62515934D01*
X237695583Y-62310000D01*
X237675300Y-62104066D01*
X237615232Y-61906046D01*
X237517685Y-61723550D01*
X237423582Y-61608884D01*
X237386410Y-61563589D01*
X237236121Y-61440252D01*
X237226450Y-61432315D01*
X237043954Y-61334768D01*
X236845934Y-61274700D01*
X236845932Y-61274699D01*
X236845934Y-61274699D01*
X236640000Y-61254417D01*
X236434067Y-61274699D01*
X236236043Y-61334769D01*
X236182165Y-61363568D01*
X236053550Y-61432315D01*
X236053548Y-61432316D01*
X236053547Y-61432317D01*
X235893589Y-61563589D01*
X235762317Y-61723547D01*
X235664769Y-61906043D01*
X235604699Y-62104067D01*
X235584417Y-62310000D01*
X235155583Y-62310000D01*
X235135300Y-62104066D01*
X235075232Y-61906046D01*
X234977685Y-61723550D01*
X234883582Y-61608884D01*
X234846410Y-61563589D01*
X234696121Y-61440252D01*
X234686450Y-61432315D01*
X234503954Y-61334768D01*
X234305934Y-61274700D01*
X234305932Y-61274699D01*
X234305934Y-61274699D01*
X234100000Y-61254417D01*
X233894067Y-61274699D01*
X233696043Y-61334769D01*
X233642165Y-61363568D01*
X233513550Y-61432315D01*
X233513548Y-61432316D01*
X233513547Y-61432317D01*
X233353589Y-61563589D01*
X233222317Y-61723547D01*
X233124769Y-61906043D01*
X233064699Y-62104067D01*
X233044417Y-62310000D01*
X232615583Y-62310000D01*
X232595300Y-62104066D01*
X232535232Y-61906046D01*
X232437685Y-61723550D01*
X232343582Y-61608884D01*
X232306410Y-61563589D01*
X232156121Y-61440252D01*
X232146450Y-61432315D01*
X231963954Y-61334768D01*
X231765934Y-61274700D01*
X231765932Y-61274699D01*
X231765934Y-61274699D01*
X231560000Y-61254417D01*
X231354067Y-61274699D01*
X231156043Y-61334769D01*
X231102165Y-61363568D01*
X230973550Y-61432315D01*
X230973548Y-61432316D01*
X230973547Y-61432317D01*
X230813589Y-61563589D01*
X230682317Y-61723547D01*
X230584769Y-61906043D01*
X230524699Y-62104067D01*
X230504417Y-62310000D01*
X229520000Y-62310000D01*
X229520000Y-62238111D01*
X229497065Y-62160000D01*
X230161027Y-62160000D01*
X230161027Y-62159999D01*
X230155261Y-62097781D01*
X230096941Y-61892803D01*
X230096933Y-61892783D01*
X230001940Y-61702010D01*
X229873499Y-61531928D01*
X229715999Y-61388348D01*
X229715997Y-61388346D01*
X229534798Y-61276153D01*
X229534789Y-61276149D01*
X229336060Y-61199162D01*
X229336061Y-61199162D01*
X229170000Y-61168119D01*
X229170000Y-61828829D01*
X229162315Y-61825320D01*
X229055763Y-61810000D01*
X228984237Y-61810000D01*
X228877685Y-61825320D01*
X228870000Y-61828829D01*
X228870000Y-61168119D01*
X228703939Y-61199162D01*
X228505210Y-61276149D01*
X228505201Y-61276153D01*
X228324002Y-61388346D01*
X228324000Y-61388348D01*
X228166500Y-61531928D01*
X228038059Y-61702010D01*
X227943066Y-61892783D01*
X227943058Y-61892803D01*
X227884738Y-62097781D01*
X227878972Y-62159999D01*
X227520809Y-62159999D01*
X227515300Y-62104066D01*
X227455232Y-61906046D01*
X227357685Y-61723550D01*
X227263582Y-61608884D01*
X227226410Y-61563589D01*
X227076121Y-61440252D01*
X227066450Y-61432315D01*
X226883954Y-61334768D01*
X226685934Y-61274700D01*
X226685932Y-61274699D01*
X226685934Y-61274699D01*
X226480000Y-61254417D01*
X226274067Y-61274699D01*
X226076043Y-61334769D01*
X226022165Y-61363568D01*
X225893550Y-61432315D01*
X225893548Y-61432316D01*
X225893547Y-61432317D01*
X225733589Y-61563589D01*
X225602317Y-61723547D01*
X225504769Y-61906043D01*
X225444699Y-62104067D01*
X225424417Y-62310000D01*
X224440000Y-62310000D01*
X224440000Y-62238111D01*
X224417065Y-62160000D01*
X225081027Y-62160000D01*
X225081027Y-62159999D01*
X225075261Y-62097781D01*
X225016941Y-61892803D01*
X225016933Y-61892783D01*
X224921940Y-61702010D01*
X224793499Y-61531928D01*
X224635999Y-61388348D01*
X224635997Y-61388346D01*
X224454798Y-61276153D01*
X224454789Y-61276149D01*
X224256060Y-61199162D01*
X224256061Y-61199162D01*
X224090000Y-61168119D01*
X224090000Y-61828829D01*
X224082315Y-61825320D01*
X223975763Y-61810000D01*
X223904237Y-61810000D01*
X223797685Y-61825320D01*
X223790000Y-61828829D01*
X223790000Y-61168119D01*
X223623939Y-61199162D01*
X223425210Y-61276149D01*
X223425201Y-61276153D01*
X223244002Y-61388346D01*
X223244000Y-61388348D01*
X223086500Y-61531928D01*
X222958059Y-61702010D01*
X222863066Y-61892783D01*
X222863058Y-61892803D01*
X222804738Y-62097781D01*
X222798972Y-62159999D01*
X222440809Y-62159999D01*
X222435300Y-62104066D01*
X222375232Y-61906046D01*
X222277685Y-61723550D01*
X222183582Y-61608884D01*
X222146410Y-61563589D01*
X221996121Y-61440252D01*
X221986450Y-61432315D01*
X221803954Y-61334768D01*
X221605934Y-61274700D01*
X221605932Y-61274699D01*
X221605934Y-61274699D01*
X221400000Y-61254417D01*
X221194067Y-61274699D01*
X220996043Y-61334769D01*
X220942165Y-61363568D01*
X220813550Y-61432315D01*
X220813548Y-61432316D01*
X220813547Y-61432317D01*
X220653589Y-61563589D01*
X220522317Y-61723547D01*
X220424769Y-61906043D01*
X220364699Y-62104067D01*
X220344417Y-62310000D01*
X219915583Y-62310000D01*
X219895300Y-62104066D01*
X219835232Y-61906046D01*
X219737685Y-61723550D01*
X219643582Y-61608884D01*
X219606410Y-61563589D01*
X219456121Y-61440252D01*
X219446450Y-61432315D01*
X219263954Y-61334768D01*
X219065934Y-61274700D01*
X219065932Y-61274699D01*
X219065934Y-61274699D01*
X218860000Y-61254417D01*
X218654067Y-61274699D01*
X218456043Y-61334769D01*
X218402165Y-61363568D01*
X218273550Y-61432315D01*
X218273548Y-61432316D01*
X218273547Y-61432317D01*
X218113589Y-61563589D01*
X217982317Y-61723547D01*
X217884769Y-61906043D01*
X217824699Y-62104067D01*
X217804417Y-62310000D01*
X217375583Y-62310000D01*
X217355300Y-62104066D01*
X217295232Y-61906046D01*
X217197685Y-61723550D01*
X217103582Y-61608884D01*
X217066410Y-61563589D01*
X216916121Y-61440252D01*
X216906450Y-61432315D01*
X216723954Y-61334768D01*
X216525934Y-61274700D01*
X216525932Y-61274699D01*
X216525934Y-61274699D01*
X216320000Y-61254417D01*
X216114067Y-61274699D01*
X215916043Y-61334769D01*
X215862165Y-61363568D01*
X215733550Y-61432315D01*
X215733548Y-61432316D01*
X215733547Y-61432317D01*
X215573589Y-61563589D01*
X215442317Y-61723547D01*
X215344769Y-61906043D01*
X215284699Y-62104067D01*
X215264417Y-62310000D01*
X214835583Y-62310000D01*
X214815300Y-62104066D01*
X214755232Y-61906046D01*
X214657685Y-61723550D01*
X214563582Y-61608884D01*
X214526410Y-61563589D01*
X214376121Y-61440252D01*
X214366450Y-61432315D01*
X214183954Y-61334768D01*
X213985934Y-61274700D01*
X213985932Y-61274699D01*
X213985934Y-61274699D01*
X213780000Y-61254417D01*
X213574067Y-61274699D01*
X213376043Y-61334769D01*
X213322165Y-61363568D01*
X213193550Y-61432315D01*
X213193548Y-61432316D01*
X213193547Y-61432317D01*
X213033589Y-61563589D01*
X212902317Y-61723547D01*
X212804769Y-61906043D01*
X212744699Y-62104067D01*
X212724417Y-62310000D01*
X211740000Y-62310000D01*
X211740000Y-62238111D01*
X211717065Y-62160000D01*
X212381027Y-62160000D01*
X212381027Y-62159999D01*
X212375261Y-62097781D01*
X212316941Y-61892803D01*
X212316933Y-61892783D01*
X212221940Y-61702010D01*
X212093499Y-61531928D01*
X211935999Y-61388348D01*
X211935997Y-61388346D01*
X211754798Y-61276153D01*
X211754789Y-61276149D01*
X211556060Y-61199162D01*
X211556061Y-61199162D01*
X211390000Y-61168119D01*
X211390000Y-61828829D01*
X211382315Y-61825320D01*
X211275763Y-61810000D01*
X211204237Y-61810000D01*
X211097685Y-61825320D01*
X211090000Y-61828829D01*
X211090000Y-61168119D01*
X210923939Y-61199162D01*
X210725210Y-61276149D01*
X210725201Y-61276153D01*
X210544002Y-61388346D01*
X210544000Y-61388348D01*
X210386500Y-61531928D01*
X210258059Y-61702010D01*
X210163066Y-61892783D01*
X210163058Y-61892803D01*
X210104738Y-62097781D01*
X210098972Y-62159999D01*
X209740809Y-62159999D01*
X209735300Y-62104066D01*
X209675232Y-61906046D01*
X209577685Y-61723550D01*
X209483582Y-61608884D01*
X209446410Y-61563589D01*
X209296121Y-61440252D01*
X209286450Y-61432315D01*
X209103954Y-61334768D01*
X208905934Y-61274700D01*
X208905932Y-61274699D01*
X208905934Y-61274699D01*
X208700000Y-61254417D01*
X208494067Y-61274699D01*
X208296043Y-61334769D01*
X208242165Y-61363568D01*
X208113550Y-61432315D01*
X208113548Y-61432316D01*
X208113547Y-61432317D01*
X207953589Y-61563589D01*
X207822317Y-61723547D01*
X207724769Y-61906043D01*
X207664699Y-62104067D01*
X207644417Y-62310000D01*
X207215583Y-62310000D01*
X207195300Y-62104066D01*
X207135232Y-61906046D01*
X207037685Y-61723550D01*
X206943582Y-61608884D01*
X206906410Y-61563589D01*
X206756121Y-61440252D01*
X206746450Y-61432315D01*
X206563954Y-61334768D01*
X206365934Y-61274700D01*
X206365932Y-61274699D01*
X206365934Y-61274699D01*
X206160000Y-61254417D01*
X205954067Y-61274699D01*
X205756043Y-61334769D01*
X205702165Y-61363568D01*
X205573550Y-61432315D01*
X205573548Y-61432316D01*
X205573547Y-61432317D01*
X205413589Y-61563589D01*
X205282317Y-61723547D01*
X205184769Y-61906043D01*
X205124699Y-62104067D01*
X205104417Y-62310000D01*
X204120000Y-62310000D01*
X204120000Y-62238111D01*
X204097065Y-62160000D01*
X204761027Y-62160000D01*
X204761027Y-62159999D01*
X204755261Y-62097781D01*
X204696941Y-61892803D01*
X204696933Y-61892783D01*
X204601940Y-61702010D01*
X204473499Y-61531928D01*
X204315999Y-61388348D01*
X204315997Y-61388346D01*
X204134798Y-61276153D01*
X204134789Y-61276149D01*
X203936060Y-61199162D01*
X203936061Y-61199162D01*
X203770000Y-61168119D01*
X203770000Y-61828829D01*
X203762315Y-61825320D01*
X203655763Y-61810000D01*
X203584237Y-61810000D01*
X203477685Y-61825320D01*
X203470000Y-61828829D01*
X203470000Y-61168119D01*
X203303939Y-61199162D01*
X203105210Y-61276149D01*
X203105201Y-61276153D01*
X202924002Y-61388346D01*
X202924000Y-61388348D01*
X202766500Y-61531928D01*
X202638059Y-61702010D01*
X202543066Y-61892783D01*
X202543058Y-61892803D01*
X202484738Y-62097781D01*
X202478972Y-62159999D01*
X202120809Y-62159999D01*
X202115300Y-62104066D01*
X202055232Y-61906046D01*
X201957685Y-61723550D01*
X201863582Y-61608884D01*
X201826410Y-61563589D01*
X201676121Y-61440252D01*
X201666450Y-61432315D01*
X201483954Y-61334768D01*
X201285934Y-61274700D01*
X201285932Y-61274699D01*
X201285934Y-61274699D01*
X201080000Y-61254417D01*
X200874067Y-61274699D01*
X200676043Y-61334769D01*
X200622165Y-61363568D01*
X200493550Y-61432315D01*
X200493548Y-61432316D01*
X200493547Y-61432317D01*
X200333589Y-61563589D01*
X200202317Y-61723547D01*
X200104769Y-61906043D01*
X200044699Y-62104067D01*
X200024417Y-62310000D01*
X199595583Y-62310000D01*
X199575300Y-62104066D01*
X199515232Y-61906046D01*
X199417685Y-61723550D01*
X199323582Y-61608884D01*
X199286410Y-61563589D01*
X199136121Y-61440252D01*
X199126450Y-61432315D01*
X198943954Y-61334768D01*
X198745934Y-61274700D01*
X198745932Y-61274699D01*
X198745934Y-61274699D01*
X198540000Y-61254417D01*
X198334067Y-61274699D01*
X198136043Y-61334769D01*
X198082165Y-61363568D01*
X197953550Y-61432315D01*
X197953548Y-61432316D01*
X197953547Y-61432317D01*
X197793589Y-61563589D01*
X197662317Y-61723547D01*
X197564769Y-61906043D01*
X197504699Y-62104067D01*
X197484417Y-62310000D01*
X197055583Y-62310000D01*
X197035300Y-62104066D01*
X196975232Y-61906046D01*
X196877685Y-61723550D01*
X196783582Y-61608884D01*
X196746410Y-61563589D01*
X196596121Y-61440252D01*
X196586450Y-61432315D01*
X196403954Y-61334768D01*
X196205934Y-61274700D01*
X196205932Y-61274699D01*
X196205934Y-61274699D01*
X196000000Y-61254417D01*
X195794067Y-61274699D01*
X195596043Y-61334769D01*
X195542165Y-61363568D01*
X195413550Y-61432315D01*
X195413548Y-61432316D01*
X195413547Y-61432317D01*
X195253589Y-61563589D01*
X195122317Y-61723547D01*
X195024769Y-61906043D01*
X194964699Y-62104067D01*
X194944417Y-62310000D01*
X193960000Y-62310000D01*
X193960000Y-62238111D01*
X193937065Y-62160000D01*
X194601027Y-62160000D01*
X194601027Y-62159999D01*
X194595261Y-62097781D01*
X194536941Y-61892803D01*
X194536933Y-61892783D01*
X194441940Y-61702010D01*
X194313499Y-61531928D01*
X194155999Y-61388348D01*
X194155997Y-61388346D01*
X193974798Y-61276153D01*
X193974789Y-61276149D01*
X193776060Y-61199162D01*
X193776061Y-61199162D01*
X193610000Y-61168119D01*
X193610000Y-61828829D01*
X193602315Y-61825320D01*
X193495763Y-61810000D01*
X193424237Y-61810000D01*
X193317685Y-61825320D01*
X193310000Y-61828829D01*
X193310000Y-61168119D01*
X193143939Y-61199162D01*
X192945210Y-61276149D01*
X192945201Y-61276153D01*
X192764002Y-61388346D01*
X192764000Y-61388348D01*
X192606500Y-61531928D01*
X192478059Y-61702010D01*
X192383066Y-61892783D01*
X192383058Y-61892803D01*
X192324738Y-62097781D01*
X192318972Y-62159999D01*
X191960809Y-62159999D01*
X191955300Y-62104066D01*
X191895232Y-61906046D01*
X191797685Y-61723550D01*
X191703582Y-61608884D01*
X191666410Y-61563589D01*
X191516121Y-61440252D01*
X191506450Y-61432315D01*
X191323954Y-61334768D01*
X191125934Y-61274700D01*
X191125932Y-61274699D01*
X191125934Y-61274699D01*
X190920000Y-61254417D01*
X190714067Y-61274699D01*
X190516043Y-61334769D01*
X190462165Y-61363568D01*
X190333550Y-61432315D01*
X190333548Y-61432316D01*
X190333547Y-61432317D01*
X190173589Y-61563589D01*
X190042317Y-61723547D01*
X189944769Y-61906043D01*
X189884699Y-62104067D01*
X189864417Y-62310000D01*
X189430500Y-62310000D01*
X189430500Y-61440249D01*
X189430499Y-61440247D01*
X189418868Y-61381770D01*
X189418867Y-61381769D01*
X189374552Y-61315447D01*
X189308230Y-61271132D01*
X189308229Y-61271131D01*
X189249752Y-61259500D01*
X189249748Y-61259500D01*
X187510252Y-61259500D01*
X187510247Y-61259500D01*
X187451770Y-61271131D01*
X187451769Y-61271132D01*
X187385447Y-61315447D01*
X187341132Y-61381769D01*
X187341131Y-61381770D01*
X187329500Y-61440247D01*
X187329500Y-63179752D01*
X185069094Y-63179752D01*
X185026873Y-63003889D01*
X184991292Y-62917989D01*
X184930466Y-62771140D01*
X184798839Y-62556346D01*
X184798838Y-62556343D01*
X184716553Y-62460000D01*
X184635224Y-62364776D01*
X184508571Y-62256604D01*
X184443656Y-62201161D01*
X184443653Y-62201160D01*
X184228859Y-62069533D01*
X183996110Y-61973126D01*
X183751150Y-61914317D01*
X183562884Y-61899500D01*
X183562882Y-61899500D01*
X183437118Y-61899500D01*
X183437116Y-61899500D01*
X183248849Y-61914317D01*
X183003889Y-61973126D01*
X182771140Y-62069533D01*
X182556346Y-62201160D01*
X182556343Y-62201161D01*
X182364776Y-62364776D01*
X182201161Y-62556343D01*
X182201160Y-62556346D01*
X182069533Y-62771140D01*
X181973126Y-63003889D01*
X181914317Y-63248848D01*
X181894551Y-63500000D01*
X180640000Y-63500000D01*
X180640000Y-61198547D01*
X180659685Y-61131508D01*
X180667626Y-61120521D01*
X180715659Y-61061204D01*
X180717532Y-61059004D01*
X180766593Y-61004106D01*
X180880839Y-60883262D01*
X180883244Y-60880856D01*
X181004106Y-60766593D01*
X181023545Y-60749221D01*
X181111994Y-60674531D01*
X181144149Y-60648492D01*
X181236403Y-60579065D01*
X181255589Y-60567195D01*
X181350841Y-60519668D01*
X181387144Y-60508098D01*
X181473486Y-60494670D01*
X181494049Y-60491473D01*
X181513103Y-60490000D01*
X264207948Y-60490000D01*
X264232131Y-60492381D01*
G37*
G04 #@! TD.AperFunction*
M02*
