G04 #@! TF.GenerationSoftware,KiCad,Pcbnew,7.0.8*
G04 #@! TF.CreationDate,2023-10-30T18:50:45+02:00*
G04 #@! TF.ProjectId,CubeSAT,43756265-5341-4542-9e6b-696361645f70,rev?*
G04 #@! TF.SameCoordinates,Original*
G04 #@! TF.FileFunction,Copper,L1,Top*
G04 #@! TF.FilePolarity,Positive*
%FSLAX46Y46*%
G04 Gerber Fmt 4.6, Leading zero omitted, Abs format (unit mm)*
G04 Created by KiCad (PCBNEW 7.0.8) date 2023-10-30 18:50:45*
%MOMM*%
%LPD*%
G01*
G04 APERTURE LIST*
G04 Aperture macros list*
%AMRoundRect*
0 Rectangle with rounded corners*
0 $1 Rounding radius*
0 $2 $3 $4 $5 $6 $7 $8 $9 X,Y pos of 4 corners*
0 Add a 4 corners polygon primitive as box body*
4,1,4,$2,$3,$4,$5,$6,$7,$8,$9,$2,$3,0*
0 Add four circle primitives for the rounded corners*
1,1,$1+$1,$2,$3*
1,1,$1+$1,$4,$5*
1,1,$1+$1,$6,$7*
1,1,$1+$1,$8,$9*
0 Add four rect primitives between the rounded corners*
20,1,$1+$1,$2,$3,$4,$5,0*
20,1,$1+$1,$4,$5,$6,$7,0*
20,1,$1+$1,$6,$7,$8,$9,0*
20,1,$1+$1,$8,$9,$2,$3,0*%
G04 Aperture macros list end*
G04 #@! TA.AperFunction,SMDPad,CuDef*
%ADD10RoundRect,0.200000X-0.200000X-0.275000X0.200000X-0.275000X0.200000X0.275000X-0.200000X0.275000X0*%
G04 #@! TD*
G04 #@! TA.AperFunction,ComponentPad*
%ADD11R,1.700000X1.700000*%
G04 #@! TD*
G04 #@! TA.AperFunction,ComponentPad*
%ADD12O,1.700000X1.700000*%
G04 #@! TD*
G04 #@! TA.AperFunction,SMDPad,CuDef*
%ADD13RoundRect,0.218750X-0.256250X0.218750X-0.256250X-0.218750X0.256250X-0.218750X0.256250X0.218750X0*%
G04 #@! TD*
G04 #@! TA.AperFunction,ViaPad*
%ADD14C,0.800000*%
G04 #@! TD*
G04 #@! TA.AperFunction,Conductor*
%ADD15C,0.500000*%
G04 #@! TD*
G04 #@! TA.AperFunction,Conductor*
%ADD16C,0.250000*%
G04 #@! TD*
G04 APERTURE END LIST*
D10*
X259400000Y-88390000D03*
X261050000Y-88390000D03*
D11*
X184500000Y-76575000D03*
D12*
X184500000Y-79115000D03*
X184500000Y-81655000D03*
X184500000Y-84195000D03*
X184500000Y-86735000D03*
X184500000Y-89275000D03*
X184500000Y-91815000D03*
X184500000Y-94355000D03*
X184500000Y-96895000D03*
X184500000Y-99435000D03*
D11*
X201060000Y-112300000D03*
D12*
X203600000Y-112300000D03*
X206140000Y-112300000D03*
X208680000Y-112300000D03*
X211220000Y-112300000D03*
X213760000Y-112300000D03*
D13*
X262740000Y-83622500D03*
X262740000Y-85197500D03*
D10*
X259450000Y-84380000D03*
X261100000Y-84380000D03*
D13*
X262735000Y-87602500D03*
X262735000Y-89177500D03*
D11*
X249360000Y-89610000D03*
D12*
X246820000Y-89610000D03*
X249360000Y-87070000D03*
X246820000Y-87070000D03*
X249360000Y-84530000D03*
X246820000Y-84530000D03*
X249360000Y-81990000D03*
X246820000Y-81990000D03*
X236640000Y-64850000D03*
X236640000Y-62310000D03*
X234100000Y-64850000D03*
X234100000Y-62310000D03*
X231560000Y-64850000D03*
X231560000Y-62310000D03*
X229020000Y-64850000D03*
X229020000Y-62310000D03*
X226480000Y-64850000D03*
X226480000Y-62310000D03*
X223940000Y-64850000D03*
X223940000Y-62310000D03*
X221400000Y-64850000D03*
X221400000Y-62310000D03*
X218860000Y-64850000D03*
X218860000Y-62310000D03*
X216320000Y-64850000D03*
X216320000Y-62310000D03*
X213780000Y-64850000D03*
X213780000Y-62310000D03*
X211240000Y-64850000D03*
X211240000Y-62310000D03*
X208700000Y-64850000D03*
X208700000Y-62310000D03*
X206160000Y-64850000D03*
X206160000Y-62310000D03*
X203620000Y-64850000D03*
X203620000Y-62310000D03*
X201080000Y-64850000D03*
X201080000Y-62310000D03*
X198540000Y-64850000D03*
X198540000Y-62310000D03*
X196000000Y-64850000D03*
X196000000Y-62310000D03*
X193460000Y-64850000D03*
X193460000Y-62310000D03*
X190920000Y-64850000D03*
X190920000Y-62310000D03*
X188380000Y-64850000D03*
D11*
X188380000Y-62310000D03*
D14*
X190740000Y-69970000D03*
X186375000Y-87340000D03*
D15*
X207550000Y-111170000D02*
X208680000Y-112300000D01*
X190680000Y-86620000D02*
X207550000Y-103490000D01*
X207550000Y-103490000D02*
X207550000Y-111170000D01*
X186925000Y-86620000D02*
X190680000Y-86620000D01*
X184500000Y-84195000D02*
X186925000Y-86620000D01*
X206850000Y-111590000D02*
X206140000Y-112300000D01*
X190390050Y-87320000D02*
X206850000Y-103779950D01*
X186375000Y-87345000D02*
X186400000Y-87320000D01*
X186400000Y-87320000D02*
X190390050Y-87320000D01*
X206850000Y-103779950D02*
X206850000Y-111590000D01*
X186035050Y-81655000D02*
X184500000Y-81655000D01*
X190740000Y-70520000D02*
X187540000Y-73720000D01*
X190740000Y-69970000D02*
X190740000Y-70520000D01*
X187540000Y-73720000D02*
X187540000Y-80150050D01*
X187540000Y-80150050D02*
X186035050Y-81655000D01*
X188240000Y-80440000D02*
X184500000Y-84180000D01*
X188240000Y-74140000D02*
X188240000Y-80440000D01*
X192190000Y-70190000D02*
X188240000Y-74140000D01*
X192190000Y-66120000D02*
X192190000Y-70190000D01*
X190920000Y-64850000D02*
X192190000Y-66120000D01*
D16*
X186375000Y-87340000D02*
X186375000Y-87345000D01*
X184500000Y-84180000D02*
X184500000Y-84195000D01*
X221332792Y-85360000D02*
X245990000Y-85360000D01*
X211240000Y-64850000D02*
X208780000Y-67310000D01*
X208780000Y-67310000D02*
X208780000Y-69183604D01*
X208780000Y-69183604D02*
X211240000Y-71643604D01*
X245990000Y-85360000D02*
X246820000Y-84530000D01*
X211240000Y-71643604D02*
X211240000Y-75267208D01*
X211240000Y-75267208D02*
X221332792Y-85360000D01*
X206160000Y-64850000D02*
X206160000Y-67200000D01*
X248100000Y-85810000D02*
X249360000Y-87070000D01*
X206160000Y-67200000D02*
X210790000Y-71830000D01*
X210790000Y-71830000D02*
X210790000Y-75453604D01*
X210790000Y-75453604D02*
X221146396Y-85810000D01*
X221146396Y-85810000D02*
X248100000Y-85810000D01*
X210340000Y-72016396D02*
X210340000Y-75640000D01*
X203650000Y-64880000D02*
X203650000Y-66600000D01*
X203620000Y-64850000D02*
X203650000Y-64880000D01*
X220960000Y-86260000D02*
X246010000Y-86260000D01*
X203650000Y-66600000D02*
X204680000Y-67630000D01*
X210340000Y-75640000D02*
X220960000Y-86260000D01*
X204680000Y-67630000D02*
X205953604Y-67630000D01*
X205953604Y-67630000D02*
X210340000Y-72016396D01*
X246010000Y-86260000D02*
X246820000Y-87070000D01*
X211235000Y-62160000D02*
X210670000Y-62160000D01*
D15*
X246610000Y-79240000D02*
X249360000Y-81990000D01*
X216940000Y-69300000D02*
X218790000Y-69300000D01*
X213780000Y-64645000D02*
X213780000Y-66140000D01*
X213780000Y-66140000D02*
X216940000Y-69300000D01*
X228730000Y-79240000D02*
X246610000Y-79240000D01*
X218790000Y-69300000D02*
X228730000Y-79240000D01*
X229019950Y-78540000D02*
X249750000Y-78540000D01*
X249750000Y-78540000D02*
X251110000Y-79900000D01*
X219079950Y-68600000D02*
X229019950Y-78540000D01*
X216320000Y-64645000D02*
X216320000Y-67690050D01*
X251110000Y-79900000D02*
X251110000Y-82730000D01*
X217229950Y-68600000D02*
X219079950Y-68600000D01*
X251110000Y-82730000D02*
X249360000Y-84480000D01*
X249360000Y-84480000D02*
X249360000Y-84530000D01*
X216320000Y-67690050D02*
X217229950Y-68600000D01*
X261922500Y-84380000D02*
X262740000Y-85197500D01*
X261100000Y-84380000D02*
X261922500Y-84380000D01*
X261947500Y-88390000D02*
X262735000Y-89177500D01*
X261050000Y-88390000D02*
X261947500Y-88390000D01*
X247510000Y-68730000D02*
X257420000Y-78640000D01*
X230360000Y-68730000D02*
X247510000Y-68730000D01*
X259400000Y-87660000D02*
X259400000Y-88390000D01*
X257420000Y-78640000D02*
X257420000Y-85680000D01*
X226480000Y-64850000D02*
X230360000Y-68730000D01*
X257420000Y-85680000D02*
X259400000Y-87660000D01*
X258120000Y-83050000D02*
X259450000Y-84380000D01*
X247799950Y-68030000D02*
X258120000Y-78350050D01*
X230770000Y-68030000D02*
X247799950Y-68030000D01*
X229020000Y-64850000D02*
X229020000Y-66280000D01*
X229020000Y-66280000D02*
X230770000Y-68030000D01*
X258120000Y-78350050D02*
X258120000Y-83050000D01*
X234095000Y-64700000D02*
X234095000Y-64705000D01*
G04 #@! TA.AperFunction,Conductor*
G36*
X264232131Y-60492381D02*
G01*
X264280099Y-60501922D01*
X264324791Y-60520433D01*
X264355104Y-60540688D01*
X264389311Y-60574895D01*
X264409564Y-60605205D01*
X264428078Y-60649904D01*
X264437617Y-60697860D01*
X264440000Y-60722051D01*
X264440000Y-115292088D01*
X264437617Y-115316280D01*
X264430676Y-115351173D01*
X264412160Y-115395874D01*
X264399311Y-115415103D01*
X264365103Y-115449311D01*
X264345874Y-115462160D01*
X264301173Y-115480676D01*
X264266279Y-115487617D01*
X264242089Y-115490000D01*
X181467634Y-115490000D01*
X181448580Y-115488527D01*
X181442455Y-115487574D01*
X181358141Y-115474462D01*
X181321836Y-115462891D01*
X181241500Y-115422805D01*
X181222305Y-115410931D01*
X181154733Y-115360078D01*
X181093703Y-115310656D01*
X181036429Y-115262293D01*
X181004106Y-115233406D01*
X180883290Y-115119186D01*
X180880830Y-115116727D01*
X180766594Y-114995895D01*
X180717560Y-114941027D01*
X180715642Y-114938773D01*
X180667632Y-114879485D01*
X180640742Y-114815000D01*
X180640000Y-114801453D01*
X180640000Y-112500000D01*
X181894551Y-112500000D01*
X181914317Y-112751151D01*
X181973126Y-112996110D01*
X182069533Y-113228859D01*
X182201160Y-113443653D01*
X182201161Y-113443656D01*
X182256604Y-113508571D01*
X182364776Y-113635224D01*
X182513066Y-113761875D01*
X182556343Y-113798838D01*
X182556346Y-113798839D01*
X182771140Y-113930466D01*
X183003889Y-114026873D01*
X183248852Y-114085683D01*
X183404950Y-114097968D01*
X183437116Y-114100500D01*
X183437118Y-114100500D01*
X183562884Y-114100500D01*
X183592518Y-114098167D01*
X183751148Y-114085683D01*
X183996111Y-114026873D01*
X184228859Y-113930466D01*
X184443659Y-113798836D01*
X184635224Y-113635224D01*
X184798836Y-113443659D01*
X184930466Y-113228859D01*
X184954949Y-113169752D01*
X200009500Y-113169752D01*
X200021131Y-113228229D01*
X200021132Y-113228230D01*
X200065447Y-113294552D01*
X200131769Y-113338867D01*
X200131770Y-113338868D01*
X200190247Y-113350499D01*
X200190250Y-113350500D01*
X200190252Y-113350500D01*
X201929750Y-113350500D01*
X201929751Y-113350499D01*
X201944568Y-113347552D01*
X201988229Y-113338868D01*
X201988229Y-113338867D01*
X201988231Y-113338867D01*
X202054552Y-113294552D01*
X202098867Y-113228231D01*
X202098867Y-113228229D01*
X202098868Y-113228229D01*
X202110499Y-113169752D01*
X202110500Y-113169750D01*
X202110500Y-112149999D01*
X202458972Y-112149999D01*
X202458973Y-112150000D01*
X203122935Y-112150000D01*
X203100000Y-112228111D01*
X203100000Y-112371889D01*
X203122935Y-112450000D01*
X202458973Y-112450000D01*
X202464738Y-112512218D01*
X202523058Y-112717196D01*
X202523066Y-112717216D01*
X202618059Y-112907989D01*
X202746500Y-113078071D01*
X202904000Y-113221651D01*
X202904002Y-113221653D01*
X203085201Y-113333846D01*
X203085207Y-113333849D01*
X203283936Y-113410836D01*
X203450000Y-113441879D01*
X203450000Y-112781170D01*
X203457685Y-112784680D01*
X203564237Y-112800000D01*
X203635763Y-112800000D01*
X203742315Y-112784680D01*
X203750000Y-112781170D01*
X203750000Y-113441879D01*
X203916063Y-113410836D01*
X204114792Y-113333849D01*
X204114798Y-113333846D01*
X204295997Y-113221653D01*
X204295999Y-113221651D01*
X204453499Y-113078071D01*
X204581940Y-112907989D01*
X204676933Y-112717216D01*
X204676941Y-112717196D01*
X204735261Y-112512218D01*
X204741027Y-112450000D01*
X204077065Y-112450000D01*
X204100000Y-112371889D01*
X204100000Y-112228111D01*
X204077065Y-112150000D01*
X204741027Y-112150000D01*
X204741027Y-112149999D01*
X204735261Y-112087781D01*
X204676941Y-111882803D01*
X204676933Y-111882783D01*
X204581940Y-111692010D01*
X204453499Y-111521928D01*
X204295999Y-111378348D01*
X204295997Y-111378346D01*
X204114798Y-111266153D01*
X204114789Y-111266149D01*
X203916060Y-111189162D01*
X203916061Y-111189162D01*
X203750000Y-111158119D01*
X203750000Y-111818829D01*
X203742315Y-111815320D01*
X203635763Y-111800000D01*
X203564237Y-111800000D01*
X203457685Y-111815320D01*
X203450000Y-111818829D01*
X203450000Y-111158119D01*
X203283939Y-111189162D01*
X203085210Y-111266149D01*
X203085201Y-111266153D01*
X202904002Y-111378346D01*
X202904000Y-111378348D01*
X202746500Y-111521928D01*
X202618059Y-111692010D01*
X202523066Y-111882783D01*
X202523058Y-111882803D01*
X202464738Y-112087781D01*
X202458972Y-112149999D01*
X202110500Y-112149999D01*
X202110500Y-111430249D01*
X202110499Y-111430247D01*
X202098868Y-111371770D01*
X202098867Y-111371769D01*
X202054552Y-111305447D01*
X201988230Y-111261132D01*
X201988229Y-111261131D01*
X201929752Y-111249500D01*
X201929748Y-111249500D01*
X200190252Y-111249500D01*
X200190247Y-111249500D01*
X200131770Y-111261131D01*
X200131769Y-111261132D01*
X200065447Y-111305447D01*
X200021132Y-111371769D01*
X200021131Y-111371770D01*
X200009500Y-111430247D01*
X200009500Y-113169752D01*
X184954949Y-113169752D01*
X185026873Y-112996111D01*
X185085683Y-112751148D01*
X185105449Y-112500000D01*
X185085683Y-112248852D01*
X185026873Y-112003889D01*
X184994794Y-111926442D01*
X184930466Y-111771140D01*
X184798839Y-111556346D01*
X184798838Y-111556343D01*
X184761875Y-111513066D01*
X184635224Y-111364776D01*
X184494302Y-111244417D01*
X184443656Y-111201161D01*
X184443653Y-111201160D01*
X184228859Y-111069533D01*
X183996110Y-110973126D01*
X183751150Y-110914317D01*
X183562884Y-110899500D01*
X183562882Y-110899500D01*
X183437118Y-110899500D01*
X183437116Y-110899500D01*
X183248849Y-110914317D01*
X183003889Y-110973126D01*
X182771140Y-111069533D01*
X182556346Y-111201160D01*
X182556343Y-111201161D01*
X182364776Y-111364776D01*
X182201161Y-111556343D01*
X182201160Y-111556346D01*
X182069533Y-111771140D01*
X181973126Y-112003889D01*
X181914317Y-112248848D01*
X181894551Y-112500000D01*
X180640000Y-112500000D01*
X180640000Y-99435000D01*
X183444417Y-99435000D01*
X183464699Y-99640932D01*
X183464700Y-99640934D01*
X183524768Y-99838954D01*
X183622315Y-100021450D01*
X183622317Y-100021452D01*
X183753589Y-100181410D01*
X183850209Y-100260702D01*
X183913550Y-100312685D01*
X184096046Y-100410232D01*
X184294066Y-100470300D01*
X184294065Y-100470300D01*
X184312529Y-100472118D01*
X184500000Y-100490583D01*
X184705934Y-100470300D01*
X184903954Y-100410232D01*
X185086450Y-100312685D01*
X185246410Y-100181410D01*
X185377685Y-100021450D01*
X185475232Y-99838954D01*
X185535300Y-99640934D01*
X185555583Y-99435000D01*
X185535300Y-99229066D01*
X185475232Y-99031046D01*
X185377685Y-98848550D01*
X185325702Y-98785209D01*
X185246410Y-98688589D01*
X185086452Y-98557317D01*
X185086453Y-98557317D01*
X185086450Y-98557315D01*
X184903954Y-98459768D01*
X184705934Y-98399700D01*
X184705932Y-98399699D01*
X184705934Y-98399699D01*
X184500000Y-98379417D01*
X184294067Y-98399699D01*
X184096043Y-98459769D01*
X183985898Y-98518643D01*
X183913550Y-98557315D01*
X183913548Y-98557316D01*
X183913547Y-98557317D01*
X183753589Y-98688589D01*
X183622317Y-98848547D01*
X183524769Y-99031043D01*
X183464699Y-99229067D01*
X183444417Y-99435000D01*
X180640000Y-99435000D01*
X180640000Y-96895000D01*
X183444417Y-96895000D01*
X183464699Y-97100932D01*
X183464700Y-97100934D01*
X183524768Y-97298954D01*
X183622315Y-97481450D01*
X183622317Y-97481452D01*
X183753589Y-97641410D01*
X183850209Y-97720702D01*
X183913550Y-97772685D01*
X184096046Y-97870232D01*
X184294066Y-97930300D01*
X184294065Y-97930300D01*
X184312529Y-97932118D01*
X184500000Y-97950583D01*
X184705934Y-97930300D01*
X184903954Y-97870232D01*
X185086450Y-97772685D01*
X185246410Y-97641410D01*
X185377685Y-97481450D01*
X185475232Y-97298954D01*
X185535300Y-97100934D01*
X185555583Y-96895000D01*
X185535300Y-96689066D01*
X185475232Y-96491046D01*
X185377685Y-96308550D01*
X185325702Y-96245209D01*
X185246410Y-96148589D01*
X185086452Y-96017317D01*
X185086453Y-96017317D01*
X185086450Y-96017315D01*
X184903954Y-95919768D01*
X184705934Y-95859700D01*
X184705932Y-95859699D01*
X184705934Y-95859699D01*
X184500000Y-95839417D01*
X184294067Y-95859699D01*
X184096043Y-95919769D01*
X183985898Y-95978643D01*
X183913550Y-96017315D01*
X183913548Y-96017316D01*
X183913547Y-96017317D01*
X183753589Y-96148589D01*
X183622317Y-96308547D01*
X183524769Y-96491043D01*
X183464699Y-96689067D01*
X183444417Y-96895000D01*
X180640000Y-96895000D01*
X180640000Y-94355000D01*
X183444417Y-94355000D01*
X183464699Y-94560932D01*
X183464700Y-94560934D01*
X183524768Y-94758954D01*
X183622315Y-94941450D01*
X183622317Y-94941452D01*
X183753589Y-95101410D01*
X183850209Y-95180702D01*
X183913550Y-95232685D01*
X184096046Y-95330232D01*
X184294066Y-95390300D01*
X184294065Y-95390300D01*
X184312529Y-95392118D01*
X184500000Y-95410583D01*
X184705934Y-95390300D01*
X184903954Y-95330232D01*
X185086450Y-95232685D01*
X185246410Y-95101410D01*
X185377685Y-94941450D01*
X185475232Y-94758954D01*
X185535300Y-94560934D01*
X185555583Y-94355000D01*
X185535300Y-94149066D01*
X185475232Y-93951046D01*
X185377685Y-93768550D01*
X185325702Y-93705209D01*
X185246410Y-93608589D01*
X185086452Y-93477317D01*
X185086453Y-93477317D01*
X185086450Y-93477315D01*
X184903954Y-93379768D01*
X184705934Y-93319700D01*
X184705932Y-93319699D01*
X184705934Y-93319699D01*
X184500000Y-93299417D01*
X184294067Y-93319699D01*
X184096043Y-93379769D01*
X183985898Y-93438643D01*
X183913550Y-93477315D01*
X183913548Y-93477316D01*
X183913547Y-93477317D01*
X183753589Y-93608589D01*
X183622317Y-93768547D01*
X183524769Y-93951043D01*
X183464699Y-94149067D01*
X183444417Y-94355000D01*
X180640000Y-94355000D01*
X180640000Y-91815000D01*
X183444417Y-91815000D01*
X183464699Y-92020932D01*
X183464700Y-92020934D01*
X183524768Y-92218954D01*
X183622315Y-92401450D01*
X183622317Y-92401452D01*
X183753589Y-92561410D01*
X183850209Y-92640702D01*
X183913550Y-92692685D01*
X184096046Y-92790232D01*
X184294066Y-92850300D01*
X184294065Y-92850300D01*
X184312529Y-92852118D01*
X184500000Y-92870583D01*
X184705934Y-92850300D01*
X184903954Y-92790232D01*
X185086450Y-92692685D01*
X185246410Y-92561410D01*
X185377685Y-92401450D01*
X185475232Y-92218954D01*
X185535300Y-92020934D01*
X185555583Y-91815000D01*
X185535300Y-91609066D01*
X185475232Y-91411046D01*
X185377685Y-91228550D01*
X185325702Y-91165209D01*
X185246410Y-91068589D01*
X185086452Y-90937317D01*
X185086453Y-90937317D01*
X185086450Y-90937315D01*
X184903954Y-90839768D01*
X184705934Y-90779700D01*
X184705932Y-90779699D01*
X184705934Y-90779699D01*
X184500000Y-90759417D01*
X184294067Y-90779699D01*
X184096043Y-90839769D01*
X183985898Y-90898643D01*
X183913550Y-90937315D01*
X183913548Y-90937316D01*
X183913547Y-90937317D01*
X183753589Y-91068589D01*
X183622317Y-91228547D01*
X183524769Y-91411043D01*
X183464699Y-91609067D01*
X183444417Y-91815000D01*
X180640000Y-91815000D01*
X180640000Y-89275000D01*
X183444417Y-89275000D01*
X183464699Y-89480932D01*
X183464700Y-89480934D01*
X183524768Y-89678954D01*
X183622315Y-89861450D01*
X183622317Y-89861452D01*
X183753589Y-90021410D01*
X183842870Y-90094680D01*
X183913550Y-90152685D01*
X184096046Y-90250232D01*
X184294066Y-90310300D01*
X184294065Y-90310300D01*
X184312529Y-90312118D01*
X184500000Y-90330583D01*
X184705934Y-90310300D01*
X184903954Y-90250232D01*
X185086450Y-90152685D01*
X185246410Y-90021410D01*
X185377685Y-89861450D01*
X185475232Y-89678954D01*
X185535300Y-89480934D01*
X185555583Y-89275000D01*
X185535300Y-89069066D01*
X185475232Y-88871046D01*
X185377685Y-88688550D01*
X185317603Y-88615339D01*
X185246410Y-88528589D01*
X185086452Y-88397317D01*
X185086453Y-88397317D01*
X185086450Y-88397315D01*
X184903954Y-88299768D01*
X184705934Y-88239700D01*
X184705932Y-88239699D01*
X184705934Y-88239699D01*
X184500000Y-88219417D01*
X184294067Y-88239699D01*
X184096043Y-88299769D01*
X184047630Y-88325647D01*
X183913550Y-88397315D01*
X183913548Y-88397316D01*
X183913547Y-88397317D01*
X183753589Y-88528589D01*
X183622317Y-88688547D01*
X183622315Y-88688550D01*
X183608063Y-88715214D01*
X183524769Y-88871043D01*
X183464699Y-89069067D01*
X183444417Y-89275000D01*
X180640000Y-89275000D01*
X180640000Y-86735000D01*
X183444417Y-86735000D01*
X183464699Y-86940932D01*
X183464700Y-86940934D01*
X183524768Y-87138954D01*
X183622315Y-87321450D01*
X183656969Y-87363677D01*
X183753589Y-87481410D01*
X183850209Y-87560702D01*
X183913550Y-87612685D01*
X184096046Y-87710232D01*
X184294066Y-87770300D01*
X184294065Y-87770300D01*
X184300462Y-87770930D01*
X184500000Y-87790583D01*
X184705934Y-87770300D01*
X184903954Y-87710232D01*
X185086450Y-87612685D01*
X185246410Y-87481410D01*
X185377685Y-87321450D01*
X185475232Y-87138954D01*
X185535300Y-86940934D01*
X185555583Y-86735000D01*
X185535300Y-86529066D01*
X185475232Y-86331046D01*
X185377685Y-86148550D01*
X185325702Y-86085209D01*
X185246410Y-85988589D01*
X185086452Y-85857317D01*
X185086453Y-85857317D01*
X185086450Y-85857315D01*
X184903954Y-85759768D01*
X184705934Y-85699700D01*
X184705932Y-85699699D01*
X184705934Y-85699699D01*
X184500000Y-85679417D01*
X184294067Y-85699699D01*
X184118692Y-85752898D01*
X184096416Y-85759656D01*
X184096043Y-85759769D01*
X183994049Y-85814287D01*
X183913550Y-85857315D01*
X183913548Y-85857316D01*
X183913547Y-85857317D01*
X183753589Y-85988589D01*
X183622317Y-86148547D01*
X183622315Y-86148550D01*
X183599095Y-86191992D01*
X183524769Y-86331043D01*
X183464699Y-86529067D01*
X183444417Y-86735000D01*
X180640000Y-86735000D01*
X180640000Y-84195000D01*
X183444417Y-84195000D01*
X183464699Y-84400932D01*
X183464700Y-84400934D01*
X183524768Y-84598954D01*
X183622315Y-84781450D01*
X183622317Y-84781452D01*
X183753589Y-84941410D01*
X183822766Y-84998181D01*
X183913550Y-85072685D01*
X184096046Y-85170232D01*
X184294066Y-85230300D01*
X184294065Y-85230300D01*
X184312529Y-85232118D01*
X184500000Y-85250583D01*
X184705934Y-85230300D01*
X184782325Y-85207127D01*
X184852192Y-85206503D01*
X184906002Y-85238106D01*
X185618438Y-85950542D01*
X186231698Y-86563801D01*
X186265183Y-86625124D01*
X186260199Y-86694816D01*
X186218327Y-86750749D01*
X186191470Y-86766043D01*
X186072160Y-86815463D01*
X185946718Y-86911718D01*
X185850463Y-87037160D01*
X185789956Y-87183237D01*
X185789955Y-87183239D01*
X185769318Y-87339998D01*
X185769318Y-87340001D01*
X185789955Y-87496760D01*
X185789956Y-87496762D01*
X185850464Y-87642841D01*
X185946718Y-87768282D01*
X186072159Y-87864536D01*
X186218238Y-87925044D01*
X186296619Y-87935363D01*
X186374999Y-87945682D01*
X186375000Y-87945682D01*
X186375001Y-87945682D01*
X186438850Y-87937276D01*
X186531762Y-87925044D01*
X186677836Y-87864538D01*
X186677837Y-87864538D01*
X186677837Y-87864537D01*
X186677841Y-87864536D01*
X186766998Y-87796123D01*
X186832166Y-87770930D01*
X186842483Y-87770500D01*
X190152084Y-87770500D01*
X190219123Y-87790185D01*
X190239765Y-87806819D01*
X206363181Y-103930234D01*
X206396666Y-103991557D01*
X206399500Y-104017915D01*
X206399500Y-111133162D01*
X206379815Y-111200201D01*
X206327011Y-111245956D01*
X206263346Y-111256565D01*
X206140000Y-111244417D01*
X205934067Y-111264699D01*
X205736043Y-111324769D01*
X205661197Y-111364776D01*
X205553550Y-111422315D01*
X205553548Y-111422316D01*
X205553547Y-111422317D01*
X205393589Y-111553589D01*
X205262317Y-111713547D01*
X205262315Y-111713550D01*
X205253083Y-111730822D01*
X205164769Y-111896043D01*
X205104699Y-112094067D01*
X205084417Y-112300000D01*
X205104699Y-112505932D01*
X205104700Y-112505934D01*
X205164768Y-112703954D01*
X205262315Y-112886450D01*
X205296969Y-112928677D01*
X205393589Y-113046410D01*
X205432169Y-113078071D01*
X205553550Y-113177685D01*
X205736046Y-113275232D01*
X205934066Y-113335300D01*
X205934065Y-113335300D01*
X205952529Y-113337118D01*
X206140000Y-113355583D01*
X206345934Y-113335300D01*
X206543954Y-113275232D01*
X206726450Y-113177685D01*
X206886410Y-113046410D01*
X207017685Y-112886450D01*
X207115232Y-112703954D01*
X207175300Y-112505934D01*
X207195583Y-112300000D01*
X207175300Y-112094066D01*
X207153712Y-112022902D01*
X207153090Y-111953036D01*
X207181477Y-111902565D01*
X207183962Y-111899884D01*
X207183970Y-111899879D01*
X207217480Y-111850728D01*
X207252793Y-111802882D01*
X207252794Y-111802879D01*
X207256787Y-111795324D01*
X207260469Y-111787678D01*
X207260469Y-111787676D01*
X207260472Y-111787673D01*
X207263486Y-111777898D01*
X207302050Y-111719641D01*
X207365993Y-111691479D01*
X207435010Y-111702357D01*
X207469659Y-111726763D01*
X207636893Y-111893997D01*
X207670378Y-111955320D01*
X207667873Y-112017672D01*
X207644699Y-112094066D01*
X207624417Y-112300000D01*
X207644699Y-112505932D01*
X207644700Y-112505934D01*
X207704768Y-112703954D01*
X207802315Y-112886450D01*
X207836969Y-112928677D01*
X207933589Y-113046410D01*
X207972169Y-113078071D01*
X208093550Y-113177685D01*
X208276046Y-113275232D01*
X208474066Y-113335300D01*
X208474065Y-113335300D01*
X208492529Y-113337118D01*
X208680000Y-113355583D01*
X208885934Y-113335300D01*
X209083954Y-113275232D01*
X209266450Y-113177685D01*
X209426410Y-113046410D01*
X209557685Y-112886450D01*
X209655232Y-112703954D01*
X209715300Y-112505934D01*
X209735583Y-112300000D01*
X210164417Y-112300000D01*
X210184699Y-112505932D01*
X210184700Y-112505934D01*
X210244768Y-112703954D01*
X210342315Y-112886450D01*
X210376969Y-112928677D01*
X210473589Y-113046410D01*
X210512169Y-113078071D01*
X210633550Y-113177685D01*
X210816046Y-113275232D01*
X211014066Y-113335300D01*
X211014065Y-113335300D01*
X211032529Y-113337118D01*
X211220000Y-113355583D01*
X211425934Y-113335300D01*
X211623954Y-113275232D01*
X211806450Y-113177685D01*
X211966410Y-113046410D01*
X212097685Y-112886450D01*
X212195232Y-112703954D01*
X212255300Y-112505934D01*
X212275583Y-112300000D01*
X212704417Y-112300000D01*
X212724699Y-112505932D01*
X212724700Y-112505934D01*
X212784768Y-112703954D01*
X212882315Y-112886450D01*
X212916969Y-112928677D01*
X213013589Y-113046410D01*
X213052169Y-113078071D01*
X213173550Y-113177685D01*
X213356046Y-113275232D01*
X213554066Y-113335300D01*
X213554065Y-113335300D01*
X213572529Y-113337118D01*
X213760000Y-113355583D01*
X213965934Y-113335300D01*
X214163954Y-113275232D01*
X214346450Y-113177685D01*
X214506410Y-113046410D01*
X214637685Y-112886450D01*
X214735232Y-112703954D01*
X214795300Y-112505934D01*
X214795884Y-112500000D01*
X239894551Y-112500000D01*
X239914317Y-112751151D01*
X239973126Y-112996110D01*
X240069533Y-113228859D01*
X240201160Y-113443653D01*
X240201161Y-113443656D01*
X240256604Y-113508571D01*
X240364776Y-113635224D01*
X240513066Y-113761875D01*
X240556343Y-113798838D01*
X240556346Y-113798839D01*
X240771140Y-113930466D01*
X241003889Y-114026873D01*
X241248852Y-114085683D01*
X241404950Y-114097968D01*
X241437116Y-114100500D01*
X241437118Y-114100500D01*
X241562884Y-114100500D01*
X241592518Y-114098167D01*
X241751148Y-114085683D01*
X241996111Y-114026873D01*
X242228859Y-113930466D01*
X242443659Y-113798836D01*
X242635224Y-113635224D01*
X242798836Y-113443659D01*
X242930466Y-113228859D01*
X243026873Y-112996111D01*
X243085683Y-112751148D01*
X243105449Y-112500000D01*
X243085683Y-112248852D01*
X243026873Y-112003889D01*
X242994794Y-111926442D01*
X242930466Y-111771140D01*
X242798839Y-111556346D01*
X242798838Y-111556343D01*
X242761875Y-111513066D01*
X242635224Y-111364776D01*
X242494302Y-111244417D01*
X242443656Y-111201161D01*
X242443653Y-111201160D01*
X242228859Y-111069533D01*
X241996110Y-110973126D01*
X241751150Y-110914317D01*
X241562884Y-110899500D01*
X241562882Y-110899500D01*
X241437118Y-110899500D01*
X241437116Y-110899500D01*
X241248849Y-110914317D01*
X241003889Y-110973126D01*
X240771140Y-111069533D01*
X240556346Y-111201160D01*
X240556343Y-111201161D01*
X240364776Y-111364776D01*
X240201161Y-111556343D01*
X240201160Y-111556346D01*
X240069533Y-111771140D01*
X239973126Y-112003889D01*
X239914317Y-112248848D01*
X239894551Y-112500000D01*
X214795884Y-112500000D01*
X214815583Y-112300000D01*
X214795300Y-112094066D01*
X214735232Y-111896046D01*
X214637685Y-111713550D01*
X214543218Y-111598441D01*
X214506410Y-111553589D01*
X214356121Y-111430252D01*
X214346450Y-111422315D01*
X214163954Y-111324768D01*
X213965934Y-111264700D01*
X213965932Y-111264699D01*
X213965934Y-111264699D01*
X213760000Y-111244417D01*
X213554067Y-111264699D01*
X213356043Y-111324769D01*
X213281197Y-111364776D01*
X213173550Y-111422315D01*
X213173548Y-111422316D01*
X213173547Y-111422317D01*
X213013589Y-111553589D01*
X212882317Y-111713547D01*
X212882315Y-111713550D01*
X212873083Y-111730822D01*
X212784769Y-111896043D01*
X212724699Y-112094067D01*
X212704417Y-112300000D01*
X212275583Y-112300000D01*
X212255300Y-112094066D01*
X212195232Y-111896046D01*
X212097685Y-111713550D01*
X212003218Y-111598441D01*
X211966410Y-111553589D01*
X211816121Y-111430252D01*
X211806450Y-111422315D01*
X211623954Y-111324768D01*
X211425934Y-111264700D01*
X211425932Y-111264699D01*
X211425934Y-111264699D01*
X211220000Y-111244417D01*
X211014067Y-111264699D01*
X210816043Y-111324769D01*
X210741197Y-111364776D01*
X210633550Y-111422315D01*
X210633548Y-111422316D01*
X210633547Y-111422317D01*
X210473589Y-111553589D01*
X210342317Y-111713547D01*
X210342315Y-111713550D01*
X210333083Y-111730822D01*
X210244769Y-111896043D01*
X210184699Y-112094067D01*
X210164417Y-112300000D01*
X209735583Y-112300000D01*
X209715300Y-112094066D01*
X209655232Y-111896046D01*
X209557685Y-111713550D01*
X209463218Y-111598441D01*
X209426410Y-111553589D01*
X209276121Y-111430252D01*
X209266450Y-111422315D01*
X209083954Y-111324768D01*
X208885934Y-111264700D01*
X208885932Y-111264699D01*
X208885934Y-111264699D01*
X208680000Y-111244417D01*
X208474066Y-111264699D01*
X208474064Y-111264700D01*
X208397670Y-111287873D01*
X208327804Y-111288496D01*
X208273996Y-111256893D01*
X208036819Y-111019716D01*
X208003334Y-110958393D01*
X208000500Y-110932035D01*
X208000500Y-103518781D01*
X208000889Y-103511844D01*
X208005270Y-103472965D01*
X207994210Y-103414511D01*
X207985348Y-103355713D01*
X207985347Y-103355711D01*
X207985347Y-103355709D01*
X207982831Y-103347552D01*
X207980025Y-103339531D01*
X207980024Y-103339529D01*
X207952222Y-103286926D01*
X207926425Y-103233358D01*
X207926422Y-103233355D01*
X207926422Y-103233354D01*
X207921642Y-103226342D01*
X207916567Y-103219465D01*
X207916566Y-103219463D01*
X207874516Y-103177413D01*
X207834055Y-103133806D01*
X207826792Y-103128014D01*
X207827312Y-103127361D01*
X207815067Y-103117964D01*
X194307103Y-89610000D01*
X245764417Y-89610000D01*
X245784699Y-89815932D01*
X245814734Y-89914944D01*
X245844768Y-90013954D01*
X245942315Y-90196450D01*
X245942317Y-90196452D01*
X246073589Y-90356410D01*
X246170209Y-90435702D01*
X246233550Y-90487685D01*
X246416046Y-90585232D01*
X246614066Y-90645300D01*
X246614065Y-90645300D01*
X246632529Y-90647118D01*
X246820000Y-90665583D01*
X247025934Y-90645300D01*
X247223954Y-90585232D01*
X247406450Y-90487685D01*
X247566410Y-90356410D01*
X247697685Y-90196450D01*
X247795232Y-90013954D01*
X247855300Y-89815934D01*
X247875583Y-89610000D01*
X247860809Y-89460000D01*
X248210000Y-89460000D01*
X248882935Y-89460000D01*
X248860000Y-89538111D01*
X248860000Y-89681889D01*
X248882935Y-89760000D01*
X248210001Y-89760000D01*
X248210001Y-90504785D01*
X248210002Y-90504808D01*
X248212908Y-90529869D01*
X248212909Y-90529873D01*
X248258211Y-90632474D01*
X248258214Y-90632479D01*
X248337520Y-90711785D01*
X248337525Y-90711788D01*
X248440123Y-90757089D01*
X248465206Y-90759999D01*
X249209999Y-90759999D01*
X249210000Y-90759998D01*
X249210000Y-90091170D01*
X249217685Y-90094680D01*
X249324237Y-90110000D01*
X249395763Y-90110000D01*
X249502315Y-90094680D01*
X249510000Y-90091170D01*
X249510000Y-90759999D01*
X250254786Y-90759999D01*
X250254808Y-90759997D01*
X250279869Y-90757091D01*
X250279873Y-90757090D01*
X250382474Y-90711788D01*
X250382479Y-90711785D01*
X250461785Y-90632479D01*
X250461788Y-90632474D01*
X250507089Y-90529877D01*
X250507089Y-90529875D01*
X250509999Y-90504794D01*
X250510000Y-90504791D01*
X250510000Y-89760000D01*
X249837065Y-89760000D01*
X249860000Y-89681889D01*
X249860000Y-89538111D01*
X249837065Y-89460000D01*
X250509999Y-89460000D01*
X250509999Y-88715214D01*
X250509997Y-88715191D01*
X250507091Y-88690130D01*
X250507090Y-88690126D01*
X250461788Y-88587525D01*
X250461785Y-88587520D01*
X250382479Y-88508214D01*
X250382474Y-88508211D01*
X250279876Y-88462910D01*
X250254794Y-88460000D01*
X249510000Y-88460000D01*
X249510000Y-89128829D01*
X249502315Y-89125320D01*
X249395763Y-89110000D01*
X249324237Y-89110000D01*
X249217685Y-89125320D01*
X249210000Y-89128829D01*
X249210000Y-88460000D01*
X248465214Y-88460000D01*
X248465191Y-88460002D01*
X248440130Y-88462908D01*
X248440126Y-88462909D01*
X248337525Y-88508211D01*
X248337520Y-88508214D01*
X248258214Y-88587520D01*
X248258211Y-88587525D01*
X248212910Y-88690122D01*
X248212910Y-88690124D01*
X248210000Y-88715205D01*
X248210000Y-89460000D01*
X247860809Y-89460000D01*
X247855300Y-89404066D01*
X247795232Y-89206046D01*
X247697685Y-89023550D01*
X247645702Y-88960209D01*
X247566410Y-88863589D01*
X247406452Y-88732317D01*
X247406453Y-88732317D01*
X247406450Y-88732315D01*
X247223954Y-88634768D01*
X247025934Y-88574700D01*
X247025932Y-88574699D01*
X247025934Y-88574699D01*
X246820000Y-88554417D01*
X246614067Y-88574699D01*
X246416043Y-88634769D01*
X246315433Y-88688547D01*
X246233550Y-88732315D01*
X246233548Y-88732316D01*
X246233547Y-88732317D01*
X246073589Y-88863589D01*
X245942317Y-89023547D01*
X245942315Y-89023550D01*
X245903643Y-89095898D01*
X245844769Y-89206043D01*
X245784699Y-89404067D01*
X245764417Y-89610000D01*
X194307103Y-89610000D01*
X191018908Y-86321805D01*
X191014271Y-86316617D01*
X190989878Y-86286029D01*
X190940728Y-86252519D01*
X190892882Y-86217207D01*
X190885297Y-86213198D01*
X190877677Y-86209529D01*
X190853161Y-86201967D01*
X190820822Y-86191992D01*
X190800154Y-86184760D01*
X190764695Y-86172352D01*
X190756326Y-86170768D01*
X190747904Y-86169500D01*
X190747902Y-86169500D01*
X190688426Y-86169500D01*
X190628990Y-86167275D01*
X190619756Y-86168316D01*
X190619662Y-86167486D01*
X190604364Y-86169500D01*
X187162966Y-86169500D01*
X187095927Y-86149815D01*
X187075285Y-86133181D01*
X185543106Y-84601003D01*
X185509621Y-84539680D01*
X185512125Y-84477329D01*
X185535300Y-84400934D01*
X185555583Y-84195000D01*
X185535300Y-83989066D01*
X185508634Y-83901162D01*
X185508012Y-83831296D01*
X185539613Y-83777489D01*
X188538205Y-80778896D01*
X188543373Y-80774277D01*
X188573970Y-80749879D01*
X188607480Y-80700728D01*
X188642793Y-80652882D01*
X188642794Y-80652879D01*
X188646787Y-80645324D01*
X188650470Y-80637676D01*
X188650470Y-80637675D01*
X188650472Y-80637673D01*
X188668007Y-80580822D01*
X188687646Y-80524699D01*
X188689228Y-80516336D01*
X188690500Y-80507899D01*
X188690500Y-80448441D01*
X188692725Y-80388990D01*
X188691685Y-80379758D01*
X188692513Y-80379664D01*
X188690500Y-80364361D01*
X188690500Y-74377964D01*
X188710185Y-74310925D01*
X188726814Y-74290288D01*
X192488205Y-70528896D01*
X192493373Y-70524277D01*
X192523970Y-70499879D01*
X192557480Y-70450728D01*
X192592793Y-70402882D01*
X192592794Y-70402879D01*
X192596787Y-70395324D01*
X192600470Y-70387676D01*
X192600470Y-70387675D01*
X192600472Y-70387673D01*
X192618007Y-70330822D01*
X192637646Y-70274699D01*
X192639228Y-70266336D01*
X192640500Y-70257899D01*
X192640500Y-70198441D01*
X192642725Y-70138990D01*
X192641685Y-70129758D01*
X192642513Y-70129664D01*
X192640500Y-70114361D01*
X192640500Y-66148782D01*
X192640889Y-66141843D01*
X192645270Y-66102965D01*
X192634211Y-66044520D01*
X192625348Y-65985713D01*
X192625347Y-65985711D01*
X192622836Y-65977571D01*
X192620024Y-65969533D01*
X192620023Y-65969528D01*
X192592226Y-65916936D01*
X192566425Y-65863358D01*
X192566422Y-65863355D01*
X192566421Y-65863352D01*
X192561642Y-65856342D01*
X192556568Y-65849469D01*
X192556565Y-65849462D01*
X192514516Y-65807413D01*
X192474055Y-65763806D01*
X192466792Y-65758014D01*
X192467312Y-65757361D01*
X192455067Y-65747964D01*
X191963106Y-65256003D01*
X191929621Y-65194680D01*
X191932125Y-65132329D01*
X191955300Y-65055934D01*
X191975583Y-64850000D01*
X192404417Y-64850000D01*
X192424699Y-65055932D01*
X192424700Y-65055934D01*
X192484768Y-65253954D01*
X192582315Y-65436450D01*
X192616969Y-65478677D01*
X192713589Y-65596410D01*
X192752169Y-65628071D01*
X192873550Y-65727685D01*
X193056046Y-65825232D01*
X193254066Y-65885300D01*
X193254065Y-65885300D01*
X193272529Y-65887118D01*
X193460000Y-65905583D01*
X193665934Y-65885300D01*
X193863954Y-65825232D01*
X194046450Y-65727685D01*
X194206410Y-65596410D01*
X194337685Y-65436450D01*
X194435232Y-65253954D01*
X194495300Y-65055934D01*
X194515583Y-64850000D01*
X194944417Y-64850000D01*
X194964699Y-65055932D01*
X194964700Y-65055934D01*
X195024768Y-65253954D01*
X195122315Y-65436450D01*
X195156969Y-65478677D01*
X195253589Y-65596410D01*
X195292169Y-65628071D01*
X195413550Y-65727685D01*
X195596046Y-65825232D01*
X195794066Y-65885300D01*
X195794065Y-65885300D01*
X195812529Y-65887118D01*
X196000000Y-65905583D01*
X196205934Y-65885300D01*
X196403954Y-65825232D01*
X196586450Y-65727685D01*
X196746410Y-65596410D01*
X196877685Y-65436450D01*
X196975232Y-65253954D01*
X197035300Y-65055934D01*
X197055583Y-64850000D01*
X197040809Y-64699999D01*
X197398972Y-64699999D01*
X197398973Y-64700000D01*
X198062935Y-64700000D01*
X198040000Y-64778111D01*
X198040000Y-64921889D01*
X198062935Y-65000000D01*
X197398973Y-65000000D01*
X197404738Y-65062218D01*
X197463058Y-65267196D01*
X197463066Y-65267216D01*
X197558059Y-65457989D01*
X197686500Y-65628071D01*
X197844000Y-65771651D01*
X197844002Y-65771653D01*
X198025201Y-65883846D01*
X198025207Y-65883849D01*
X198223936Y-65960836D01*
X198390000Y-65991879D01*
X198390000Y-65331170D01*
X198397685Y-65334680D01*
X198504237Y-65350000D01*
X198575763Y-65350000D01*
X198682315Y-65334680D01*
X198690000Y-65331170D01*
X198690000Y-65991879D01*
X198856063Y-65960836D01*
X199054792Y-65883849D01*
X199054798Y-65883846D01*
X199235997Y-65771653D01*
X199235999Y-65771651D01*
X199393499Y-65628071D01*
X199521940Y-65457989D01*
X199616933Y-65267216D01*
X199616941Y-65267196D01*
X199675261Y-65062218D01*
X199681027Y-65000000D01*
X199017065Y-65000000D01*
X199040000Y-64921889D01*
X199040000Y-64850000D01*
X200024417Y-64850000D01*
X200044699Y-65055932D01*
X200044700Y-65055934D01*
X200104768Y-65253954D01*
X200202315Y-65436450D01*
X200236969Y-65478677D01*
X200333589Y-65596410D01*
X200372169Y-65628071D01*
X200493550Y-65727685D01*
X200676046Y-65825232D01*
X200874066Y-65885300D01*
X200874065Y-65885300D01*
X200892529Y-65887118D01*
X201080000Y-65905583D01*
X201285934Y-65885300D01*
X201483954Y-65825232D01*
X201666450Y-65727685D01*
X201826410Y-65596410D01*
X201957685Y-65436450D01*
X202055232Y-65253954D01*
X202115300Y-65055934D01*
X202135583Y-64850000D01*
X202564417Y-64850000D01*
X202584699Y-65055932D01*
X202584700Y-65055934D01*
X202644768Y-65253954D01*
X202742315Y-65436450D01*
X202776969Y-65478677D01*
X202873589Y-65596410D01*
X202912169Y-65628071D01*
X203033550Y-65727685D01*
X203216046Y-65825232D01*
X203236491Y-65831433D01*
X203294930Y-65869727D01*
X203323390Y-65933538D01*
X203324500Y-65950095D01*
X203324500Y-66583078D01*
X203324264Y-66588485D01*
X203320735Y-66628808D01*
X203331212Y-66667910D01*
X203332383Y-66673190D01*
X203339411Y-66713043D01*
X203341235Y-66718055D01*
X203348197Y-66734861D01*
X203350445Y-66739681D01*
X203350446Y-66739684D01*
X203364452Y-66759687D01*
X203373655Y-66772831D01*
X203376561Y-66777392D01*
X203396806Y-66812455D01*
X203427815Y-66838475D01*
X203431805Y-66842131D01*
X204437863Y-67848189D01*
X204441518Y-67852178D01*
X204467541Y-67883190D01*
X204467543Y-67883191D01*
X204467545Y-67883194D01*
X204467547Y-67883195D01*
X204467548Y-67883196D01*
X204502599Y-67903433D01*
X204507162Y-67906339D01*
X204540316Y-67929554D01*
X204540319Y-67929554D01*
X204545176Y-67931820D01*
X204561933Y-67938760D01*
X204566950Y-67940586D01*
X204566952Y-67940586D01*
X204566955Y-67940588D01*
X204606818Y-67947616D01*
X204612076Y-67948782D01*
X204651193Y-67959264D01*
X204691518Y-67955735D01*
X204696922Y-67955500D01*
X205767416Y-67955500D01*
X205834455Y-67975185D01*
X205855097Y-67991819D01*
X209978181Y-72114903D01*
X210011666Y-72176226D01*
X210014500Y-72202584D01*
X210014500Y-75623078D01*
X210014264Y-75628485D01*
X210010735Y-75668808D01*
X210021212Y-75707910D01*
X210022383Y-75713190D01*
X210029411Y-75753043D01*
X210031235Y-75758055D01*
X210038197Y-75774861D01*
X210040445Y-75779681D01*
X210040446Y-75779684D01*
X210054452Y-75799687D01*
X210063655Y-75812831D01*
X210066561Y-75817392D01*
X210086806Y-75852455D01*
X210117815Y-75878475D01*
X210121805Y-75882131D01*
X220717863Y-86478189D01*
X220721518Y-86482178D01*
X220747541Y-86513190D01*
X220747543Y-86513191D01*
X220747545Y-86513194D01*
X220747547Y-86513195D01*
X220747548Y-86513196D01*
X220782599Y-86533433D01*
X220787162Y-86536339D01*
X220820316Y-86559554D01*
X220820319Y-86559554D01*
X220825176Y-86561820D01*
X220841933Y-86568760D01*
X220846950Y-86570586D01*
X220846952Y-86570586D01*
X220846955Y-86570588D01*
X220886818Y-86577616D01*
X220892076Y-86578782D01*
X220931193Y-86589264D01*
X220971518Y-86585735D01*
X220976922Y-86585500D01*
X245702007Y-86585500D01*
X245769046Y-86605185D01*
X245814801Y-86657989D01*
X245824745Y-86727147D01*
X245820668Y-86745495D01*
X245784699Y-86864067D01*
X245764417Y-87070000D01*
X245784699Y-87275932D01*
X245804133Y-87339998D01*
X245844768Y-87473954D01*
X245942315Y-87656450D01*
X245968848Y-87688781D01*
X246073589Y-87816410D01*
X246170209Y-87895702D01*
X246233550Y-87947685D01*
X246416046Y-88045232D01*
X246614066Y-88105300D01*
X246614065Y-88105300D01*
X246632529Y-88107118D01*
X246820000Y-88125583D01*
X247025934Y-88105300D01*
X247223954Y-88045232D01*
X247406450Y-87947685D01*
X247566410Y-87816410D01*
X247697685Y-87656450D01*
X247795232Y-87473954D01*
X247855300Y-87275934D01*
X247875583Y-87070000D01*
X247855300Y-86864066D01*
X247795232Y-86666046D01*
X247697685Y-86483550D01*
X247578371Y-86338164D01*
X247551059Y-86273854D01*
X247562850Y-86204987D01*
X247610003Y-86153427D01*
X247674225Y-86135500D01*
X247913812Y-86135500D01*
X247980851Y-86155185D01*
X248001493Y-86171819D01*
X248358678Y-86529004D01*
X248392163Y-86590327D01*
X248387179Y-86660019D01*
X248385563Y-86664126D01*
X248384771Y-86666038D01*
X248384769Y-86666043D01*
X248384768Y-86666046D01*
X248364058Y-86734318D01*
X248324699Y-86864067D01*
X248304417Y-87070000D01*
X248324699Y-87275932D01*
X248344133Y-87339998D01*
X248384768Y-87473954D01*
X248482315Y-87656450D01*
X248508848Y-87688781D01*
X248613589Y-87816410D01*
X248710209Y-87895702D01*
X248773550Y-87947685D01*
X248956046Y-88045232D01*
X249154066Y-88105300D01*
X249154065Y-88105300D01*
X249172529Y-88107118D01*
X249360000Y-88125583D01*
X249565934Y-88105300D01*
X249763954Y-88045232D01*
X249946450Y-87947685D01*
X250106410Y-87816410D01*
X250237685Y-87656450D01*
X250335232Y-87473954D01*
X250395300Y-87275934D01*
X250415583Y-87070000D01*
X250395300Y-86864066D01*
X250335232Y-86666046D01*
X250237685Y-86483550D01*
X250118371Y-86338164D01*
X250106410Y-86323589D01*
X249946452Y-86192317D01*
X249946453Y-86192317D01*
X249946450Y-86192315D01*
X249763954Y-86094768D01*
X249565934Y-86034700D01*
X249565932Y-86034699D01*
X249565934Y-86034699D01*
X249360000Y-86014417D01*
X249154067Y-86034699D01*
X249045430Y-86067653D01*
X248956046Y-86094768D01*
X248956043Y-86094769D01*
X248956038Y-86094771D01*
X248954126Y-86095563D01*
X248953045Y-86095679D01*
X248950217Y-86096537D01*
X248950054Y-86096000D01*
X248884656Y-86103024D01*
X248822180Y-86071743D01*
X248819004Y-86068678D01*
X248580798Y-85830472D01*
X248342119Y-85591793D01*
X248338474Y-85587814D01*
X248312456Y-85556807D01*
X248312455Y-85556806D01*
X248301058Y-85550226D01*
X248277392Y-85536561D01*
X248272831Y-85533655D01*
X248259687Y-85524452D01*
X248239684Y-85510446D01*
X248239681Y-85510445D01*
X248234861Y-85508197D01*
X248218055Y-85501235D01*
X248213043Y-85499411D01*
X248173190Y-85492383D01*
X248167910Y-85491212D01*
X248128808Y-85480735D01*
X248093892Y-85483790D01*
X248088481Y-85484264D01*
X248083078Y-85484500D01*
X247657683Y-85484500D01*
X247590644Y-85464815D01*
X247544889Y-85412011D01*
X247534945Y-85342853D01*
X247562975Y-85281473D01*
X247562545Y-85281120D01*
X247563880Y-85279492D01*
X247563970Y-85279297D01*
X247564569Y-85278653D01*
X247566410Y-85276410D01*
X247697685Y-85116450D01*
X247795232Y-84933954D01*
X247855300Y-84735934D01*
X247875583Y-84530000D01*
X247855300Y-84324066D01*
X247795232Y-84126046D01*
X247697685Y-83943550D01*
X247604532Y-83830042D01*
X247566410Y-83783589D01*
X247406452Y-83652317D01*
X247406453Y-83652317D01*
X247406450Y-83652315D01*
X247223954Y-83554768D01*
X247025934Y-83494700D01*
X247025932Y-83494699D01*
X247025934Y-83494699D01*
X246820000Y-83474417D01*
X246614067Y-83494699D01*
X246416043Y-83554769D01*
X246315433Y-83608547D01*
X246233550Y-83652315D01*
X246233548Y-83652316D01*
X246233547Y-83652317D01*
X246073589Y-83783589D01*
X245951503Y-83932354D01*
X245942315Y-83943550D01*
X245905450Y-84012519D01*
X245844769Y-84126043D01*
X245784699Y-84324067D01*
X245764417Y-84530000D01*
X245784699Y-84735932D01*
X245826735Y-84874505D01*
X245827358Y-84944372D01*
X245790110Y-85003485D01*
X245726816Y-85033076D01*
X245708074Y-85034500D01*
X221518981Y-85034500D01*
X221451942Y-85014815D01*
X221431300Y-84998181D01*
X218423119Y-81990000D01*
X245764417Y-81990000D01*
X245784699Y-82195932D01*
X245800235Y-82247147D01*
X245844768Y-82393954D01*
X245942315Y-82576450D01*
X245942317Y-82576452D01*
X246073589Y-82736410D01*
X246165739Y-82812034D01*
X246233550Y-82867685D01*
X246416046Y-82965232D01*
X246614066Y-83025300D01*
X246614065Y-83025300D01*
X246632529Y-83027118D01*
X246820000Y-83045583D01*
X247025934Y-83025300D01*
X247223954Y-82965232D01*
X247406450Y-82867685D01*
X247566410Y-82736410D01*
X247697685Y-82576450D01*
X247795232Y-82393954D01*
X247855300Y-82195934D01*
X247875583Y-81990000D01*
X247855300Y-81784066D01*
X247795232Y-81586046D01*
X247697685Y-81403550D01*
X247645702Y-81340209D01*
X247566410Y-81243589D01*
X247406452Y-81112317D01*
X247406453Y-81112317D01*
X247406450Y-81112315D01*
X247223954Y-81014768D01*
X247025934Y-80954700D01*
X247025932Y-80954699D01*
X247025934Y-80954699D01*
X246820000Y-80934417D01*
X246614067Y-80954699D01*
X246416043Y-81014769D01*
X246315433Y-81068547D01*
X246233550Y-81112315D01*
X246233548Y-81112316D01*
X246233547Y-81112317D01*
X246073589Y-81243589D01*
X245942317Y-81403547D01*
X245942315Y-81403550D01*
X245903643Y-81475898D01*
X245844769Y-81586043D01*
X245784699Y-81784067D01*
X245764417Y-81990000D01*
X218423119Y-81990000D01*
X211601819Y-75168700D01*
X211568334Y-75107377D01*
X211565500Y-75081019D01*
X211565500Y-71660513D01*
X211565736Y-71655106D01*
X211569263Y-71614795D01*
X211558785Y-71575694D01*
X211557618Y-71570434D01*
X211550588Y-71530559D01*
X211550587Y-71530557D01*
X211548760Y-71525537D01*
X211541820Y-71508780D01*
X211539554Y-71503923D01*
X211539554Y-71503920D01*
X211516337Y-71470763D01*
X211513435Y-71466209D01*
X211493194Y-71431149D01*
X211462182Y-71405126D01*
X211458210Y-71401487D01*
X209141819Y-69085096D01*
X209108334Y-69023773D01*
X209105500Y-68997415D01*
X209105500Y-67496188D01*
X209125185Y-67429149D01*
X209141819Y-67408507D01*
X209882416Y-66667910D01*
X210699006Y-65851319D01*
X210760327Y-65817836D01*
X210830019Y-65822820D01*
X210834144Y-65824444D01*
X210836041Y-65825230D01*
X210836043Y-65825230D01*
X210836046Y-65825232D01*
X211034066Y-65885300D01*
X211034065Y-65885300D01*
X211052529Y-65887118D01*
X211240000Y-65905583D01*
X211445934Y-65885300D01*
X211643954Y-65825232D01*
X211826450Y-65727685D01*
X211986410Y-65596410D01*
X212117685Y-65436450D01*
X212215232Y-65253954D01*
X212275300Y-65055934D01*
X212295583Y-64850000D01*
X212724417Y-64850000D01*
X212744699Y-65055932D01*
X212744700Y-65055934D01*
X212804768Y-65253954D01*
X212902315Y-65436450D01*
X212936969Y-65478677D01*
X213033589Y-65596410D01*
X213072169Y-65628071D01*
X213193546Y-65727682D01*
X213193549Y-65727684D01*
X213193551Y-65727686D01*
X213220242Y-65741952D01*
X213263953Y-65765316D01*
X213313797Y-65814277D01*
X213329500Y-65874674D01*
X213329500Y-66111217D01*
X213329110Y-66118155D01*
X213328252Y-66125773D01*
X213324729Y-66157034D01*
X213335788Y-66215479D01*
X213344652Y-66274290D01*
X213347162Y-66282427D01*
X213349978Y-66290475D01*
X213377777Y-66343072D01*
X213403576Y-66396644D01*
X213408362Y-66403665D01*
X213413431Y-66410532D01*
X213413434Y-66410538D01*
X213413438Y-66410542D01*
X213455495Y-66452599D01*
X213495947Y-66496196D01*
X213503210Y-66501988D01*
X213502689Y-66502641D01*
X213514930Y-66512034D01*
X216601090Y-69598193D01*
X216605726Y-69603380D01*
X216630121Y-69633970D01*
X216630121Y-69633971D01*
X216679271Y-69667480D01*
X216727118Y-69702793D01*
X216734654Y-69706776D01*
X216742319Y-69710467D01*
X216742327Y-69710472D01*
X216799177Y-69728007D01*
X216855297Y-69747645D01*
X216855299Y-69747645D01*
X216855301Y-69747646D01*
X216855302Y-69747646D01*
X216863698Y-69749234D01*
X216872095Y-69750500D01*
X216872098Y-69750500D01*
X216931559Y-69750500D01*
X216991009Y-69752725D01*
X216991009Y-69752724D01*
X216991010Y-69752725D01*
X216991010Y-69752724D01*
X217000242Y-69751685D01*
X217000335Y-69752513D01*
X217015639Y-69750500D01*
X218552034Y-69750500D01*
X218619073Y-69770185D01*
X218639715Y-69786819D01*
X228391090Y-79538193D01*
X228395726Y-79543380D01*
X228420121Y-79573970D01*
X228420121Y-79573971D01*
X228469271Y-79607480D01*
X228517118Y-79642793D01*
X228524654Y-79646776D01*
X228532319Y-79650467D01*
X228532327Y-79650472D01*
X228589177Y-79668007D01*
X228645297Y-79687645D01*
X228645299Y-79687645D01*
X228645301Y-79687646D01*
X228645302Y-79687646D01*
X228653698Y-79689234D01*
X228662095Y-79690500D01*
X228662098Y-79690500D01*
X228721559Y-79690500D01*
X228781009Y-79692725D01*
X228781009Y-79692724D01*
X228781010Y-79692725D01*
X228781010Y-79692724D01*
X228790242Y-79691685D01*
X228790335Y-79692513D01*
X228805639Y-79690500D01*
X246372034Y-79690500D01*
X246439073Y-79710185D01*
X246459715Y-79726819D01*
X248316893Y-81583996D01*
X248350378Y-81645319D01*
X248347873Y-81707670D01*
X248324700Y-81784064D01*
X248324699Y-81784066D01*
X248304417Y-81990000D01*
X248324699Y-82195932D01*
X248340235Y-82247147D01*
X248384768Y-82393954D01*
X248482315Y-82576450D01*
X248482317Y-82576452D01*
X248613589Y-82736410D01*
X248705739Y-82812034D01*
X248773550Y-82867685D01*
X248956046Y-82965232D01*
X249154066Y-83025300D01*
X249154065Y-83025300D01*
X249172529Y-83027118D01*
X249360000Y-83045583D01*
X249565934Y-83025300D01*
X249763954Y-82965232D01*
X249946450Y-82867685D01*
X250106410Y-82736410D01*
X250237685Y-82576450D01*
X250335232Y-82393954D01*
X250395300Y-82195934D01*
X250412097Y-82025392D01*
X250425709Y-81991681D01*
X250416523Y-81977387D01*
X250412097Y-81954606D01*
X250395300Y-81784067D01*
X250395299Y-81784064D01*
X250335232Y-81586046D01*
X250237685Y-81403550D01*
X250185702Y-81340209D01*
X250106410Y-81243589D01*
X249946452Y-81112317D01*
X249946453Y-81112317D01*
X249946450Y-81112315D01*
X249763954Y-81014768D01*
X249565934Y-80954700D01*
X249565932Y-80954699D01*
X249565934Y-80954699D01*
X249360000Y-80934417D01*
X249154066Y-80954699D01*
X249154064Y-80954700D01*
X249077670Y-80977873D01*
X249007804Y-80978496D01*
X248953996Y-80946893D01*
X247209284Y-79202181D01*
X247175799Y-79140858D01*
X247180783Y-79071166D01*
X247222655Y-79015233D01*
X247288119Y-78990816D01*
X247296965Y-78990500D01*
X249512034Y-78990500D01*
X249579073Y-79010185D01*
X249599715Y-79026819D01*
X250623181Y-80050285D01*
X250656666Y-80111608D01*
X250659500Y-80137966D01*
X250659500Y-81942452D01*
X250645276Y-81990892D01*
X250657328Y-82014442D01*
X250659500Y-82037547D01*
X250659500Y-82492034D01*
X250639815Y-82559073D01*
X250623181Y-82579715D01*
X249727639Y-83475256D01*
X249666316Y-83508741D01*
X249603964Y-83506236D01*
X249565932Y-83494699D01*
X249565933Y-83494699D01*
X249368518Y-83475256D01*
X249360000Y-83474417D01*
X249359999Y-83474417D01*
X249154067Y-83494699D01*
X248956043Y-83554769D01*
X248855433Y-83608547D01*
X248773550Y-83652315D01*
X248773548Y-83652316D01*
X248773547Y-83652317D01*
X248613589Y-83783589D01*
X248491503Y-83932354D01*
X248482315Y-83943550D01*
X248445450Y-84012519D01*
X248384769Y-84126043D01*
X248324699Y-84324067D01*
X248304417Y-84530000D01*
X248324699Y-84735932D01*
X248353386Y-84830500D01*
X248384768Y-84933954D01*
X248482315Y-85116450D01*
X248482317Y-85116452D01*
X248613589Y-85276410D01*
X248710209Y-85355702D01*
X248773550Y-85407685D01*
X248956046Y-85505232D01*
X249154066Y-85565300D01*
X249154065Y-85565300D01*
X249172529Y-85567118D01*
X249360000Y-85585583D01*
X249565934Y-85565300D01*
X249763954Y-85505232D01*
X249946450Y-85407685D01*
X250106410Y-85276410D01*
X250237685Y-85116450D01*
X250335232Y-84933954D01*
X250395300Y-84735934D01*
X250415583Y-84530000D01*
X250395300Y-84324066D01*
X250360488Y-84209308D01*
X250359866Y-84139442D01*
X250391467Y-84085635D01*
X251408205Y-83068896D01*
X251413373Y-83064277D01*
X251443970Y-83039879D01*
X251477480Y-82990728D01*
X251512793Y-82942882D01*
X251512794Y-82942879D01*
X251516787Y-82935324D01*
X251520470Y-82927676D01*
X251520470Y-82927675D01*
X251520472Y-82927673D01*
X251538007Y-82870822D01*
X251557646Y-82814699D01*
X251559228Y-82806336D01*
X251560500Y-82797899D01*
X251560500Y-82738441D01*
X251562725Y-82678990D01*
X251561685Y-82669758D01*
X251562513Y-82669664D01*
X251560500Y-82654361D01*
X251560500Y-79928782D01*
X251560889Y-79921843D01*
X251565270Y-79882965D01*
X251554211Y-79824520D01*
X251545348Y-79765713D01*
X251545347Y-79765711D01*
X251542836Y-79757571D01*
X251540024Y-79749533D01*
X251540023Y-79749528D01*
X251512226Y-79696936D01*
X251486425Y-79643358D01*
X251486422Y-79643355D01*
X251486421Y-79643352D01*
X251481642Y-79636342D01*
X251476568Y-79629469D01*
X251476565Y-79629462D01*
X251434516Y-79587413D01*
X251394055Y-79543806D01*
X251386792Y-79538014D01*
X251387312Y-79537361D01*
X251375067Y-79527964D01*
X250088908Y-78241805D01*
X250084271Y-78236617D01*
X250067637Y-78215759D01*
X250059879Y-78206030D01*
X250050420Y-78199581D01*
X250010728Y-78172519D01*
X249962882Y-78137207D01*
X249955297Y-78133198D01*
X249947677Y-78129529D01*
X249923161Y-78121967D01*
X249890822Y-78111992D01*
X249870154Y-78104760D01*
X249834695Y-78092352D01*
X249826326Y-78090768D01*
X249817904Y-78089500D01*
X249817902Y-78089500D01*
X249758426Y-78089500D01*
X249698990Y-78087275D01*
X249689756Y-78088316D01*
X249689662Y-78087486D01*
X249674364Y-78089500D01*
X229257916Y-78089500D01*
X229190877Y-78069815D01*
X229170235Y-78053181D01*
X219418858Y-68301805D01*
X219414221Y-68296617D01*
X219389828Y-68266029D01*
X219340678Y-68232519D01*
X219292832Y-68197207D01*
X219285247Y-68193198D01*
X219277627Y-68189529D01*
X219253111Y-68181967D01*
X219220772Y-68171992D01*
X219200104Y-68164760D01*
X219164645Y-68152352D01*
X219156276Y-68150768D01*
X219147854Y-68149500D01*
X219147852Y-68149500D01*
X219088376Y-68149500D01*
X219028940Y-68147275D01*
X219019706Y-68148316D01*
X219019612Y-68147486D01*
X219004314Y-68149500D01*
X217467915Y-68149500D01*
X217400876Y-68129815D01*
X217380234Y-68113181D01*
X216806819Y-67539766D01*
X216773334Y-67478443D01*
X216770500Y-67452085D01*
X216770500Y-65874674D01*
X216790185Y-65807635D01*
X216836046Y-65765316D01*
X216906450Y-65727685D01*
X217066410Y-65596410D01*
X217197685Y-65436450D01*
X217295232Y-65253954D01*
X217355300Y-65055934D01*
X217375583Y-64850000D01*
X217360809Y-64699999D01*
X217718972Y-64699999D01*
X217718973Y-64700000D01*
X218382935Y-64700000D01*
X218360000Y-64778111D01*
X218360000Y-64921889D01*
X218382935Y-65000000D01*
X217718973Y-65000000D01*
X217724738Y-65062218D01*
X217783058Y-65267196D01*
X217783066Y-65267216D01*
X217878059Y-65457989D01*
X218006500Y-65628071D01*
X218164000Y-65771651D01*
X218164002Y-65771653D01*
X218345201Y-65883846D01*
X218345207Y-65883849D01*
X218543936Y-65960836D01*
X218710000Y-65991879D01*
X218710000Y-65331170D01*
X218717685Y-65334680D01*
X218824237Y-65350000D01*
X218895763Y-65350000D01*
X219002315Y-65334680D01*
X219010000Y-65331170D01*
X219010000Y-65991879D01*
X219176063Y-65960836D01*
X219374792Y-65883849D01*
X219374798Y-65883846D01*
X219555997Y-65771653D01*
X219555999Y-65771651D01*
X219713499Y-65628071D01*
X219841940Y-65457989D01*
X219936933Y-65267216D01*
X219936941Y-65267196D01*
X219995261Y-65062218D01*
X220001027Y-65000000D01*
X219337065Y-65000000D01*
X219360000Y-64921889D01*
X219360000Y-64850000D01*
X220344417Y-64850000D01*
X220364699Y-65055932D01*
X220364700Y-65055934D01*
X220424768Y-65253954D01*
X220522315Y-65436450D01*
X220556969Y-65478677D01*
X220653589Y-65596410D01*
X220692169Y-65628071D01*
X220813550Y-65727685D01*
X220996046Y-65825232D01*
X221194066Y-65885300D01*
X221194065Y-65885300D01*
X221212529Y-65887118D01*
X221400000Y-65905583D01*
X221605934Y-65885300D01*
X221803954Y-65825232D01*
X221986450Y-65727685D01*
X222146410Y-65596410D01*
X222277685Y-65436450D01*
X222375232Y-65253954D01*
X222435300Y-65055934D01*
X222455583Y-64850000D01*
X222884417Y-64850000D01*
X222904699Y-65055932D01*
X222904700Y-65055934D01*
X222964768Y-65253954D01*
X223062315Y-65436450D01*
X223096969Y-65478677D01*
X223193589Y-65596410D01*
X223232169Y-65628071D01*
X223353550Y-65727685D01*
X223536046Y-65825232D01*
X223734066Y-65885300D01*
X223734065Y-65885300D01*
X223752529Y-65887118D01*
X223940000Y-65905583D01*
X224145934Y-65885300D01*
X224343954Y-65825232D01*
X224526450Y-65727685D01*
X224686410Y-65596410D01*
X224817685Y-65436450D01*
X224915232Y-65253954D01*
X224975300Y-65055934D01*
X224995583Y-64850000D01*
X225424417Y-64850000D01*
X225444699Y-65055932D01*
X225444700Y-65055934D01*
X225504768Y-65253954D01*
X225602315Y-65436450D01*
X225636969Y-65478677D01*
X225733589Y-65596410D01*
X225772169Y-65628071D01*
X225893550Y-65727685D01*
X226076046Y-65825232D01*
X226274066Y-65885300D01*
X226274065Y-65885300D01*
X226292529Y-65887118D01*
X226480000Y-65905583D01*
X226685934Y-65885300D01*
X226762325Y-65862127D01*
X226832192Y-65861503D01*
X226886002Y-65893106D01*
X230021090Y-69028193D01*
X230025726Y-69033380D01*
X230050121Y-69063970D01*
X230050121Y-69063971D01*
X230099271Y-69097480D01*
X230147118Y-69132793D01*
X230154654Y-69136776D01*
X230162319Y-69140467D01*
X230162327Y-69140472D01*
X230219177Y-69158007D01*
X230275297Y-69177645D01*
X230275299Y-69177645D01*
X230275301Y-69177646D01*
X230275302Y-69177646D01*
X230283698Y-69179234D01*
X230292095Y-69180500D01*
X230292098Y-69180500D01*
X230351559Y-69180500D01*
X230411009Y-69182725D01*
X230411009Y-69182724D01*
X230411010Y-69182725D01*
X230411010Y-69182724D01*
X230420242Y-69181685D01*
X230420335Y-69182513D01*
X230435639Y-69180500D01*
X247272034Y-69180500D01*
X247339073Y-69200185D01*
X247359715Y-69216819D01*
X256933181Y-78790285D01*
X256966666Y-78851608D01*
X256969500Y-78877966D01*
X256969500Y-85651217D01*
X256969110Y-85658155D01*
X256968255Y-85665751D01*
X256964729Y-85697034D01*
X256975788Y-85755479D01*
X256984652Y-85814290D01*
X256987162Y-85822427D01*
X256989978Y-85830475D01*
X257017777Y-85883072D01*
X257043576Y-85936644D01*
X257048362Y-85943665D01*
X257053431Y-85950532D01*
X257053434Y-85950538D01*
X257053438Y-85950542D01*
X257095495Y-85992599D01*
X257135947Y-86036196D01*
X257143210Y-86041988D01*
X257142689Y-86042641D01*
X257154930Y-86052034D01*
X258844566Y-87741670D01*
X258878051Y-87802993D01*
X258873067Y-87872685D01*
X258867370Y-87885645D01*
X258814353Y-87989695D01*
X258814352Y-87989698D01*
X258799500Y-88083475D01*
X258799500Y-88696517D01*
X258810292Y-88764657D01*
X258814354Y-88790304D01*
X258871950Y-88903342D01*
X258871952Y-88903344D01*
X258871954Y-88903347D01*
X258961652Y-88993045D01*
X258961654Y-88993046D01*
X258961658Y-88993050D01*
X259074694Y-89050645D01*
X259074698Y-89050647D01*
X259168475Y-89065499D01*
X259168481Y-89065500D01*
X259631518Y-89065499D01*
X259725304Y-89050646D01*
X259838342Y-88993050D01*
X259928050Y-88903342D01*
X259985646Y-88790304D01*
X259985646Y-88790302D01*
X259985647Y-88790301D01*
X260000499Y-88696524D01*
X260000500Y-88696519D01*
X260000500Y-88696517D01*
X260449500Y-88696517D01*
X260460292Y-88764657D01*
X260464354Y-88790304D01*
X260521950Y-88903342D01*
X260521952Y-88903344D01*
X260521954Y-88903347D01*
X260611652Y-88993045D01*
X260611654Y-88993046D01*
X260611658Y-88993050D01*
X260724694Y-89050645D01*
X260724698Y-89050647D01*
X260818475Y-89065499D01*
X260818481Y-89065500D01*
X261281518Y-89065499D01*
X261375304Y-89050646D01*
X261488342Y-88993050D01*
X261488347Y-88993045D01*
X261578050Y-88903343D01*
X261583786Y-88895448D01*
X261586059Y-88897100D01*
X261623546Y-88857409D01*
X261686057Y-88840500D01*
X261709534Y-88840500D01*
X261776573Y-88860185D01*
X261797215Y-88876819D01*
X262023181Y-89102784D01*
X262056666Y-89164107D01*
X262059500Y-89190465D01*
X262059500Y-89429251D01*
X262075047Y-89527417D01*
X262075049Y-89527420D01*
X262135342Y-89645751D01*
X262135344Y-89645753D01*
X262135346Y-89645756D01*
X262229243Y-89739653D01*
X262229245Y-89739654D01*
X262229249Y-89739658D01*
X262347580Y-89799951D01*
X262347581Y-89799951D01*
X262347583Y-89799952D01*
X262347582Y-89799952D01*
X262445749Y-89815500D01*
X262445754Y-89815500D01*
X263024251Y-89815500D01*
X263122417Y-89799952D01*
X263122418Y-89799951D01*
X263122420Y-89799951D01*
X263240751Y-89739658D01*
X263334658Y-89645751D01*
X263394951Y-89527420D01*
X263394951Y-89527418D01*
X263394952Y-89527417D01*
X263410500Y-89429251D01*
X263410500Y-88925748D01*
X263394952Y-88827582D01*
X263394951Y-88827580D01*
X263334658Y-88709249D01*
X263334654Y-88709245D01*
X263334653Y-88709243D01*
X263240756Y-88615346D01*
X263240747Y-88615339D01*
X263115429Y-88551486D01*
X263064633Y-88503512D01*
X263047838Y-88435691D01*
X263070376Y-88369556D01*
X263125091Y-88326105D01*
X263126235Y-88325647D01*
X263247885Y-88277675D01*
X263361510Y-88191510D01*
X263447674Y-88077886D01*
X263499989Y-87945224D01*
X263510000Y-87861855D01*
X263510000Y-87752500D01*
X261960000Y-87752500D01*
X261960000Y-87815500D01*
X261940315Y-87882539D01*
X261887511Y-87928294D01*
X261836000Y-87939500D01*
X261686057Y-87939500D01*
X261619018Y-87919815D01*
X261585793Y-87883093D01*
X261583786Y-87884552D01*
X261578050Y-87876657D01*
X261488347Y-87786954D01*
X261488344Y-87786952D01*
X261488342Y-87786950D01*
X261411398Y-87747745D01*
X261375301Y-87729352D01*
X261281524Y-87714500D01*
X260818482Y-87714500D01*
X260737519Y-87727323D01*
X260724696Y-87729354D01*
X260611658Y-87786950D01*
X260611657Y-87786951D01*
X260611652Y-87786954D01*
X260521954Y-87876652D01*
X260521951Y-87876657D01*
X260521950Y-87876658D01*
X260517928Y-87884552D01*
X260464352Y-87989698D01*
X260449500Y-88083475D01*
X260449500Y-88696517D01*
X260000500Y-88696517D01*
X260000499Y-88083482D01*
X259985646Y-87989696D01*
X259928050Y-87876658D01*
X259928046Y-87876654D01*
X259928045Y-87876652D01*
X259886819Y-87835426D01*
X259853334Y-87774103D01*
X259850500Y-87747745D01*
X259850500Y-87688781D01*
X259850889Y-87681844D01*
X259855270Y-87642965D01*
X259849540Y-87612682D01*
X259844210Y-87584508D01*
X259835347Y-87525709D01*
X259832829Y-87517545D01*
X259830024Y-87509532D01*
X259830024Y-87509528D01*
X259802216Y-87456915D01*
X259800090Y-87452500D01*
X261960000Y-87452500D01*
X262585000Y-87452500D01*
X262585000Y-86865000D01*
X262885000Y-86865000D01*
X262885000Y-87452500D01*
X263510000Y-87452500D01*
X263510000Y-87343144D01*
X263499989Y-87259775D01*
X263447674Y-87127113D01*
X263361510Y-87013489D01*
X263247886Y-86927325D01*
X263115224Y-86875010D01*
X263031856Y-86865000D01*
X262885000Y-86865000D01*
X262585000Y-86865000D01*
X262438144Y-86865000D01*
X262354775Y-86875010D01*
X262222113Y-86927325D01*
X262108489Y-87013489D01*
X262022325Y-87127113D01*
X261970010Y-87259775D01*
X261960000Y-87343144D01*
X261960000Y-87452500D01*
X259800090Y-87452500D01*
X259776425Y-87403358D01*
X259771620Y-87396310D01*
X259766567Y-87389465D01*
X259766566Y-87389462D01*
X259724504Y-87347400D01*
X259684055Y-87303806D01*
X259684054Y-87303805D01*
X259684053Y-87303804D01*
X259676790Y-87298012D01*
X259677310Y-87297359D01*
X259665070Y-87287966D01*
X257906819Y-85529715D01*
X257873334Y-85468392D01*
X257870500Y-85442034D01*
X257870500Y-83736965D01*
X257890185Y-83669926D01*
X257942989Y-83624171D01*
X258012147Y-83614227D01*
X258075703Y-83643252D01*
X258082181Y-83649284D01*
X258813181Y-84380284D01*
X258846666Y-84441607D01*
X258849500Y-84467964D01*
X258849500Y-84686517D01*
X258856267Y-84729243D01*
X258864354Y-84780304D01*
X258921950Y-84893342D01*
X258921952Y-84893344D01*
X258921954Y-84893347D01*
X259011652Y-84983045D01*
X259011654Y-84983046D01*
X259011658Y-84983050D01*
X259112634Y-85034500D01*
X259124698Y-85040647D01*
X259218475Y-85055499D01*
X259218481Y-85055500D01*
X259681518Y-85055499D01*
X259775304Y-85040646D01*
X259888342Y-84983050D01*
X259978050Y-84893342D01*
X260035646Y-84780304D01*
X260035646Y-84780302D01*
X260035647Y-84780301D01*
X260050499Y-84686524D01*
X260050500Y-84686519D01*
X260050500Y-84686517D01*
X260499500Y-84686517D01*
X260506267Y-84729243D01*
X260514354Y-84780304D01*
X260571950Y-84893342D01*
X260571952Y-84893344D01*
X260571954Y-84893347D01*
X260661652Y-84983045D01*
X260661654Y-84983046D01*
X260661658Y-84983050D01*
X260762634Y-85034500D01*
X260774698Y-85040647D01*
X260868475Y-85055499D01*
X260868481Y-85055500D01*
X261331518Y-85055499D01*
X261425304Y-85040646D01*
X261538342Y-84983050D01*
X261625714Y-84895677D01*
X261687035Y-84862194D01*
X261756727Y-84867178D01*
X261801075Y-84895679D01*
X262028181Y-85122784D01*
X262061666Y-85184107D01*
X262064500Y-85210465D01*
X262064500Y-85449251D01*
X262080047Y-85547417D01*
X262080049Y-85547420D01*
X262140342Y-85665751D01*
X262140344Y-85665753D01*
X262140346Y-85665756D01*
X262234243Y-85759653D01*
X262234245Y-85759654D01*
X262234249Y-85759658D01*
X262352580Y-85819951D01*
X262352581Y-85819951D01*
X262352583Y-85819952D01*
X262352582Y-85819952D01*
X262450749Y-85835500D01*
X262450754Y-85835500D01*
X263029251Y-85835500D01*
X263127417Y-85819952D01*
X263127418Y-85819951D01*
X263127420Y-85819951D01*
X263245751Y-85759658D01*
X263339658Y-85665751D01*
X263399951Y-85547420D01*
X263399951Y-85547418D01*
X263399952Y-85547417D01*
X263415500Y-85449251D01*
X263415500Y-84945748D01*
X263399952Y-84847582D01*
X263391248Y-84830500D01*
X263339658Y-84729249D01*
X263339654Y-84729245D01*
X263339653Y-84729243D01*
X263245756Y-84635346D01*
X263245747Y-84635339D01*
X263120429Y-84571486D01*
X263069633Y-84523512D01*
X263052838Y-84455691D01*
X263075376Y-84389556D01*
X263130091Y-84346105D01*
X263131235Y-84345647D01*
X263252885Y-84297675D01*
X263366510Y-84211510D01*
X263452674Y-84097886D01*
X263504989Y-83965224D01*
X263515000Y-83881855D01*
X263515000Y-83772500D01*
X261965000Y-83772500D01*
X261965000Y-83805500D01*
X261945315Y-83872539D01*
X261892511Y-83918294D01*
X261841000Y-83929500D01*
X261736057Y-83929500D01*
X261669018Y-83909815D01*
X261635793Y-83873093D01*
X261633786Y-83874552D01*
X261628050Y-83866657D01*
X261538347Y-83776954D01*
X261538344Y-83776952D01*
X261538342Y-83776950D01*
X261459867Y-83736965D01*
X261425301Y-83719352D01*
X261331524Y-83704500D01*
X260868482Y-83704500D01*
X260787519Y-83717323D01*
X260774696Y-83719354D01*
X260661658Y-83776950D01*
X260661657Y-83776951D01*
X260661652Y-83776954D01*
X260571954Y-83866652D01*
X260571951Y-83866657D01*
X260571950Y-83866658D01*
X260567928Y-83874552D01*
X260514352Y-83979698D01*
X260499500Y-84073475D01*
X260499500Y-84686517D01*
X260050500Y-84686517D01*
X260050499Y-84073482D01*
X260035646Y-83979696D01*
X259978050Y-83866658D01*
X259978046Y-83866654D01*
X259978045Y-83866652D01*
X259888347Y-83776954D01*
X259888344Y-83776952D01*
X259888342Y-83776950D01*
X259809867Y-83736965D01*
X259775301Y-83719352D01*
X259681524Y-83704500D01*
X259681519Y-83704500D01*
X259462966Y-83704500D01*
X259395927Y-83684815D01*
X259375285Y-83668181D01*
X259179604Y-83472500D01*
X261965000Y-83472500D01*
X262590000Y-83472500D01*
X262590000Y-82885000D01*
X262890000Y-82885000D01*
X262890000Y-83472500D01*
X263515000Y-83472500D01*
X263515000Y-83363144D01*
X263504989Y-83279775D01*
X263452674Y-83147113D01*
X263366510Y-83033489D01*
X263252886Y-82947325D01*
X263120224Y-82895010D01*
X263036856Y-82885000D01*
X262890000Y-82885000D01*
X262590000Y-82885000D01*
X262443144Y-82885000D01*
X262359775Y-82895010D01*
X262227113Y-82947325D01*
X262113489Y-83033489D01*
X262027325Y-83147113D01*
X261975010Y-83279775D01*
X261965000Y-83363144D01*
X261965000Y-83472500D01*
X259179604Y-83472500D01*
X258606819Y-82899715D01*
X258573334Y-82838392D01*
X258570500Y-82812034D01*
X258570500Y-78378831D01*
X258570889Y-78371894D01*
X258575270Y-78333015D01*
X258564210Y-78274561D01*
X258555348Y-78215763D01*
X258555347Y-78215761D01*
X258555347Y-78215759D01*
X258552831Y-78207602D01*
X258550025Y-78199581D01*
X258535722Y-78172519D01*
X258522222Y-78146976D01*
X258496425Y-78093408D01*
X258496422Y-78093405D01*
X258496422Y-78093404D01*
X258491642Y-78086392D01*
X258486567Y-78079515D01*
X258486566Y-78079513D01*
X258444516Y-78037463D01*
X258404055Y-77993856D01*
X258396792Y-77988064D01*
X258397312Y-77987411D01*
X258385067Y-77978014D01*
X248138858Y-67731805D01*
X248134221Y-67726617D01*
X248109828Y-67696029D01*
X248060678Y-67662519D01*
X248012832Y-67627207D01*
X248005247Y-67623198D01*
X247997627Y-67619529D01*
X247973111Y-67611967D01*
X247940772Y-67601992D01*
X247913348Y-67592396D01*
X247884645Y-67582352D01*
X247876276Y-67580768D01*
X247867854Y-67579500D01*
X247867852Y-67579500D01*
X247808376Y-67579500D01*
X247748940Y-67577275D01*
X247739706Y-67578316D01*
X247739612Y-67577486D01*
X247724314Y-67579500D01*
X231007965Y-67579500D01*
X230940926Y-67559815D01*
X230920284Y-67543181D01*
X229506819Y-66129716D01*
X229473334Y-66068393D01*
X229470500Y-66042035D01*
X229470500Y-65874674D01*
X229490185Y-65807635D01*
X229536046Y-65765316D01*
X229606450Y-65727685D01*
X229766410Y-65596410D01*
X229897685Y-65436450D01*
X229995232Y-65253954D01*
X230055300Y-65055934D01*
X230075583Y-64850000D01*
X230504417Y-64850000D01*
X230524699Y-65055932D01*
X230524700Y-65055934D01*
X230584768Y-65253954D01*
X230682315Y-65436450D01*
X230716969Y-65478677D01*
X230813589Y-65596410D01*
X230852169Y-65628071D01*
X230973550Y-65727685D01*
X231156046Y-65825232D01*
X231354066Y-65885300D01*
X231354065Y-65885300D01*
X231372529Y-65887118D01*
X231560000Y-65905583D01*
X231765934Y-65885300D01*
X231963954Y-65825232D01*
X232146450Y-65727685D01*
X232306410Y-65596410D01*
X232437685Y-65436450D01*
X232535232Y-65253954D01*
X232595300Y-65055934D01*
X232615583Y-64850000D01*
X233044417Y-64850000D01*
X233064699Y-65055932D01*
X233064700Y-65055934D01*
X233124768Y-65253954D01*
X233222315Y-65436450D01*
X233256969Y-65478677D01*
X233353589Y-65596410D01*
X233392169Y-65628071D01*
X233513550Y-65727685D01*
X233696046Y-65825232D01*
X233894066Y-65885300D01*
X233894065Y-65885300D01*
X233912529Y-65887118D01*
X234100000Y-65905583D01*
X234305934Y-65885300D01*
X234503954Y-65825232D01*
X234686450Y-65727685D01*
X234846410Y-65596410D01*
X234977685Y-65436450D01*
X235075232Y-65253954D01*
X235135300Y-65055934D01*
X235155583Y-64850000D01*
X235140809Y-64699999D01*
X235498972Y-64699999D01*
X235498973Y-64700000D01*
X236162935Y-64700000D01*
X236140000Y-64778111D01*
X236140000Y-64921889D01*
X236162935Y-65000000D01*
X235498973Y-65000000D01*
X235504738Y-65062218D01*
X235563058Y-65267196D01*
X235563066Y-65267216D01*
X235658059Y-65457989D01*
X235786500Y-65628071D01*
X235944000Y-65771651D01*
X235944002Y-65771653D01*
X236125201Y-65883846D01*
X236125207Y-65883849D01*
X236323936Y-65960836D01*
X236490000Y-65991879D01*
X236490000Y-65331170D01*
X236497685Y-65334680D01*
X236604237Y-65350000D01*
X236675763Y-65350000D01*
X236782315Y-65334680D01*
X236790000Y-65331170D01*
X236790000Y-65991879D01*
X236956063Y-65960836D01*
X237154792Y-65883849D01*
X237154798Y-65883846D01*
X237335997Y-65771653D01*
X237335999Y-65771651D01*
X237493499Y-65628071D01*
X237621940Y-65457989D01*
X237716933Y-65267216D01*
X237716941Y-65267196D01*
X237775261Y-65062218D01*
X237781027Y-65000000D01*
X237117065Y-65000000D01*
X237140000Y-64921889D01*
X237140000Y-64778111D01*
X237117065Y-64700000D01*
X237781027Y-64700000D01*
X237781027Y-64699999D01*
X237775261Y-64637781D01*
X237716941Y-64432803D01*
X237716933Y-64432783D01*
X237621940Y-64242010D01*
X237493499Y-64071928D01*
X237335999Y-63928348D01*
X237335997Y-63928346D01*
X237154798Y-63816153D01*
X237154789Y-63816149D01*
X236956060Y-63739162D01*
X236956061Y-63739162D01*
X236790000Y-63708119D01*
X236790000Y-64368829D01*
X236782315Y-64365320D01*
X236675763Y-64350000D01*
X236604237Y-64350000D01*
X236497685Y-64365320D01*
X236490000Y-64368829D01*
X236490000Y-63708119D01*
X236323939Y-63739162D01*
X236125210Y-63816149D01*
X236125201Y-63816153D01*
X235944002Y-63928346D01*
X235944000Y-63928348D01*
X235786500Y-64071928D01*
X235658059Y-64242010D01*
X235563066Y-64432783D01*
X235563058Y-64432803D01*
X235504738Y-64637781D01*
X235498972Y-64699999D01*
X235140809Y-64699999D01*
X235135300Y-64644066D01*
X235075232Y-64446046D01*
X234977685Y-64263550D01*
X234925702Y-64200209D01*
X234846410Y-64103589D01*
X234686452Y-63972317D01*
X234686453Y-63972317D01*
X234686450Y-63972315D01*
X234503954Y-63874768D01*
X234305934Y-63814700D01*
X234305932Y-63814699D01*
X234305934Y-63814699D01*
X234100000Y-63794417D01*
X233894067Y-63814699D01*
X233696043Y-63874769D01*
X233595809Y-63928346D01*
X233513550Y-63972315D01*
X233513548Y-63972316D01*
X233513547Y-63972317D01*
X233353589Y-64103589D01*
X233222317Y-64263547D01*
X233124769Y-64446043D01*
X233064699Y-64644067D01*
X233044417Y-64850000D01*
X232615583Y-64850000D01*
X232595300Y-64644066D01*
X232535232Y-64446046D01*
X232437685Y-64263550D01*
X232385702Y-64200209D01*
X232306410Y-64103589D01*
X232146452Y-63972317D01*
X232146453Y-63972317D01*
X232146450Y-63972315D01*
X231963954Y-63874768D01*
X231765934Y-63814700D01*
X231765932Y-63814699D01*
X231765934Y-63814699D01*
X231560000Y-63794417D01*
X231354067Y-63814699D01*
X231156043Y-63874769D01*
X231055809Y-63928346D01*
X230973550Y-63972315D01*
X230973548Y-63972316D01*
X230973547Y-63972317D01*
X230813589Y-64103589D01*
X230682317Y-64263547D01*
X230584769Y-64446043D01*
X230524699Y-64644067D01*
X230504417Y-64850000D01*
X230075583Y-64850000D01*
X230055300Y-64644066D01*
X229995232Y-64446046D01*
X229897685Y-64263550D01*
X229845702Y-64200209D01*
X229766410Y-64103589D01*
X229606452Y-63972317D01*
X229606453Y-63972317D01*
X229606450Y-63972315D01*
X229423954Y-63874768D01*
X229225934Y-63814700D01*
X229225932Y-63814699D01*
X229225934Y-63814699D01*
X229020000Y-63794417D01*
X228814067Y-63814699D01*
X228616043Y-63874769D01*
X228515809Y-63928346D01*
X228433550Y-63972315D01*
X228433548Y-63972316D01*
X228433547Y-63972317D01*
X228273589Y-64103589D01*
X228142317Y-64263547D01*
X228044769Y-64446043D01*
X227984699Y-64644067D01*
X227964417Y-64850000D01*
X227984699Y-65055932D01*
X227984700Y-65055934D01*
X228044768Y-65253954D01*
X228142315Y-65436450D01*
X228176969Y-65478677D01*
X228273589Y-65596410D01*
X228312169Y-65628071D01*
X228433546Y-65727682D01*
X228433549Y-65727684D01*
X228433551Y-65727686D01*
X228460242Y-65741952D01*
X228503953Y-65765316D01*
X228553797Y-65814277D01*
X228569500Y-65874674D01*
X228569500Y-66003035D01*
X228549815Y-66070074D01*
X228497011Y-66115829D01*
X228427853Y-66125773D01*
X228364297Y-66096748D01*
X228357819Y-66090716D01*
X227523106Y-65256003D01*
X227489621Y-65194680D01*
X227492125Y-65132329D01*
X227515300Y-65055934D01*
X227535583Y-64850000D01*
X227515300Y-64644066D01*
X227455232Y-64446046D01*
X227357685Y-64263550D01*
X227305702Y-64200209D01*
X227226410Y-64103589D01*
X227066452Y-63972317D01*
X227066453Y-63972317D01*
X227066450Y-63972315D01*
X226883954Y-63874768D01*
X226685934Y-63814700D01*
X226685932Y-63814699D01*
X226685934Y-63814699D01*
X226480000Y-63794417D01*
X226274067Y-63814699D01*
X226076043Y-63874769D01*
X225975809Y-63928346D01*
X225893550Y-63972315D01*
X225893548Y-63972316D01*
X225893547Y-63972317D01*
X225733589Y-64103589D01*
X225602317Y-64263547D01*
X225504769Y-64446043D01*
X225444699Y-64644067D01*
X225424417Y-64850000D01*
X224995583Y-64850000D01*
X224975300Y-64644066D01*
X224915232Y-64446046D01*
X224817685Y-64263550D01*
X224765702Y-64200209D01*
X224686410Y-64103589D01*
X224526452Y-63972317D01*
X224526453Y-63972317D01*
X224526450Y-63972315D01*
X224343954Y-63874768D01*
X224145934Y-63814700D01*
X224145932Y-63814699D01*
X224145934Y-63814699D01*
X223940000Y-63794417D01*
X223734067Y-63814699D01*
X223536043Y-63874769D01*
X223435809Y-63928346D01*
X223353550Y-63972315D01*
X223353548Y-63972316D01*
X223353547Y-63972317D01*
X223193589Y-64103589D01*
X223062317Y-64263547D01*
X222964769Y-64446043D01*
X222904699Y-64644067D01*
X222884417Y-64850000D01*
X222455583Y-64850000D01*
X222435300Y-64644066D01*
X222375232Y-64446046D01*
X222277685Y-64263550D01*
X222225702Y-64200209D01*
X222146410Y-64103589D01*
X221986452Y-63972317D01*
X221986453Y-63972317D01*
X221986450Y-63972315D01*
X221803954Y-63874768D01*
X221605934Y-63814700D01*
X221605932Y-63814699D01*
X221605934Y-63814699D01*
X221400000Y-63794417D01*
X221194067Y-63814699D01*
X220996043Y-63874769D01*
X220895809Y-63928346D01*
X220813550Y-63972315D01*
X220813548Y-63972316D01*
X220813547Y-63972317D01*
X220653589Y-64103589D01*
X220522317Y-64263547D01*
X220424769Y-64446043D01*
X220364699Y-64644067D01*
X220344417Y-64850000D01*
X219360000Y-64850000D01*
X219360000Y-64778111D01*
X219337065Y-64700000D01*
X220001027Y-64700000D01*
X220001027Y-64699999D01*
X219995261Y-64637781D01*
X219936941Y-64432803D01*
X219936933Y-64432783D01*
X219841940Y-64242010D01*
X219713499Y-64071928D01*
X219555999Y-63928348D01*
X219555997Y-63928346D01*
X219374798Y-63816153D01*
X219374789Y-63816149D01*
X219176060Y-63739162D01*
X219176061Y-63739162D01*
X219010000Y-63708119D01*
X219010000Y-64368829D01*
X219002315Y-64365320D01*
X218895763Y-64350000D01*
X218824237Y-64350000D01*
X218717685Y-64365320D01*
X218710000Y-64368829D01*
X218710000Y-63708119D01*
X218543939Y-63739162D01*
X218345210Y-63816149D01*
X218345201Y-63816153D01*
X218164002Y-63928346D01*
X218164000Y-63928348D01*
X218006500Y-64071928D01*
X217878059Y-64242010D01*
X217783066Y-64432783D01*
X217783058Y-64432803D01*
X217724738Y-64637781D01*
X217718972Y-64699999D01*
X217360809Y-64699999D01*
X217355300Y-64644066D01*
X217295232Y-64446046D01*
X217197685Y-64263550D01*
X217145702Y-64200209D01*
X217066410Y-64103589D01*
X216906452Y-63972317D01*
X216906453Y-63972317D01*
X216906450Y-63972315D01*
X216723954Y-63874768D01*
X216525934Y-63814700D01*
X216525932Y-63814699D01*
X216525934Y-63814699D01*
X216320000Y-63794417D01*
X216114067Y-63814699D01*
X215916043Y-63874769D01*
X215815809Y-63928346D01*
X215733550Y-63972315D01*
X215733548Y-63972316D01*
X215733547Y-63972317D01*
X215573589Y-64103589D01*
X215442317Y-64263547D01*
X215344769Y-64446043D01*
X215284699Y-64644067D01*
X215264417Y-64850000D01*
X215284699Y-65055932D01*
X215284700Y-65055934D01*
X215344768Y-65253954D01*
X215442315Y-65436450D01*
X215476969Y-65478677D01*
X215573589Y-65596410D01*
X215612169Y-65628071D01*
X215733546Y-65727682D01*
X215733549Y-65727684D01*
X215733551Y-65727686D01*
X215760242Y-65741952D01*
X215803953Y-65765316D01*
X215853797Y-65814277D01*
X215869500Y-65874674D01*
X215869500Y-67293034D01*
X215849815Y-67360073D01*
X215797011Y-67405828D01*
X215727853Y-67415772D01*
X215664297Y-67386747D01*
X215657819Y-67380715D01*
X214266819Y-65989715D01*
X214233334Y-65928392D01*
X214230500Y-65902034D01*
X214230500Y-65874674D01*
X214250185Y-65807635D01*
X214296046Y-65765316D01*
X214366450Y-65727685D01*
X214526410Y-65596410D01*
X214657685Y-65436450D01*
X214755232Y-65253954D01*
X214815300Y-65055934D01*
X214835583Y-64850000D01*
X214815300Y-64644066D01*
X214755232Y-64446046D01*
X214657685Y-64263550D01*
X214605702Y-64200209D01*
X214526410Y-64103589D01*
X214366452Y-63972317D01*
X214366453Y-63972317D01*
X214366450Y-63972315D01*
X214183954Y-63874768D01*
X213985934Y-63814700D01*
X213985932Y-63814699D01*
X213985934Y-63814699D01*
X213780000Y-63794417D01*
X213574067Y-63814699D01*
X213376043Y-63874769D01*
X213275809Y-63928346D01*
X213193550Y-63972315D01*
X213193548Y-63972316D01*
X213193547Y-63972317D01*
X213033589Y-64103589D01*
X212902317Y-64263547D01*
X212804769Y-64446043D01*
X212744699Y-64644067D01*
X212724417Y-64850000D01*
X212295583Y-64850000D01*
X212275300Y-64644066D01*
X212215232Y-64446046D01*
X212117685Y-64263550D01*
X212065702Y-64200209D01*
X211986410Y-64103589D01*
X211826452Y-63972317D01*
X211826453Y-63972317D01*
X211826450Y-63972315D01*
X211643954Y-63874768D01*
X211445934Y-63814700D01*
X211445932Y-63814699D01*
X211445934Y-63814699D01*
X211240000Y-63794417D01*
X211034067Y-63814699D01*
X210836043Y-63874769D01*
X210735809Y-63928346D01*
X210653550Y-63972315D01*
X210653548Y-63972316D01*
X210653547Y-63972317D01*
X210493589Y-64103589D01*
X210362317Y-64263547D01*
X210264769Y-64446043D01*
X210204699Y-64644067D01*
X210184417Y-64850000D01*
X210204699Y-65055932D01*
X210264769Y-65253958D01*
X210265561Y-65255869D01*
X210265677Y-65256949D01*
X210266537Y-65259784D01*
X210265999Y-65259947D01*
X210273024Y-65325339D01*
X210241744Y-65387816D01*
X210238677Y-65390994D01*
X208561803Y-67067870D01*
X208557814Y-67071525D01*
X208526805Y-67097545D01*
X208506562Y-67132606D01*
X208503656Y-67137166D01*
X208480446Y-67170313D01*
X208478206Y-67175117D01*
X208471229Y-67191961D01*
X208469410Y-67196959D01*
X208462383Y-67236811D01*
X208461212Y-67242091D01*
X208450735Y-67281191D01*
X208454264Y-67321513D01*
X208454500Y-67326920D01*
X208454500Y-68734812D01*
X208434815Y-68801851D01*
X208382011Y-68847606D01*
X208312853Y-68857550D01*
X208249297Y-68828525D01*
X208242819Y-68822493D01*
X206521819Y-67101493D01*
X206488334Y-67040170D01*
X206485500Y-67013812D01*
X206485500Y-65940583D01*
X206505185Y-65873544D01*
X206557989Y-65827789D01*
X206562049Y-65826021D01*
X206563945Y-65825234D01*
X206563954Y-65825232D01*
X206746450Y-65727685D01*
X206906410Y-65596410D01*
X207037685Y-65436450D01*
X207135232Y-65253954D01*
X207195300Y-65055934D01*
X207215583Y-64850000D01*
X207644417Y-64850000D01*
X207664699Y-65055932D01*
X207664700Y-65055934D01*
X207724768Y-65253954D01*
X207822315Y-65436450D01*
X207856969Y-65478677D01*
X207953589Y-65596410D01*
X207992169Y-65628071D01*
X208113550Y-65727685D01*
X208296046Y-65825232D01*
X208494066Y-65885300D01*
X208494065Y-65885300D01*
X208512529Y-65887118D01*
X208700000Y-65905583D01*
X208905934Y-65885300D01*
X209103954Y-65825232D01*
X209286450Y-65727685D01*
X209446410Y-65596410D01*
X209577685Y-65436450D01*
X209675232Y-65253954D01*
X209735300Y-65055934D01*
X209755583Y-64850000D01*
X209735300Y-64644066D01*
X209675232Y-64446046D01*
X209577685Y-64263550D01*
X209525702Y-64200209D01*
X209446410Y-64103589D01*
X209286452Y-63972317D01*
X209286453Y-63972317D01*
X209286450Y-63972315D01*
X209103954Y-63874768D01*
X208905934Y-63814700D01*
X208905932Y-63814699D01*
X208905934Y-63814699D01*
X208700000Y-63794417D01*
X208494067Y-63814699D01*
X208296043Y-63874769D01*
X208195809Y-63928346D01*
X208113550Y-63972315D01*
X208113548Y-63972316D01*
X208113547Y-63972317D01*
X207953589Y-64103589D01*
X207822317Y-64263547D01*
X207724769Y-64446043D01*
X207664699Y-64644067D01*
X207644417Y-64850000D01*
X207215583Y-64850000D01*
X207195300Y-64644066D01*
X207135232Y-64446046D01*
X207037685Y-64263550D01*
X206985702Y-64200209D01*
X206906410Y-64103589D01*
X206746452Y-63972317D01*
X206746453Y-63972317D01*
X206746450Y-63972315D01*
X206563954Y-63874768D01*
X206365934Y-63814700D01*
X206365932Y-63814699D01*
X206365934Y-63814699D01*
X206160000Y-63794417D01*
X205954067Y-63814699D01*
X205756043Y-63874769D01*
X205655809Y-63928346D01*
X205573550Y-63972315D01*
X205573548Y-63972316D01*
X205573547Y-63972317D01*
X205413589Y-64103589D01*
X205282317Y-64263547D01*
X205184769Y-64446043D01*
X205124699Y-64644067D01*
X205104417Y-64850000D01*
X205124699Y-65055932D01*
X205124700Y-65055934D01*
X205184768Y-65253954D01*
X205282315Y-65436450D01*
X205316969Y-65478677D01*
X205413589Y-65596410D01*
X205452169Y-65628071D01*
X205573550Y-65727685D01*
X205756046Y-65825232D01*
X205756051Y-65825233D01*
X205757951Y-65826021D01*
X205758796Y-65826701D01*
X205761419Y-65828104D01*
X205761153Y-65828601D01*
X205812355Y-65869862D01*
X205834421Y-65936156D01*
X205834500Y-65940583D01*
X205834500Y-67183030D01*
X205834272Y-67188341D01*
X205834034Y-67191117D01*
X205808681Y-67256225D01*
X205752154Y-67297291D01*
X205710489Y-67304500D01*
X204866188Y-67304500D01*
X204799149Y-67284815D01*
X204778507Y-67268181D01*
X204011819Y-66501493D01*
X203978334Y-66440170D01*
X203975500Y-66413812D01*
X203975500Y-65925454D01*
X203995185Y-65858415D01*
X204041046Y-65816096D01*
X204056875Y-65807635D01*
X204206450Y-65727685D01*
X204366410Y-65596410D01*
X204497685Y-65436450D01*
X204595232Y-65253954D01*
X204655300Y-65055934D01*
X204675583Y-64850000D01*
X204655300Y-64644066D01*
X204595232Y-64446046D01*
X204497685Y-64263550D01*
X204445702Y-64200209D01*
X204366410Y-64103589D01*
X204206452Y-63972317D01*
X204206453Y-63972317D01*
X204206450Y-63972315D01*
X204023954Y-63874768D01*
X203825934Y-63814700D01*
X203825932Y-63814699D01*
X203825934Y-63814699D01*
X203620000Y-63794417D01*
X203414067Y-63814699D01*
X203216043Y-63874769D01*
X203115809Y-63928346D01*
X203033550Y-63972315D01*
X203033548Y-63972316D01*
X203033547Y-63972317D01*
X202873589Y-64103589D01*
X202742317Y-64263547D01*
X202644769Y-64446043D01*
X202584699Y-64644067D01*
X202564417Y-64850000D01*
X202135583Y-64850000D01*
X202115300Y-64644066D01*
X202055232Y-64446046D01*
X201957685Y-64263550D01*
X201905702Y-64200209D01*
X201826410Y-64103589D01*
X201666452Y-63972317D01*
X201666453Y-63972317D01*
X201666450Y-63972315D01*
X201483954Y-63874768D01*
X201285934Y-63814700D01*
X201285932Y-63814699D01*
X201285934Y-63814699D01*
X201080000Y-63794417D01*
X200874067Y-63814699D01*
X200676043Y-63874769D01*
X200575809Y-63928346D01*
X200493550Y-63972315D01*
X200493548Y-63972316D01*
X200493547Y-63972317D01*
X200333589Y-64103589D01*
X200202317Y-64263547D01*
X200104769Y-64446043D01*
X200044699Y-64644067D01*
X200024417Y-64850000D01*
X199040000Y-64850000D01*
X199040000Y-64778111D01*
X199017065Y-64700000D01*
X199681027Y-64700000D01*
X199681027Y-64699999D01*
X199675261Y-64637781D01*
X199616941Y-64432803D01*
X199616933Y-64432783D01*
X199521940Y-64242010D01*
X199393499Y-64071928D01*
X199235999Y-63928348D01*
X199235997Y-63928346D01*
X199054798Y-63816153D01*
X199054789Y-63816149D01*
X198856060Y-63739162D01*
X198856061Y-63739162D01*
X198690000Y-63708119D01*
X198690000Y-64368829D01*
X198682315Y-64365320D01*
X198575763Y-64350000D01*
X198504237Y-64350000D01*
X198397685Y-64365320D01*
X198390000Y-64368829D01*
X198390000Y-63708119D01*
X198223939Y-63739162D01*
X198025210Y-63816149D01*
X198025201Y-63816153D01*
X197844002Y-63928346D01*
X197844000Y-63928348D01*
X197686500Y-64071928D01*
X197558059Y-64242010D01*
X197463066Y-64432783D01*
X197463058Y-64432803D01*
X197404738Y-64637781D01*
X197398972Y-64699999D01*
X197040809Y-64699999D01*
X197035300Y-64644066D01*
X196975232Y-64446046D01*
X196877685Y-64263550D01*
X196825702Y-64200209D01*
X196746410Y-64103589D01*
X196586452Y-63972317D01*
X196586453Y-63972317D01*
X196586450Y-63972315D01*
X196403954Y-63874768D01*
X196205934Y-63814700D01*
X196205932Y-63814699D01*
X196205934Y-63814699D01*
X196000000Y-63794417D01*
X195794067Y-63814699D01*
X195596043Y-63874769D01*
X195495809Y-63928346D01*
X195413550Y-63972315D01*
X195413548Y-63972316D01*
X195413547Y-63972317D01*
X195253589Y-64103589D01*
X195122317Y-64263547D01*
X195024769Y-64446043D01*
X194964699Y-64644067D01*
X194944417Y-64850000D01*
X194515583Y-64850000D01*
X194495300Y-64644066D01*
X194435232Y-64446046D01*
X194337685Y-64263550D01*
X194285702Y-64200209D01*
X194206410Y-64103589D01*
X194046452Y-63972317D01*
X194046453Y-63972317D01*
X194046450Y-63972315D01*
X193863954Y-63874768D01*
X193665934Y-63814700D01*
X193665932Y-63814699D01*
X193665934Y-63814699D01*
X193460000Y-63794417D01*
X193254067Y-63814699D01*
X193056043Y-63874769D01*
X192955809Y-63928346D01*
X192873550Y-63972315D01*
X192873548Y-63972316D01*
X192873547Y-63972317D01*
X192713589Y-64103589D01*
X192582317Y-64263547D01*
X192484769Y-64446043D01*
X192424699Y-64644067D01*
X192404417Y-64850000D01*
X191975583Y-64850000D01*
X191955300Y-64644066D01*
X191895232Y-64446046D01*
X191797685Y-64263550D01*
X191745702Y-64200209D01*
X191666410Y-64103589D01*
X191506452Y-63972317D01*
X191506453Y-63972317D01*
X191506450Y-63972315D01*
X191323954Y-63874768D01*
X191125934Y-63814700D01*
X191125932Y-63814699D01*
X191125934Y-63814699D01*
X190920000Y-63794417D01*
X190714067Y-63814699D01*
X190516043Y-63874769D01*
X190415809Y-63928346D01*
X190333550Y-63972315D01*
X190333548Y-63972316D01*
X190333547Y-63972317D01*
X190173589Y-64103589D01*
X190042317Y-64263547D01*
X189944769Y-64446043D01*
X189884699Y-64644067D01*
X189864417Y-64850000D01*
X189884699Y-65055932D01*
X189884700Y-65055934D01*
X189944768Y-65253954D01*
X190042315Y-65436450D01*
X190076969Y-65478677D01*
X190173589Y-65596410D01*
X190212169Y-65628071D01*
X190333550Y-65727685D01*
X190516046Y-65825232D01*
X190714066Y-65885300D01*
X190714065Y-65885300D01*
X190732529Y-65887118D01*
X190920000Y-65905583D01*
X191125934Y-65885300D01*
X191202325Y-65862127D01*
X191272192Y-65861503D01*
X191326002Y-65893106D01*
X191703181Y-66270284D01*
X191736666Y-66331607D01*
X191739500Y-66357965D01*
X191739500Y-69952035D01*
X191719815Y-70019074D01*
X191703185Y-70039711D01*
X191618046Y-70124851D01*
X191539210Y-70203687D01*
X191477887Y-70237171D01*
X191408195Y-70232187D01*
X191352262Y-70190315D01*
X191327845Y-70124851D01*
X191328589Y-70099829D01*
X191345682Y-69970000D01*
X191325044Y-69813238D01*
X191264536Y-69667159D01*
X191168282Y-69541718D01*
X191042841Y-69445464D01*
X190896762Y-69384956D01*
X190896760Y-69384955D01*
X190740001Y-69364318D01*
X190739999Y-69364318D01*
X190583239Y-69384955D01*
X190583237Y-69384956D01*
X190437160Y-69445463D01*
X190311718Y-69541718D01*
X190215463Y-69667160D01*
X190154956Y-69813237D01*
X190154955Y-69813239D01*
X190134318Y-69969998D01*
X190134318Y-69970001D01*
X190154955Y-70126760D01*
X190154957Y-70126765D01*
X190215462Y-70272838D01*
X190217152Y-70275765D01*
X190217827Y-70278548D01*
X190218574Y-70280351D01*
X190218292Y-70280467D01*
X190233626Y-70343665D01*
X190210775Y-70409692D01*
X190197447Y-70425448D01*
X187241804Y-73381092D01*
X187236617Y-73385727D01*
X187206033Y-73410117D01*
X187206029Y-73410121D01*
X187172519Y-73459271D01*
X187137206Y-73507118D01*
X187133216Y-73514667D01*
X187129528Y-73522326D01*
X187111992Y-73579177D01*
X187092353Y-73635301D01*
X187090771Y-73643659D01*
X187089500Y-73652100D01*
X187089500Y-73711573D01*
X187087275Y-73771009D01*
X187088316Y-73780243D01*
X187087485Y-73780336D01*
X187089500Y-73795635D01*
X187089500Y-79912085D01*
X187069815Y-79979124D01*
X187053181Y-79999766D01*
X185884766Y-81168181D01*
X185823443Y-81201666D01*
X185797085Y-81204500D01*
X185524675Y-81204500D01*
X185457636Y-81184815D01*
X185415317Y-81138953D01*
X185377688Y-81068555D01*
X185377684Y-81068549D01*
X185377682Y-81068547D01*
X185303269Y-80977873D01*
X185246410Y-80908589D01*
X185086452Y-80777317D01*
X185086453Y-80777317D01*
X185086450Y-80777315D01*
X184903954Y-80679768D01*
X184705934Y-80619700D01*
X184705932Y-80619699D01*
X184705934Y-80619699D01*
X184500000Y-80599417D01*
X184294067Y-80619699D01*
X184096043Y-80679769D01*
X183985898Y-80738643D01*
X183913550Y-80777315D01*
X183913548Y-80777316D01*
X183913547Y-80777317D01*
X183753589Y-80908589D01*
X183622317Y-81068547D01*
X183622315Y-81068550D01*
X183598922Y-81112315D01*
X183524769Y-81251043D01*
X183464699Y-81449067D01*
X183444417Y-81655000D01*
X183464699Y-81860932D01*
X183464700Y-81860934D01*
X183524768Y-82058954D01*
X183622315Y-82241450D01*
X183656969Y-82283677D01*
X183753589Y-82401410D01*
X183850209Y-82480702D01*
X183913550Y-82532685D01*
X184096046Y-82630232D01*
X184294066Y-82690300D01*
X184294065Y-82690300D01*
X184312529Y-82692118D01*
X184500000Y-82710583D01*
X184705934Y-82690300D01*
X184903954Y-82630232D01*
X185086450Y-82532685D01*
X185246410Y-82401410D01*
X185377685Y-82241450D01*
X185411606Y-82177989D01*
X185415317Y-82171047D01*
X185464279Y-82121203D01*
X185524675Y-82105500D01*
X185638035Y-82105500D01*
X185705074Y-82125185D01*
X185750829Y-82177989D01*
X185760773Y-82247147D01*
X185731748Y-82310703D01*
X185725716Y-82317181D01*
X184894493Y-83148402D01*
X184833170Y-83181887D01*
X184770818Y-83179382D01*
X184705932Y-83159699D01*
X184705933Y-83159699D01*
X184520282Y-83141414D01*
X184500000Y-83139417D01*
X184499999Y-83139417D01*
X184294067Y-83159699D01*
X184096043Y-83219769D01*
X183985898Y-83278643D01*
X183913550Y-83317315D01*
X183913548Y-83317316D01*
X183913547Y-83317317D01*
X183753589Y-83448589D01*
X183622317Y-83608547D01*
X183622315Y-83608550D01*
X183603766Y-83643252D01*
X183524769Y-83791043D01*
X183524768Y-83791045D01*
X183524768Y-83791046D01*
X183517898Y-83813692D01*
X183464699Y-83989067D01*
X183444417Y-84195000D01*
X180640000Y-84195000D01*
X180640000Y-78964999D01*
X183358972Y-78964999D01*
X183358973Y-78965000D01*
X184022935Y-78965000D01*
X184000000Y-79043111D01*
X184000000Y-79186889D01*
X184022935Y-79265000D01*
X183358973Y-79265000D01*
X183364738Y-79327218D01*
X183423058Y-79532196D01*
X183423066Y-79532216D01*
X183518059Y-79722989D01*
X183646500Y-79893071D01*
X183804000Y-80036651D01*
X183804002Y-80036653D01*
X183985201Y-80148846D01*
X183985207Y-80148849D01*
X184183936Y-80225836D01*
X184350000Y-80256879D01*
X184350000Y-79596170D01*
X184357685Y-79599680D01*
X184464237Y-79615000D01*
X184535763Y-79615000D01*
X184642315Y-79599680D01*
X184650000Y-79596170D01*
X184650000Y-80256879D01*
X184816063Y-80225836D01*
X185014792Y-80148849D01*
X185014798Y-80148846D01*
X185195997Y-80036653D01*
X185195999Y-80036651D01*
X185353499Y-79893071D01*
X185481940Y-79722989D01*
X185576933Y-79532216D01*
X185576941Y-79532196D01*
X185635261Y-79327218D01*
X185641027Y-79265000D01*
X184977065Y-79265000D01*
X185000000Y-79186889D01*
X185000000Y-79043111D01*
X184977065Y-78965000D01*
X185641027Y-78965000D01*
X185641027Y-78964999D01*
X185635261Y-78902781D01*
X185576941Y-78697803D01*
X185576933Y-78697783D01*
X185481940Y-78507010D01*
X185353499Y-78336928D01*
X185195999Y-78193348D01*
X185195997Y-78193346D01*
X185014798Y-78081153D01*
X185014789Y-78081149D01*
X184816060Y-78004162D01*
X184816061Y-78004162D01*
X184650000Y-77973119D01*
X184650000Y-78633829D01*
X184642315Y-78630320D01*
X184535763Y-78615000D01*
X184464237Y-78615000D01*
X184357685Y-78630320D01*
X184350000Y-78633829D01*
X184350000Y-77973119D01*
X184183939Y-78004162D01*
X183985210Y-78081149D01*
X183985201Y-78081153D01*
X183804002Y-78193346D01*
X183804000Y-78193348D01*
X183646500Y-78336928D01*
X183518059Y-78507010D01*
X183423066Y-78697783D01*
X183423058Y-78697803D01*
X183364738Y-78902781D01*
X183358972Y-78964999D01*
X180640000Y-78964999D01*
X180640000Y-77444752D01*
X183449500Y-77444752D01*
X183461131Y-77503229D01*
X183461132Y-77503230D01*
X183505447Y-77569552D01*
X183571769Y-77613867D01*
X183571770Y-77613868D01*
X183630247Y-77625499D01*
X183630250Y-77625500D01*
X183630252Y-77625500D01*
X185369750Y-77625500D01*
X185369751Y-77625499D01*
X185384568Y-77622552D01*
X185428229Y-77613868D01*
X185428229Y-77613867D01*
X185428231Y-77613867D01*
X185494552Y-77569552D01*
X185538867Y-77503231D01*
X185538867Y-77503229D01*
X185538868Y-77503229D01*
X185550499Y-77444752D01*
X185550500Y-77444750D01*
X185550500Y-75705249D01*
X185550499Y-75705247D01*
X185538868Y-75646770D01*
X185538867Y-75646769D01*
X185494552Y-75580447D01*
X185428230Y-75536132D01*
X185428229Y-75536131D01*
X185369752Y-75524500D01*
X185369748Y-75524500D01*
X183630252Y-75524500D01*
X183630247Y-75524500D01*
X183571770Y-75536131D01*
X183571769Y-75536132D01*
X183505447Y-75580447D01*
X183461132Y-75646769D01*
X183461131Y-75646770D01*
X183449500Y-75705247D01*
X183449500Y-77444752D01*
X180640000Y-77444752D01*
X180640000Y-63500000D01*
X181894551Y-63500000D01*
X181914317Y-63751151D01*
X181973126Y-63996110D01*
X182069533Y-64228859D01*
X182201160Y-64443653D01*
X182201161Y-64443656D01*
X182256604Y-64508571D01*
X182364776Y-64635224D01*
X182513066Y-64761875D01*
X182556343Y-64798838D01*
X182556346Y-64798839D01*
X182771140Y-64930466D01*
X183003889Y-65026873D01*
X183248852Y-65085683D01*
X183404950Y-65097968D01*
X183437116Y-65100500D01*
X183437118Y-65100500D01*
X183562884Y-65100500D01*
X183592518Y-65098167D01*
X183751148Y-65085683D01*
X183996111Y-65026873D01*
X184228859Y-64930466D01*
X184360167Y-64850000D01*
X187324417Y-64850000D01*
X187344699Y-65055932D01*
X187344700Y-65055934D01*
X187404768Y-65253954D01*
X187502315Y-65436450D01*
X187536969Y-65478677D01*
X187633589Y-65596410D01*
X187672169Y-65628071D01*
X187793550Y-65727685D01*
X187976046Y-65825232D01*
X188174066Y-65885300D01*
X188174065Y-65885300D01*
X188192529Y-65887118D01*
X188380000Y-65905583D01*
X188585934Y-65885300D01*
X188783954Y-65825232D01*
X188966450Y-65727685D01*
X189126410Y-65596410D01*
X189257685Y-65436450D01*
X189355232Y-65253954D01*
X189415300Y-65055934D01*
X189435583Y-64850000D01*
X189415300Y-64644066D01*
X189355232Y-64446046D01*
X189257685Y-64263550D01*
X189205702Y-64200209D01*
X189126410Y-64103589D01*
X188966452Y-63972317D01*
X188966453Y-63972317D01*
X188966450Y-63972315D01*
X188783954Y-63874768D01*
X188585934Y-63814700D01*
X188585932Y-63814699D01*
X188585934Y-63814699D01*
X188380000Y-63794417D01*
X188174067Y-63814699D01*
X187976043Y-63874769D01*
X187875809Y-63928346D01*
X187793550Y-63972315D01*
X187793548Y-63972316D01*
X187793547Y-63972317D01*
X187633589Y-64103589D01*
X187502317Y-64263547D01*
X187404769Y-64446043D01*
X187344699Y-64644067D01*
X187324417Y-64850000D01*
X184360167Y-64850000D01*
X184443659Y-64798836D01*
X184635224Y-64635224D01*
X184798836Y-64443659D01*
X184930466Y-64228859D01*
X185026873Y-63996111D01*
X185085683Y-63751148D01*
X185105449Y-63500000D01*
X239894551Y-63500000D01*
X239914317Y-63751151D01*
X239973126Y-63996110D01*
X240069533Y-64228859D01*
X240201160Y-64443653D01*
X240201161Y-64443656D01*
X240256604Y-64508571D01*
X240364776Y-64635224D01*
X240513066Y-64761875D01*
X240556343Y-64798838D01*
X240556346Y-64798839D01*
X240771140Y-64930466D01*
X241003889Y-65026873D01*
X241248852Y-65085683D01*
X241404950Y-65097968D01*
X241437116Y-65100500D01*
X241437118Y-65100500D01*
X241562884Y-65100500D01*
X241592518Y-65098167D01*
X241751148Y-65085683D01*
X241996111Y-65026873D01*
X242228859Y-64930466D01*
X242443659Y-64798836D01*
X242635224Y-64635224D01*
X242798836Y-64443659D01*
X242930466Y-64228859D01*
X243026873Y-63996111D01*
X243085683Y-63751148D01*
X243105449Y-63500000D01*
X243085683Y-63248852D01*
X243026873Y-63003889D01*
X242991292Y-62917989D01*
X242930466Y-62771140D01*
X242798839Y-62556346D01*
X242798838Y-62556343D01*
X242716553Y-62460000D01*
X242635224Y-62364776D01*
X242508571Y-62256604D01*
X242443656Y-62201161D01*
X242443653Y-62201160D01*
X242228859Y-62069533D01*
X241996110Y-61973126D01*
X241751150Y-61914317D01*
X241562884Y-61899500D01*
X241562882Y-61899500D01*
X241437118Y-61899500D01*
X241437116Y-61899500D01*
X241248849Y-61914317D01*
X241003889Y-61973126D01*
X240771140Y-62069533D01*
X240556346Y-62201160D01*
X240556343Y-62201161D01*
X240364776Y-62364776D01*
X240201161Y-62556343D01*
X240201160Y-62556346D01*
X240069533Y-62771140D01*
X239973126Y-63003889D01*
X239914317Y-63248848D01*
X239894551Y-63500000D01*
X185105449Y-63500000D01*
X185085683Y-63248852D01*
X185069094Y-63179752D01*
X187329500Y-63179752D01*
X187341131Y-63238229D01*
X187341132Y-63238230D01*
X187385447Y-63304552D01*
X187451769Y-63348867D01*
X187451770Y-63348868D01*
X187510247Y-63360499D01*
X187510250Y-63360500D01*
X187510252Y-63360500D01*
X189249750Y-63360500D01*
X189249751Y-63360499D01*
X189264568Y-63357552D01*
X189308229Y-63348868D01*
X189308229Y-63348867D01*
X189308231Y-63348867D01*
X189374552Y-63304552D01*
X189418867Y-63238231D01*
X189418867Y-63238229D01*
X189418868Y-63238229D01*
X189430499Y-63179752D01*
X189430500Y-63179750D01*
X189430500Y-62310000D01*
X189864417Y-62310000D01*
X189884699Y-62515932D01*
X189914734Y-62614944D01*
X189944768Y-62713954D01*
X190042315Y-62896450D01*
X190076969Y-62938677D01*
X190173589Y-63056410D01*
X190212169Y-63088071D01*
X190333550Y-63187685D01*
X190516046Y-63285232D01*
X190714066Y-63345300D01*
X190714065Y-63345300D01*
X190732529Y-63347118D01*
X190920000Y-63365583D01*
X191125934Y-63345300D01*
X191323954Y-63285232D01*
X191506450Y-63187685D01*
X191666410Y-63056410D01*
X191797685Y-62896450D01*
X191895232Y-62713954D01*
X191955300Y-62515934D01*
X191975583Y-62310000D01*
X191960809Y-62159999D01*
X192318972Y-62159999D01*
X192318973Y-62160000D01*
X192982935Y-62160000D01*
X192960000Y-62238111D01*
X192960000Y-62381889D01*
X192982935Y-62460000D01*
X192318973Y-62460000D01*
X192324738Y-62522218D01*
X192383058Y-62727196D01*
X192383066Y-62727216D01*
X192478059Y-62917989D01*
X192606500Y-63088071D01*
X192764000Y-63231651D01*
X192764002Y-63231653D01*
X192945201Y-63343846D01*
X192945207Y-63343849D01*
X193143936Y-63420836D01*
X193310000Y-63451879D01*
X193310000Y-62791170D01*
X193317685Y-62794680D01*
X193424237Y-62810000D01*
X193495763Y-62810000D01*
X193602315Y-62794680D01*
X193610000Y-62791170D01*
X193610000Y-63451879D01*
X193776063Y-63420836D01*
X193974792Y-63343849D01*
X193974798Y-63343846D01*
X194155997Y-63231653D01*
X194155999Y-63231651D01*
X194313499Y-63088071D01*
X194441940Y-62917989D01*
X194536933Y-62727216D01*
X194536941Y-62727196D01*
X194595261Y-62522218D01*
X194601027Y-62460000D01*
X193937065Y-62460000D01*
X193960000Y-62381889D01*
X193960000Y-62310000D01*
X194944417Y-62310000D01*
X194964699Y-62515932D01*
X194994734Y-62614944D01*
X195024768Y-62713954D01*
X195122315Y-62896450D01*
X195156969Y-62938677D01*
X195253589Y-63056410D01*
X195292169Y-63088071D01*
X195413550Y-63187685D01*
X195596046Y-63285232D01*
X195794066Y-63345300D01*
X195794065Y-63345300D01*
X195812529Y-63347118D01*
X196000000Y-63365583D01*
X196205934Y-63345300D01*
X196403954Y-63285232D01*
X196586450Y-63187685D01*
X196746410Y-63056410D01*
X196877685Y-62896450D01*
X196975232Y-62713954D01*
X197035300Y-62515934D01*
X197055583Y-62310000D01*
X197484417Y-62310000D01*
X197504699Y-62515932D01*
X197534734Y-62614944D01*
X197564768Y-62713954D01*
X197662315Y-62896450D01*
X197696969Y-62938677D01*
X197793589Y-63056410D01*
X197832169Y-63088071D01*
X197953550Y-63187685D01*
X198136046Y-63285232D01*
X198334066Y-63345300D01*
X198334065Y-63345300D01*
X198352529Y-63347118D01*
X198540000Y-63365583D01*
X198745934Y-63345300D01*
X198943954Y-63285232D01*
X199126450Y-63187685D01*
X199286410Y-63056410D01*
X199417685Y-62896450D01*
X199515232Y-62713954D01*
X199575300Y-62515934D01*
X199595583Y-62310000D01*
X200024417Y-62310000D01*
X200044699Y-62515932D01*
X200074734Y-62614944D01*
X200104768Y-62713954D01*
X200202315Y-62896450D01*
X200236969Y-62938677D01*
X200333589Y-63056410D01*
X200372169Y-63088071D01*
X200493550Y-63187685D01*
X200676046Y-63285232D01*
X200874066Y-63345300D01*
X200874065Y-63345300D01*
X200892529Y-63347118D01*
X201080000Y-63365583D01*
X201285934Y-63345300D01*
X201483954Y-63285232D01*
X201666450Y-63187685D01*
X201826410Y-63056410D01*
X201957685Y-62896450D01*
X202055232Y-62713954D01*
X202115300Y-62515934D01*
X202135583Y-62310000D01*
X202120809Y-62159999D01*
X202478972Y-62159999D01*
X202478973Y-62160000D01*
X203142935Y-62160000D01*
X203120000Y-62238111D01*
X203120000Y-62381889D01*
X203142935Y-62460000D01*
X202478973Y-62460000D01*
X202484738Y-62522218D01*
X202543058Y-62727196D01*
X202543066Y-62727216D01*
X202638059Y-62917989D01*
X202766500Y-63088071D01*
X202924000Y-63231651D01*
X202924002Y-63231653D01*
X203105201Y-63343846D01*
X203105207Y-63343849D01*
X203303936Y-63420836D01*
X203470000Y-63451879D01*
X203470000Y-62791170D01*
X203477685Y-62794680D01*
X203584237Y-62810000D01*
X203655763Y-62810000D01*
X203762315Y-62794680D01*
X203770000Y-62791170D01*
X203770000Y-63451879D01*
X203936063Y-63420836D01*
X204134792Y-63343849D01*
X204134798Y-63343846D01*
X204315997Y-63231653D01*
X204315999Y-63231651D01*
X204473499Y-63088071D01*
X204601940Y-62917989D01*
X204696933Y-62727216D01*
X204696941Y-62727196D01*
X204755261Y-62522218D01*
X204761027Y-62460000D01*
X204097065Y-62460000D01*
X204120000Y-62381889D01*
X204120000Y-62310000D01*
X205104417Y-62310000D01*
X205124699Y-62515932D01*
X205154734Y-62614944D01*
X205184768Y-62713954D01*
X205282315Y-62896450D01*
X205316969Y-62938677D01*
X205413589Y-63056410D01*
X205452169Y-63088071D01*
X205573550Y-63187685D01*
X205756046Y-63285232D01*
X205954066Y-63345300D01*
X205954065Y-63345300D01*
X205972529Y-63347118D01*
X206160000Y-63365583D01*
X206365934Y-63345300D01*
X206563954Y-63285232D01*
X206746450Y-63187685D01*
X206906410Y-63056410D01*
X207037685Y-62896450D01*
X207135232Y-62713954D01*
X207195300Y-62515934D01*
X207215583Y-62310000D01*
X207644417Y-62310000D01*
X207664699Y-62515932D01*
X207694734Y-62614944D01*
X207724768Y-62713954D01*
X207822315Y-62896450D01*
X207856969Y-62938677D01*
X207953589Y-63056410D01*
X207992169Y-63088071D01*
X208113550Y-63187685D01*
X208296046Y-63285232D01*
X208494066Y-63345300D01*
X208494065Y-63345300D01*
X208512529Y-63347118D01*
X208700000Y-63365583D01*
X208905934Y-63345300D01*
X209103954Y-63285232D01*
X209286450Y-63187685D01*
X209446410Y-63056410D01*
X209577685Y-62896450D01*
X209675232Y-62713954D01*
X209735300Y-62515934D01*
X209755583Y-62310000D01*
X209740809Y-62159999D01*
X210098972Y-62159999D01*
X210098973Y-62160000D01*
X210762935Y-62160000D01*
X210740000Y-62238111D01*
X210740000Y-62381889D01*
X210762935Y-62460000D01*
X210098973Y-62460000D01*
X210104738Y-62522218D01*
X210163058Y-62727196D01*
X210163066Y-62727216D01*
X210258059Y-62917989D01*
X210386500Y-63088071D01*
X210544000Y-63231651D01*
X210544002Y-63231653D01*
X210725201Y-63343846D01*
X210725207Y-63343849D01*
X210923936Y-63420836D01*
X211090000Y-63451879D01*
X211090000Y-62791170D01*
X211097685Y-62794680D01*
X211204237Y-62810000D01*
X211275763Y-62810000D01*
X211382315Y-62794680D01*
X211390000Y-62791170D01*
X211390000Y-63451879D01*
X211556063Y-63420836D01*
X211754792Y-63343849D01*
X211754798Y-63343846D01*
X211935997Y-63231653D01*
X211935999Y-63231651D01*
X212093499Y-63088071D01*
X212221940Y-62917989D01*
X212316933Y-62727216D01*
X212316941Y-62727196D01*
X212375261Y-62522218D01*
X212381027Y-62460000D01*
X211717065Y-62460000D01*
X211740000Y-62381889D01*
X211740000Y-62310000D01*
X212724417Y-62310000D01*
X212744699Y-62515932D01*
X212774734Y-62614944D01*
X212804768Y-62713954D01*
X212902315Y-62896450D01*
X212936969Y-62938677D01*
X213033589Y-63056410D01*
X213072169Y-63088071D01*
X213193550Y-63187685D01*
X213376046Y-63285232D01*
X213574066Y-63345300D01*
X213574065Y-63345300D01*
X213592529Y-63347118D01*
X213780000Y-63365583D01*
X213985934Y-63345300D01*
X214183954Y-63285232D01*
X214366450Y-63187685D01*
X214526410Y-63056410D01*
X214657685Y-62896450D01*
X214755232Y-62713954D01*
X214815300Y-62515934D01*
X214835583Y-62310000D01*
X215264417Y-62310000D01*
X215284699Y-62515932D01*
X215314734Y-62614944D01*
X215344768Y-62713954D01*
X215442315Y-62896450D01*
X215476969Y-62938677D01*
X215573589Y-63056410D01*
X215612169Y-63088071D01*
X215733550Y-63187685D01*
X215916046Y-63285232D01*
X216114066Y-63345300D01*
X216114065Y-63345300D01*
X216132529Y-63347118D01*
X216320000Y-63365583D01*
X216525934Y-63345300D01*
X216723954Y-63285232D01*
X216906450Y-63187685D01*
X217066410Y-63056410D01*
X217197685Y-62896450D01*
X217295232Y-62713954D01*
X217355300Y-62515934D01*
X217375583Y-62310000D01*
X217804417Y-62310000D01*
X217824699Y-62515932D01*
X217854734Y-62614944D01*
X217884768Y-62713954D01*
X217982315Y-62896450D01*
X218016969Y-62938677D01*
X218113589Y-63056410D01*
X218152169Y-63088071D01*
X218273550Y-63187685D01*
X218456046Y-63285232D01*
X218654066Y-63345300D01*
X218654065Y-63345300D01*
X218672529Y-63347118D01*
X218860000Y-63365583D01*
X219065934Y-63345300D01*
X219263954Y-63285232D01*
X219446450Y-63187685D01*
X219606410Y-63056410D01*
X219737685Y-62896450D01*
X219835232Y-62713954D01*
X219895300Y-62515934D01*
X219915583Y-62310000D01*
X220344417Y-62310000D01*
X220364699Y-62515932D01*
X220394734Y-62614944D01*
X220424768Y-62713954D01*
X220522315Y-62896450D01*
X220556969Y-62938677D01*
X220653589Y-63056410D01*
X220692169Y-63088071D01*
X220813550Y-63187685D01*
X220996046Y-63285232D01*
X221194066Y-63345300D01*
X221194065Y-63345300D01*
X221212529Y-63347118D01*
X221400000Y-63365583D01*
X221605934Y-63345300D01*
X221803954Y-63285232D01*
X221986450Y-63187685D01*
X222146410Y-63056410D01*
X222277685Y-62896450D01*
X222375232Y-62713954D01*
X222435300Y-62515934D01*
X222455583Y-62310000D01*
X222440809Y-62159999D01*
X222798972Y-62159999D01*
X222798973Y-62160000D01*
X223462935Y-62160000D01*
X223440000Y-62238111D01*
X223440000Y-62381889D01*
X223462935Y-62460000D01*
X222798973Y-62460000D01*
X222804738Y-62522218D01*
X222863058Y-62727196D01*
X222863066Y-62727216D01*
X222958059Y-62917989D01*
X223086500Y-63088071D01*
X223244000Y-63231651D01*
X223244002Y-63231653D01*
X223425201Y-63343846D01*
X223425207Y-63343849D01*
X223623936Y-63420836D01*
X223790000Y-63451879D01*
X223790000Y-62791170D01*
X223797685Y-62794680D01*
X223904237Y-62810000D01*
X223975763Y-62810000D01*
X224082315Y-62794680D01*
X224090000Y-62791170D01*
X224090000Y-63451879D01*
X224256063Y-63420836D01*
X224454792Y-63343849D01*
X224454798Y-63343846D01*
X224635997Y-63231653D01*
X224635999Y-63231651D01*
X224793499Y-63088071D01*
X224921940Y-62917989D01*
X225016933Y-62727216D01*
X225016941Y-62727196D01*
X225075261Y-62522218D01*
X225081027Y-62460000D01*
X224417065Y-62460000D01*
X224440000Y-62381889D01*
X224440000Y-62310000D01*
X225424417Y-62310000D01*
X225444699Y-62515932D01*
X225474734Y-62614944D01*
X225504768Y-62713954D01*
X225602315Y-62896450D01*
X225636969Y-62938677D01*
X225733589Y-63056410D01*
X225772169Y-63088071D01*
X225893550Y-63187685D01*
X226076046Y-63285232D01*
X226274066Y-63345300D01*
X226274065Y-63345300D01*
X226292529Y-63347118D01*
X226480000Y-63365583D01*
X226685934Y-63345300D01*
X226883954Y-63285232D01*
X227066450Y-63187685D01*
X227226410Y-63056410D01*
X227357685Y-62896450D01*
X227455232Y-62713954D01*
X227515300Y-62515934D01*
X227535583Y-62310000D01*
X227520809Y-62159999D01*
X227878972Y-62159999D01*
X227878973Y-62160000D01*
X228542935Y-62160000D01*
X228520000Y-62238111D01*
X228520000Y-62381889D01*
X228542935Y-62460000D01*
X227878973Y-62460000D01*
X227884738Y-62522218D01*
X227943058Y-62727196D01*
X227943066Y-62727216D01*
X228038059Y-62917989D01*
X228166500Y-63088071D01*
X228324000Y-63231651D01*
X228324002Y-63231653D01*
X228505201Y-63343846D01*
X228505207Y-63343849D01*
X228703936Y-63420836D01*
X228870000Y-63451879D01*
X228870000Y-62791170D01*
X228877685Y-62794680D01*
X228984237Y-62810000D01*
X229055763Y-62810000D01*
X229162315Y-62794680D01*
X229170000Y-62791170D01*
X229170000Y-63451879D01*
X229336063Y-63420836D01*
X229534792Y-63343849D01*
X229534798Y-63343846D01*
X229715997Y-63231653D01*
X229715999Y-63231651D01*
X229873499Y-63088071D01*
X230001940Y-62917989D01*
X230096933Y-62727216D01*
X230096941Y-62727196D01*
X230155261Y-62522218D01*
X230161027Y-62460000D01*
X229497065Y-62460000D01*
X229520000Y-62381889D01*
X229520000Y-62310000D01*
X230504417Y-62310000D01*
X230524699Y-62515932D01*
X230554734Y-62614944D01*
X230584768Y-62713954D01*
X230682315Y-62896450D01*
X230716969Y-62938677D01*
X230813589Y-63056410D01*
X230852169Y-63088071D01*
X230973550Y-63187685D01*
X231156046Y-63285232D01*
X231354066Y-63345300D01*
X231354065Y-63345300D01*
X231372529Y-63347118D01*
X231560000Y-63365583D01*
X231765934Y-63345300D01*
X231963954Y-63285232D01*
X232146450Y-63187685D01*
X232306410Y-63056410D01*
X232437685Y-62896450D01*
X232535232Y-62713954D01*
X232595300Y-62515934D01*
X232615583Y-62310000D01*
X233044417Y-62310000D01*
X233064699Y-62515932D01*
X233094734Y-62614944D01*
X233124768Y-62713954D01*
X233222315Y-62896450D01*
X233256969Y-62938677D01*
X233353589Y-63056410D01*
X233392169Y-63088071D01*
X233513550Y-63187685D01*
X233696046Y-63285232D01*
X233894066Y-63345300D01*
X233894065Y-63345300D01*
X233912529Y-63347118D01*
X234100000Y-63365583D01*
X234305934Y-63345300D01*
X234503954Y-63285232D01*
X234686450Y-63187685D01*
X234846410Y-63056410D01*
X234977685Y-62896450D01*
X235075232Y-62713954D01*
X235135300Y-62515934D01*
X235155583Y-62310000D01*
X235584417Y-62310000D01*
X235604699Y-62515932D01*
X235634734Y-62614944D01*
X235664768Y-62713954D01*
X235762315Y-62896450D01*
X235796969Y-62938677D01*
X235893589Y-63056410D01*
X235932169Y-63088071D01*
X236053550Y-63187685D01*
X236236046Y-63285232D01*
X236434066Y-63345300D01*
X236434065Y-63345300D01*
X236452529Y-63347118D01*
X236640000Y-63365583D01*
X236845934Y-63345300D01*
X237043954Y-63285232D01*
X237226450Y-63187685D01*
X237386410Y-63056410D01*
X237517685Y-62896450D01*
X237615232Y-62713954D01*
X237675300Y-62515934D01*
X237695583Y-62310000D01*
X237675300Y-62104066D01*
X237615232Y-61906046D01*
X237517685Y-61723550D01*
X237423582Y-61608884D01*
X237386410Y-61563589D01*
X237236121Y-61440252D01*
X237226450Y-61432315D01*
X237043954Y-61334768D01*
X236845934Y-61274700D01*
X236845932Y-61274699D01*
X236845934Y-61274699D01*
X236640000Y-61254417D01*
X236434067Y-61274699D01*
X236236043Y-61334769D01*
X236182165Y-61363568D01*
X236053550Y-61432315D01*
X236053548Y-61432316D01*
X236053547Y-61432317D01*
X235893589Y-61563589D01*
X235762317Y-61723547D01*
X235664769Y-61906043D01*
X235604699Y-62104067D01*
X235584417Y-62310000D01*
X235155583Y-62310000D01*
X235135300Y-62104066D01*
X235075232Y-61906046D01*
X234977685Y-61723550D01*
X234883582Y-61608884D01*
X234846410Y-61563589D01*
X234696121Y-61440252D01*
X234686450Y-61432315D01*
X234503954Y-61334768D01*
X234305934Y-61274700D01*
X234305932Y-61274699D01*
X234305934Y-61274699D01*
X234100000Y-61254417D01*
X233894067Y-61274699D01*
X233696043Y-61334769D01*
X233642165Y-61363568D01*
X233513550Y-61432315D01*
X233513548Y-61432316D01*
X233513547Y-61432317D01*
X233353589Y-61563589D01*
X233222317Y-61723547D01*
X233124769Y-61906043D01*
X233064699Y-62104067D01*
X233044417Y-62310000D01*
X232615583Y-62310000D01*
X232595300Y-62104066D01*
X232535232Y-61906046D01*
X232437685Y-61723550D01*
X232343582Y-61608884D01*
X232306410Y-61563589D01*
X232156121Y-61440252D01*
X232146450Y-61432315D01*
X231963954Y-61334768D01*
X231765934Y-61274700D01*
X231765932Y-61274699D01*
X231765934Y-61274699D01*
X231560000Y-61254417D01*
X231354067Y-61274699D01*
X231156043Y-61334769D01*
X231102165Y-61363568D01*
X230973550Y-61432315D01*
X230973548Y-61432316D01*
X230973547Y-61432317D01*
X230813589Y-61563589D01*
X230682317Y-61723547D01*
X230584769Y-61906043D01*
X230524699Y-62104067D01*
X230504417Y-62310000D01*
X229520000Y-62310000D01*
X229520000Y-62238111D01*
X229497065Y-62160000D01*
X230161027Y-62160000D01*
X230161027Y-62159999D01*
X230155261Y-62097781D01*
X230096941Y-61892803D01*
X230096933Y-61892783D01*
X230001940Y-61702010D01*
X229873499Y-61531928D01*
X229715999Y-61388348D01*
X229715997Y-61388346D01*
X229534798Y-61276153D01*
X229534789Y-61276149D01*
X229336060Y-61199162D01*
X229336061Y-61199162D01*
X229170000Y-61168119D01*
X229170000Y-61828829D01*
X229162315Y-61825320D01*
X229055763Y-61810000D01*
X228984237Y-61810000D01*
X228877685Y-61825320D01*
X228870000Y-61828829D01*
X228870000Y-61168119D01*
X228703939Y-61199162D01*
X228505210Y-61276149D01*
X228505201Y-61276153D01*
X228324002Y-61388346D01*
X228324000Y-61388348D01*
X228166500Y-61531928D01*
X228038059Y-61702010D01*
X227943066Y-61892783D01*
X227943058Y-61892803D01*
X227884738Y-62097781D01*
X227878972Y-62159999D01*
X227520809Y-62159999D01*
X227515300Y-62104066D01*
X227455232Y-61906046D01*
X227357685Y-61723550D01*
X227263582Y-61608884D01*
X227226410Y-61563589D01*
X227076121Y-61440252D01*
X227066450Y-61432315D01*
X226883954Y-61334768D01*
X226685934Y-61274700D01*
X226685932Y-61274699D01*
X226685934Y-61274699D01*
X226480000Y-61254417D01*
X226274067Y-61274699D01*
X226076043Y-61334769D01*
X226022165Y-61363568D01*
X225893550Y-61432315D01*
X225893548Y-61432316D01*
X225893547Y-61432317D01*
X225733589Y-61563589D01*
X225602317Y-61723547D01*
X225504769Y-61906043D01*
X225444699Y-62104067D01*
X225424417Y-62310000D01*
X224440000Y-62310000D01*
X224440000Y-62238111D01*
X224417065Y-62160000D01*
X225081027Y-62160000D01*
X225081027Y-62159999D01*
X225075261Y-62097781D01*
X225016941Y-61892803D01*
X225016933Y-61892783D01*
X224921940Y-61702010D01*
X224793499Y-61531928D01*
X224635999Y-61388348D01*
X224635997Y-61388346D01*
X224454798Y-61276153D01*
X224454789Y-61276149D01*
X224256060Y-61199162D01*
X224256061Y-61199162D01*
X224090000Y-61168119D01*
X224090000Y-61828829D01*
X224082315Y-61825320D01*
X223975763Y-61810000D01*
X223904237Y-61810000D01*
X223797685Y-61825320D01*
X223790000Y-61828829D01*
X223790000Y-61168119D01*
X223623939Y-61199162D01*
X223425210Y-61276149D01*
X223425201Y-61276153D01*
X223244002Y-61388346D01*
X223244000Y-61388348D01*
X223086500Y-61531928D01*
X222958059Y-61702010D01*
X222863066Y-61892783D01*
X222863058Y-61892803D01*
X222804738Y-62097781D01*
X222798972Y-62159999D01*
X222440809Y-62159999D01*
X222435300Y-62104066D01*
X222375232Y-61906046D01*
X222277685Y-61723550D01*
X222183582Y-61608884D01*
X222146410Y-61563589D01*
X221996121Y-61440252D01*
X221986450Y-61432315D01*
X221803954Y-61334768D01*
X221605934Y-61274700D01*
X221605932Y-61274699D01*
X221605934Y-61274699D01*
X221400000Y-61254417D01*
X221194067Y-61274699D01*
X220996043Y-61334769D01*
X220942165Y-61363568D01*
X220813550Y-61432315D01*
X220813548Y-61432316D01*
X220813547Y-61432317D01*
X220653589Y-61563589D01*
X220522317Y-61723547D01*
X220424769Y-61906043D01*
X220364699Y-62104067D01*
X220344417Y-62310000D01*
X219915583Y-62310000D01*
X219895300Y-62104066D01*
X219835232Y-61906046D01*
X219737685Y-61723550D01*
X219643582Y-61608884D01*
X219606410Y-61563589D01*
X219456121Y-61440252D01*
X219446450Y-61432315D01*
X219263954Y-61334768D01*
X219065934Y-61274700D01*
X219065932Y-61274699D01*
X219065934Y-61274699D01*
X218860000Y-61254417D01*
X218654067Y-61274699D01*
X218456043Y-61334769D01*
X218402165Y-61363568D01*
X218273550Y-61432315D01*
X218273548Y-61432316D01*
X218273547Y-61432317D01*
X218113589Y-61563589D01*
X217982317Y-61723547D01*
X217884769Y-61906043D01*
X217824699Y-62104067D01*
X217804417Y-62310000D01*
X217375583Y-62310000D01*
X217355300Y-62104066D01*
X217295232Y-61906046D01*
X217197685Y-61723550D01*
X217103582Y-61608884D01*
X217066410Y-61563589D01*
X216916121Y-61440252D01*
X216906450Y-61432315D01*
X216723954Y-61334768D01*
X216525934Y-61274700D01*
X216525932Y-61274699D01*
X216525934Y-61274699D01*
X216320000Y-61254417D01*
X216114067Y-61274699D01*
X215916043Y-61334769D01*
X215862165Y-61363568D01*
X215733550Y-61432315D01*
X215733548Y-61432316D01*
X215733547Y-61432317D01*
X215573589Y-61563589D01*
X215442317Y-61723547D01*
X215344769Y-61906043D01*
X215284699Y-62104067D01*
X215264417Y-62310000D01*
X214835583Y-62310000D01*
X214815300Y-62104066D01*
X214755232Y-61906046D01*
X214657685Y-61723550D01*
X214563582Y-61608884D01*
X214526410Y-61563589D01*
X214376121Y-61440252D01*
X214366450Y-61432315D01*
X214183954Y-61334768D01*
X213985934Y-61274700D01*
X213985932Y-61274699D01*
X213985934Y-61274699D01*
X213780000Y-61254417D01*
X213574067Y-61274699D01*
X213376043Y-61334769D01*
X213322165Y-61363568D01*
X213193550Y-61432315D01*
X213193548Y-61432316D01*
X213193547Y-61432317D01*
X213033589Y-61563589D01*
X212902317Y-61723547D01*
X212804769Y-61906043D01*
X212744699Y-62104067D01*
X212724417Y-62310000D01*
X211740000Y-62310000D01*
X211740000Y-62238111D01*
X211717065Y-62160000D01*
X212381027Y-62160000D01*
X212381027Y-62159999D01*
X212375261Y-62097781D01*
X212316941Y-61892803D01*
X212316933Y-61892783D01*
X212221940Y-61702010D01*
X212093499Y-61531928D01*
X211935999Y-61388348D01*
X211935997Y-61388346D01*
X211754798Y-61276153D01*
X211754789Y-61276149D01*
X211556060Y-61199162D01*
X211556061Y-61199162D01*
X211390000Y-61168119D01*
X211390000Y-61828829D01*
X211382315Y-61825320D01*
X211275763Y-61810000D01*
X211204237Y-61810000D01*
X211097685Y-61825320D01*
X211090000Y-61828829D01*
X211090000Y-61168119D01*
X210923939Y-61199162D01*
X210725210Y-61276149D01*
X210725201Y-61276153D01*
X210544002Y-61388346D01*
X210544000Y-61388348D01*
X210386500Y-61531928D01*
X210258059Y-61702010D01*
X210163066Y-61892783D01*
X210163058Y-61892803D01*
X210104738Y-62097781D01*
X210098972Y-62159999D01*
X209740809Y-62159999D01*
X209735300Y-62104066D01*
X209675232Y-61906046D01*
X209577685Y-61723550D01*
X209483582Y-61608884D01*
X209446410Y-61563589D01*
X209296121Y-61440252D01*
X209286450Y-61432315D01*
X209103954Y-61334768D01*
X208905934Y-61274700D01*
X208905932Y-61274699D01*
X208905934Y-61274699D01*
X208700000Y-61254417D01*
X208494067Y-61274699D01*
X208296043Y-61334769D01*
X208242165Y-61363568D01*
X208113550Y-61432315D01*
X208113548Y-61432316D01*
X208113547Y-61432317D01*
X207953589Y-61563589D01*
X207822317Y-61723547D01*
X207724769Y-61906043D01*
X207664699Y-62104067D01*
X207644417Y-62310000D01*
X207215583Y-62310000D01*
X207195300Y-62104066D01*
X207135232Y-61906046D01*
X207037685Y-61723550D01*
X206943582Y-61608884D01*
X206906410Y-61563589D01*
X206756121Y-61440252D01*
X206746450Y-61432315D01*
X206563954Y-61334768D01*
X206365934Y-61274700D01*
X206365932Y-61274699D01*
X206365934Y-61274699D01*
X206160000Y-61254417D01*
X205954067Y-61274699D01*
X205756043Y-61334769D01*
X205702165Y-61363568D01*
X205573550Y-61432315D01*
X205573548Y-61432316D01*
X205573547Y-61432317D01*
X205413589Y-61563589D01*
X205282317Y-61723547D01*
X205184769Y-61906043D01*
X205124699Y-62104067D01*
X205104417Y-62310000D01*
X204120000Y-62310000D01*
X204120000Y-62238111D01*
X204097065Y-62160000D01*
X204761027Y-62160000D01*
X204761027Y-62159999D01*
X204755261Y-62097781D01*
X204696941Y-61892803D01*
X204696933Y-61892783D01*
X204601940Y-61702010D01*
X204473499Y-61531928D01*
X204315999Y-61388348D01*
X204315997Y-61388346D01*
X204134798Y-61276153D01*
X204134789Y-61276149D01*
X203936060Y-61199162D01*
X203936061Y-61199162D01*
X203770000Y-61168119D01*
X203770000Y-61828829D01*
X203762315Y-61825320D01*
X203655763Y-61810000D01*
X203584237Y-61810000D01*
X203477685Y-61825320D01*
X203470000Y-61828829D01*
X203470000Y-61168119D01*
X203303939Y-61199162D01*
X203105210Y-61276149D01*
X203105201Y-61276153D01*
X202924002Y-61388346D01*
X202924000Y-61388348D01*
X202766500Y-61531928D01*
X202638059Y-61702010D01*
X202543066Y-61892783D01*
X202543058Y-61892803D01*
X202484738Y-62097781D01*
X202478972Y-62159999D01*
X202120809Y-62159999D01*
X202115300Y-62104066D01*
X202055232Y-61906046D01*
X201957685Y-61723550D01*
X201863582Y-61608884D01*
X201826410Y-61563589D01*
X201676121Y-61440252D01*
X201666450Y-61432315D01*
X201483954Y-61334768D01*
X201285934Y-61274700D01*
X201285932Y-61274699D01*
X201285934Y-61274699D01*
X201080000Y-61254417D01*
X200874067Y-61274699D01*
X200676043Y-61334769D01*
X200622165Y-61363568D01*
X200493550Y-61432315D01*
X200493548Y-61432316D01*
X200493547Y-61432317D01*
X200333589Y-61563589D01*
X200202317Y-61723547D01*
X200104769Y-61906043D01*
X200044699Y-62104067D01*
X200024417Y-62310000D01*
X199595583Y-62310000D01*
X199575300Y-62104066D01*
X199515232Y-61906046D01*
X199417685Y-61723550D01*
X199323582Y-61608884D01*
X199286410Y-61563589D01*
X199136121Y-61440252D01*
X199126450Y-61432315D01*
X198943954Y-61334768D01*
X198745934Y-61274700D01*
X198745932Y-61274699D01*
X198745934Y-61274699D01*
X198540000Y-61254417D01*
X198334067Y-61274699D01*
X198136043Y-61334769D01*
X198082165Y-61363568D01*
X197953550Y-61432315D01*
X197953548Y-61432316D01*
X197953547Y-61432317D01*
X197793589Y-61563589D01*
X197662317Y-61723547D01*
X197564769Y-61906043D01*
X197504699Y-62104067D01*
X197484417Y-62310000D01*
X197055583Y-62310000D01*
X197035300Y-62104066D01*
X196975232Y-61906046D01*
X196877685Y-61723550D01*
X196783582Y-61608884D01*
X196746410Y-61563589D01*
X196596121Y-61440252D01*
X196586450Y-61432315D01*
X196403954Y-61334768D01*
X196205934Y-61274700D01*
X196205932Y-61274699D01*
X196205934Y-61274699D01*
X196000000Y-61254417D01*
X195794067Y-61274699D01*
X195596043Y-61334769D01*
X195542165Y-61363568D01*
X195413550Y-61432315D01*
X195413548Y-61432316D01*
X195413547Y-61432317D01*
X195253589Y-61563589D01*
X195122317Y-61723547D01*
X195024769Y-61906043D01*
X194964699Y-62104067D01*
X194944417Y-62310000D01*
X193960000Y-62310000D01*
X193960000Y-62238111D01*
X193937065Y-62160000D01*
X194601027Y-62160000D01*
X194601027Y-62159999D01*
X194595261Y-62097781D01*
X194536941Y-61892803D01*
X194536933Y-61892783D01*
X194441940Y-61702010D01*
X194313499Y-61531928D01*
X194155999Y-61388348D01*
X194155997Y-61388346D01*
X193974798Y-61276153D01*
X193974789Y-61276149D01*
X193776060Y-61199162D01*
X193776061Y-61199162D01*
X193610000Y-61168119D01*
X193610000Y-61828829D01*
X193602315Y-61825320D01*
X193495763Y-61810000D01*
X193424237Y-61810000D01*
X193317685Y-61825320D01*
X193310000Y-61828829D01*
X193310000Y-61168119D01*
X193143939Y-61199162D01*
X192945210Y-61276149D01*
X192945201Y-61276153D01*
X192764002Y-61388346D01*
X192764000Y-61388348D01*
X192606500Y-61531928D01*
X192478059Y-61702010D01*
X192383066Y-61892783D01*
X192383058Y-61892803D01*
X192324738Y-62097781D01*
X192318972Y-62159999D01*
X191960809Y-62159999D01*
X191955300Y-62104066D01*
X191895232Y-61906046D01*
X191797685Y-61723550D01*
X191703582Y-61608884D01*
X191666410Y-61563589D01*
X191516121Y-61440252D01*
X191506450Y-61432315D01*
X191323954Y-61334768D01*
X191125934Y-61274700D01*
X191125932Y-61274699D01*
X191125934Y-61274699D01*
X190920000Y-61254417D01*
X190714067Y-61274699D01*
X190516043Y-61334769D01*
X190462165Y-61363568D01*
X190333550Y-61432315D01*
X190333548Y-61432316D01*
X190333547Y-61432317D01*
X190173589Y-61563589D01*
X190042317Y-61723547D01*
X189944769Y-61906043D01*
X189884699Y-62104067D01*
X189864417Y-62310000D01*
X189430500Y-62310000D01*
X189430500Y-61440249D01*
X189430499Y-61440247D01*
X189418868Y-61381770D01*
X189418867Y-61381769D01*
X189374552Y-61315447D01*
X189308230Y-61271132D01*
X189308229Y-61271131D01*
X189249752Y-61259500D01*
X189249748Y-61259500D01*
X187510252Y-61259500D01*
X187510247Y-61259500D01*
X187451770Y-61271131D01*
X187451769Y-61271132D01*
X187385447Y-61315447D01*
X187341132Y-61381769D01*
X187341131Y-61381770D01*
X187329500Y-61440247D01*
X187329500Y-63179752D01*
X185069094Y-63179752D01*
X185026873Y-63003889D01*
X184991292Y-62917989D01*
X184930466Y-62771140D01*
X184798839Y-62556346D01*
X184798838Y-62556343D01*
X184716553Y-62460000D01*
X184635224Y-62364776D01*
X184508571Y-62256604D01*
X184443656Y-62201161D01*
X184443653Y-62201160D01*
X184228859Y-62069533D01*
X183996110Y-61973126D01*
X183751150Y-61914317D01*
X183562884Y-61899500D01*
X183562882Y-61899500D01*
X183437118Y-61899500D01*
X183437116Y-61899500D01*
X183248849Y-61914317D01*
X183003889Y-61973126D01*
X182771140Y-62069533D01*
X182556346Y-62201160D01*
X182556343Y-62201161D01*
X182364776Y-62364776D01*
X182201161Y-62556343D01*
X182201160Y-62556346D01*
X182069533Y-62771140D01*
X181973126Y-63003889D01*
X181914317Y-63248848D01*
X181894551Y-63500000D01*
X180640000Y-63500000D01*
X180640000Y-61198547D01*
X180659685Y-61131508D01*
X180667626Y-61120521D01*
X180715659Y-61061204D01*
X180717532Y-61059004D01*
X180766593Y-61004106D01*
X180880839Y-60883262D01*
X180883244Y-60880856D01*
X181004106Y-60766593D01*
X181023545Y-60749221D01*
X181111994Y-60674531D01*
X181144149Y-60648492D01*
X181236403Y-60579065D01*
X181255589Y-60567195D01*
X181350841Y-60519668D01*
X181387144Y-60508098D01*
X181473486Y-60494670D01*
X181494049Y-60491473D01*
X181513103Y-60490000D01*
X264207948Y-60490000D01*
X264232131Y-60492381D01*
G37*
G04 #@! TD.AperFunction*
M02*
